<svg width="143" height="31" viewBox="0 0 143 31" fill="none" xmlns="http://www.w3.org/2000/svg">
<g clip-path="url(#clip0_1064_1767)">
<path d="M2.62479 14.9535C3.63145 6.52169 11.2451 0.503077 19.6265 1.51579C20.0343 1.56386 20.4389 1.63437 20.8339 1.71449C19.3143 0.884448 17.6164 0.320404 15.7942 0.0992729C8.0563 -0.833323 1.03197 4.72059 0.101769 12.505C-0.474831 17.3283 1.42699 21.8727 4.7974 24.8595C3.04211 22.0009 2.19792 18.5493 2.62798 14.9535H2.62479Z" fill="#0F9B39"/>
<path d="M21.7737 29.9487C13.9817 29.9487 7.66138 23.5935 7.66138 15.7514C7.66138 9.91227 11.1656 4.89996 16.1734 2.7207C9.91044 3.52511 4.74652 8.51498 3.95967 15.1104C3.02946 22.8949 8.55017 29.9647 16.2881 30.8973C18.8621 31.2081 21.3564 30.7979 23.5768 29.8269C22.9875 29.9038 22.3854 29.9455 21.7737 29.9455V29.9487Z" fill="#FFDE0D"/>
<path d="M84.1804 8.80367C83.795 8.57934 83.4891 8.27168 83.2661 7.8839C83.0431 7.49612 82.9316 7.06988 82.9316 6.60518C82.9316 6.14049 83.0431 5.72386 83.2661 5.33608C83.4891 4.9483 83.795 4.64385 84.1804 4.41951C84.5659 4.19518 84.9991 4.08301 85.4738 4.08301C85.7955 4.08301 86.0982 4.13749 86.3881 4.24645C86.678 4.35542 86.9328 4.50925 87.1526 4.71115L86.799 5.12136C86.4231 4.79768 85.993 4.63744 85.512 4.63744C85.1457 4.63744 84.8144 4.72717 84.5149 4.90344C84.2155 5.0797 83.9829 5.32006 83.8109 5.61811C83.6389 5.91936 83.556 6.24625 83.556 6.60518C83.556 6.96412 83.6389 7.29421 83.8077 7.59547C83.9765 7.89672 84.2059 8.14028 84.499 8.31975C84.7921 8.49922 85.117 8.58895 85.4738 8.58895C85.7541 8.58895 86.0185 8.53447 86.2638 8.42871C86.5091 8.32295 86.7225 8.17553 86.9041 7.98325L87.28 8.39987C87.0507 8.63061 86.7767 8.81329 86.4677 8.94468C86.1587 9.07608 85.8242 9.14018 85.4738 9.14018C84.9959 9.14018 84.5659 9.02801 84.1804 8.80367Z" fill="white"/>
<path d="M89.0193 8.80367C88.6338 8.57934 88.328 8.27488 88.105 7.8871C87.882 7.49932 87.7705 7.07629 87.7705 6.61159C87.7705 6.1469 87.882 5.72066 88.105 5.33608C88.328 4.9483 88.6338 4.64385 89.0193 4.41951C89.4047 4.19518 89.838 4.08301 90.3126 4.08301C90.7873 4.08301 91.2142 4.19518 91.6028 4.41951C91.9915 4.64385 92.2973 4.9483 92.5171 5.33608C92.7369 5.72066 92.8484 6.1469 92.8484 6.61159C92.8484 7.07629 92.7369 7.50253 92.5171 7.8871C92.2973 8.27168 91.9915 8.57934 91.6028 8.80367C91.2142 9.02801 90.7841 9.14018 90.3126 9.14018C89.8412 9.14018 89.4047 9.02801 89.0193 8.80367ZM91.2843 8.32295C91.5742 8.14669 91.8035 7.90633 91.9724 7.60508C92.1412 7.30383 92.224 6.97053 92.224 6.6148C92.224 6.25906 92.1412 5.92577 91.9724 5.62451C91.8035 5.32326 91.5742 5.0829 91.2843 4.90664C90.9944 4.73038 90.6694 4.64064 90.3126 4.64064C89.9559 4.64064 89.6309 4.73038 89.3378 4.90664C89.0448 5.0829 88.8122 5.32326 88.6466 5.62451C88.4777 5.92897 88.3949 6.25906 88.3949 6.6148C88.3949 6.97053 88.4777 7.30383 88.6466 7.60508C88.8154 7.90633 89.0448 8.14669 89.3378 8.32295C89.6309 8.49922 89.9559 8.58895 90.3126 8.58895C90.6694 8.58895 90.9912 8.49922 91.2843 8.32295Z" fill="white"/>
<path d="M94.3904 4.15674L96.8211 7.34551C96.9262 7.48652 97.0313 7.64035 97.1365 7.81021C97.2416 7.98006 97.3085 8.08902 97.3403 8.1403V4.15994H97.9424V9.06649H97.3244L94.9384 5.95463C94.8173 5.79439 94.7026 5.62454 94.5943 5.44827C94.486 5.27201 94.4191 5.15663 94.3872 5.10856V9.06649H93.7852V4.15994H94.3872L94.3904 4.15674Z" fill="white"/>
<path d="M102.587 4.15653V4.68532H99.6912V6.17555H102.106V6.69793H99.6912V9.05986H99.0891V4.15332H102.587V4.15653Z" fill="white"/>
<path d="M106.986 4.15653V4.68532H103.903V6.17555H106.792V6.69793H103.903V8.53107H107.101V9.05986H103.301V4.15332H106.986V4.15653Z" fill="white"/>
<path d="M109.771 4.15674C110.277 4.15674 110.723 4.2657 111.112 4.48683C111.497 4.70796 111.797 5.0028 112.007 5.37777C112.217 5.75273 112.322 6.16294 112.322 6.61161C112.322 7.06028 112.217 7.4705 112.007 7.84546C111.797 8.22042 111.497 8.51526 111.112 8.73639C110.726 8.95752 110.28 9.06649 109.771 9.06649H107.92V4.15994H109.771V4.15674ZM110.758 8.28452C111.054 8.11787 111.284 7.89033 111.449 7.59869C111.615 7.30705 111.698 6.98016 111.698 6.61161C111.698 6.24306 111.615 5.91297 111.449 5.62453C111.284 5.3361 111.054 5.10536 110.758 4.93871C110.462 4.77206 110.121 4.68873 109.735 4.68873H108.525V8.53449H109.735C110.121 8.53449 110.462 8.45117 110.758 8.28452Z" fill="white"/>
<path d="M116.951 4.15653V4.68532H113.867V6.17555H116.757V6.69793H113.867V8.53107H117.066V9.05986H113.265V4.15332H116.951V4.15653Z" fill="white"/>
<path d="M119.885 4.15674C120.322 4.15674 120.697 4.24006 121.013 4.40351C121.328 4.56695 121.567 4.78808 121.733 5.0669C121.898 5.34572 121.978 5.65658 121.978 6.00591C121.978 6.35523 121.879 6.68853 121.682 6.98337C121.484 7.27501 121.21 7.49293 120.857 7.63394L122.016 9.06328H121.303L120.309 7.79739C120.169 7.82303 120.009 7.83584 119.834 7.83584H118.487V9.06328H117.885V4.15674H119.885ZM120.659 7.1404C120.876 7.02503 121.041 6.86479 121.163 6.66289C121.284 6.46099 121.344 6.24306 121.344 6.00591C121.344 5.76875 121.284 5.54121 121.163 5.33931C121.041 5.13741 120.876 4.97717 120.662 4.85859C120.449 4.74001 120.207 4.68232 119.936 4.68232H118.483V7.31667H119.93C120.2 7.31667 120.443 7.25898 120.659 7.14361V7.1404Z" fill="white"/>
<path d="M125.227 4.14404L127.515 9.06341H126.906L126.454 8.10838H123.466L123.013 9.06341H122.395L124.683 4.14404H125.224H125.227ZM125.342 5.71119L125.039 5.01575L124.957 4.82666L124.89 4.99331C124.765 5.29456 124.66 5.53492 124.574 5.71119L123.679 7.61804H126.237L125.342 5.71119Z" fill="white"/>
<path d="M129.824 10.608C129.684 10.5631 129.576 10.515 129.499 10.4638L129.665 10.1913C129.831 10.3131 130.038 10.374 130.289 10.374C130.445 10.374 130.573 10.3388 130.672 10.2651C130.77 10.1913 130.821 10.1016 130.821 9.99586C130.821 9.90933 130.786 9.84523 130.719 9.80036C130.652 9.7555 130.57 9.73306 130.474 9.73306C130.394 9.73306 130.312 9.75229 130.226 9.79396C130.14 9.83562 130.079 9.88369 130.038 9.93817L129.713 9.81639L130.12 9.12736C129.69 9.08249 129.302 8.94148 128.958 8.71073C128.614 8.47999 128.346 8.17874 128.152 7.81019C127.957 7.44163 127.862 7.04104 127.862 6.60518C127.862 6.1469 127.973 5.72386 128.196 5.33608C128.419 4.9483 128.725 4.64385 129.111 4.41951C129.496 4.19518 129.929 4.08301 130.404 4.08301C130.726 4.08301 131.028 4.13749 131.318 4.24645C131.608 4.35542 131.863 4.50925 132.083 4.71115L131.729 5.12136C131.353 4.79768 130.923 4.63744 130.442 4.63744C130.076 4.63744 129.745 4.72717 129.445 4.90344C129.146 5.0797 128.913 5.32006 128.741 5.61811C128.569 5.91936 128.486 6.24625 128.486 6.60518C128.486 6.96412 128.569 7.29421 128.738 7.59547C128.907 7.89672 129.136 8.14028 129.429 8.31975C129.722 8.49922 130.047 8.58895 130.404 8.58895C130.684 8.58895 130.949 8.53447 131.194 8.42871C131.439 8.32295 131.653 8.17553 131.834 7.98325L132.21 8.39987C131.99 8.621 131.729 8.79726 131.43 8.92866C131.13 9.06006 130.812 9.13056 130.471 9.14018L130.254 9.53437C130.289 9.51514 130.337 9.49591 130.401 9.47989C130.464 9.46386 130.522 9.45745 130.576 9.45745C130.761 9.45745 130.91 9.50232 131.028 9.59846C131.146 9.69461 131.2 9.81959 131.2 9.97983C131.2 10.1785 131.114 10.342 130.946 10.4766C130.777 10.6112 130.554 10.6785 130.283 10.6785C130.111 10.6785 129.958 10.656 129.818 10.6112L129.824 10.608Z" fill="white"/>
<path d="M135.281 4.14383L137.569 9.06319H136.96L136.508 8.10816H133.52L133.067 9.06319H132.449L134.737 4.14383H135.278H135.281ZM135.393 5.71098L135.09 5.01553L135.007 4.82645L134.94 4.9931C134.816 5.29435 134.711 5.53471 134.625 5.71098L133.73 7.61783H136.288L135.393 5.71098ZM134.201 3.26572C134.303 3.1247 134.437 3.0542 134.603 3.0542C134.692 3.0542 134.775 3.07343 134.845 3.10868C134.915 3.14393 134.998 3.19842 135.093 3.26892C135.163 3.3234 135.224 3.36506 135.275 3.39391C135.326 3.42275 135.377 3.43557 135.434 3.43557C135.52 3.43557 135.581 3.39711 135.619 3.3234C135.657 3.24969 135.676 3.15996 135.676 3.0574H136.024C136.024 3.28815 135.973 3.47723 135.871 3.61824C135.769 3.75925 135.635 3.82976 135.469 3.82976C135.374 3.82976 135.288 3.81053 135.214 3.77207C135.138 3.73362 135.055 3.67913 134.966 3.60863C134.896 3.55415 134.835 3.51249 134.784 3.48364C134.733 3.4548 134.686 3.44198 134.635 3.44198C134.549 3.44198 134.488 3.48044 134.453 3.55735C134.418 3.63427 134.399 3.724 134.399 3.82976H134.052C134.052 3.59901 134.103 3.40993 134.205 3.26892L134.201 3.26572Z" fill="white"/>
<path d="M139.171 8.80367C138.785 8.57934 138.48 8.27488 138.257 7.8871C138.034 7.49932 137.922 7.07629 137.922 6.61159C137.922 6.1469 138.034 5.72066 138.257 5.33608C138.48 4.9483 138.785 4.64385 139.171 4.41951C139.556 4.19518 139.99 4.08301 140.464 4.08301C140.939 4.08301 141.366 4.19518 141.754 4.41951C142.143 4.64385 142.449 4.9483 142.669 5.33608C142.889 5.72066 143 6.1469 143 6.61159C143 7.07629 142.889 7.50253 142.669 7.8871C142.449 8.27168 142.143 8.57934 141.754 8.80367C141.366 9.02801 140.936 9.14018 140.464 9.14018C139.993 9.14018 139.556 9.02801 139.171 8.80367ZM141.436 8.32295C141.726 8.14669 141.955 7.90633 142.124 7.60508C142.293 7.30383 142.376 6.97053 142.376 6.6148C142.376 6.25906 142.293 5.92577 142.124 5.62451C141.955 5.32326 141.726 5.0829 141.436 4.90664C141.146 4.73038 140.821 4.64064 140.464 4.64064C140.107 4.64064 139.783 4.73038 139.489 4.90664C139.196 5.0829 138.964 5.32326 138.798 5.62451C138.629 5.92897 138.547 6.25906 138.547 6.6148C138.547 6.97053 138.629 7.30383 138.798 7.60508C138.967 7.90633 139.196 8.14669 139.489 8.32295C139.783 8.49922 140.107 8.58895 140.464 8.58895C140.821 8.58895 141.143 8.49922 141.436 8.32295Z" fill="white"/>
<path d="M85.3686 13.2166C85.7892 13.2166 86.1268 13.3159 86.3817 13.5146C86.6365 13.7133 86.7608 14.005 86.7608 14.3895C86.7608 14.5914 86.7066 14.7741 86.6015 14.9408C86.4964 15.1074 86.3657 15.226 86.2096 15.2965C86.4964 15.3574 86.7385 15.508 86.9392 15.7516C87.1399 15.9951 87.2418 16.2804 87.2418 16.6137C87.2418 17.088 87.0761 17.4565 86.7448 17.7225C86.4135 17.9885 85.9644 18.1199 85.3973 18.1199H83.1323V13.2134H85.3686V13.2166ZM85.9421 14.9279C86.0663 14.803 86.13 14.6363 86.13 14.4344C86.13 14.2165 86.0599 14.0466 85.9229 13.928C85.786 13.8063 85.5885 13.7454 85.3336 13.7454H83.7376V15.117H85.4324C85.649 15.117 85.8178 15.0529 85.9452 14.9279H85.9421ZM86.2765 17.338C86.4995 17.1681 86.611 16.9309 86.611 16.6233C86.611 16.3156 86.5091 16.0945 86.3052 15.9118C86.1013 15.7291 85.8369 15.6394 85.512 15.6394H83.7344V17.5911H85.3591C85.7446 17.5911 86.0504 17.5078 86.2734 17.338H86.2765Z" fill="white"/>
<path d="M90.179 13.2168C90.6155 13.2168 90.9914 13.3001 91.3068 13.4636C91.6221 13.627 91.8611 13.8481 92.0267 14.127C92.1892 14.4058 92.272 14.7166 92.272 15.066C92.272 15.4153 92.1733 15.7486 91.9757 16.0434C91.7782 16.3351 91.5043 16.553 91.1507 16.694L92.3102 18.1233H91.5967L90.6027 16.8574C90.4626 16.8831 90.3033 16.8959 90.1281 16.8959H88.7806V18.1233H88.1785V13.2168H90.179ZM90.9532 16.2005C91.1698 16.0851 91.3354 15.9249 91.4565 15.7229C91.5775 15.521 91.6381 15.3031 91.6381 15.066C91.6381 14.8288 91.5775 14.6013 91.4565 14.3994C91.3354 14.1975 91.1698 14.0372 90.9563 13.9186C90.7429 13.8001 90.5008 13.7424 90.23 13.7424H88.7774V16.3767H90.2236C90.4944 16.3767 90.7365 16.319 90.9532 16.2037V16.2005Z" fill="white"/>
<path d="M95.5212 13.2036L97.8085 18.123H97.2001L96.7477 17.1679H93.7596L93.3072 18.123H92.6892L94.9765 13.2036H95.5181H95.5212ZM95.6327 14.7676L95.3301 14.0721L95.2473 13.883L95.1804 14.0497C95.0561 14.3541 94.951 14.5913 94.865 14.7676L93.9698 16.6744H96.5279L95.6327 14.7676Z" fill="white"/>
<path d="M98.2673 17.4343L98.5222 16.9792C98.9745 17.4247 99.5257 17.6458 100.179 17.6458C100.526 17.6458 100.829 17.5689 101.087 17.4151C101.345 17.2612 101.475 17.0433 101.475 16.7613C101.475 16.585 101.418 16.4408 101.303 16.3286C101.189 16.2165 101.048 16.1331 100.883 16.0723C100.717 16.0114 100.497 15.9473 100.22 15.8768C99.8602 15.787 99.5575 15.6909 99.3122 15.5883C99.0701 15.489 98.8694 15.3448 98.7101 15.1653C98.5509 14.9858 98.4744 14.7519 98.4744 14.4699C98.4744 14.1878 98.554 13.9475 98.7101 13.7456C98.8662 13.5437 99.0765 13.3962 99.3377 13.2937C99.5989 13.1943 99.8793 13.1431 100.182 13.1431C100.825 13.1431 101.37 13.3257 101.823 13.6879L101.574 14.1494C101.189 13.8481 100.723 13.6943 100.182 13.6943C99.9016 13.6943 99.6467 13.7616 99.4205 13.8898C99.1944 14.0212 99.0829 14.2135 99.0829 14.4666C99.0829 14.6269 99.137 14.7615 99.2421 14.864C99.3473 14.9666 99.4811 15.0499 99.6435 15.1108C99.806 15.1717 100.023 15.2358 100.293 15.3063C100.66 15.396 100.969 15.4954 101.227 15.6044C101.482 15.7133 101.692 15.8607 101.858 16.0466C102.023 16.2325 102.106 16.4696 102.106 16.7581C102.106 17.0754 102.014 17.3446 101.829 17.5593C101.644 17.7772 101.405 17.9374 101.109 18.04C100.816 18.1425 100.504 18.1938 100.172 18.1938C99.3791 18.1938 98.7452 17.9406 98.2673 17.4279V17.4343Z" fill="white"/>
<path d="M103.638 13.2168V18.1233H103.036V13.2168H103.638Z" fill="white"/>
<path d="M105.384 13.2166V17.5911H108.461V18.1199H104.782V13.2134H105.384V13.2166Z" fill="white"/>
<path d="M113.014 13.2166V13.7454H109.93V15.2356H112.819V15.758H109.93V17.5911H113.128V18.1199H109.328V13.2134H113.014V13.2166Z" fill="white"/>
<path d="M114.549 13.2168V18.1233H113.947V13.2168H114.549Z" fill="white"/>
<path d="M117.696 13.2168C118.133 13.2168 118.509 13.3001 118.824 13.4636C119.139 13.627 119.378 13.8481 119.544 14.127C119.707 14.4058 119.789 14.7166 119.789 15.066C119.789 15.4153 119.691 15.7486 119.493 16.0434C119.296 16.3351 119.022 16.553 118.668 16.694L119.828 18.1233H119.114L118.12 16.8574C117.98 16.8831 117.821 16.8959 117.645 16.8959H116.298V18.1233H115.696V13.2168H117.696ZM118.47 16.2005C118.687 16.0851 118.853 15.9249 118.974 15.7229C119.095 15.521 119.155 15.3031 119.155 15.066C119.155 14.8288 119.095 14.6013 118.974 14.3994C118.853 14.1975 118.687 14.0372 118.474 13.9186C118.26 13.8001 118.018 13.7424 117.747 13.7424H116.295V16.3767H117.741C118.012 16.3767 118.254 16.319 118.47 16.2037V16.2005Z" fill="white"/>
<path d="M123.039 13.2036L125.326 18.123H124.718L124.265 17.1679H121.277L120.825 18.123H120.207L122.494 13.2036H123.036H123.039ZM123.15 14.7676L122.848 14.0721L122.765 13.883L122.698 14.0497C122.574 14.3541 122.469 14.5913 122.383 14.7676L121.487 16.6744H124.045L123.15 14.7676Z" fill="white"/>
<path d="M129.487 13.2168C129.993 13.2168 130.439 13.3258 130.828 13.5469C131.213 13.768 131.513 14.0629 131.723 14.4378C131.933 14.8128 132.038 15.223 132.038 15.6717C132.038 16.1203 131.933 16.5338 131.723 16.9055C131.513 17.2805 131.213 17.5753 130.828 17.7965C130.442 18.0144 129.996 18.1265 129.487 18.1265H127.636V13.22H129.487V13.2168ZM130.471 17.3446C130.767 17.1779 130.997 16.9504 131.162 16.6587C131.328 16.3671 131.411 16.0402 131.411 15.6717C131.411 15.3031 131.328 14.973 131.162 14.6846C130.997 14.393 130.767 14.1654 130.471 13.9988C130.175 13.8321 129.834 13.7488 129.448 13.7488H128.238V17.5945H129.448C129.834 17.5945 130.175 17.5112 130.471 17.3446Z" fill="white"/>
<path d="M136.664 13.2166V13.7454H133.58V15.2356H136.469V15.758H133.58V17.5911H136.778V18.1199H132.978V13.2134H136.664V13.2166Z" fill="white"/>
<path d="M84.1804 26.9204C83.795 26.696 83.4891 26.3884 83.2661 26.0006C83.0431 25.6128 82.9316 25.1866 82.9316 24.7219C82.9316 24.2572 83.0431 23.8406 83.2661 23.4528C83.4891 23.065 83.795 22.7605 84.1804 22.5362C84.5659 22.3119 84.9991 22.1997 85.4738 22.1997C85.7955 22.1997 86.0982 22.2542 86.3881 22.3632C86.678 22.4721 86.9328 22.6259 87.1526 22.8278L86.799 23.2381C86.4231 22.9144 85.993 22.7541 85.512 22.7541C85.1457 22.7541 84.8144 22.8439 84.5149 23.0201C84.2155 23.1964 83.9829 23.4336 83.8109 23.7348C83.6389 24.0361 83.556 24.3629 83.556 24.7219C83.556 25.0808 83.6389 25.4109 83.8077 25.7122C83.9765 26.0134 84.2059 26.257 84.499 26.4364C84.7921 26.6159 85.117 26.7057 85.4738 26.7057C85.7541 26.7057 86.0185 26.6512 86.2638 26.5454C86.5091 26.4397 86.7225 26.2922 86.9041 26.0999L87.28 26.5166C87.0507 26.7473 86.7767 26.93 86.4677 27.0614C86.1587 27.1928 85.8242 27.2569 85.4738 27.2569C84.9959 27.2569 84.5659 27.1447 84.1804 26.9204Z" fill="white"/>
<path d="M88.5894 22.2764V27.1829H87.9873V22.2764H88.5894Z" fill="white"/>
<path d="M90.781 26.9204C90.3955 26.696 90.0897 26.3884 89.8667 26.0006C89.6437 25.6128 89.5322 25.1866 89.5322 24.7219C89.5322 24.2572 89.6437 23.8406 89.8667 23.4528C90.0897 23.065 90.3955 22.7605 90.781 22.5362C91.1665 22.3119 91.5997 22.1997 92.0744 22.1997C92.3961 22.1997 92.6988 22.2542 92.9886 22.3632C93.2785 22.4721 93.5334 22.6259 93.7532 22.8278L93.3996 23.2381C93.0237 22.9144 92.5936 22.7541 92.1126 22.7541C91.7462 22.7541 91.4149 22.8439 91.1155 23.0201C90.816 23.1964 90.5835 23.4336 90.4115 23.7348C90.2394 24.0361 90.1566 24.3629 90.1566 24.7219C90.1566 25.0808 90.2394 25.4109 90.4083 25.7122C90.5771 26.0134 90.8065 26.257 91.0996 26.4364C91.3926 26.6159 91.7176 26.7057 92.0744 26.7057C92.3547 26.7057 92.6191 26.6512 92.8644 26.5454C93.1097 26.4397 93.3231 26.2922 93.5047 26.0999L93.8806 26.5166C93.6513 26.7473 93.3773 26.93 93.0683 27.0614C92.7593 27.1928 92.4248 27.2569 92.0744 27.2569C91.5965 27.2569 91.1665 27.1447 90.781 26.9204Z" fill="white"/>
<path d="M95.19 22.2766V26.6512H98.2673V27.18H94.5879V22.2734H95.19V22.2766Z" fill="white"/>
<path d="M99.7327 22.2764V27.1829H99.1306V22.2764H99.7327Z" fill="white"/>
<path d="M100.666 26.4939L100.921 26.0388C101.373 26.4842 101.924 26.7054 102.577 26.7054C102.925 26.7054 103.227 26.6285 103.485 26.4746C103.743 26.3208 103.874 26.1029 103.874 25.8209C103.874 25.6446 103.817 25.5004 103.702 25.3882C103.587 25.276 103.447 25.1927 103.281 25.1318C103.116 25.0709 102.896 25.0068 102.619 24.9363C102.259 24.8466 101.956 24.7505 101.711 24.6479C101.469 24.5485 101.268 24.4043 101.109 24.2249C100.95 24.0422 100.873 23.8114 100.873 23.5294C100.873 23.2474 100.953 23.007 101.109 22.8051C101.268 22.6064 101.475 22.4558 101.736 22.3533C101.998 22.2539 102.278 22.2026 102.581 22.2026C103.224 22.2026 103.769 22.3853 104.221 22.7475L103.973 23.2089C103.587 22.9077 103.122 22.7539 102.581 22.7539C102.3 22.7539 102.045 22.8212 101.819 22.9494C101.593 23.0808 101.482 23.273 101.482 23.523C101.482 23.6833 101.536 23.8179 101.641 23.9204C101.746 24.023 101.88 24.1063 102.042 24.1672C102.205 24.2281 102.421 24.2922 102.692 24.3627C103.058 24.4524 103.367 24.5518 103.625 24.6607C103.88 24.7697 104.091 24.9171 104.256 25.103C104.422 25.2889 104.505 25.526 104.505 25.8144C104.505 26.1317 104.412 26.4009 104.228 26.6156C104.043 26.8336 103.804 26.9938 103.508 27.0964C103.211 27.1989 102.902 27.2502 102.571 27.2502C101.778 27.2502 101.144 26.997 100.666 26.4842V26.4939Z" fill="white"/>
<path d="M105.973 22.2764L107.162 23.9429L107.952 25.0774L108.742 23.9493L109.93 22.2764H110.465V27.1829H109.863V23.2987C109.847 23.3275 109.809 23.3948 109.742 23.5006C109.675 23.6032 109.596 23.7249 109.5 23.8595L107.949 26.0548L106.391 23.8435C106.302 23.7121 106.222 23.5967 106.158 23.4942C106.094 23.3916 106.053 23.3275 106.037 23.2987V27.1829H105.435V22.2764H105.97H105.973Z" fill="white"/>
<path d="M112.647 26.9204C112.262 26.696 111.956 26.3916 111.733 26.0038C111.51 25.616 111.398 25.193 111.398 24.7283C111.398 24.2636 111.51 23.8374 111.733 23.4528C111.956 23.065 112.262 22.7605 112.647 22.5362C113.033 22.3119 113.466 22.1997 113.941 22.1997C114.415 22.1997 114.842 22.3119 115.231 22.5362C115.619 22.7605 115.925 23.065 116.145 23.4528C116.365 23.8374 116.476 24.2636 116.476 24.7283C116.476 25.193 116.365 25.6192 116.145 26.0038C115.925 26.3884 115.619 26.696 115.231 26.9204C114.842 27.1447 114.412 27.2569 113.941 27.2569C113.469 27.2569 113.033 27.1447 112.647 26.9204ZM114.912 26.4397C115.202 26.2634 115.431 26.023 115.6 25.7218C115.769 25.4173 115.852 25.0872 115.852 24.7315C115.852 24.3758 115.769 24.0425 115.6 23.7412C115.431 23.4368 115.202 23.1996 114.912 23.0233C114.622 22.8471 114.297 22.7573 113.941 22.7573C113.584 22.7573 113.259 22.8471 112.966 23.0233C112.673 23.1996 112.44 23.44 112.274 23.7412C112.106 24.0425 112.023 24.3758 112.023 24.7315C112.023 25.0872 112.106 25.4205 112.274 25.7218C112.443 26.023 112.673 26.2634 112.966 26.4397C113.259 26.6159 113.584 26.7057 113.941 26.7057C114.297 26.7057 114.619 26.6159 114.912 26.4397Z" fill="white"/>
<path d="M52.0852 17.5304C51.5532 16.5978 50.7982 15.8223 49.8234 15.1974C49.1257 14.7519 48.3293 14.4026 47.4341 14.143C48.0617 13.7071 48.581 13.1815 48.9855 12.5566C49.6067 11.6016 49.9158 10.4959 49.9158 9.24604C49.9158 8.07309 49.6163 7.04114 49.0206 6.14701C48.4249 5.25287 47.5998 4.56063 46.5485 4.06068C45.4973 3.56394 44.2708 3.31396 42.8787 3.31396H36.2239V3.36845L39.8428 6.12457L40.6997 6.18546H42.8787C44.1211 6.18546 45.1086 6.50594 45.8445 7.14049C46.5804 7.77825 46.9467 8.62111 46.9467 9.66587C46.9467 10.6113 46.5899 11.4125 45.8827 12.0759C45.1723 12.7393 44.2995 13.0694 43.2578 13.0694C42.4454 13.0694 41.735 12.9027 41.1266 12.5726C40.8303 12.4124 36.2207 8.91274 36.2207 8.91274V28.1864H44.2835C45.956 28.1864 47.4405 27.8627 48.7339 27.2121C50.0272 26.5616 51.0403 25.6706 51.7762 24.5329C52.512 23.3984 52.8784 22.1037 52.8784 20.6487C52.8784 19.5014 52.6108 18.463 52.0788 17.5304H52.0852ZM49.0588 23.0427C48.5905 23.7445 47.9438 24.2926 47.1188 24.6868C46.2937 25.0841 45.3507 25.2925 44.2835 25.3181H39.263V14.3737C39.7185 14.8064 40.276 15.1525 40.9354 15.4057C41.5949 15.662 42.369 15.8383 43.2546 15.9409C44.7518 16.0947 45.9751 16.3671 46.9244 16.7645C47.8738 17.1619 48.5842 17.6779 49.0556 18.3156C49.5239 18.9534 49.7597 19.7321 49.7597 20.6487C49.7597 21.5653 49.5239 22.3376 49.0556 23.0395L49.0588 23.0427Z" fill="white"/>
<path d="M29.4639 21.796C28.5497 22.9945 27.4347 23.94 26.1158 24.629C24.797 25.318 23.3507 25.6609 21.7802 25.6609C20.4358 25.6609 19.1807 25.4078 18.0148 24.895C16.8488 24.3854 15.8199 23.6772 14.9342 22.7702C14.0455 21.8665 13.3478 20.8121 12.8413 19.6135C12.3348 18.4149 12.0799 17.1266 12.0799 15.7485C12.0799 14.3704 12.3316 13.0821 12.8413 11.8835C13.3478 10.6849 14.0455 9.63375 14.9342 8.72679C15.823 7.82304 16.8488 7.11478 18.0148 6.60201C19.1807 6.09245 20.4358 5.83607 21.7802 5.83607C23.2519 5.83607 24.6122 6.13732 25.8673 6.73661C27.1225 7.33591 28.1992 8.15954 29.1008 9.20431C29.9991 10.2491 30.6522 11.4445 31.0567 12.7937C31.6748 12.1912 32.64 11.2586 33.4715 10.4606C33.0414 9.49274 32.4935 8.58899 31.8181 7.74933C30.6267 6.26871 29.1613 5.10217 27.4251 4.24969C25.689 3.39401 23.8062 2.96777 21.777 2.96777C20.0026 2.96777 18.3397 3.29146 16.7947 3.94203C15.2464 4.59261 13.8862 5.50597 12.7075 6.67893C11.5288 7.85188 10.6082 9.21072 9.94873 10.7554C9.2893 12.3001 8.96118 13.9634 8.96118 15.7485C8.96118 17.5336 9.2893 19.2001 9.94873 20.7416C10.6082 22.2863 11.5288 23.6451 12.7075 24.8181C13.8862 25.991 15.2496 26.9044 16.7947 27.555C18.3397 28.2055 20.0026 28.5292 21.777 28.5292C23.9305 28.5292 25.9088 28.0581 27.7118 27.1127C29.5117 26.1705 31.009 24.8886 32.2004 23.267C32.9649 22.2286 33.5447 21.1005 33.9429 19.8859L31.2829 17.79C30.9771 19.2642 30.3718 20.6006 29.4607 21.796H29.4639Z" fill="white"/>
<path d="M74.324 21.796C73.4098 22.9945 72.2948 23.94 70.9759 24.629C69.6571 25.318 68.2108 25.6609 66.6403 25.6609C65.296 25.6609 64.0408 25.4078 62.8749 24.895C61.7089 24.3854 60.68 23.6772 59.7944 22.7702C58.9056 21.8665 58.2079 20.8121 57.7014 19.6135C57.1949 18.4149 56.94 17.1266 56.94 15.7485C56.94 14.3704 57.1917 13.0821 57.7014 11.8835C58.2079 10.6849 58.9056 9.63375 59.7944 8.72679C60.6831 7.82304 61.7089 7.11478 62.8749 6.60201C64.0408 6.09245 65.296 5.83607 66.6403 5.83607C68.1121 5.83607 69.4723 6.13732 70.7275 6.73661C71.9826 7.33591 73.0593 8.15954 73.9609 9.20431C74.8592 10.2491 75.5123 11.4445 75.9169 12.7937C76.5349 12.1912 77.5001 11.2586 78.3316 10.4606C77.9015 9.49274 77.3536 8.58899 76.6782 7.74933C75.4868 6.26871 74.0214 5.10217 72.2852 4.24969C70.5491 3.39401 68.6664 2.96777 66.6371 2.96777C64.8627 2.96777 63.1998 3.29146 61.6548 3.94203C60.1065 4.59261 58.7463 5.50597 57.5676 6.67893C56.3889 7.85188 55.4683 9.21072 54.8088 10.7554C54.1494 12.3001 53.8213 13.9634 53.8213 15.7485C53.8213 17.5336 54.1494 19.2001 54.8088 20.7416C55.4683 22.2863 56.3889 23.6451 57.5676 24.8181C58.7463 25.991 60.1097 26.9044 61.6548 27.555C63.1998 28.2055 64.8627 28.5292 66.6371 28.5292C68.7906 28.5292 70.7689 28.0581 72.5719 27.1127C74.3718 26.1705 75.8691 24.8886 77.0605 23.267C77.8251 22.2286 78.4048 21.1005 78.803 19.8859L76.143 17.79C75.8372 19.2642 75.2319 20.6006 74.3209 21.796H74.324Z" fill="white"/>
</g>
<defs>
<clipPath id="clip0_1064_1767">
<rect width="143" height="31" fill="white"/>
</clipPath>
</defs>
</svg>
