<svg width="87" height="89" viewBox="0 0 87 89" fill="none" xmlns="http://www.w3.org/2000/svg">
<g clip-path="url(#clip0_2461_11478)">
<g clip-path="url(#clip1_2461_11478)">
<path d="M57.6715 16H28.3431C12.2037 16 -1 29.0525 -1 44.9928C-1 60.933 12.2037 73.9856 28.3285 73.9856H57.6569C73.7963 73.9856 86.9854 60.933 86.9854 44.9928C86.9854 29.0525 73.7963 16 57.6715 16ZM57.6715 70.3759H28.3431C14.2631 70.3759 2.68066 58.9261 2.68066 45.0072C2.68066 31.0884 14.2485 19.6241 28.3285 19.6241H57.6569C71.7369 19.6241 83.3193 31.0739 83.3193 44.9928C83.3193 58.9116 71.7369 70.3615 57.6569 70.3615L57.6715 70.3759Z" fill="white"/>
<path d="M66.7562 44.9932C66.7562 37.8894 60.8847 32.2295 53.8447 32.2295H32.2865C25.1005 32.2295 19.375 38.0338 19.375 44.9932C19.375 51.9527 25.2465 57.757 32.2865 57.757H53.8447C60.8847 57.757 66.7562 52.0971 66.7562 44.9932ZM53.7133 54.1329H32.3011C27.1745 54.1329 23.0557 50.0756 23.0557 44.9932C23.0557 39.9108 27.1599 35.8536 32.3011 35.8536H53.8593C58.986 35.8536 63.1048 39.9108 63.1048 44.9932C63.1048 50.0756 58.8545 54.1329 53.7133 54.1329Z" fill="white"/>
<path d="M37.5736 59.5039H33.9075C32.8851 59.5039 31.9941 60.3702 31.9941 61.3954C31.9941 62.4205 32.8705 63.2868 33.9075 63.2868H37.5736C38.596 63.2868 39.4723 62.4205 39.4723 61.3954C39.4723 60.3702 38.4499 59.5039 37.5736 59.5039Z" fill="white"/>
<path d="M52.2379 59.5039H46.6585C45.6361 59.5039 44.7451 60.3702 44.7451 61.3954C44.7451 62.4205 45.6215 63.1424 46.6585 63.1424H52.2379C53.2603 63.1424 54.1513 62.2761 54.1513 61.251C54.1513 60.2258 53.1289 59.5039 52.2379 59.5039Z" fill="white"/>
<path d="M64.4198 58.623C62.8131 59.2005 61.1919 59.4893 59.5852 59.4893C58.5628 59.4893 57.6719 60.3556 57.6719 61.3808C57.6719 62.4059 58.5482 63.2722 59.5852 63.2722C61.6447 63.2722 63.6895 62.9834 65.7489 62.2615C66.7713 61.9727 67.2095 60.962 66.9174 59.9369C66.3331 58.7818 65.3107 58.3486 64.4198 58.6374V58.623Z" fill="white"/>
<path d="M74.9792 50.7967C74.1028 50.3635 72.9198 50.6523 72.4816 51.5186C72.0434 52.3849 71.4592 53.2512 70.8749 53.9876C70.2907 54.7095 70.2907 55.8791 71.1671 56.601C71.8974 57.1785 73.0804 57.1785 73.8107 56.3122C74.541 55.3015 75.2713 54.2764 75.8701 53.2657C76.3083 52.3994 75.8701 51.3742 74.9938 50.7967H74.9792Z" fill="white"/>
<path d="M77.3159 40.9353C77.0238 39.9246 76.1474 39.3471 75.1104 39.6359C74.088 39.9246 73.5038 40.7909 73.7959 41.8161C74.088 42.8268 74.088 43.9963 74.088 45.007C74.088 46.0177 74.9644 46.8985 76.0014 46.8985C77.0384 46.8985 77.9001 46.0322 77.9001 45.007C77.9001 43.7076 77.608 42.2493 77.3159 40.9498V40.9353Z" fill="white"/>
<path d="M73.5045 36.1565C74.2348 35.579 74.3808 34.4094 73.7966 33.5431C72.9202 32.5324 72.0439 31.6516 71.0069 30.7853C70.2766 30.2078 69.1081 30.2078 68.3632 31.0741C67.779 31.796 67.779 32.9656 68.6553 33.6875C69.3856 34.265 70.1159 34.987 70.8608 35.8677C71.5911 36.734 72.7596 36.734 73.5045 36.1565Z" fill="white"/>
<path d="M65.5878 27.8828C63.6744 27.1608 61.6296 26.8721 59.4241 26.8721C58.4017 26.8721 57.5107 27.7384 57.5107 28.7635C57.5107 29.7887 58.3871 30.655 59.4241 30.655C61.0307 30.655 62.798 30.9438 64.2586 31.5213C65.135 31.8101 66.318 31.3769 66.6102 30.3662C67.0483 29.3555 66.6102 28.186 65.5878 27.8972V27.8828Z" fill="white"/>
<path d="M46.6731 30.4968H50.3392C51.3616 30.4968 52.2379 29.6305 52.2379 28.6053C52.2379 27.5802 51.3616 26.7139 50.3392 26.7139H46.6731C45.6507 26.7139 44.7598 27.5802 44.7598 28.6053C44.9058 29.616 45.6361 30.4968 46.6731 30.4968Z" fill="white"/>
<path d="M30.2415 30.4968H35.8209C36.8433 30.4968 37.7197 29.6305 37.7197 28.6053C37.7197 27.5802 36.8433 26.7139 35.8209 26.7139H30.2415C29.2191 26.7139 28.3281 27.5802 28.3281 28.6053C28.3281 29.6305 29.2045 30.4968 30.2415 30.4968Z" fill="white"/>
<path d="M22.764 29.0525C22.4719 28.0418 21.4495 27.6086 20.4125 27.8974C18.9519 28.3306 17.6228 29.0525 16.3082 29.9332C15.4319 30.5108 15.2858 31.6659 15.8701 32.4022C16.4543 33.2686 17.6374 33.413 18.3677 32.8354C19.3901 32.1135 20.4271 31.6803 21.5955 31.2472C22.618 30.9584 23.0561 29.9477 22.764 29.0669V29.0525Z" fill="white"/>
<path d="M11.9111 44.993C11.9111 42.6683 12.4954 40.3582 13.5178 38.3223C13.9559 37.456 13.6638 36.2865 12.7875 35.8533C11.9111 35.4201 10.7281 35.7089 10.2899 36.5752C8.97536 39.1886 8.23047 41.9464 8.23047 44.8341C8.23047 45.8448 9.10682 46.7256 10.1438 46.7256C11.0202 46.87 11.9111 46.0037 11.9111 44.9785V44.993Z" fill="white"/>
<path d="M13.5183 51.6636C13.0801 50.7973 11.9117 50.3641 11.0207 50.9417C10.1444 51.3748 9.7062 52.5299 10.2904 53.4107C11.0207 54.7102 11.8971 56.0241 12.9341 57.1792C13.6644 57.9011 14.8474 58.0455 15.5777 57.3236C16.308 56.6016 16.4541 55.4321 15.7238 54.7102C14.7014 53.6995 13.9565 52.6743 13.5183 51.6636Z" fill="white"/>
<path d="M26.5757 59.5039C24.969 59.5039 23.2017 59.2152 21.7412 58.6376C20.7187 58.3489 19.6817 58.782 19.3896 59.7927C19.0975 60.8034 19.5357 61.8286 20.5581 62.1173C22.4568 62.8393 24.5163 63.128 26.7217 63.128C27.7441 63.128 28.6351 62.2617 28.6351 61.2366C28.6351 60.2114 27.4666 59.4895 26.5757 59.4895V59.5039Z" fill="white"/>
</g>
</g>
<defs>
<clipPath id="clip0_2461_11478">
<rect width="87" height="89" fill="white"/>
</clipPath>
<clipPath id="clip1_2461_11478">
<rect width="88" height="58" fill="white" transform="translate(-1 16)"/>
</clipPath>
</defs>
</svg>
