<svg width="449" height="492" viewBox="0 0 449 492" fill="none" xmlns="http://www.w3.org/2000/svg">
<g clip-path="url(#clip0_3614_5334)">
<path d="M157.111 278.165L114.436 401.888L0 488.665V492H271.488L284.925 455.686L351.442 413.684L391.507 300.05L157.111 278.165Z" fill="#FFAF99"/>
<path d="M271.489 492L284.925 455.686L351.443 413.684H295.319L273.467 450.244L224.05 492H271.489Z" fill="#F29A86"/>
<path d="M438.173 184.905L305.782 261.337L284.141 223.852L416.531 147.421C426.89 141.441 440.128 144.987 446.097 155.344C452.078 165.701 448.532 178.937 438.173 184.905Z" fill="#FFAF99"/>
<path d="M446.097 155.344C445.769 154.782 445.43 154.244 445.067 153.729C446.331 162.248 442.398 171.072 434.474 175.637L302.084 252.068L285.381 223.138L284.141 223.852L305.782 261.337L438.173 184.905C448.532 178.925 452.078 165.689 446.097 155.344Z" fill="#F29A86"/>
<path d="M349.979 75.0973H229.024C212.165 75.0973 198.498 88.762 198.498 105.618V416.212C198.498 433.069 212.165 446.733 229.024 446.733H349.979C366.838 446.733 380.505 433.069 380.505 416.212V105.618C380.505 88.762 366.838 75.0973 349.979 75.0973Z" fill="#5CB5AF"/>
<path d="M380.621 102.985H198.369V402.848H380.621V102.985Z" fill="#A7D8D3"/>
<path d="M329.145 91.8908H249.846C248.348 91.8908 247.143 90.6855 247.143 89.1875C247.143 87.6895 248.348 86.4841 249.846 86.4841H329.145C330.643 86.4841 331.849 87.6895 331.849 89.1875C331.849 90.6855 330.643 91.8908 329.145 91.8908Z" fill="#5CB5AF"/>
<path d="M349.768 417.979H341.598C340.984 417.979 340.486 418.477 340.486 419.091V427.26C340.486 427.874 340.984 428.372 341.598 428.372H349.768C350.382 428.372 350.88 427.874 350.88 427.26V419.091C350.88 418.477 350.382 417.979 349.768 417.979Z" stroke="#FFFBE1" stroke-width="0.95" stroke-miterlimit="10"/>
<path d="M237.602 427.904C237.602 428.512 237.181 428.758 236.654 428.43L229.058 423.749C228.531 423.433 228.531 422.906 229.058 422.579L236.654 417.898C237.181 417.582 237.602 417.816 237.602 418.424V427.892V427.904Z" stroke="#FFFBE1" stroke-width="0.95" stroke-miterlimit="10"/>
<path d="M295.318 423.176C295.318 426.043 292.988 428.372 290.121 428.372C287.253 428.372 284.924 426.043 284.924 423.176C284.924 420.308 287.253 417.979 290.121 417.979C292.988 417.979 295.318 420.308 295.318 423.176Z" stroke="#FFFBE1" stroke-width="0.95" stroke-miterlimit="10"/>
<path d="M351.36 233.203H240.108C237.826 233.203 235.965 231.354 235.965 229.06C235.965 226.778 237.814 224.917 240.108 224.917H351.36C353.643 224.917 355.504 226.766 355.504 229.06C355.504 231.342 353.655 233.203 351.36 233.203Z" fill="white"/>
<path d="M351.36 249.131H240.108C237.826 249.131 235.965 247.282 235.965 244.988C235.965 242.706 237.814 240.845 240.108 240.845H351.36C353.643 240.845 355.504 242.694 355.504 244.988C355.504 247.27 353.655 249.131 351.36 249.131Z" fill="white"/>
<path d="M351.36 265.046H240.108C237.826 265.046 235.965 263.197 235.965 260.904C235.965 258.622 237.814 256.761 240.108 256.761H351.36C353.643 256.761 355.504 258.61 355.504 260.904C355.504 263.186 353.655 265.046 351.36 265.046Z" fill="white"/>
<path d="M351.36 280.974H240.108C237.826 280.974 235.965 279.125 235.965 276.831C235.965 274.549 237.814 272.688 240.108 272.688H351.36C353.643 272.688 355.504 274.538 355.504 276.831C355.504 279.113 353.655 280.974 351.36 280.974Z" fill="white"/>
<path d="M351.36 296.902H240.108C237.826 296.902 235.965 295.053 235.965 292.759C235.965 290.477 237.814 288.616 240.108 288.616H351.36C353.643 288.616 355.504 290.465 355.504 292.759C355.504 295.041 353.655 296.902 351.36 296.902Z" fill="white"/>
<path d="M222.329 229.259C222.329 231.437 224.095 233.203 226.273 233.203C228.452 233.203 230.218 231.437 230.218 229.259V228.861C230.218 226.683 228.452 224.917 226.273 224.917C224.095 224.917 222.329 226.683 222.329 228.861V229.259Z" fill="white"/>
<path d="M222.329 245.187C222.329 247.365 224.095 249.131 226.273 249.131C228.452 249.131 230.218 247.365 230.218 245.187V244.789C230.218 242.611 228.452 240.845 226.273 240.845C224.095 240.845 222.329 242.611 222.329 244.789V245.187Z" fill="white"/>
<path d="M222.329 261.103C222.329 263.281 224.095 265.047 226.273 265.047C228.452 265.047 230.218 263.281 230.218 261.103V260.705C230.218 258.527 228.452 256.761 226.273 256.761C224.095 256.761 222.329 258.527 222.329 260.705V261.103Z" fill="white"/>
<path d="M222.329 277.042C222.329 279.22 224.095 280.986 226.273 280.986C228.452 280.986 230.218 279.22 230.218 277.042V276.644C230.218 274.466 228.452 272.7 226.273 272.7C224.095 272.7 222.329 274.466 222.329 276.644V277.042Z" fill="white"/>
<path d="M222.329 292.958C222.329 295.136 224.095 296.902 226.273 296.902C228.452 296.902 230.218 295.136 230.218 292.958V292.56C230.218 290.382 228.452 288.616 226.273 288.616C224.095 288.616 222.329 290.382 222.329 292.56V292.958Z" fill="white"/>
<path d="M252.901 282.32L178.46 245.351C166.72 239.522 152.51 242.343 143.908 252.244L128.282 270.196C119.784 279.956 115.103 292.466 115.103 305.41V399.033L151.855 347.938L159.521 323.982L164.999 328.745L183.75 307.2L228.824 329.576C241.77 336.001 257.746 331.285 264.523 318.529C271.558 305.293 266.244 288.955 252.901 282.332V282.32Z" fill="#FFAF99"/>
<path d="M250.478 299.23L219.262 283.268L226.554 269.014L263.201 287.75C265.635 288.99 266.607 291.986 265.354 294.421C262.58 299.851 255.921 302.004 250.478 299.23Z" fill="#FFC9BD"/>
<path d="M233.038 319.336L174.644 290.266L187.144 371.578L187.249 308.944L228.812 329.576C241.758 336.001 257.734 331.285 264.511 318.529C265.834 316.036 266.724 313.438 267.203 310.816C259.771 321.653 245.094 325.328 233.038 319.348V319.336Z" fill="#F29A86"/>
<g style="mix-blend-mode:multiply" opacity="0.5">
<path d="M230.522 327.551L187.262 306.006V318.4L226.308 337.78C239.254 344.205 255.23 339.488 262.007 326.732C263.33 324.24 264.219 321.641 264.699 319.02C257.267 329.857 242.589 333.532 230.534 327.551H230.522Z" fill="#A3C1C4"/>
</g>
<path d="M417.316 256.41L391.53 271.296C379.17 278.435 363.369 274.198 356.241 261.84C349.101 249.482 353.338 233.683 365.698 226.556L391.484 211.67C403.844 204.531 419.645 208.767 426.773 221.126C433.913 233.484 429.676 249.283 417.316 256.41Z" fill="#FFAF99"/>
<path d="M384.976 264.028C376.665 268.908 365.979 266.135 361.098 257.826C356.217 249.517 358.991 238.832 367.302 233.952C375.612 229.072 393.286 259.16 384.976 264.04V264.028Z" fill="#FFC9BD"/>
<path d="M426.773 221.126C425.977 219.745 425.064 218.481 424.069 217.299C428.189 228.826 423.624 241.992 412.657 248.335L386.872 263.221C375.893 269.552 362.198 266.919 354.286 257.592C354.801 259.043 355.445 260.459 356.252 261.84C363.392 274.198 379.182 278.423 391.542 271.296L417.327 256.41C429.687 249.271 433.913 233.484 426.784 221.126H426.773Z" fill="#F29A86"/>
<g style="mix-blend-mode:multiply" opacity="0.5">
<path d="M380.622 328.605V321.068C371.832 322.461 363.042 319.441 357.798 312.736C358.278 314.351 358.933 315.942 359.811 317.452C364.06 324.825 372.101 328.757 380.622 328.605Z" fill="#A3C1C4"/>
</g>
<g style="mix-blend-mode:multiply" opacity="0.5">
<path d="M380.622 278.446V269.728C371.316 271.869 361.426 268.709 355.141 261.313C355.656 262.764 356.299 264.18 357.107 265.561C362.093 274.198 371.305 278.856 380.622 278.446Z" fill="#A3C1C4"/>
</g>
<g style="mix-blend-mode:multiply" opacity="0.5">
<path d="M380.622 355.638C375.729 355.767 370.919 353.883 367.478 350.313C367.688 350.77 367.911 351.226 368.168 351.671C370.907 356.411 375.554 359.36 380.622 360.144V355.638Z" fill="#A3C1C4"/>
</g>
<path d="M369.572 280.471L393.18 266.849C405.54 259.71 420.815 263.045 427.299 274.268C433.784 285.503 429.031 300.389 416.671 307.528L393.063 321.15C380.703 328.289 365.429 324.965 358.944 313.73C352.46 302.496 357.212 287.61 369.572 280.471Z" fill="#FFAF99"/>
<path d="M387.141 313.953C378.831 318.833 368.379 316.469 363.802 308.663C359.214 300.857 362.246 290.582 370.544 285.702C378.854 280.822 395.452 309.073 387.141 313.953Z" fill="#FFC9BD"/>
<path d="M427.3 274.268C426.785 273.379 426.211 272.571 425.591 271.776C428.634 282.168 423.636 294.14 412.95 300.307L389.342 313.929C377.953 320.506 364.118 318.177 356.932 308.991C357.412 310.606 358.067 312.197 358.945 313.707C365.429 324.942 380.704 328.265 393.064 321.127L416.672 307.504C429.032 300.366 433.784 285.48 427.3 274.245V274.268Z" fill="#F29A86"/>
<path d="M373.506 325.597L389.751 316.211C398.261 311.296 409.076 314.105 413.91 322.484C418.744 330.863 415.771 341.63 407.262 346.545L391.016 355.931C382.506 360.846 371.691 358.037 366.857 349.658C362.023 341.279 364.996 330.512 373.506 325.597Z" fill="#FFAF99"/>
<path d="M388.885 351.636C382.319 355.498 374.056 353.625 370.439 347.458C366.822 341.291 369.198 333.169 375.776 329.307C382.354 325.445 395.463 347.774 388.897 351.636H388.885Z" fill="#FFC9BD"/>
<path d="M413.909 322.496C413.183 321.244 412.317 320.144 411.369 319.149C415.173 327.294 412.083 337.206 404.03 341.852L387.784 351.238C380.539 355.416 371.644 353.988 366.166 348.312C366.377 348.769 366.599 349.225 366.857 349.67C371.691 358.049 382.517 360.858 391.015 355.943L407.261 346.557C415.77 341.642 418.743 330.875 413.909 322.496Z" fill="#F29A86"/>
<path d="M279.834 0H56.4866C44.5535 0 34.8799 9.67221 34.8799 21.6035V135.695C34.8799 147.626 44.5535 157.298 56.4866 157.298H279.834C291.767 157.298 301.44 147.626 301.44 135.695V21.6035C301.44 9.67221 291.767 0 279.834 0Z" fill="#DC4040"/>
<path d="M168.16 145.139C204.883 145.139 234.654 115.373 234.654 78.655C234.654 41.9369 204.883 12.171 168.16 12.171C131.436 12.171 101.666 41.9369 101.666 78.655C101.666 115.373 131.436 145.139 168.16 145.139Z" fill="white"/>
<path d="M220.433 215.204L256.53 152.687H184.336L220.433 215.204Z" fill="#DC4040"/>
<g clip-path="url(#clip1_3614_5334)">
<path d="M133 110.257C133 110.918 133.094 111.556 133.247 112.17C134.094 115.517 137.1 117.999 140.683 117.999H195.315C198.904 117.999 201.906 115.517 202.751 112.17C202.906 111.556 202.999 110.918 202.999 110.257V109.026H133V110.257Z" fill="#DC4040"/>
<path d="M198.2 65.8034H193.084V56.424H193.245C193.245 38.1263 173.946 24.2775 154.779 34.4432C147.318 38.4002 142.76 46.3187 142.76 54.8115V65.8034H137.803C135.15 65.8034 133.002 67.9667 133.002 70.6381V109.027H203.002V70.6381C203.002 67.9682 200.854 65.8048 198.201 65.8048L198.2 65.8034ZM171.221 92.3995V98.5022H164.783V92.3995C163.947 91.8811 163.242 91.1684 162.73 90.326C162.673 90.2317 162.618 90.136 162.566 90.0388C162.555 90.0182 162.543 89.9991 162.533 89.9785C161.541 88.0773 161.509 85.5929 163.097 83.135C163.157 83.0437 163.22 82.9554 163.289 82.8699C163.334 82.814 163.384 82.761 163.434 82.708C163.458 82.68 163.482 82.6505 163.508 82.624C163.526 82.6063 163.546 82.5901 163.564 82.5725C163.672 82.4679 163.787 82.3722 163.909 82.2838C163.944 82.2588 163.976 82.2308 164.011 82.2087C164.103 82.1483 164.194 82.0894 164.286 82.0335C168.134 79.6787 172.089 81.3546 173.562 84.456C173.946 85.266 174.161 86.1716 174.161 87.1289C174.161 89.3658 172.977 91.3083 171.218 92.3995H171.221ZM182.073 65.8034H153.827V54.8424C153.827 50.8191 155.84 47.0388 159.213 44.8799C169.811 38.1013 180.929 44.9123 182.073 54.757V65.8034Z" fill="#DC4040"/>
<path d="M163.29 82.8683C163.335 82.8123 163.385 82.7593 163.435 82.7063C163.387 82.7593 163.335 82.8123 163.29 82.8683Z" fill="#DC4040"/>
<path d="M162.566 90.0387C162.554 90.018 162.542 89.9989 162.532 89.9783C162.542 89.9989 162.556 90.018 162.566 90.0387Z" fill="#DC4040"/>
<path d="M174.163 87.1287C174.163 89.3656 172.979 91.3081 171.22 92.3993C172.979 91.3066 174.163 89.3656 174.163 87.1287C174.163 86.1715 173.948 85.2643 173.564 84.4558C173.948 85.2658 174.163 86.1715 174.163 87.1287Z" fill="#DC4040"/>
<path d="M164.287 82.0333C164.195 82.0893 164.103 82.1467 164.013 82.2086C163.977 82.2321 163.945 82.2601 163.91 82.2837C163.945 82.2586 163.977 82.2307 164.013 82.2086C164.105 82.1482 164.195 82.0893 164.287 82.0333Z" fill="#DC4040"/>
<path d="M162.731 90.3259C163.243 91.1683 163.948 91.8796 164.785 92.3994C163.948 91.881 163.243 91.1683 162.731 90.3259Z" fill="#DC4040"/>
</g>
</g>
<defs>
<clipPath id="clip0_3614_5334">
<rect width="449" height="492" fill="white"/>
</clipPath>
<clipPath id="clip1_3614_5334">
<rect width="70" height="87" fill="white" transform="translate(133 31)"/>
</clipPath>
</defs>
</svg>
