<svg width="207" height="228" viewBox="0 0 207 228" fill="none" xmlns="http://www.w3.org/2000/svg">
<path d="M72.4319 128.906L52.7577 186.241L0 226.454V228H125.163L131.357 211.172L162.023 191.707L180.494 139.047L72.4319 128.906Z" fill="#FFAF99"/>
<path d="M125.162 228L131.357 211.172L162.023 191.707H136.149L126.074 208.65L103.292 228H125.162Z" fill="#F29A86"/>
<path d="M202.009 85.6878L140.973 121.107L130.996 103.736L192.031 68.317C196.807 65.5457 202.91 67.189 205.662 71.9886C208.419 76.7882 206.784 82.9219 202.009 85.6878Z" fill="#FFAF99"/>
<path d="M205.662 71.9886C205.511 71.7283 205.354 71.4788 205.187 71.2402C205.77 75.1883 203.957 79.2775 200.304 81.3925L139.268 116.812L131.568 103.406L130.996 103.736L140.973 121.107L202.009 85.6878C206.784 82.9165 208.419 76.7828 205.662 71.9886Z" fill="#F29A86"/>
<path d="M161.349 34.8011H105.586C97.8134 34.8011 91.5127 41.1336 91.5127 48.9451V192.879C91.5127 200.69 97.8134 207.023 105.586 207.023H161.349C169.121 207.023 175.422 200.69 175.422 192.879V48.9451C175.422 41.1336 169.121 34.8011 161.349 34.8011Z" fill="#5CB5AF"/>
<path d="M175.476 47.7248H91.4531V186.685H175.476V47.7248Z" fill="#A7D8D3"/>
<path d="M151.744 42.5836H115.185C114.494 42.5836 113.938 42.025 113.938 41.3308C113.938 40.6366 114.494 40.078 115.185 40.078H151.744C152.434 40.078 152.99 40.6366 152.99 41.3308C152.99 42.025 152.434 42.5836 151.744 42.5836Z" fill="#5CB5AF"/>
<path d="M161.252 193.698H157.485C157.202 193.698 156.973 193.928 156.973 194.213V197.998C156.973 198.283 157.202 198.514 157.485 198.514H161.252C161.535 198.514 161.764 198.283 161.764 197.998V194.213C161.764 193.928 161.535 193.698 161.252 193.698Z" stroke="#FFFBE1" stroke-width="0.95" stroke-miterlimit="10"/>
<path d="M109.541 198.297C109.541 198.579 109.347 198.693 109.104 198.541L105.602 196.371C105.359 196.225 105.359 195.981 105.602 195.829L109.104 193.66C109.347 193.513 109.541 193.622 109.541 193.904V198.291V198.297Z" stroke="#FFFBE1" stroke-width="0.95" stroke-miterlimit="10"/>
<path d="M136.149 196.106C136.149 197.434 135.075 198.514 133.753 198.514C132.431 198.514 131.357 197.434 131.357 196.106C131.357 194.777 132.431 193.698 133.753 193.698C135.075 193.698 136.149 194.777 136.149 196.106Z" stroke="#FFFBE1" stroke-width="0.95" stroke-miterlimit="10"/>
<path d="M161.985 108.07H110.695C109.643 108.07 108.785 107.213 108.785 106.15C108.785 105.092 109.638 104.23 110.695 104.23H161.985C163.038 104.23 163.896 105.087 163.896 106.15C163.896 107.207 163.043 108.07 161.985 108.07Z" fill="white"/>
<path d="M161.985 115.451H110.695C109.643 115.451 108.785 114.594 108.785 113.531C108.785 112.473 109.638 111.611 110.695 111.611H161.985C163.038 111.611 163.896 112.468 163.896 113.531C163.896 114.588 163.043 115.451 161.985 115.451Z" fill="white"/>
<path d="M161.985 122.826H110.695C109.643 122.826 108.785 121.97 108.785 120.907C108.785 119.849 109.638 118.987 110.695 118.987H161.985C163.038 118.987 163.896 119.844 163.896 120.907C163.896 121.964 163.043 122.826 161.985 122.826Z" fill="white"/>
<path d="M161.985 130.207H110.695C109.643 130.207 108.785 129.351 108.785 128.288C108.785 127.23 109.638 126.368 110.695 126.368H161.985C163.038 126.368 163.896 127.225 163.896 128.288C163.896 129.345 163.043 130.207 161.985 130.207Z" fill="white"/>
<path d="M161.985 137.589H110.695C109.643 137.589 108.785 136.732 108.785 135.669C108.785 134.611 109.638 133.749 110.695 133.749H161.985C163.038 133.749 163.896 134.606 163.896 135.669C163.896 136.726 163.043 137.589 161.985 137.589Z" fill="white"/>
<path d="M102.499 106.242C102.499 107.251 103.313 108.07 104.317 108.07C105.322 108.07 106.136 107.251 106.136 106.242V106.058C106.136 105.048 105.322 104.23 104.317 104.23C103.313 104.23 102.499 105.048 102.499 106.058V106.242Z" fill="white"/>
<path d="M102.499 113.623C102.499 114.632 103.313 115.451 104.317 115.451C105.322 115.451 106.136 114.632 106.136 113.623V113.439C106.136 112.429 105.322 111.611 104.317 111.611C103.313 111.611 102.499 112.429 102.499 113.439V113.623Z" fill="white"/>
<path d="M102.499 120.999C102.499 122.008 103.313 122.826 104.317 122.826C105.322 122.826 106.136 122.008 106.136 120.999V120.814C106.136 119.805 105.322 118.987 104.317 118.987C103.313 118.987 102.499 119.805 102.499 120.814V120.999Z" fill="white"/>
<path d="M102.499 128.385C102.499 129.395 103.313 130.213 104.317 130.213C105.322 130.213 106.136 129.395 106.136 128.385V128.201C106.136 127.191 105.322 126.373 104.317 126.373C103.313 126.373 102.499 127.191 102.499 128.201V128.385Z" fill="white"/>
<path d="M102.499 135.761C102.499 136.77 103.313 137.589 104.317 137.589C105.322 137.589 106.136 136.77 106.136 135.761V135.577C106.136 134.567 105.322 133.749 104.317 133.749C103.313 133.749 102.499 134.567 102.499 135.577V135.761Z" fill="white"/>
<path d="M116.594 130.831L82.2746 113.699C76.8623 110.998 70.3114 112.305 66.3452 116.893L59.1414 125.213C55.2239 129.736 53.0654 135.533 53.0654 141.531V184.917L70.0092 161.239L73.5436 150.138L76.069 152.345L84.7136 142.361L105.494 152.73C111.462 155.708 118.828 153.522 121.952 147.611C125.195 141.477 122.745 133.906 116.594 130.837V130.831Z" fill="#FFAF99"/>
<path d="M115.476 138.668L101.085 131.27L104.447 124.665L121.342 133.347C122.464 133.922 122.912 135.311 122.335 136.439C121.056 138.955 117.986 139.953 115.476 138.668Z" fill="#FFC9BD"/>
<path d="M107.437 147.985L80.5156 134.514L86.2787 172.194L86.3272 143.169L105.489 152.73C111.457 155.708 118.823 153.522 121.947 147.611C122.557 146.456 122.967 145.252 123.188 144.037C119.761 149.059 112.995 150.762 107.437 147.99V147.985Z" fill="#F29A86"/>
<g style="mix-blend-mode:multiply" opacity="0.5">
<path d="M106.276 151.792L86.332 141.808V147.551L104.333 156.532C110.302 159.509 117.667 157.324 120.792 151.412C121.401 150.257 121.811 149.053 122.033 147.839C118.606 152.86 111.839 154.563 106.281 151.792H106.276Z" fill="#A3C1C4"/>
</g>
<path d="M192.393 118.824L180.505 125.722C174.807 129.031 167.522 127.067 164.236 121.34C160.944 115.613 162.898 108.292 168.596 104.989L180.483 98.0908C186.182 94.7826 193.467 96.7458 196.753 102.473C200.044 108.2 198.091 115.521 192.393 118.824Z" fill="#FFAF99"/>
<path d="M177.483 122.355C173.652 124.616 168.725 123.331 166.475 119.48C164.225 115.63 165.504 110.678 169.335 108.417C173.166 106.155 181.315 120.098 177.483 122.36V122.355Z" fill="#FFC9BD"/>
<path d="M196.753 102.473C196.386 101.833 195.965 101.247 195.507 100.699C197.406 106.041 195.301 112.142 190.245 115.082L178.358 121.98C173.296 124.914 166.983 123.694 163.335 119.372C163.572 120.044 163.869 120.7 164.242 121.34C167.533 127.067 174.812 129.025 180.511 125.722L192.398 118.824C198.097 115.516 200.045 108.2 196.758 102.473H196.753Z" fill="#F29A86"/>
<g style="mix-blend-mode:multiply" opacity="0.5">
<path d="M175.476 152.28V148.788C171.423 149.433 167.371 148.034 164.953 144.926C165.174 145.675 165.477 146.412 165.881 147.112C167.84 150.528 171.547 152.351 175.476 152.28Z" fill="#A3C1C4"/>
</g>
<g style="mix-blend-mode:multiply" opacity="0.5">
<path d="M175.476 129.036V124.996C171.186 125.988 166.626 124.524 163.729 121.096C163.966 121.769 164.263 122.425 164.635 123.065C166.934 127.067 171.181 129.226 175.476 129.036Z" fill="#A3C1C4"/>
</g>
<g style="mix-blend-mode:multiply" opacity="0.5">
<path d="M175.476 164.808C173.22 164.868 171.002 163.994 169.416 162.34C169.513 162.552 169.616 162.763 169.734 162.969C170.997 165.166 173.139 166.533 175.476 166.896V164.808Z" fill="#A3C1C4"/>
</g>
<path d="M170.382 129.974L181.266 123.662C186.965 120.353 194.006 121.899 196.996 127.1C199.985 132.306 197.795 139.205 192.096 142.513L181.212 148.826C175.514 152.134 168.472 150.594 165.483 145.387C162.493 140.181 164.684 133.282 170.382 129.974Z" fill="#FFAF99"/>
<path d="M178.481 145.49C174.65 147.752 169.831 146.656 167.722 143.039C165.606 139.422 167.004 134.66 170.83 132.398C174.661 130.137 182.313 143.229 178.481 145.49Z" fill="#FFC9BD"/>
<path d="M196.995 127.1C196.758 126.688 196.493 126.313 196.207 125.945C197.61 130.761 195.306 136.309 190.379 139.167L179.496 145.479C174.245 148.527 167.867 147.448 164.554 143.191C164.775 143.939 165.077 144.677 165.482 145.376C168.471 150.583 175.513 152.123 181.211 148.815L192.095 142.502C197.794 139.194 199.985 132.295 196.995 127.089V127.1Z" fill="#F29A86"/>
<path d="M172.195 150.886L179.685 146.537C183.608 144.259 188.594 145.561 190.822 149.444C193.051 153.327 191.68 158.316 187.757 160.594L180.267 164.944C176.344 167.221 171.358 165.92 169.13 162.037C166.901 158.154 168.272 153.164 172.195 150.886Z" fill="#FFAF99"/>
<path d="M179.285 162.953C176.258 164.743 172.448 163.875 170.781 161.017C169.114 158.159 170.209 154.395 173.242 152.606C176.274 150.816 182.318 161.163 179.291 162.953H179.285Z" fill="#FFC9BD"/>
<path d="M190.822 149.449C190.488 148.869 190.088 148.359 189.651 147.898C191.405 151.673 189.98 156.266 186.268 158.419L178.778 162.769C175.438 164.705 171.337 164.043 168.812 161.413C168.909 161.625 169.011 161.836 169.13 162.042C171.358 165.925 176.35 167.227 180.267 164.949L187.757 160.6C191.68 158.322 193.051 153.332 190.822 149.449Z" fill="#F29A86"/>
<path d="M129.01 0H26.0413C20.5399 0 16.0801 4.48224 16.0801 10.0114V62.8829C16.0801 68.412 20.5399 72.8943 26.0413 72.8943H129.01C134.511 72.8943 138.971 68.412 138.971 62.8829V10.0114C138.971 4.48224 134.511 0 129.01 0Z" fill="#DC4040"/>
<path d="M77.5254 67.2595C94.4558 67.2595 108.181 53.4655 108.181 36.4498C108.181 19.4341 94.4558 5.6402 77.5254 5.6402C60.5949 5.6402 46.8701 19.4341 46.8701 36.4498C46.8701 53.4655 60.5949 67.2595 77.5254 67.2595Z" fill="white"/>
<path d="M101.625 99.7287L118.267 70.7575H84.9834L101.625 99.7287Z" fill="#DC4040"/>
</svg>
