<svg width="100" height="105" viewBox="0 0 100 105" fill="none" xmlns="http://www.w3.org/2000/svg">
<g clip-path="url(#clip0_2039_111)">
<path d="M63.7458 105H10.8909C6.99619 105 3.402 102.817 1.45465 99.2706C-0.492697 95.7369 -0.492697 91.3703 1.45465 87.8241L23.5246 47.6919C24.6666 45.6221 25.2676 43.2748 25.2676 40.8769V13.2009C25.2676 12.0903 26.1211 11.1816 27.1909 11.1816H47.4458C47.9627 11.1816 48.4435 11.3962 48.8041 11.7748C49.1647 12.1534 49.3691 12.6708 49.3691 13.2009V40.8896C49.3691 43.2874 49.9701 45.6348 51.1121 47.7171L73.17 87.8367C75.1174 91.3703 75.1174 95.7369 73.17 99.2832C71.2227 102.817 67.6285 105.013 63.7338 105.013L63.7458 105ZM29.1142 15.2327V40.9022C29.1142 44.0068 28.3329 47.0608 26.8543 49.7489L4.7964 89.8559C3.53423 92.1402 3.53423 94.9671 4.7964 97.2513C6.05857 99.5482 8.39058 100.949 10.9029 100.949H63.7458C66.2581 100.949 68.5901 99.5356 69.8523 97.2513C71.1145 94.9671 71.1145 92.1402 69.8523 89.8559L47.7823 49.7237C46.3038 47.0356 45.5225 43.9815 45.5225 40.8896V15.2327H29.1142Z" fill="white"/>
<path d="M48.5513 15.2326H26.0847C23.3921 15.2326 21.2163 12.9357 21.2163 10.1214V5.1238C21.2163 2.29688 23.3921 0 26.0847 0H48.5513C51.244 0 53.4197 2.29688 53.4197 5.11118V10.1088C53.4197 12.9357 51.2319 15.22 48.5513 15.22V15.2326ZM26.0847 4.03846C25.5197 4.03846 25.0629 4.51803 25.0629 5.11118V10.1088C25.0629 10.7019 25.5197 11.1941 26.0847 11.1941H48.5513C49.1163 11.1941 49.5731 10.7145 49.5731 10.1088V5.11118C49.5731 4.51803 49.1163 4.03846 48.5513 4.03846H26.0847Z" fill="white"/>
<path d="M51.0155 63.0128C48.8278 63.0128 47.241 62.3692 45.6904 61.7382C44.0796 61.0819 42.4087 60.4004 39.644 60.249C36.6628 60.0723 34.7155 60.6528 32.66 61.2586C30.34 61.9401 27.9599 62.6468 24.2455 62.3692C22.3943 62.2304 20.5792 61.8644 18.8242 61.2586C17.8986 60.981 17.3096 60.0344 17.4538 59.0248C17.586 58.0278 18.4034 57.2832 19.3651 57.2959C19.5694 57.2959 19.7618 57.3211 19.9541 57.3968C21.4326 57.9016 22.9713 58.2045 24.522 58.3307C27.5632 58.5579 29.5346 57.9774 31.6142 57.359C33.7779 56.728 36.2301 55.996 39.8483 56.2105C43.2382 56.3998 45.3658 57.2706 47.0848 57.9773C48.7797 58.6715 50.0058 59.1636 52.0613 58.9112C52.9869 58.8229 53.8764 58.5326 54.6939 58.0909C55.6435 57.5735 56.7975 57.9521 57.2903 58.9491C57.7832 59.9335 57.4225 61.1576 56.4729 61.6751C55.2348 62.3566 53.9005 62.7856 52.5061 62.9371C52.0012 63.0002 51.4964 63.0254 51.0035 63.0254L51.0155 63.0128Z" fill="white"/>
<path d="M21.2526 94.7903C17.8748 94.7903 14.8215 92.6575 13.5233 89.3762C12.225 86.095 12.9463 82.3215 15.3384 79.8101C17.7305 77.2987 21.3247 76.5541 24.4501 77.9045C27.5754 79.2674 29.6069 82.4604 29.6069 86.0193C29.6069 90.8654 25.8565 94.7903 21.2526 94.7903ZM21.2526 81.2867C19.4254 81.2867 17.7786 82.4351 17.0814 84.2146C16.3842 85.9814 16.7689 88.0259 18.0551 89.3762C19.3413 90.7266 21.2886 91.1304 22.9715 90.3985C24.6664 89.6665 25.7603 87.9375 25.7603 86.0193C25.7603 83.4069 23.7408 81.2867 21.2526 81.2867Z" fill="white"/>
<path d="M50.7755 92.8216C48.155 92.8216 45.7989 91.1684 44.7892 88.6317C43.7795 86.0824 44.3324 83.1672 46.1956 81.2236C48.0468 79.2801 50.8356 78.6996 53.2518 79.7471C55.6679 80.7946 57.2426 83.2807 57.2426 86.0319C57.2426 89.7801 54.3457 92.8216 50.7755 92.8342V92.8216ZM50.7755 83.2681C49.7057 83.2681 48.756 83.937 48.3473 84.9718C47.9386 86.0067 48.167 87.193 48.9123 87.9754C49.6576 88.7579 50.7996 88.9977 51.7732 88.5686C52.7469 88.1395 53.396 87.1299 53.396 86.0193C53.396 84.4923 52.218 83.2681 50.7755 83.2555V83.2681Z" fill="white"/>
<path d="M38.8867 80.1633C36.2662 80.1633 33.9101 78.4975 32.9004 75.9608C31.9026 73.4241 32.4556 70.4963 34.3068 68.5527C36.158 66.6092 38.9468 66.0287 41.3629 67.0762C43.7791 68.1363 45.3538 70.6098 45.3538 73.361C45.3538 77.1092 42.4568 80.1507 38.8746 80.1633H38.8867ZM38.8867 70.6098C37.8288 70.6098 36.8672 71.2787 36.4585 72.3136C36.0498 73.3484 36.2782 74.5347 37.0355 75.3172C37.7928 76.0996 38.9107 76.3394 39.8964 75.9103C40.8821 75.4812 41.5192 74.4716 41.5192 73.361C41.5192 71.834 40.3412 70.6098 38.8987 70.6098H38.8867Z" fill="white"/>
<path d="M88.2316 105C81.7284 105 76.4634 99.4597 76.4634 92.6448V52.5505C76.4634 51.4399 77.3168 50.5312 78.3867 50.5312H98.0765C98.5934 50.5312 99.0743 50.7458 99.4349 51.1244C99.7955 51.503 99.9999 52.0204 99.9999 52.5505V92.6448C99.9999 99.4724 94.7228 105 88.2316 105ZM80.31 54.5697V92.6448C80.31 97.2386 83.8561 100.962 88.2316 100.962C92.6071 100.962 96.1532 97.2386 96.1532 92.6448V54.5697H80.31Z" fill="white"/>
<path d="M81.8486 63.6688H78.3867C77.3289 63.6688 76.4634 62.7602 76.4634 61.6496C76.4634 60.539 77.3168 59.6304 78.3867 59.6304H81.8486C82.9065 59.6304 83.772 60.539 83.772 61.6496C83.772 62.7602 82.9065 63.6688 81.8486 63.6688Z" fill="white"/>
<path d="M83.0507 72.768H78.3867C77.3289 72.768 76.4634 71.8719 76.4634 70.7487C76.4634 69.6255 77.3168 68.7295 78.3867 68.7295H83.0507C84.1085 68.7295 84.974 69.6255 84.974 70.7487C84.974 71.8719 84.1085 72.768 83.0507 72.768Z" fill="white"/>
<path d="M81.8486 81.8671H78.3867C77.3289 81.8671 76.4634 80.9584 76.4634 79.8478C76.4634 78.7373 77.3168 77.8286 78.3867 77.8286H81.8486C82.9065 77.8286 83.772 78.7373 83.772 79.8478C83.772 80.9584 82.9065 81.8671 81.8486 81.8671Z" fill="white"/>
<path d="M83.0507 90.9662H78.3867C77.3289 90.9662 76.4634 90.0575 76.4634 88.947C76.4634 87.8364 77.3168 86.9277 78.3867 86.9277H83.0507C84.1085 86.9277 84.974 87.8238 84.974 88.947C84.974 90.0702 84.1085 90.9662 83.0507 90.9662Z" fill="white"/>
</g>
<defs>
<clipPath id="clip0_2039_111">
<rect width="100" height="105" fill="white"/>
</clipPath>
</defs>
</svg>
