<svg width="100" height="112" viewBox="0 0 100 112" fill="none" xmlns="http://www.w3.org/2000/svg">
<g clip-path="url(#clip0_2039_123)">
<path d="M86.2746 52.2668L47.6399 13.7011C42.629 8.91668 34.6406 8.91668 29.6297 13.7011C26.3617 16.9633 25.1272 21.7477 26.4344 26.1698L14.0887 55.1665L3.63117 65.3879C-1.23448 70.2448 -1.23448 78.074 3.63117 82.9309L16.9209 96.197C19.2448 98.5892 22.3676 99.894 25.7081 99.894C28.9761 99.894 32.1715 98.6617 34.4954 96.4144L49.0197 110.913C49.6733 111.638 50.6174 112 51.5614 112H52.7234L65.5774 107.651C66.7394 107.288 67.6108 106.273 67.9013 105.113C68.1918 103.881 67.9013 102.649 66.9572 101.779L49.0197 83.9458L73.4932 73.4345C74.6551 73.7969 75.8171 74.0144 76.979 74.0144C84.0233 74.0144 89.7604 68.2151 89.6878 61.1833C89.6878 57.8487 88.308 54.6591 85.9841 52.2668H86.2746ZM31.2274 33.3465L66.5941 68.8675L43.7183 78.6539L21.4235 56.1814L31.2274 33.3465ZM22.0771 91.34L8.78731 77.784C6.82652 75.7542 6.82652 72.5646 8.78731 70.5348L17.1388 62.1982L37.7633 82.7859L31.7357 88.8028L29.4119 91.195C27.3058 93.0798 24.1105 93.0073 22.0771 91.1225V91.34ZM52.5055 104.534L39.4336 91.485L42.9195 88.0779L57.4438 102.576L52.5055 104.534ZM81.1184 65.3879C79.0124 67.4901 75.5266 67.4901 73.4206 65.3879L34.4954 26.6047C32.3893 24.4299 32.3893 21.0228 34.4954 18.8481C35.5847 17.8332 36.9645 17.2532 38.4169 17.2532C39.8694 17.2532 41.2492 17.8332 42.2659 18.8481L80.9006 57.4138C83.0792 59.4435 83.2245 62.9232 81.1911 65.0979C81.1911 65.0979 81.1911 65.0979 81.1911 65.1704V65.3879H81.1184Z" fill="white"/>
<path d="M77.0514 26.5318C78.0681 26.5318 78.9396 26.1693 79.6658 25.4444L89.034 16.093C90.4138 14.7156 90.4138 12.3959 89.034 11.0185C87.6542 9.56869 85.3303 9.56869 83.8778 11.0185L74.5096 20.37C73.1298 21.6748 73.0572 23.9221 74.3644 25.2994C74.3644 25.2994 74.437 25.3719 74.5096 25.4444C75.1632 26.0968 76.1073 26.5318 77.0514 26.5318Z" fill="white"/>
<path d="M64.4153 20.5152C66.376 20.5152 67.9737 18.8479 68.0463 16.8906V3.62459C68.0463 1.59482 66.4487 0 64.4153 0C62.3819 0 60.7842 1.59482 60.7842 3.62459V16.8906C60.7842 18.9204 62.3819 20.5152 64.4153 20.5152Z" fill="white"/>
<path d="M79.5205 35.5933C79.5205 37.6231 81.1182 39.2179 83.1516 39.2179H96.3687C98.4021 39.2179 99.9998 37.6231 99.9998 35.5933C99.9998 33.5636 98.4021 31.9688 96.3687 31.9688H83.1516C81.1182 31.9688 79.5205 33.5636 79.5205 35.5933Z" fill="white"/>
</g>
<defs>
<clipPath id="clip0_2039_123">
<rect width="100" height="112" fill="white"/>
</clipPath>
</defs>
</svg>
