<svg width="100" height="129" viewBox="0 0 100 129" fill="none" xmlns="http://www.w3.org/2000/svg">
<path d="M69.2498 0.826402L99.1893 30.3466C99.7252 30.8749 100 31.5658 100 32.2568V105.63C100 108.57 98.7771 111.253 96.8123 113.204H96.7986C94.82 115.168 92.0995 116.36 89.1179 116.36H86.1775V118.27C86.1775 121.21 84.9547 123.893 82.9898 125.843H82.9761C80.9975 127.808 78.2907 129 75.2954 129H10.8821C7.90052 129 5.17999 127.794 3.20143 125.857H3.18769C1.22286 123.893 0 121.21 0 118.27V23.3696C0 20.4297 1.22286 17.7473 3.18769 15.7965H3.20143C5.17999 13.8321 7.88678 12.6399 10.8821 12.6399H13.8225V10.7297C13.8225 7.78985 15.0453 5.10744 17.0102 3.15658H17.0239C19.0025 1.19219 21.7093 0 24.7046 0H67.23C68.0132 0 68.7277 0.325142 69.2361 0.853497L69.2498 0.826402ZM80.6678 116.374H24.7183C21.7367 116.374 19.0162 115.168 17.0376 113.231H17.0239C15.0591 111.266 13.8362 108.584 13.8362 105.644V18.0589H10.8959C9.39819 18.0589 8.05166 18.655 7.08986 19.6033C6.11432 20.5652 5.50976 21.8929 5.50976 23.3696V118.297C5.50976 119.774 6.11432 121.102 7.07612 122.05C8.05166 123.012 9.41193 123.608 10.8959 123.608H75.2954C76.7931 123.608 78.1396 123.012 79.1014 122.064C80.0769 121.102 80.6815 119.761 80.6815 118.297V116.387L80.6678 116.374ZM41.014 87.9238C42.5392 87.9238 43.762 89.1295 43.762 90.6333C43.762 92.1371 42.5392 93.3428 41.014 93.3428H32.8937C31.3685 93.3428 30.1456 92.1371 30.1456 90.6333C30.1456 89.1295 31.3685 87.9238 32.8937 87.9238H41.014ZM41.014 56.4527C42.5392 56.4527 43.762 57.6585 43.762 59.1623C43.762 60.666 42.5392 61.8718 41.014 61.8718H32.8937C31.3685 61.8718 30.1456 60.666 30.1456 59.1623C30.1456 57.6585 31.3685 56.4527 32.8937 56.4527H41.014ZM41.014 72.195C42.5392 72.195 43.762 73.4008 43.762 74.9045C43.762 76.4083 42.5392 77.6141 41.014 77.6141H32.8937C31.3685 77.6141 30.1456 76.4083 30.1456 74.9045C30.1456 73.4008 31.3685 72.195 32.8937 72.195H41.014ZM50.4809 93.3428C48.9558 93.3428 47.7329 92.1371 47.7329 90.6333C47.7329 89.1295 48.9558 87.9238 50.4809 87.9238H80.9426C82.4677 87.9238 83.6906 89.1295 83.6906 90.6333C83.6906 92.1371 82.4677 93.3428 80.9426 93.3428H50.4809ZM50.4809 61.8853C48.9558 61.8853 47.7329 60.6796 47.7329 59.1758C47.7329 57.672 48.9558 56.4663 50.4809 56.4663H80.9426C82.4677 56.4663 83.6906 57.672 83.6906 59.1758C83.6906 60.6796 82.4677 61.8853 80.9426 61.8853H50.4809ZM50.4809 77.6141C48.9558 77.6141 47.7329 76.4083 47.7329 74.9045C47.7329 73.4008 48.9558 72.195 50.4809 72.195H80.9426C82.4677 72.195 83.6906 73.4008 83.6906 74.9045C83.6906 76.4083 82.4677 77.6141 80.9426 77.6141H50.4809ZM70.0055 9.23944V24.2502C70.0055 25.7268 70.6101 27.0545 71.5719 28.0028C72.5474 28.9647 73.9077 29.5608 75.3916 29.5608H90.6156L69.9918 9.2259L70.0055 9.23944ZM94.504 34.9798H75.3916C72.41 34.9798 69.6895 33.7741 67.7109 31.8368H67.6972C65.7323 29.8724 64.5095 27.19 64.5095 24.2502V5.40548H24.7321C23.2344 5.40548 21.8879 6.00157 20.9261 6.9499C19.9505 7.91178 19.346 9.25299 19.346 10.7161V105.644C19.346 107.121 19.9505 108.448 20.9123 109.397C21.8879 110.359 23.2481 110.955 24.7321 110.955H89.1179C90.6156 110.955 91.9621 110.359 92.9239 109.41C93.8994 108.448 94.504 107.107 94.504 105.644V34.9798Z" fill="white"/>
</svg>
