<svg width="100" height="105" viewBox="0 0 100 105" fill="none" xmlns="http://www.w3.org/2000/svg">
<path fill-rule="evenodd" clip-rule="evenodd" d="M48.535 10.5329C53.6911 10.5329 57.8651 14.9604 57.8651 20.4297C57.8651 25.899 53.6911 30.3265 48.535 30.3265C43.3789 30.3265 39.2049 25.899 39.2049 20.4297C39.2049 14.9604 43.3789 10.5329 48.535 10.5329ZM79.1513 53.2566C81.5746 52.6678 83.2933 50.3918 83.2933 47.7534V45.1943H86.9335C88.6202 45.1943 89.9866 43.7448 89.9973 41.9444V36.996C93.2745 36.9394 94.6303 32.9422 92.0469 31.0398L50.638 0.692787C49.3676 -0.224419 47.6916 -0.224419 46.4106 0.692787L5.03374 31.0512C2.45035 32.9535 3.80609 36.9507 7.08336 37.0073V41.9557C7.08336 43.7448 8.44978 45.1943 10.1471 45.2056H13.7874V47.7647C13.7874 50.4031 15.5167 52.6791 17.9293 53.2679V77.7041C15.5061 78.2929 13.7874 80.569 13.7874 83.2073V85.7665H8.54586C7.60645 85.7665 6.83784 86.5818 6.83784 87.5782V92.3001H4.39323C3.59259 92.2888 2.94141 92.9796 2.94141 93.8288V100.362C2.94141 101.212 3.59259 101.914 4.39323 101.914H92.6554C93.456 101.914 94.1072 101.223 94.1072 100.374V93.8401C94.1072 92.9909 93.456 92.2888 92.6554 92.2888H90.2214V87.5669C90.2214 86.5704 89.4528 85.7551 88.5134 85.7551H83.2719V83.2073C83.2719 80.569 81.5425 78.2929 79.13 77.7041V53.2679L79.1513 53.2566ZM77.6995 80.6482H77.977C79.3008 80.6482 80.3789 81.7919 80.3789 83.2073V85.7665H67.5367V83.2073C67.5367 81.8032 68.6149 80.6596 69.9493 80.6482H77.6995ZM68.7751 77.7041C66.3518 78.2929 64.6331 80.569 64.6224 83.2073V85.7665H57.8651V83.2073C57.8651 80.569 56.1357 78.2929 53.7231 77.7041V53.2679C56.1464 52.6791 57.8651 50.4031 57.8651 47.7647V45.2056H64.6331V47.7647C64.6331 50.4031 66.3625 52.6791 68.7857 53.2679V77.7041H68.7751ZM71.6894 53.4038H76.237V77.5682H71.6894V53.4038ZM81.8414 88.8465H87.3285V92.2888H9.7308V88.8465H81.8414ZM67.5367 45.2056H80.3789V47.7647C80.3789 49.1688 79.3008 50.3125 77.977 50.3238H69.9493C68.6256 50.3238 67.5474 49.1801 67.5367 47.7647V45.2056ZM52.2713 80.6482H52.5488C53.8725 80.6482 54.9507 81.7919 54.9614 83.2073V85.7665H42.1192V83.2073C42.1192 81.8032 43.1974 80.6596 44.5318 80.6482H52.282H52.2713ZM43.3468 77.7041C40.9236 78.2929 39.2049 80.569 39.2049 83.2073V85.7665H32.4368V83.2073C32.4368 80.569 30.7075 78.2929 28.2842 77.7041V53.2679C30.7075 52.6791 32.4262 50.4031 32.4368 47.7647V45.2056H39.1942V47.7647C39.1942 50.4031 40.9236 52.6791 43.3362 53.2679V77.7041H43.3468ZM46.2612 53.4038H50.8088V77.5682H46.2612V53.4038ZM42.1085 45.2056H54.9507V47.7647C54.9507 49.1688 53.8725 50.3125 52.5382 50.3125H44.5104C43.1867 50.3125 42.1085 49.1688 42.0979 47.7534V45.1943L42.1085 45.2056ZM26.8431 80.6482H27.1206C28.455 80.6482 29.5225 81.7919 29.5332 83.2073V85.7665H16.6803V83.2073C16.6803 81.8032 17.7585 80.6596 19.0929 80.6482H26.8431ZM20.833 53.4038H25.3806V77.5682H20.833V53.4038ZM16.6803 45.2056H29.5332V47.7647C29.5332 49.1688 28.455 50.3125 27.1206 50.3238H19.0929C17.7692 50.3238 16.691 49.1801 16.6803 47.7647V45.2056ZM48.535 3.09338C48.3748 3.09338 48.2147 3.13867 48.0759 3.22926L6.58163 33.6669C6.63501 33.8254 6.90189 33.916 7.14742 33.916H89.9332C90.1681 33.916 90.4349 33.8254 90.499 33.6669L48.994 3.22926C48.8552 3.13867 48.6951 3.09338 48.535 3.09338ZM86.9335 37.0073C87.0189 37.0073 87.0829 37.0753 87.0829 37.1659V41.9557C87.0829 42.0463 87.0189 42.1143 86.9335 42.1143H10.1365C10.0511 42.1143 9.98701 42.0463 9.98701 41.9557V37.1659C9.98701 37.0753 10.0511 37.0073 10.1365 37.0073H86.9335ZM88.7269 95.3801H91.2035V98.8225H5.85572V95.3801H88.7269ZM53.0719 15.6172C50.5633 12.9562 46.496 12.9562 43.9874 15.6172C41.4787 18.2782 41.4787 22.5925 43.9874 25.2535C46.496 27.9146 50.5633 27.9146 53.0719 25.2535C55.5806 22.5925 55.5806 18.2782 53.0719 15.6172Z" fill="white"/>
</svg>
