<svg width="100" height="100" viewBox="0 0 100 100" fill="none" xmlns="http://www.w3.org/2000/svg">
<g clip-path="url(#clip0_2039_128)">
<path d="M89.8418 57.5944C89.0712 57.5944 88.4407 56.9562 88.4407 56.1762V45.6387C88.4407 24.1807 71.1925 6.72222 49.9931 6.72222C28.7938 6.72222 12.008 23.812 11.5596 44.7877C11.5596 45.0714 11.5596 45.355 11.5596 45.6387V56.1762C11.5596 56.9562 10.9291 57.5944 10.1585 57.5944C9.38784 57.5944 8.75732 56.9562 8.75732 56.1762V45.6387C8.75732 45.3267 8.75732 45.0288 8.75732 44.7168C9.23371 22.2094 27.7289 3.88574 49.9931 3.88574C72.2574 3.88574 91.243 22.6207 91.243 45.6387V56.1762C91.243 56.9562 90.6124 57.5944 89.8418 57.5944Z" fill="white"/>
<path d="M75.7043 21.9401C75.2699 21.9401 74.8496 21.7416 74.5694 21.3587C69.4832 14.3384 60.3057 10.1546 49.9932 10.1546C39.6808 10.1546 30.5032 14.3384 25.4311 21.3587C24.9827 21.9827 24.114 22.1245 23.4835 21.6707C21.5219 20.2524 19.4201 18.9193 17.2344 17.6996C16.8841 17.5011 16.6459 17.1749 16.5478 16.7919C16.4497 16.409 16.5338 15.9977 16.758 15.6574C23.3574 5.85732 35.7856 0 50.0072 0C64.2289 0 76.6571 5.85732 83.2565 15.6715C83.4807 15.9977 83.5507 16.409 83.4667 16.8061C83.3686 17.2032 83.1164 17.5294 82.7801 17.7138C80.6223 18.9051 78.5206 20.2383 76.531 21.6707C76.2788 21.8551 75.9985 21.9401 75.7183 21.9401H75.7043ZM19.9666 16.0261C21.3537 16.8487 22.7128 17.6996 24.0159 18.6073C29.7466 11.5303 39.3445 7.33229 50.0072 7.33229C60.67 7.33229 70.2679 11.5161 75.9986 18.6073C77.3156 17.6996 78.6607 16.8345 80.0479 16.0261C73.7707 7.74358 62.6736 2.85066 50.0072 2.85066C37.3408 2.85066 26.2437 7.74358 19.9666 16.0403V16.0261Z" fill="white"/>
<path d="M75.7043 21.9401C75.2699 21.9401 74.8496 21.7416 74.5694 21.3587C69.4832 14.3384 60.3057 10.1546 49.9932 10.1546C39.6808 10.1546 30.5032 14.3384 25.4311 21.3587C24.9827 21.9827 24.114 22.1245 23.4835 21.6707C21.5219 20.2524 19.4201 18.9193 17.2344 17.6996C16.8841 17.5011 16.6459 17.1749 16.5478 16.7919C16.4497 16.409 16.5338 15.9977 16.758 15.6574C23.3574 5.85732 35.7856 0 50.0072 0C64.2289 0 76.6571 5.85732 83.2565 15.6715C83.4807 15.9977 83.5507 16.409 83.4667 16.8061C83.3686 17.2032 83.1164 17.5294 82.7801 17.7138C80.6223 18.9051 78.5206 20.2383 76.531 21.6707C76.2788 21.8551 75.9985 21.9401 75.7183 21.9401H75.7043ZM19.9666 16.0261C21.3537 16.8487 22.7128 17.6996 24.0159 18.6073C29.7466 11.5303 39.3445 7.33229 50.0072 7.33229C60.67 7.33229 70.2679 11.5161 75.9986 18.6073C77.3156 17.6996 78.6607 16.8345 80.0479 16.0261C73.7707 7.74358 62.6736 2.85066 50.0072 2.85066C37.3408 2.85066 26.2437 7.74358 19.9666 16.0403V16.0261Z" fill="white"/>
<path d="M60.1092 97.0782C59.3385 97.0782 58.708 96.44 58.708 95.66C58.708 94.8799 59.3385 94.2417 60.1092 94.2417C73.5041 94.2417 82.9479 91.2918 87.4316 85.7039C91.2147 80.9954 90.2339 76.0032 90.2339 75.9465C90.0797 75.1806 90.5561 74.4289 91.3127 74.2729C92.0694 74.1169 92.812 74.5991 92.9661 75.365C93.0221 75.6203 94.2131 81.7329 89.6033 87.4909C84.4891 93.8588 74.569 97.0782 60.1092 97.0782Z" fill="white"/>
<path d="M91.0889 83.0097H88.3847C87.6141 83.0097 86.9836 82.3715 86.9836 81.5915V81.3787C83.6628 78.6415 81.4771 72.8693 81.4771 66.6716C81.4771 60.4739 83.6628 54.7017 86.9836 51.9645V51.7517C86.9836 50.9717 87.6141 50.3335 88.3847 50.3335H91.0889C91.0889 50.3335 91.201 50.3335 91.2431 50.3335C96.1611 50.5179 100 57.6516 100 66.6574C100 75.6632 96.091 82.9388 91.1029 82.9955C91.1029 82.9955 91.1029 82.9955 91.0889 82.9955V83.0097ZM89.7018 80.1732H91.0889C93.9893 80.1307 97.2119 74.5854 97.2119 66.6716C97.2119 58.7578 93.9893 53.2125 91.0889 53.17C91.0469 53.17 91.0189 53.17 90.9768 53.17H89.7158C89.6177 53.4394 89.4356 53.6805 89.1834 53.8507C86.8294 55.4533 84.2934 60.1619 84.2934 66.6716C84.2934 73.1813 86.8294 77.8899 89.1834 79.4925C89.4216 79.6627 89.6037 79.9038 89.7158 80.1732H89.7018Z" fill="white"/>
<path d="M88.4828 83.3923H85.6805C83.3686 83.3923 81.4771 81.1798 81.4771 78.4568V54.8998C81.4771 52.1768 83.3686 49.9502 85.6805 49.9502H88.4828C90.7947 49.9502 92.6722 52.1626 92.6722 54.8998V78.4568C92.6722 81.1798 90.7947 83.3923 88.4828 83.3923ZM85.6945 52.7867C84.9519 52.7867 84.2934 53.7653 84.2934 54.8998V78.4568C84.2934 79.5772 84.9519 80.5558 85.6945 80.5558H88.4968C89.2394 80.5558 89.8839 79.5772 89.8839 78.4568V54.8998C89.8839 53.7794 89.2394 52.7867 88.4968 52.7867H85.6945Z" fill="white"/>
<path d="M11.6155 83.0097H8.91131C3.90921 82.953 0 75.7767 0 66.6716C0 57.5665 3.82514 50.532 8.74317 50.3477C8.79921 50.3477 8.85526 50.3477 8.8973 50.3477H11.6015C12.3721 50.3477 13.0027 50.9859 13.0027 51.7659V51.9786C16.3234 54.7158 18.4952 60.4881 18.4952 66.6858C18.4952 72.8835 16.3094 78.6557 13.0027 81.3929V81.6056C13.0027 82.3857 12.3721 83.0239 11.6015 83.0239L11.6155 83.0097ZM9.03741 53.17C9.03741 53.17 8.96735 53.17 8.92532 53.17C6.02494 53.1983 2.8023 58.7436 2.8023 66.6716C2.8023 74.5995 6.02494 80.1448 8.92532 80.1732H10.2984C10.3965 79.9037 10.5787 79.6626 10.8309 79.4925C13.1848 77.8898 15.7069 73.1813 15.7069 66.6716C15.7069 60.1619 13.1708 55.4533 10.8309 53.8507C10.5927 53.6805 10.4105 53.4394 10.2984 53.17H9.0234H9.03741Z" fill="white"/>
<path d="M14.3055 83.3923H11.5033C9.19136 83.3923 7.2998 81.1798 7.2998 78.4568V54.8998C7.2998 52.1768 9.17734 49.9502 11.5033 49.9502H14.3055C16.6174 49.9502 18.509 52.1626 18.509 54.8998V78.4568C18.509 81.1798 16.6315 83.3923 14.3055 83.3923ZM11.5173 52.7867C10.7747 52.7867 10.1161 53.7653 10.1161 54.8998V78.4568C10.1161 79.5772 10.7747 80.5558 11.5173 80.5558H14.3196C15.0622 80.5558 15.7207 79.5772 15.7207 78.4568V54.8998C15.7207 53.7794 15.0622 52.7867 14.3196 52.7867H11.5173Z" fill="white"/>
<path d="M61.02 99.9999H50.3852C47.8912 99.9999 45.8735 98.0711 45.8735 95.7027C45.8735 93.3342 47.9052 91.3203 50.3852 91.3203H61.02C63.514 91.3203 65.5317 93.2491 65.5317 95.6176C65.5317 97.986 63.5 99.9999 61.02 99.9999ZM50.3852 94.1568C49.4465 94.1568 48.6758 94.8092 48.6758 95.6176C48.6758 96.5111 49.4465 97.1635 50.3852 97.1635H61.02C61.9587 97.1635 62.7294 96.5111 62.7294 95.7027C62.7294 94.8092 61.9587 94.1568 61.02 94.1568H50.3852Z" fill="white"/>
<path d="M49.9928 78.9815C33.8656 78.9815 20.7368 65.6926 20.7368 49.3687C20.7368 33.0448 33.8656 19.7559 49.9928 19.7559C66.12 19.7559 79.2488 33.0448 79.2488 49.3687C79.2488 65.6926 66.12 78.9815 49.9928 78.9815ZM49.9928 22.5923C35.4068 22.5923 23.5391 34.6048 23.5391 49.3687C23.5391 64.1325 35.4068 76.145 49.9928 76.145C64.5788 76.145 76.4465 64.1325 76.4465 49.3687C76.4465 34.6048 64.5788 22.5923 49.9928 22.5923Z" fill="white"/>
<path d="M49.9928 79.0099C42.4406 79.0099 38.3633 63.7213 38.3633 49.3546C38.3633 34.9878 42.4406 19.6992 49.9928 19.6992C57.545 19.6992 61.6224 34.9736 61.6224 49.3546C61.6224 63.7355 57.545 79.0099 49.9928 79.0099ZM49.9928 22.5357C45.8174 22.5357 41.1656 33.5554 41.1656 49.3546C41.1656 65.1538 45.8174 76.1735 49.9928 76.1735C54.1682 76.1735 58.8201 65.1538 58.8201 49.3546C58.8201 33.5554 54.1682 22.5357 49.9928 22.5357Z" fill="white"/>
<path d="M51.3941 21.1177H48.5918V77.6061H51.3941V21.1177Z" fill="white"/>
<path d="M49.9928 65.5508C33.5574 65.5508 20.6948 58.4313 20.6948 49.3403C20.6948 40.2494 33.5714 33.1299 49.9928 33.1299C66.4143 33.1299 79.2909 40.2494 79.2909 49.3403C79.2909 58.4313 66.4143 65.5508 49.9928 65.5508ZM49.9928 35.9805C35.6311 35.9805 23.4971 42.1073 23.4971 49.3545C23.4971 56.6017 35.6311 62.7285 49.9928 62.7285C64.3546 62.7285 76.4886 56.6017 76.4886 49.3545C76.4886 42.1073 64.3546 35.9805 49.9928 35.9805Z" fill="white"/>
<path d="M77.904 47.9365H22.0962V50.773H77.904V47.9365Z" fill="white"/>
<path d="M49.9929 79.0099C37.6208 79.0099 27.5605 65.7069 27.5605 49.3546C27.5605 33.0023 37.6208 19.6992 49.9929 19.6992C62.3651 19.6992 72.4253 33.0023 72.4253 49.3546C72.4253 65.7069 62.3651 79.0099 49.9929 79.0099ZM49.9929 22.5357C39.1621 22.5357 30.3628 34.5624 30.3628 49.3546C30.3628 64.1468 39.1761 76.1735 49.9929 76.1735C60.8098 76.1735 69.623 64.1468 69.623 49.3546C69.623 34.5624 60.8098 22.5357 49.9929 22.5357Z" fill="white"/>
</g>
<defs>
<clipPath id="clip0_2039_128">
<rect width="100" height="100" fill="white"/>
</clipPath>
</defs>
</svg>
