<svg width="100" height="64" viewBox="0 0 100 64" fill="none" xmlns="http://www.w3.org/2000/svg">
<g clip-path="url(#clip0_2039_109)">
<path d="M99.3022 25.3914L85.9814 2.53352C85.2949 1.35991 84.1987 0.526323 82.8699 0.175337C81.5412 -0.175648 80.1681 -0.000155504 78.9833 0.679879L71.3872 5.02332C70.2024 5.70336 69.3609 6.78922 69.0066 8.10541C68.7962 8.88416 68.774 9.69582 68.9401 10.4636C64.1566 11.714 59.362 11.692 53.6373 10.4526C47.525 9.12546 44.5685 10.3868 40.549 13.9405L31.0373 10.5733C31.5356 8.4564 30.6055 6.17499 28.6013 5.03429L21.0052 0.690847C19.8315 -0.000155504 18.4474 -0.175648 17.1186 0.175337C15.7899 0.526323 14.6826 1.37088 14.0071 2.53352L0.68632 25.3914C-0.73102 27.8154 0.110526 30.9304 2.56873 32.3234L10.1648 36.6669C10.951 37.1166 11.8257 37.3469 12.7116 37.3469C13.1545 37.3469 13.6085 37.292 14.0514 37.1714C15.2251 36.8533 16.2217 36.1623 16.9193 35.1971L22.6108 42.2387L22.4669 42.4471C20.3408 45.4415 21.5589 48.6333 23.851 50.2346C24.6815 50.8159 25.6669 51.1998 26.6857 51.2986C26.586 52.2309 26.741 53.1632 27.1507 54.0516C28.0255 55.9272 29.9411 57.2543 32.0118 57.4408C32.7869 57.5066 33.5509 57.4189 34.2596 57.1666C34.6914 58.2195 35.4444 59.1299 36.3745 59.777C37.9801 60.8958 40.1282 61.2578 42.0106 60.3693C42.5975 61.4552 43.5609 62.3875 44.801 62.9469C45.6094 63.3198 46.4288 63.4953 47.226 63.4953C48.9645 63.4953 50.5922 62.6507 51.7106 61.0713L52.1535 60.4461L56.9149 63.1882C57.9114 63.7695 58.908 64.0108 59.8381 64.0108C61.8866 64.0108 63.6583 62.7933 64.6327 61.1481C65.1421 60.2816 65.4411 59.2944 65.4632 58.2854C67.5671 58.3402 69.4052 57.1117 70.4018 55.4226C70.8779 54.6219 71.1547 53.7116 71.2212 52.7793C72.3395 52.9109 73.4468 52.6806 74.4545 52.1102C76.2704 51.0792 77.4442 49.083 77.4442 47.0209C77.4442 46.0228 77.1784 45.0905 76.6801 44.2679C77.5549 43.7524 78.2746 43.0065 78.784 42.151C79.7916 40.429 79.9577 38.2134 78.8061 36.4036L82.6485 34.4622L82.8588 34.8132C83.5454 35.9868 84.6416 36.8204 85.9703 37.1714C86.4133 37.292 86.8673 37.3469 87.3102 37.3469C88.196 37.3469 89.0708 37.1166 89.857 36.6669L97.453 32.3234C99.9112 30.9195 100.753 27.8154 99.3354 25.3914H99.3022ZM13.1656 33.8809C12.7337 34.0016 12.2686 33.9357 11.8811 33.7164L4.28504 29.3729C3.47671 28.9123 3.19988 27.8812 3.66495 27.0806L16.9857 4.24457C17.2072 3.86068 17.5726 3.58648 18.0155 3.46583C18.1595 3.42195 18.3145 3.41098 18.4584 3.41098C18.7574 3.41098 19.0342 3.48776 19.2889 3.63035L26.885 7.97379C27.6933 8.43446 27.9701 9.46548 27.5051 10.2662L14.1843 33.1241C13.9628 33.508 13.5974 33.7822 13.1545 33.9028L13.1656 33.8809ZM25.822 47.4377C25.523 47.2183 24.0614 46.0776 25.2683 44.3885L29.2103 38.8386C30.4172 37.1385 31.9896 38.1147 32.2997 38.334C32.5986 38.5534 34.0603 39.6831 32.8644 41.3832L28.9224 46.9332C27.7154 48.6223 26.1431 47.6571 25.833 47.4377H25.822ZM34.1931 53.0754C33.6948 53.7774 33.0637 54.1064 32.3107 54.0406C31.4581 53.9639 30.6166 53.3716 30.2512 52.6038C29.9411 51.9347 30.0297 51.2327 30.5391 50.5308L31.7017 48.8855L35.6437 43.3356L37.205 41.12C38.4119 39.4199 39.9954 40.3961 40.2943 40.6154C40.5933 40.8348 42.0549 41.9755 40.848 43.6646L40.4604 44.213L34.9461 51.9676L34.171 53.0645L34.1931 53.0754ZM38.3455 56.9801C38.0465 56.7717 36.5849 55.631 37.7808 53.9309L43.284 46.1764C44.491 44.4872 46.0744 45.4525 46.3734 45.6718C46.6724 45.8912 48.134 47.0319 46.9271 48.721L45.4986 50.7392L41.767 55.993L41.4127 56.4866C40.2168 58.1866 38.6334 57.2105 38.3344 56.9911L38.3455 56.9801ZM48.898 59.086C47.979 60.3803 46.8385 60.1171 46.2295 59.8429C45.399 59.459 44.6903 58.6034 44.801 57.6273L48.1008 52.9767C48.9866 52.5489 50.0386 52.9219 50.6808 53.569C51.1459 54.0406 51.7881 55.0168 50.869 56.3111L48.887 59.097L48.898 59.086ZM75.7943 40.429C75.606 40.7471 74.5873 42.2826 72.7714 41.2406L65.8286 37.2372C65.0092 36.7656 63.9573 37.0398 63.4811 37.8514C63.005 38.6631 63.2818 39.7051 64.1012 40.1767L71.044 44.1801L72.86 45.2221C73.6129 45.6609 74.0005 46.2531 73.9894 46.988C73.9894 47.8326 73.469 48.721 72.7271 49.1378C72.0848 49.4998 71.3651 49.4668 70.6121 49.0391L68.3643 47.7448L61.3662 43.7085C60.5468 43.2369 59.4949 43.5111 59.0187 44.3227C58.5426 45.1344 58.8194 46.1764 59.6388 46.648L66.6369 50.6843C68.4418 51.7263 67.6003 53.3716 67.412 53.6896C67.2238 54.0077 66.2051 55.5433 64.3891 54.5013L62.6064 53.4703L56.8927 50.1798C56.0733 49.7082 55.0214 49.9824 54.5453 50.794C54.0691 51.6057 54.3459 52.6477 55.1653 53.1193L60.879 56.4098C62.6839 57.4518 61.8423 59.097 61.6541 59.4151C61.4659 59.7332 60.4361 61.2687 58.6312 60.2267L54.0802 57.6053C55.2539 55.4336 54.9107 52.9877 53.1279 51.1889C52.3417 50.3882 51.3784 49.8617 50.3707 49.5875C51.5666 46.9332 50.3707 44.2898 48.3555 42.8859C47.3146 42.162 46.0301 41.7452 44.7567 41.8C44.5685 40.1877 43.6052 38.7508 42.2985 37.8405C40.5379 36.612 38.0908 36.2939 36.0977 37.5663C35.6548 36.7656 35.0236 36.0746 34.2706 35.5591C31.9675 33.9577 28.5238 33.9028 26.3978 36.8972L24.6593 39.3431L18.7685 32.0602L29.5093 13.6444L37.7586 16.562C37.4264 16.88 37.0832 17.2201 36.7288 17.5601C35.9537 18.3169 35.1565 19.0956 34.2596 19.9512C33.9385 20.2473 33.7613 20.6531 33.7391 21.0919L33.2851 30.5685C33.1633 33.0144 34.3703 34.1441 35.1011 34.6048C36.6846 35.592 38.9545 35.3836 41.4902 34.0235C43.6495 32.8718 44.9007 30.2285 45.9969 27.8922C46.2184 27.4206 46.4288 26.9599 46.6502 26.5431C46.7942 26.4773 46.9381 26.4115 47.071 26.3457C49.9943 24.9746 51.8767 24.1849 53.7812 25.2818L74.997 37.4346C76.8019 38.4766 75.9715 40.1219 75.7721 40.4399L75.7943 40.429ZM75.9382 34.0235L55.5197 22.3094C51.9542 20.2693 48.588 21.8487 45.6094 23.2526C45.2993 23.3952 44.9893 23.5488 44.6792 23.6804C44.336 23.8339 44.0592 24.0972 43.882 24.4262C43.5498 25.0624 43.2176 25.7534 42.8965 26.4225C42.0217 28.2761 41.0252 30.382 39.8625 31.0072C38.2791 31.8518 37.2161 31.8847 36.9282 31.7092C36.8064 31.6324 36.6956 31.2924 36.7178 30.722L37.1385 21.9145C37.8583 21.2235 38.5337 20.5654 39.1427 19.9731C45.3768 13.8857 46.8495 12.4489 52.8954 13.7651C57.0256 14.6645 63.2486 15.5858 70.4571 13.5676L80.91 31.5008L75.9272 34.0235H75.9382ZM95.7146 29.3839L88.1185 33.7273C87.731 33.9467 87.277 34.0016 86.834 33.8919C86.4022 33.7712 86.0257 33.497 85.8043 33.1131L72.4835 10.2552C72.262 9.87131 72.2066 9.42161 72.3174 8.98288C72.4392 8.55511 72.716 8.18219 73.1036 7.96283L80.6996 3.61938C80.9543 3.47679 81.2422 3.40002 81.5301 3.40002C81.674 3.40002 81.8291 3.42195 81.973 3.45486C82.4159 3.57551 82.7813 3.84972 83.0028 4.23361L96.3236 27.0915C96.7886 27.8922 96.5118 28.9232 95.7035 29.3839H95.7146Z" fill="white"/>
</g>
<defs>
<clipPath id="clip0_2039_109">
<rect width="100" height="64" fill="white"/>
</clipPath>
</defs>
</svg>
