<svg width="100" height="129" viewBox="0 0 100 129" fill="none" xmlns="http://www.w3.org/2000/svg">
<path d="M99.9867 85.6868C99.9867 85.5586 99.9467 85.402 99.9067 85.2596C99.8666 85.1172 99.84 84.9748 99.7866 84.8609C99.76 84.8325 99.76 84.7897 99.76 84.747L87.3983 60.8123L91.5855 62.2646C94.706 63.3325 98.0664 61.5099 99.0665 58.2209C100.067 54.9033 98.3598 51.3437 95.2527 50.2616L55.9408 36.6924V21.8275C59.0612 19.7344 61.1281 16.0467 61.1281 11.8321C61.1281 5.31093 56.1275 0 50.0067 0C43.8859 0 38.8852 5.31093 38.8852 11.8321C38.8852 16.0325 40.9655 19.7344 44.0992 21.8275V32.5775L8.40112 20.2328C5.29404 19.2361 2.02694 21.0586 0.986798 24.2195C0.480064 25.7573 0.613415 27.4232 1.32018 28.9325C2.06694 30.5556 3.42712 31.7801 5.014 32.3354L13.7085 35.3397L0.253367 61.3391C0.253367 61.3391 0.226697 61.4103 0.213362 61.453C0.146686 61.5811 0.133351 61.7235 0.0933458 61.8517C0.0666756 61.9798 0.0266702 62.1222 0.0266702 62.2788C0.0266702 62.3215 0 62.35 0 62.3927C0 72.1318 7.45433 80.0768 16.6289 80.0768C25.8034 80.0768 33.2711 72.1318 33.2711 62.3927C33.2711 62.35 33.2444 62.3215 33.2444 62.2788C33.2444 62.1222 33.2044 61.994 33.1644 61.8374C33.1244 61.7093 33.0977 61.5669 33.0577 61.453C33.0311 61.4103 33.0311 61.3818 33.0177 61.3391L20.8694 37.803L44.0592 45.8192V114.876H31.1642C28.9372 114.876 27.1236 116.812 27.1236 119.175V124.7C27.1236 127.078 28.9372 129 31.1642 129H68.8358C71.0628 129 72.8764 127.064 72.8764 124.7V119.175C72.8764 116.798 71.0628 114.876 68.8358 114.876H55.9408V49.9199L80.5707 58.4202L66.9823 84.7613C66.9823 84.7613 66.9556 84.8325 66.9556 84.8752C66.8889 85.0033 66.8756 85.1457 66.8356 85.2738C66.7956 85.402 66.7556 85.5444 66.7556 85.701C66.7556 85.7437 66.7289 85.7722 66.7289 85.8149C66.7289 95.554 74.1832 103.499 83.3711 103.499C92.559 103.499 100 95.554 100 85.8149C100 85.7722 99.9733 85.7437 99.9733 85.701L99.9867 85.6868ZM50.0067 4.28576C53.9005 4.28576 57.0876 7.6745 57.0876 11.8036C57.0876 15.9328 53.9005 19.35 50.0067 19.35C46.1128 19.35 42.9257 15.9613 42.9257 11.8321C42.9257 7.70298 46.1128 4.28576 50.0067 4.28576ZM16.6422 38.5434L27.8304 60.2285H5.44073L16.6556 38.5434H16.6422ZM16.6289 75.7626C10.3747 75.7626 5.17402 70.8931 4.18723 64.5285H29.0439C28.0837 70.8931 22.8964 75.7626 16.6289 75.7626ZM68.8358 119.19V124.714H31.1642V119.19H68.8358ZM53.5538 46.4599C52.5137 47.2573 51.8869 48.5672 51.8869 49.9341V114.904H48.1397V45.8477C48.1397 43.9825 47.0196 42.3308 45.3527 41.747L17.2823 32.0507C17.2823 32.0507 17.2423 32.0507 17.2156 32.0222H17.189C17.189 32.0222 17.149 31.9937 17.1089 31.9937L6.25417 28.2348C5.70743 28.0354 5.21403 27.594 4.94733 27.0103C4.82731 26.7397 4.64062 26.1844 4.82731 25.6149C5.09401 24.7891 5.80077 24.2338 6.61422 24.2338C6.82758 24.2338 7.0276 24.2765 7.20096 24.3192L42.8457 36.6212C44.0725 37.0483 45.4327 36.8205 46.4729 36.0232C47.513 35.2258 48.1397 33.9159 48.1397 32.549V23.4507C48.7398 23.5646 49.3666 23.6215 50.02 23.6215C50.6734 23.6215 51.2868 23.5503 51.9003 23.4507V36.6497C51.9003 38.5149 53.0204 40.1666 54.6873 40.7503L93.9992 54.3195C94.9993 54.647 95.5461 55.8146 95.2127 56.854C94.8793 57.8934 93.8125 58.4772 92.8124 58.1497L57.1676 45.8477C55.9541 45.4205 54.6073 45.6768 53.5671 46.4742L53.5538 46.4599ZM94.5726 83.6364H72.1696L83.3578 61.9513L94.5726 83.6364ZM83.3844 99.1705C77.1303 99.1705 71.9296 94.301 70.9428 87.9364H95.7994C94.826 94.301 89.6386 99.1705 83.3844 99.1705Z" fill="white"/>
</svg>
