<svg width="248" height="44" viewBox="0 0 248 44" fill="none" xmlns="http://www.w3.org/2000/svg">
<g clip-path="url(#clip0_2461_11850)">
<path d="M132.796 20.7784C132.181 20.7784 131.58 20.8503 131.001 20.9805L129.302 15.072C129.457 14.8789 129.566 14.6454 129.603 14.385C129.717 13.6083 129.165 12.8855 128.377 12.7777L124.068 12.1761L121.284 8.44062C121.152 7.8345 120.829 7.2643 120.305 6.83778C119.07 5.84105 117.253 6.02064 116.241 7.23736L111.695 12.7149C111.271 13.2222 111.071 13.8328 111.052 14.4434C110.861 15.2112 111.144 16.0462 111.831 16.5356L114.606 18.5021L112.328 21.7976C111.125 21.1197 109.736 20.729 108.251 20.729C103.7 20.729 99.9961 24.3792 99.9961 28.8645C99.9961 33.3497 103.7 36.9999 108.251 36.9999C112.51 36.9999 116.023 33.8032 116.455 29.722H118.41C118.733 30.3955 119.426 30.8624 120.227 30.8624C121.343 30.8624 122.25 29.9689 122.25 28.869V26.651L128.651 19.0813L129.357 21.5327C126.546 22.8168 124.587 25.6184 124.587 28.8645C124.587 33.3228 128.268 36.9505 132.792 36.9505C137.315 36.9505 140.996 33.3228 140.996 28.8645C140.996 24.4062 137.315 20.7784 132.792 20.7784H132.796ZM108.255 35.2938C104.661 35.2938 101.736 32.4114 101.736 28.869C101.736 25.3266 104.661 22.4441 108.255 22.4441C109.376 22.4441 110.433 22.7225 111.358 23.2164L107.782 28.3886C107.599 28.649 107.581 28.9902 107.731 29.2685C107.882 29.5469 108.178 29.722 108.497 29.722H114.711C114.287 32.8603 111.554 35.2938 108.255 35.2938ZM110.132 28.0114L112.752 24.2221C113.795 25.2053 114.51 26.5298 114.711 28.0114H110.132ZM118.214 28.0114H116.46C116.241 25.9461 115.23 24.1143 113.736 22.8033L116.018 19.5033L118.218 21.0613V28.0069L118.214 28.0114ZM122.255 23.9841V20.0466C122.255 19.4944 122.009 18.978 121.608 18.6054L127.088 18.2687L122.255 23.9841ZM119.439 17.025L117.016 15.3054L120.077 11.6194L122.109 14.3446C122.337 14.6544 122.683 14.8565 123.07 14.9103L127.648 15.5524L127.922 16.5087L119.444 17.0295L119.439 17.025ZM132.796 35.2444C129.229 35.2444 126.323 32.3844 126.323 28.8645C126.323 26.3951 127.753 24.258 129.84 23.1984L131.48 28.9094C131.589 29.2865 131.935 29.529 132.313 29.529C132.391 29.529 132.473 29.52 132.55 29.4975C133.01 29.3673 133.279 28.8959 133.147 28.4424L131.475 22.6192C131.903 22.5339 132.345 22.4845 132.796 22.4845C136.363 22.4845 139.27 25.3445 139.27 28.8645C139.27 32.3844 136.363 35.2444 132.796 35.2444Z" fill="#2578A8"/>
<path d="M123.152 6.93217C125.094 6.93217 126.669 5.38035 126.669 3.46608C126.669 1.55182 125.094 0 123.152 0C121.209 0 119.635 1.55182 119.635 3.46608C119.635 5.38035 121.209 6.93217 123.152 6.93217Z" fill="#2578A8"/>
</g>
<rect y="37" width="248" height="7" fill="#2578A8"/>
<defs>
<clipPath id="clip0_2461_11850">
<rect width="41" height="37" fill="white" transform="translate(100)"/>
</clipPath>
</defs>
</svg>
