<svg width="44" height="26" viewBox="0 0 44 26" fill="none" xmlns="http://www.w3.org/2000/svg">
<g clip-path="url(#clip0_2453_10318)">
<path d="M35.226 8.63111C34.5256 8.63111 33.8296 8.72 33.1515 8.88444L30.6639 1.95111C30.9828 1.84 31.3195 1.77778 31.6608 1.77778C32.3164 1.77778 32.945 2.04 33.403 2.50222C33.7532 2.84889 34.3235 2.84889 34.6737 2.50222C34.8399 2.33333 34.9297 2.10667 34.9252 1.87111C34.9252 1.63556 34.8219 1.40889 34.6513 1.24444C33.8565 0.453333 32.7833 0.00888889 31.6563 0C30.7313 0 29.8288 0.266667 29.0519 0.76C28.7197 0.982222 28.576 1.4 28.7017 1.77778L29.7883 4.80444H18.4056L17.988 3.60444H19.7841C20.278 3.60444 20.6821 3.20444 20.6821 2.71556C20.6821 2.22667 20.278 1.82667 19.7841 1.82667H14.8133C14.3194 1.82667 13.9153 2.22667 13.9153 2.71556C13.9153 3.20444 14.3194 3.60444 14.8133 3.60444H16.0841L16.7891 5.61333L13.4079 9.95555C12.0204 9.08444 10.4129 8.62222 8.76947 8.62222C3.92448 8.62667 0 12.52 0 17.32C0 22.12 3.93795 26.0044 8.78743 26C13.2777 26 17.0405 22.64 17.5075 18.2222H21.8496C21.9394 18.2222 22.0247 18.2044 22.11 18.1778H22.137C22.137 18.1778 22.1729 18.1778 22.1908 18.1556L22.2672 18.12C22.3031 18.1022 22.339 18.08 22.3704 18.0533L22.4243 18.0178C22.4737 17.9733 22.5231 17.9244 22.5635 17.8711L30.7044 7.37778L31.4587 9.48444C27.1032 11.5556 25.2667 16.7289 27.3591 21.0444C29.4516 25.3556 34.6782 27.1733 39.0383 25.1022C43.3938 23.0311 45.2303 17.8578 43.1379 13.5422C41.6785 10.5333 38.6027 8.62222 35.226 8.63111ZM35.226 24.2267C31.3734 24.2267 28.2527 21.1333 28.2572 17.32C28.2572 14.7156 29.739 12.3378 32.0829 11.1644L34.3953 17.6133C34.5166 17.9689 34.8489 18.2133 35.226 18.2222C35.3248 18.2222 35.4281 18.2089 35.5224 18.1733C35.9894 18.0089 36.2364 17.5022 36.0702 17.04L33.7532 10.5689C34.2382 10.4667 34.7321 10.4133 35.226 10.4133C39.0832 10.5111 42.1276 13.68 42.0288 17.4978C41.9345 21.1778 38.944 24.1378 35.226 24.2311V24.2267ZM8.76947 24.2267C4.91234 24.1289 1.86795 20.96 1.96673 17.1422C2.06103 13.4622 5.05154 10.5022 8.76947 10.4089C10.0133 10.4089 11.2301 10.7378 12.2988 11.3689L8.07797 16.7689C7.76365 17.1467 7.81753 17.7067 8.20369 18.0222C8.36534 18.1511 8.56291 18.2222 8.76947 18.2222H15.6845C15.2265 21.6578 12.2674 24.2222 8.76947 24.2267ZM29.043 6.6L22.1459 15.4667L19.0432 6.6H29.043ZM15.6845 16.4444H10.6015L13.7447 12.4711C14.8133 13.5467 15.4959 14.9467 15.6845 16.4444ZM20.5788 16.4444H17.5075C17.283 14.3911 16.3311 12.48 14.8133 11.0622L17.5075 7.65333L20.5788 16.4444Z" fill="white"/>
</g>
<defs>
<clipPath id="clip0_2453_10318">
<rect width="44" height="26" fill="white"/>
</clipPath>
</defs>
</svg>
