<svg width="121" height="104" viewBox="0 0 121 104" fill="none" xmlns="http://www.w3.org/2000/svg">
<g clip-path="url(#clip0_2461_11849)">
<path d="M8.86389 50.0854C12.2612 21.839 37.9524 1.68923 66.2483 5.08076C67.6291 5.24587 68.9853 5.4807 70.3269 5.74977C65.1923 2.96977 59.4635 1.08138 53.3133 0.343876C27.1945 -2.78592 3.47938 15.8131 0.344244 41.8873C-1.59883 58.0402 4.81847 73.2684 16.1902 83.2644C10.2654 73.6904 7.41699 62.1276 8.86511 50.0854H8.86389Z" fill="#099A39"/>
<path d="M73.4945 100.309C47.1882 100.309 25.8634 79.0205 25.8634 52.7592C25.8634 33.205 37.6909 16.4149 54.5905 9.11084C33.4482 11.8052 16.0218 28.5231 13.3657 50.6115C10.2306 76.6857 28.8613 100.359 54.9801 103.49C63.6725 104.532 72.0917 103.156 79.581 99.9103C77.5865 100.165 75.5589 100.31 73.4945 100.31V100.309Z" fill="#FFDD08"/>
</g>
<path d="M55.707 42.3701L61.3872 39.6431C62.5058 39.1054 63.8018 39.0732 64.9478 39.5527L78.8232 45.366C79.6789 45.724 80.0361 46.7449 79.5908 47.5577L69.5613 65.8561C69.3468 66.2488 68.7478 66.0147 68.8557 65.581L72.3133 51.6091C72.4274 51.1458 72.2067 50.6663 71.7801 50.4519L55.7083 42.3701H55.707Z" fill="white"/>
<path d="M63.2969 26.5916L66.0985 25.3241C67.3474 24.7592 69.0006 25.4691 69.5562 26.8084L72.0477 32.8174L87.8826 39.944C88.3043 40.1336 88.1667 40.6985 87.7227 40.6006L69.9543 36.662L63.2981 26.5904L63.2969 26.5916Z" fill="white"/>
<path d="M67.0975 50.5921L59.7381 63.7214C59.5298 64.0944 60.0122 64.4661 60.3198 64.1687L68.577 56.1947L67.0962 50.5908L67.0975 50.5921Z" fill="white"/>
<path d="M98.0777 50.2563C93.0413 47.3026 86.116 49.7434 82.61 55.709C79.1039 61.6747 80.3453 68.9053 85.3818 71.8602C90.4183 74.8139 97.3436 72.3732 100.85 66.4075C104.356 60.4419 103.114 53.2112 98.0777 50.2563ZM98.9422 65.2875C95.7102 70.7861 89.5402 73.1612 85.1586 70.5915C80.7782 68.0219 79.8468 61.4814 83.0775 55.9828C86.3095 50.4843 92.4795 48.1092 96.8611 50.6788C101.242 53.2484 102.173 59.7889 98.9422 65.2875Z" fill="white"/>
<path d="M93.7087 62.3392C94.6708 60.7024 94.3939 58.7556 93.0903 57.9909C91.7868 57.2263 89.9501 57.9333 88.988 59.5702C88.026 61.207 88.3028 63.1538 89.6064 63.9185C90.91 64.6831 92.7466 63.9761 93.7087 62.3392Z" fill="white"/>
<path d="M62.4684 56.7236C57.4319 53.7699 50.5066 56.2107 47.0006 62.1763C43.4945 68.1419 44.736 75.3726 49.7724 78.3275C54.8089 81.2812 61.7342 78.8405 65.2402 72.8748C68.7463 66.9092 67.5048 59.6785 62.4684 56.7236ZM63.3316 71.756C60.0996 77.2546 53.9296 79.6297 49.548 77.0601C45.1676 74.4904 44.2362 67.9499 47.4669 62.4513C50.6989 56.9528 56.8689 54.5777 61.2505 57.1473C65.6309 59.7169 66.5623 66.2575 63.3316 71.756Z" fill="white"/>
<path d="M58.0993 68.8065C59.0614 67.1697 58.7845 65.2229 57.481 64.4582C56.1774 63.6936 54.3407 64.4006 53.3787 66.0375C52.4166 67.6743 52.6935 69.6211 53.997 70.3857C55.3006 71.1504 57.1373 70.4434 58.0993 68.8065Z" fill="white"/>
<path d="M92.9105 44.3759C92.2483 43.5569 91.5203 42.7912 90.6918 42.1358C90.6236 42.085 90.5566 42.033 90.4884 41.9822C91.7311 41.5746 92.9453 41.0951 94.0974 40.4421C92.3896 40.5214 90.7513 40.8956 89.1205 41.3528C87.497 41.8323 85.9096 42.3873 84.4238 43.2311C86.1316 43.1542 87.7711 42.7788 89.4008 42.3204C89.6376 42.2498 89.8745 42.1779 90.1102 42.1036C90.4549 42.8098 90.8977 43.459 91.3739 44.0847C91.5227 44.2755 91.6765 44.4638 91.8328 44.6484C91.6406 45.714 91.5327 46.7981 91.6542 47.8809C92.2867 46.7968 92.6451 45.5913 92.9105 44.3746V44.3759Z" fill="white"/>
<path d="M79.7031 27.4803L80.4212 28.2138C80.7908 27.8545 81.1244 27.4407 81.4084 26.9649C82.2381 25.5476 82.3522 24.0422 81.9553 22.6868L81.5337 22.7512C81.845 24.4176 81.3179 26.203 79.7031 27.4791V27.4803Z" fill="white"/>
<path d="M86.72 21.1962L86.6171 21.4366L86.3777 21.6174C85.0792 21.8504 83.7385 21.8392 82.4512 22.1539C82.4971 22.4599 82.5393 22.7325 82.2826 22.9716C82.2255 23.0237 82.1461 23.0348 82.1064 23.0931C81.939 23.3421 81.9539 23.6394 81.6699 23.8674C81.3673 24.1115 80.0812 24.1573 79.626 24.2441C79.5417 24.2602 79.3805 24.2664 79.3371 24.3308L78.6302 25.9873L78.624 26.0901L80.3578 27.9114C80.8948 28.0737 81.8336 27.4047 82.0903 28.184C82.1151 28.2583 82.125 28.4405 82.1598 28.4801C82.2863 28.6251 82.4611 28.6201 82.5752 28.8865C82.6236 28.9992 82.7166 29.5766 82.7129 29.703C82.703 30.1366 82.3805 30.2246 82.1598 30.5219C81.9589 30.7945 81.8621 31.0708 81.8286 31.4053C81.8162 31.5329 81.8522 31.7151 81.8286 31.829C81.7617 32.1351 81.6166 32.2069 81.3784 32.3544C81.0337 32.5675 80.2375 33.0271 79.8828 33.1609C79.6186 33.2601 79.378 33.2155 79.1684 33.0247C78.9104 32.7905 78.6078 32.3098 78.361 32.0285C77.9034 31.5069 77.411 31.015 76.9385 30.5071C76.8505 30.2332 77.0477 30.0437 77.3143 30.206C77.4892 30.3125 78.0101 30.911 78.1862 31.1018C78.3747 31.305 78.5446 31.528 78.7381 31.7274C78.7604 31.751 78.7864 31.8253 78.8298 31.7906C78.5037 30.9283 77.9828 30.0363 77.3317 29.3771C77.039 29.081 76.2316 28.5136 76.0654 28.2162C75.7802 27.707 76.3829 27.5088 76.3705 27.1457C76.3643 26.9735 76.0108 26.7951 76.0753 26.5647C76.1374 26.3466 76.3184 26.3305 76.4896 26.4494C76.7736 26.914 77.385 27.4307 77.5276 27.9511C77.6082 28.2484 77.6033 28.7898 77.7211 29.0451C77.8054 29.2284 78.1762 29.5964 78.3238 29.7996C78.9328 30.6396 79.4412 31.6729 79.5417 32.7124C79.569 32.7558 79.755 32.6666 79.8009 32.6455C80.2027 32.4684 80.6244 32.1698 81.0225 31.9728C80.8055 31.3743 79.6149 30.4203 80.6492 29.9855L82.2069 29.7922C82.2404 29.7724 82.1449 29.0984 82.1114 29.0451C82.0519 28.9509 81.9452 28.9868 81.8472 28.9943C81.34 29.0364 80.7559 29.2359 80.2548 29.2545C80.1134 29.2594 79.982 29.2656 79.8567 29.1814C79.0865 28.3897 78.2643 27.6116 77.5388 26.774C77.3651 26.5746 77.1766 26.3986 77.2101 26.1087C77.6169 25.2476 77.9133 24.2069 78.3573 23.3755C78.4727 23.16 78.6215 23.1017 78.846 23.0398L81.9601 22.59C82.0382 22.4971 81.9911 22.3583 81.9477 22.258C81.7207 22.3162 81.4913 22.3658 81.2606 22.403C80.2201 22.5702 78.9154 22.8118 77.8836 22.8787C77.731 22.8886 77.5698 22.906 77.421 22.8515C77.2622 22.7932 76.4424 22.066 76.3494 21.9185C76.2118 21.7017 76.3011 21.4043 76.4896 21.2507L75.6487 21.0537C75.8273 21.2767 76.3767 22.0858 76.3345 22.3497C76.3023 22.5516 76.0344 22.6247 75.898 22.4736C75.8558 22.4277 75.7082 22.0325 75.6499 21.9259C75.4428 21.5518 75.0088 21.0091 74.6243 20.8171C74.406 20.708 73.0182 20.3847 72.7491 20.3611C72.5594 20.3438 72.129 20.459 71.943 20.5271C70.1633 21.1751 69.4043 23.4127 70.4547 24.9924C70.7598 25.4508 71.1108 25.5078 71.561 25.768C72.0868 26.0728 72.3398 26.3701 72.9798 26.3776C74.509 26.3937 75.6983 25.291 75.9798 23.8141C76.017 23.6184 75.9588 23.1748 76.2651 23.2033C76.5739 23.2318 76.5057 23.5936 76.4759 23.8141C76.2614 25.4446 74.9406 26.6873 73.3221 26.8546C73.3295 26.9103 73.3705 26.9178 73.4052 26.945C74.3725 27.7243 75.6152 28.464 76.4635 29.3784C76.7215 29.6559 76.4586 29.9669 76.1398 29.7587C75.6661 29.449 75.046 28.7886 74.5573 28.402C72.8682 27.0627 71.2968 26.1793 69.3708 25.2303C68.9653 25.0308 68.7854 24.923 68.7532 24.4572C68.6949 23.6357 68.7805 22.7412 68.7557 21.9136C68.7755 21.6472 68.9764 21.5369 69.1079 21.3585C69.382 20.9856 69.594 20.6473 69.5754 20.1617C69.5544 19.5967 69.1066 19.4418 69.5692 18.8533C70.079 18.2028 70.7958 17.6019 71.3216 16.9502C71.406 16.8883 71.4891 16.8412 71.5908 16.8115C71.7197 16.7743 72.5321 16.6628 72.6375 16.6814C72.9227 16.7322 72.9376 17.0642 72.6958 17.1547C72.4837 17.234 71.8177 17.2055 71.659 17.3071L69.9388 19.1804L77.127 20.884C77.2895 20.8926 77.6454 20.6325 77.8178 20.5556C78.5198 20.2434 79.4412 20.3302 80.1941 20.1988L80.2176 20.1369C79.9373 19.8717 79.5702 19.6301 79.3048 19.3588C78.9489 18.9945 79.2279 18.7443 79.285 18.3143C78.051 17.54 76.5429 17.2067 75.1043 17.1101C74.7024 17.0828 74.1307 17.1435 73.7735 17.089C73.5366 17.0531 73.4163 16.8301 73.5999 16.6578C73.6917 16.5724 74.2832 16.5885 74.4457 16.5909C75.8013 16.6058 77.4644 16.8722 78.7058 17.431C78.8894 17.514 79.3296 17.8138 79.4847 17.8349C79.5355 17.8423 79.636 17.6738 79.8815 17.7519C80.5872 17.9786 81.3462 18.4952 82.0407 18.779L84.784 19.9448C85.2479 20.1555 85.9089 20.236 86.3504 20.4392C86.658 20.5804 86.7609 20.8765 86.7225 21.1937L86.72 21.1962ZM79.6285 18.9921C80.0291 19.3192 80.3677 19.7045 80.8352 19.9399C81.6228 20.3351 82.6769 20.7204 83.524 20.9757C84.3847 21.2358 85.1673 21.3882 86.0577 21.1937C86.2723 21.1466 86.3095 20.962 86.1284 20.879C85.9461 20.7948 85.6311 20.7526 85.4277 20.6833C83.8526 20.1443 82.3545 19.4356 80.8514 18.7368C80.5091 18.5782 80.1655 18.4234 79.8232 18.266L79.6298 18.9921H79.6285ZM83.4062 21.4589L82.0581 20.9942L80.6877 20.4119C80.6616 20.4825 80.6219 20.5259 80.5661 20.5742C80.3156 20.7886 78.707 20.7774 78.2531 20.9038L76.8455 21.6199L76.7922 21.7042C77.0464 21.8528 77.3007 22.2307 77.5425 22.3645C77.6194 22.4067 77.6529 22.4079 77.7372 22.4079L81.1391 21.9321L83.4062 21.4601V21.4589ZM81.6277 28.552C81.6749 28.5173 81.655 28.298 81.5583 28.2831C81.3822 28.2571 80.829 28.4318 80.5984 28.4442C80.173 28.4665 80.0142 28.2806 79.7401 28.0081C79.3309 27.6017 78.5942 26.8732 78.2693 26.4308C78.1266 26.2363 78.0907 26.0592 78.1663 25.8238C78.3089 25.3827 78.6661 24.5451 78.8844 24.1363C78.9824 23.9541 79.1213 23.8439 79.3197 23.7918C79.9001 23.6382 80.6616 23.6642 81.2606 23.5317C81.4206 23.4858 81.4789 23.3235 81.5322 23.1847L78.8484 23.5515L77.7149 26.131L77.7087 26.2338L80.1048 28.7613L81.6265 28.552H81.6277ZM71.6342 20.117L69.9897 19.7193C70.1521 20.2893 70.017 20.8703 69.7057 21.3659C69.5779 21.5691 69.2666 21.8467 69.2307 22.0449L69.2443 24.5575C69.2753 24.6517 69.7044 24.8276 69.8173 24.8871C68.969 23.0831 69.7925 20.8988 71.6354 20.117H71.6342ZM77.1245 28.5259C77.0663 28.1766 77.0452 27.8408 76.7314 27.6128L76.4747 27.9647L77.1258 28.5259H77.1245ZM81.6811 30.3559L80.9258 30.4327L80.7273 30.5009L80.7534 30.6173L81.34 31.4908C81.3425 31.0819 81.4628 30.7041 81.6798 30.3571L81.6811 30.3559Z" fill="white"/>
<path d="M74.8108 24.1337C74.383 25.1373 73.2221 25.6056 72.2176 25.1782C71.213 24.7507 70.7442 23.591 71.1721 22.5875C71.6 21.5839 72.7608 21.1156 73.7654 21.543C74.7699 21.9705 75.2387 23.1302 74.8108 24.1337ZM74.3557 23.9417C74.6769 23.1884 74.3247 22.3186 73.5719 21.9977C72.8178 21.6768 71.9472 22.0287 71.626 22.7808C71.3048 23.5341 71.657 24.4038 72.4098 24.7247C73.1639 25.0456 74.0345 24.6937 74.3557 23.9417Z" fill="white"/>
<path d="M77.2932 25.562C77.1629 25.8668 76.8107 26.0093 76.5044 25.8792C76.1993 25.7491 76.0567 25.3972 76.1869 25.0912C76.3171 24.7864 76.6693 24.6439 76.9757 24.774C77.282 24.9041 77.4234 25.256 77.2932 25.562ZM76.8467 25.37C76.8703 25.3142 76.8442 25.2485 76.7884 25.225C76.7326 25.2015 76.6669 25.2275 76.6433 25.2832C76.6197 25.339 76.6458 25.4047 76.7016 25.4282C76.7574 25.4517 76.8231 25.4257 76.8467 25.37Z" fill="white"/>
<path d="M78.9049 21.8551C78.7759 22.1587 78.4237 22.2999 78.1198 22.1711C77.816 22.0422 77.6746 21.6904 77.8036 21.3868C77.9326 21.0833 78.2848 20.942 78.5886 21.0709C78.8925 21.1997 79.0339 21.5516 78.9049 21.8551ZM78.451 21.6643C78.4733 21.6111 78.4485 21.5491 78.3952 21.5268C78.3418 21.5045 78.2798 21.5293 78.2575 21.5826C78.2352 21.6358 78.26 21.6978 78.3133 21.7201C78.3666 21.7424 78.4287 21.7176 78.451 21.6643Z" fill="white"/>
<defs>
<clipPath id="clip0_2461_11849">
<rect width="121" height="103.831" fill="white"/>
</clipPath>
</defs>
</svg>
