<svg width="32" height="31" viewBox="0 0 32 31" fill="none" xmlns="http://www.w3.org/2000/svg">
<g clip-path="url(#clip0_2453_10324)">
<path d="M27.6576 2.0293H26.2439L25.84 3.49282C25.5034 4.82329 24.1907 5.82114 22.8443 5.82114C22.1038 5.82114 21.3969 5.52179 20.993 4.95634C20.5554 4.39088 20.4208 3.62586 20.6228 2.8941L20.8584 2.0293H16.3144L15.9104 3.49282C15.5402 4.82329 14.2611 5.82114 12.8811 5.82114C12.1406 5.82114 11.4674 5.52179 11.0298 4.95634C10.5923 4.39088 10.4576 3.62586 10.6596 2.8941L10.8952 2.0293H9.41418C7.159 2.0293 4.90382 3.75891 4.33161 5.98745L0.157844 21.1881C-0.17875 22.3855 0.0232069 23.5829 0.730054 24.4478C1.40324 25.3126 2.44668 25.8115 3.62476 25.8115H5.67799V26.7096C5.67799 29.0711 7.63023 31.0003 10.0201 31.0003H27.6576C30.0474 31.0003 31.9996 29.0711 31.9996 26.7096V6.32007C31.9996 3.95848 30.0474 2.0293 27.6576 2.0293ZM3.65842 23.2171C3.38915 23.2171 3.05255 23.1505 2.8506 22.8845C2.64864 22.6516 2.61498 22.2857 2.74962 21.8866L6.18288 9.18058H27.119L23.8541 21.2214C23.5511 22.319 22.3731 23.2503 21.296 23.2503H3.65842V23.2171ZM29.3742 26.7096C29.3742 27.6409 28.6 28.4059 27.6576 28.4059H10.0537C9.11125 28.4059 8.33708 27.6409 8.33708 26.7096V25.8115H21.296C23.5511 25.8115 25.8063 24.0819 26.3785 21.8533L29.3742 10.8437V26.7096Z" fill="white"/>
<path d="M12.8812 4.62339C13.6891 4.62339 14.4969 3.99142 14.6988 3.19313L15.1701 1.43026C15.372 0.631974 14.9008 0 14.1266 0C13.3525 0 12.511 0.631974 12.309 1.43026L11.8378 3.19313C11.6358 3.95815 12.1071 4.62339 12.8812 4.62339Z" fill="white"/>
<path d="M22.8445 4.62339C23.6523 4.62339 24.4601 3.99142 24.6621 3.19313L25.1333 1.43026C25.3352 0.631974 24.864 0 24.0898 0C23.3157 0 22.4742 0.631974 22.2722 1.43026L21.7673 3.19313C21.5654 3.95815 22.0366 4.62339 22.8445 4.62339Z" fill="white"/>
<path d="M16.0789 16.9971H12.9486C12.7466 16.9971 12.511 17.1634 12.4437 17.363L11.8378 19.6248C11.7705 19.8243 11.9051 19.9906 12.1071 19.9906H15.2374C15.4394 19.9906 15.675 19.8243 15.7423 19.6248L16.3482 17.363C16.4155 17.1634 16.2809 16.9971 16.0789 16.9971Z" fill="white"/>
<path d="M10.5584 16.9971H7.42808C7.22612 16.9971 6.9905 17.1634 6.92319 17.363L6.31732 19.6248C6.25 19.8243 6.38463 19.9906 6.58659 19.9906H9.71692C9.91887 19.9906 10.1545 19.8243 10.2218 19.6248L10.8277 17.363C10.895 17.1634 10.794 16.9971 10.5584 16.9971Z" fill="white"/>
<path d="M21.5994 16.9971H18.4691C18.2671 16.9971 18.0315 17.1634 17.9642 17.363L17.3583 19.6248C17.291 19.8243 17.4257 19.9906 17.6276 19.9906H20.7579C20.9599 19.9906 21.1955 19.8243 21.2628 19.6248L21.8687 17.363C21.936 17.1634 21.8014 16.9971 21.5994 16.9971Z" fill="white"/>
<path d="M17.3582 12.2402H14.2279C14.0259 12.2402 13.7903 12.4065 13.723 12.6061L13.1171 14.8679C13.0498 15.0675 13.1844 15.2338 13.3864 15.2338H16.5167C16.7187 15.2338 16.9543 15.0675 17.0216 14.8679L17.6275 12.6061C17.6948 12.4065 17.5938 12.2402 17.3582 12.2402Z" fill="white"/>
<path d="M11.8719 12.2402H8.74155C8.5396 12.2402 8.30398 12.4065 8.23666 12.6061L7.63079 14.8679C7.56347 15.0675 7.69811 15.2338 7.90007 15.2338H11.0304C11.2323 15.2338 11.468 15.0675 11.5353 14.8679L12.1412 12.6061C12.2085 12.4065 12.0738 12.2402 11.8719 12.2402Z" fill="white"/>
<path d="M18.9401 15.267H22.0705C22.2724 15.267 22.508 15.1007 22.5754 14.9011L23.1812 12.6393C23.2485 12.4397 23.1139 12.2734 22.9119 12.2734H19.7816C19.5797 12.2734 19.3441 12.4397 19.2767 12.6393L18.6709 14.9011C18.6035 15.0674 18.7045 15.267 18.9401 15.267Z" fill="white"/>
</g>
<defs>
<clipPath id="clip0_2453_10324">
<rect width="32" height="31" fill="white"/>
</clipPath>
</defs>
</svg>
