<svg width="23" height="20" viewBox="0 0 23 20" fill="none" xmlns="http://www.w3.org/2000/svg">
<g clip-path="url(#clip0_2476_1532)">
<path d="M16.8516 2.74612L15.5447 1.35176C15.0368 0.808919 14.3278 0.500244 13.587 0.500244H9.41241C8.67167 0.500244 7.96268 0.808919 7.45474 1.35176L6.14786 2.74612C5.63993 3.28896 4.93093 3.59764 4.19019 3.59764H3.19019C1.70342 3.59764 0.49707 4.81105 0.49707 6.30652V16.7961C0.49707 18.2916 1.70342 19.505 3.19019 19.505H19.8092C21.296 19.505 22.5024 18.2916 22.5024 16.7961V6.3012C22.5024 4.80573 21.296 3.59231 19.8092 3.59231H18.8092C18.0685 3.59231 17.3595 3.28364 16.8516 2.7408V2.74612Z" stroke="#5CB5AF" stroke-width="1.89" stroke-miterlimit="10"/>
<path d="M11.4973 16.1362C14.3026 16.1362 16.5767 13.8487 16.5767 11.0271C16.5767 8.20539 14.3026 5.91797 11.4973 5.91797C8.69208 5.91797 6.41797 8.20539 6.41797 11.0271C6.41797 13.8487 8.69208 16.1362 11.4973 16.1362Z" stroke="#5CB5AF" stroke-width="1.89" stroke-miterlimit="10"/>
</g>
<defs>
<clipPath id="clip0_2476_1532">
<rect width="23" height="20" fill="white"/>
</clipPath>
</defs>
</svg>
