<svg width="82" height="71" viewBox="0 0 82 71" fill="none" xmlns="http://www.w3.org/2000/svg">
<g clip-path="url(#clip0_3283_2356)">
<path d="M75.9931 34.2484C73.6908 14.9334 56.2802 1.15494 37.1044 3.47407C36.1687 3.58698 35.2496 3.74755 34.3405 3.93154C37.8201 2.03057 41.7024 0.739282 45.8703 0.234977C63.5707 -1.90518 79.6421 10.8128 81.7667 28.6425C83.0835 39.6879 78.7346 50.101 71.0281 56.9363C75.0432 50.3895 76.9736 42.4829 75.9922 34.2484H75.9931Z" fill="#FFDE0D"/>
<path d="M32.1941 68.5916C50.0215 68.5916 64.473 54.0344 64.473 36.0768C64.473 22.7056 56.4577 11.2245 45.005 6.22998C59.3329 8.07241 71.1425 19.5042 72.9425 34.6082C75.0671 52.4379 62.4414 68.6258 44.741 70.7668C38.8503 71.4794 33.1447 70.5385 28.0693 68.3189C29.421 68.4929 30.7951 68.5924 32.1941 68.5924V68.5916Z" fill="#5CB5AF"/>
<path d="M-0.000118256 36.5526C0.14933 64.0778 32.8085 78.0119 52.5414 58.8901C64.9463 46.8888 64.9521 26.2122 52.5447 14.2109C32.8135 -4.92004 0.145176 9.02906 -0.000118256 36.5518V36.5526Z" fill="white"/>
<g clip-path="url(#clip1_3283_2356)">
<path d="M41.8824 35.8666L30.292 24.1591C28.7887 22.7067 26.3922 22.7067 24.889 24.1591C23.9086 25.1494 23.5382 26.6019 23.9304 27.9443L20.2267 36.7468L17.0894 39.8498C15.6297 41.3242 15.6297 43.7009 17.0894 45.1753L21.0763 49.2025C21.7735 49.9287 22.7103 50.3248 23.7125 50.3248C24.6929 50.3248 25.6515 49.9507 26.3487 49.2685L30.706 53.6698C30.902 53.8899 31.1853 53.9999 31.4685 53.9999H31.8171L35.6733 52.6795C36.0219 52.5695 36.2833 52.2614 36.3704 51.9093C36.4576 51.5352 36.3704 51.1611 36.0872 50.897L30.706 45.4834L38.048 42.2925C38.3966 42.4025 38.7452 42.4685 39.0938 42.4685C41.207 42.4685 42.9282 40.708 42.9064 38.5734C42.9064 37.5611 42.4924 36.5928 41.7953 35.8666H41.8824ZM25.3683 30.1229L35.9783 40.9061L29.1155 43.8769L22.4271 37.0549L25.3683 30.1229ZM22.6232 47.7281L18.6362 43.6129C18.048 42.9967 18.048 42.0284 18.6362 41.4122L21.1417 38.8815L27.3291 45.1313L25.5208 46.9579L24.8236 47.6841C24.1918 48.2562 23.2332 48.2342 22.6232 47.6621V47.7281ZM31.7517 51.7333L27.8301 47.7721L28.8759 46.7378L33.2332 51.1391L31.7517 51.7333ZM40.3356 39.8498C39.7038 40.4879 38.658 40.4879 38.0262 39.8498L26.3487 28.0763C25.7169 27.4161 25.7169 26.3818 26.3487 25.7216C26.6755 25.4135 27.0894 25.2375 27.5251 25.2375C27.9609 25.2375 28.3748 25.4135 28.6798 25.7216L40.2702 37.429C40.9238 38.0452 40.9674 39.1015 40.3574 39.7617C40.3574 39.7617 40.3574 39.7617 40.3574 39.7837V39.8498H40.3356Z" fill="#1C2142"/>
<path d="M39.1154 28.0541C39.4204 28.0541 39.6819 27.9441 39.8997 27.724L42.7102 24.8852C43.1241 24.4671 43.1241 23.7629 42.7102 23.3447C42.2962 22.9046 41.5991 22.9046 41.1633 23.3447L38.3529 26.1836C37.9389 26.5797 37.9172 27.2619 38.3093 27.68C38.3093 27.68 38.3311 27.702 38.3529 27.724C38.549 27.9221 38.8322 28.0541 39.1154 28.0541Z" fill="#1C2142"/>
<path d="M35.3247 26.2278C35.9129 26.2278 36.3922 25.7217 36.414 25.1275V21.1003C36.414 20.4841 35.9347 20 35.3247 20C34.7147 20 34.2354 20.4841 34.2354 21.1003V25.1275C34.2354 25.7437 34.7147 26.2278 35.3247 26.2278Z" fill="#1C2142"/>
<path d="M39.8564 30.8054C39.8564 31.4216 40.3357 31.9057 40.9458 31.9057H44.9109C45.5209 31.9057 46.0002 31.4216 46.0002 30.8054C46.0002 30.1892 45.5209 29.7051 44.9109 29.7051H40.9458C40.3357 29.7051 39.8564 30.1892 39.8564 30.8054Z" fill="#1C2142"/>
</g>
</g>
<defs>
<clipPath id="clip0_3283_2356">
<rect width="82" height="71" fill="white" transform="matrix(-1 0 0 1 82 0)"/>
</clipPath>
<clipPath id="clip1_3283_2356">
<rect width="30" height="34" fill="white" transform="translate(16 20)"/>
</clipPath>
</defs>
</svg>
