<svg width="121" height="104" viewBox="0 0 121 104" fill="none" xmlns="http://www.w3.org/2000/svg">
<path d="M8.86389 50.0852C12.2612 21.8388 37.9524 1.68899 66.2483 5.08052C67.6291 5.24563 68.9853 5.48045 70.3269 5.74953C65.1923 2.96953 59.4635 1.08113 53.3133 0.343632C27.1945 -2.78616 3.47938 15.8128 0.344244 41.8871C-1.59883 58.0399 4.81847 73.2682 16.1902 83.2642C10.2655 73.6901 7.41699 62.1274 8.86511 50.0852H8.86389Z" fill="#099A39"/>
<path d="M73.4945 100.309C47.1882 100.309 25.8634 79.0203 25.8634 52.7589C25.8634 33.2047 37.6909 16.4147 54.5905 9.1106C33.4482 11.805 16.0218 28.5229 13.3657 50.6112C10.2306 76.6855 28.8613 100.359 54.9801 103.49C63.6725 104.532 72.0917 103.156 79.581 99.9101C77.5865 100.164 75.5589 100.31 73.4945 100.31V100.309Z" fill="#FFDD08"/>
<path d="M55.0203 41.1097L57.6566 37.8005C58.1755 37.1482 58.9503 36.7502 59.7836 36.7052L69.8781 36.166C70.5006 36.1332 71.0159 36.6456 70.9842 37.2675L70.2764 51.2659C70.2618 51.5665 69.8305 51.5994 69.7684 51.3061L67.768 41.846C67.7023 41.532 67.4269 41.3068 67.1065 41.302L55.019 41.1097H55.0203Z" fill="white"/>
<path d="M61.6665 30.1564L63.02 28.7081C63.623 28.0631 64.6634 28.1179 65.1958 28.8237L67.5811 31.9893L77.5988 32.7219C77.8656 32.7414 77.8827 33.126 77.6183 33.1686L67.0487 34.8785L61.6677 30.1552L61.6665 30.1564Z" fill="white"/>
<path d="M90.3814 46.3273C90.8777 45.0561 90.459 43.7056 89.446 43.3109C88.4331 42.9161 87.2096 43.6266 86.7132 44.8978C86.2168 46.169 86.6356 47.5195 87.6485 47.9142C88.6615 48.3089 89.885 47.5985 90.3814 46.3273Z" fill="white"/>
<path d="M57.9229 54.8697C58.3865 53.6824 57.9956 52.4211 57.0497 52.0525C56.1038 51.6839 54.9612 52.3476 54.4976 53.5348C54.034 54.7221 54.425 55.9834 55.3709 56.352C56.3167 56.7206 57.4593 56.0569 57.9229 54.8697Z" fill="white"/>
<path d="M81.6793 35.0111C81.1531 34.5376 80.589 34.108 79.9689 33.7612C79.919 33.7344 79.8678 33.7076 79.8179 33.6808C80.5988 33.278 81.3529 32.8313 82.0485 32.2751C80.924 32.5088 79.8763 32.9323 78.8445 33.4082C77.8187 33.8987 76.8246 34.4354 75.9292 35.1535C77.0536 34.921 78.1013 34.4975 79.1332 34.0204C79.283 33.9486 79.4317 33.8756 79.5803 33.8013C79.8849 34.2334 80.2467 34.6167 80.6292 34.9806C80.7486 35.0914 80.8704 35.1997 80.9935 35.3056C80.9801 36.0334 81.0227 36.7636 81.2201 37.4695C81.5246 36.6833 81.6343 35.8447 81.6793 35.0098V35.0111Z" fill="white"/>
<path d="M71.3342 50.493C73.5795 47.2775 76.0732 44.1205 78.5536 41.0779C79.2748 40.1834 80.3347 38.931 81.079 38.0377L81.5018 38.6803C78.4781 39.5006 75.179 40.3574 72.1163 40.9745C75.458 39.699 79.1176 38.5708 82.5409 37.5168C78.9617 41.9408 75.2887 46.4 71.333 50.4942L71.3342 50.493Z" fill="white"/>
<path d="M64.2109 43.2578C62.6759 44.0501 61.0569 44.599 59.411 45.0858C57.7591 45.5532 56.0986 45.9536 54.376 46.1008C55.911 45.3073 57.5288 44.7584 59.1759 44.2728C60.8278 43.8067 62.4895 43.4075 64.2109 43.2578Z" fill="white"/>
<path d="M59.2952 42.94C58.6288 43.4803 57.8857 43.7761 57.1194 44.0097C56.3483 44.2227 55.5613 44.37 54.7085 44.2665C55.3749 43.7237 56.1168 43.428 56.8843 43.1968C57.6567 42.985 58.4424 42.8389 59.2952 42.94Z" fill="white"/>
<path d="M61.1229 51.3926L60.6807 52.1837C60.5175 52.4757 60.8963 52.7666 61.1363 52.5342L61.4458 52.2348L61.1217 51.3938L61.1229 51.3926Z" fill="white"/>
<path d="M62.3066 49.2747C62.5515 49.7408 62.8488 50.3286 63.0327 50.6986L67.5999 46.2783L66.4353 41.8896L62.3066 49.2747Z" fill="white"/>
<path d="M64.204 26.8374C64.2454 26.6706 64.3843 26.6645 64.528 26.6232L64.4245 26.2666C64.2807 26.3079 64.1601 26.3773 64.0359 26.258L63.9128 25.8345C63.875 25.6678 63.8446 25.4329 63.8287 25.254C63.7971 24.8925 63.7435 24.5907 64.2235 24.6479L64.2905 23.8945C64.1053 23.8008 63.6375 23.7826 63.6411 23.5221C63.6448 23.2617 64.0468 22.6118 64.2149 22.3964C65.7719 20.3895 69.5363 19.4183 71.8924 20.3566C73.5906 21.0321 74.2022 22.1335 75.3924 23.3542C75.5276 23.4929 75.809 23.6231 75.5435 23.824C74.7991 24.0187 74.0718 24.3461 73.2897 24.2779C73.0071 24.2536 72.6489 24.1112 72.3797 24.1599C71.8924 24.2487 71.5281 24.6357 71.1419 24.9096L71.1468 26.1205L71.6938 28.013C71.706 28.0337 71.8534 27.9814 71.9179 28.1213C71.9959 28.2893 72.2225 29.0718 72.2469 29.2544C72.2664 29.4065 72.1141 29.4418 72.1141 29.4662L72.3797 30.396C72.3772 30.5007 72.3248 30.542 72.2335 30.5773C72.1214 30.6211 71.5244 30.7976 71.4416 30.7867C71.3722 30.7781 71.3283 30.7258 71.3027 30.665C71.1919 30.3996 71.1504 30.0503 71.0469 29.7753C70.8434 29.785 70.8154 29.6682 70.7667 29.4966L68.1535 28.798C67.5615 28.7152 67.0218 28.6836 66.4273 28.6994C65.421 28.7262 64.6596 28.1201 64.3051 27.1952C64.2624 27.0832 64.243 26.953 64.2015 26.8386L64.204 26.8374ZM66.5832 28.3161C66.9548 28.271 67.3117 28.1542 67.4287 27.7623C67.5919 27.2146 67.0608 26.7351 67.3093 26.0864C67.5164 25.5473 68.067 25.299 68.6238 25.3623C68.8443 25.3879 69.0733 25.4998 69.3023 25.4572C69.6045 25.4025 70.3744 24.9485 70.6644 24.7696C71.1858 24.4471 71.6682 23.9311 72.2761 23.802C72.6818 23.7169 73.0655 23.9104 73.4676 23.9177C74.0182 23.9286 74.5506 23.7242 75.0696 23.5623C74.1559 22.4743 73.2617 21.3497 71.9265 20.7655C70.3062 20.056 68.4679 20.3189 66.8646 20.9724C65.7073 21.4446 64.5487 22.2248 64.0602 23.4126L65.4588 23.9286C65.4978 23.9615 65.5087 24.0016 65.5197 24.0503C65.5416 24.1562 65.5623 24.744 65.5489 24.8536C65.5367 24.9497 65.4783 25.0069 65.3832 25.0215L64.1869 25.03C64.1979 25.327 64.2527 25.6191 64.3209 25.9087L65.4466 25.5838C65.5197 25.5631 65.6001 25.6739 65.6244 25.7359C65.6841 25.8905 65.8157 26.3165 65.8352 26.471C65.8413 26.5234 65.8023 26.639 65.756 26.6524L64.6304 26.9773C64.9337 27.8511 65.6293 28.4292 66.5832 28.3136V28.3161ZM64.6133 24.6674L65.1518 24.6552L65.1542 24.211L64.6535 24.0515C64.6535 24.138 64.5621 24.6382 64.6133 24.6661V24.6674ZM64.7814 26.1643L64.885 26.5209L65.4198 26.3664L65.3162 26.0098L64.7814 26.1643ZM70.0589 26.3651L69.6544 25.7213C69.0721 26.0621 68.5141 25.4816 67.9343 25.8686C67.5615 26.1169 67.5578 26.566 67.7138 26.9481C67.8015 27.1611 68.385 27.5615 68.5556 27.766L70.6242 28.3136L70.0601 26.3639L70.0589 26.3651ZM70.3245 26.1035L70.7643 25.9769L70.7716 25.1578L69.9919 25.5522L70.3245 26.1047V26.1035ZM70.986 28.2333L71.3429 28.1299L70.8264 26.3481L70.4694 26.4515L70.986 28.2333ZM67.531 28.3647C67.6199 28.3818 67.9111 28.4159 67.9939 28.411C68.0342 28.4086 68.0427 28.4146 68.0695 28.3769C68.0853 28.3562 68.1998 27.9814 68.1962 27.9607L67.8587 27.615C67.7783 27.8694 67.7174 28.1615 67.4859 28.327C67.492 28.3879 67.5042 28.3587 67.531 28.3647ZM68.5324 28.1457L68.4264 28.4889L70.6449 29.056L70.5389 28.6885L68.5336 28.1457H68.5324ZM70.9117 28.641L71.1175 29.3542L71.8314 29.1485L71.6256 28.4353L70.9117 28.641ZM71.6061 30.3716L71.963 30.2682L71.7571 29.555L71.4002 29.6585L71.6061 30.3716Z" fill="white"/>
<path d="M69.0195 20.7717C69.1791 20.7693 69.2425 20.8679 69.223 21.0176C69.1974 21.2123 69.0622 21.6285 68.9952 21.8281C68.9684 21.9072 68.9416 22.0508 68.8709 22.0971C68.5871 22.1884 68.291 22.237 68.0072 22.332C67.565 22.4805 67.0496 22.7202 66.6805 23.0062C66.5733 23.089 66.3065 23.3884 66.2176 23.4078C66.1457 23.4237 66.0019 23.3506 65.9264 23.3202C65.7632 23.2545 65.4123 23.1194 65.2783 23.0342C64.9993 22.859 65.31 22.5705 65.4586 22.4074C66.1713 21.6176 67.2884 21.1405 68.3105 20.8995C68.4981 20.8557 68.8356 20.7729 69.0183 20.7705L69.0195 20.7717ZM65.6401 22.7884L66.1408 22.9904C66.8011 22.3454 67.7075 21.9888 68.598 21.7977L68.7783 21.194C67.6307 21.3985 66.3845 21.8525 65.6401 22.7884Z" fill="white"/>
<path d="M71.5823 22.888C71.7699 22.888 72.2682 22.8576 72.1963 23.1606C72.1622 23.3042 71.9685 23.3006 71.8552 23.3468C71.2509 23.5927 70.8635 23.987 70.3165 24.3156C70.0461 24.4787 69.5393 24.7829 69.253 24.873C69.0508 24.9363 68.9107 24.8438 68.7218 24.8146C68.4697 24.7756 68.2784 24.7842 68.0262 24.8182C67.9129 24.8341 67.7716 24.9266 67.6827 24.7951C67.5864 24.6515 67.69 24.5468 67.7765 24.4324C68.3247 23.7059 69.3955 23.241 70.2617 23.0414C70.6893 22.9428 71.1462 22.8844 71.5835 22.8868L71.5823 22.888ZM68.6183 24.4227C68.7499 24.419 68.9764 24.5249 69.0897 24.5213C69.1957 24.5176 69.7232 24.2268 69.8536 24.155C70.2641 23.9274 70.6978 23.6377 71.0621 23.3407C71.0865 23.3213 71.1242 23.3103 71.1194 23.2689C70.0972 23.3967 69.0885 23.7046 68.3052 24.3959L68.6183 24.4215V24.4227Z" fill="white"/>
<path d="M70.2257 20.7266C70.9335 20.7728 71.6864 20.9968 72.2785 21.3875C72.3479 21.6406 72.4819 21.9436 72.5246 22.1992C72.5331 22.2516 72.5331 22.2917 72.5039 22.338C72.3857 22.5254 72.1908 22.3623 72.047 22.3148C71.4915 22.1274 70.9189 22.0118 70.3317 21.9935C70.0917 21.9862 69.7884 22.0325 69.5703 22.0154C69.3803 21.9996 69.3839 21.8609 69.4083 21.7197C69.4278 21.609 69.6532 20.8167 69.6958 20.7728C69.7177 20.7509 69.7579 20.729 69.7884 20.7205C69.87 20.6974 70.1258 20.7205 70.2257 20.7266ZM69.8481 21.6333C70.2367 21.5992 70.6278 21.6333 71.0127 21.6783L72.0543 21.912L71.9532 21.6041C71.3404 21.2864 70.6546 21.0905 69.9602 21.0954C69.976 21.183 69.7933 21.598 69.8481 21.6333Z" fill="white"/>
<path d="M72.63 24.155C72.6397 24.1659 72.6507 24.1757 72.6604 24.1878C74.0931 25.9148 73.462 27.9716 71.9502 28.9635L71.9843 29.0682C73.3244 28.3404 74.2113 26.8897 73.8482 25.1882C73.763 24.8037 73.6229 24.4531 73.445 24.1355L72.6312 24.1562L72.63 24.155Z" fill="white"/>
<path d="M97.0413 45.4266C96.9645 45.3402 96.6904 45.6676 96.6551 45.0092C96.6466 44.8437 96.6685 44.6757 96.6685 44.5102L96.9877 44.5199L96.9292 43.6169L96.5357 43.6011L96.4772 42.7406L96.7209 42.7004L96.5442 41.8753C96.0326 41.9057 96.1166 41.5917 95.8888 41.1816L96.1386 40.9966L95.7987 40.1447L95.4417 40.3053C95.4466 40.0984 95.1566 39.827 95.1457 39.698C95.1335 39.5593 95.3991 39.4083 95.2712 39.2209L94.8716 38.7621C94.4744 39.1175 94.3477 38.6282 94.0773 38.3264C94.4732 38.0891 93.8884 37.5438 93.724 37.5426C93.5997 37.5426 93.5364 37.741 93.3597 37.6814C93.2952 37.6595 92.8736 37.3077 92.8493 37.2481L92.9845 36.8903L92.3181 36.5093L92.1378 36.7807L91.4848 36.5702L91.5738 36.126L91.1778 36.0225L91.0889 36.1954C91.0828 36.2075 90.2313 36.0432 90.2264 36.0469C90.146 36.1102 90.068 36.081 89.9827 36.081C90.0778 35.4432 89.5965 35.6416 89.1994 35.6039L89.1896 35.9678L88.4392 35.9471L88.4039 35.5807L87.6071 35.5588L87.5901 36.0079L86.8384 36.087L86.8019 35.812L86.0368 36.053L86.0697 36.4181L85.3911 36.6797L85.1609 36.3925L84.5627 36.7844L84.698 37.1045C84.4872 37.096 84.2545 37.4623 84.0913 37.4513C83.9828 37.444 83.9122 37.2956 83.8415 37.2785C83.7258 37.2493 83.3896 37.5901 83.2811 37.7008L83.3628 38.0647L82.8011 38.5795L82.5599 38.4092L82.1323 38.9386C82.047 39.1199 82.2822 39.2014 82.2322 39.4132C82.2091 39.5118 81.9435 39.8915 81.8558 39.911C81.7449 39.9353 81.6097 39.7978 81.5122 39.8611C81.455 39.8976 81.1528 40.483 81.176 40.5779L81.3965 40.8445L81.07 41.4944L80.7569 41.4335L80.4962 42.1893L80.8069 42.3414L80.6217 43.2408L80.2611 43.2262L80.121 44.0404L80.4402 44.0489L80.4146 44.9544L80.0954 44.9447L80.0674 45.799L80.3914 45.8988L80.506 46.6376L80.1953 46.8116L80.3378 47.6696L80.6936 47.6757L80.8702 48.4997L80.6314 48.4936L80.8458 49.4051L81.2454 49.2347L81.539 49.9333C81.5244 50.2011 81.232 50.0173 81.3283 50.3301C81.3539 50.4128 81.6803 50.9569 81.7145 50.9617L81.9727 50.8072C82.0836 50.7877 82.443 51.3548 82.4405 51.3962C82.4381 51.451 82.298 51.5459 82.2907 51.6664C82.2834 51.7832 82.6403 52.2299 82.7305 52.2579C82.9096 52.3151 82.9912 52.04 83.1544 52.1362L83.5869 52.5609L83.487 52.9236L84.1095 53.3982L84.3483 53.1354L84.9477 53.5078L84.7808 53.8193L85.4472 54.1638L85.6957 53.8997L86.3633 54.0895L86.306 54.4546C86.4851 54.563 86.8945 54.7297 87.065 54.6092C87.1454 54.5532 87.171 54.3415 87.2672 54.3244C87.3745 54.3062 87.6949 54.4717 87.8678 54.4023L87.8654 54.7553C88.131 54.8429 88.3795 54.9342 88.6427 54.7735L88.6634 54.4254L89.4162 54.4413C89.5466 54.4741 89.2567 54.7516 89.7269 54.7273C89.8999 54.7175 90.0704 54.6372 90.2459 54.6494L90.269 54.2088L90.9318 54.0311C91.0316 54.0542 90.9464 54.5167 91.536 54.1918C91.9112 53.9849 91.698 53.9824 91.7382 53.7415C91.7602 53.6076 92.2523 53.4141 92.3924 53.3557L92.5106 53.6271L93.2001 53.1974L93.0905 52.8883C93.1039 52.808 93.5047 52.4587 93.5802 52.4331C93.7727 52.3662 93.8032 52.6352 93.9689 52.5475L94.4622 52.0108L94.2344 51.7321L94.7778 51.1662L95.0433 51.3098L95.5404 50.5917L95.3065 50.3167L95.6866 49.6485L95.9217 49.8311L96.3055 48.9402L95.9924 48.7954L96.2519 48.0323L96.6466 48.1345L96.8317 47.2802L96.5126 47.2242L96.6186 46.3224L96.9329 46.3272C96.9329 46.1264 97.0145 45.9378 97.0315 45.7418C97.0388 45.6664 97.0547 45.4412 97.0425 45.4278L97.0413 45.4266ZM88.5172 51.0165C85.6409 50.935 83.3847 48.2161 83.4773 44.9435C83.5711 41.672 85.9783 39.0858 88.8546 39.1674C91.7309 39.2489 93.9871 41.9678 93.8945 45.2404C93.8019 48.513 91.3935 51.098 88.5172 51.0165Z" fill="white"/>
<path d="M63.6155 56.9361C63.5704 56.8326 63.2269 57.0712 63.3841 56.4322C63.4243 56.2716 63.4925 56.1158 63.54 55.9588L63.8275 56.0549L64.0358 55.175L63.6825 55.0533L63.8774 54.2136L64.1101 54.2416L64.1881 53.4042C63.7142 53.2947 63.8811 53.0172 63.7934 52.5632L64.0736 52.4537L64.0102 51.5458L63.6399 51.603C63.7032 51.4058 63.5193 51.0675 63.5461 50.9409C63.5753 50.8046 63.8592 50.7328 63.797 50.5186L63.5668 49.9709C63.1039 50.2034 63.1294 49.702 62.9699 49.3381C63.3987 49.2176 63.0235 48.5373 62.876 48.4922C62.7627 48.4582 62.6482 48.631 62.5045 48.5275C62.4521 48.4898 62.1695 48.0383 62.1658 47.975L62.3924 47.6695L61.8966 47.1243L61.6554 47.336L61.123 46.9575L61.3325 46.5559L61.0024 46.349L60.872 46.4902C60.8623 46.4999 60.1374 46.1117 60.1313 46.1154C60.04 46.1543 59.9778 46.1056 59.8999 46.0813C60.1703 45.4959 59.6757 45.5567 59.3248 45.4131L59.2115 45.7588L58.5354 45.536L58.6097 45.1758L57.8922 44.9385L57.7472 45.3632L57.0406 45.2354L57.0869 44.9628L56.3219 44.9872L56.2463 45.345L55.5531 45.4119L55.4264 45.0748L54.7698 45.2878L54.8003 45.631C54.6114 45.5653 54.2947 45.8537 54.1485 45.7989C54.051 45.7624 54.0303 45.6018 53.9718 45.5653C53.8744 45.5068 53.4711 45.7417 53.3408 45.8184L53.3103 46.1884L52.6513 46.5292L52.4807 46.3016L51.9398 46.6934C51.8094 46.8444 51.9995 46.9855 51.8935 47.1754C51.8436 47.2642 51.4927 47.5551 51.4074 47.549C51.3002 47.5429 51.2174 47.375 51.1102 47.4091C51.048 47.4285 50.6034 47.9081 50.5973 48.0042L50.7203 48.3194L50.2355 48.8525L49.9687 48.7089L49.513 49.3612L49.7506 49.5912L49.3218 50.4018L48.9989 50.291L48.6359 51.0322L48.9234 51.1271L48.6383 51.9876L48.3508 51.8914L48.0779 52.702L48.3435 52.8858L48.2351 53.6245L47.9025 53.7073L47.7843 54.5677L48.106 54.6699L48.028 55.5061L47.8124 55.4355L47.7441 56.3665L48.1571 56.3117L48.2217 57.0602C48.1315 57.3121 47.9171 57.0578 47.9159 57.3827C47.9159 57.4691 48.0548 58.0789 48.084 58.0911L48.363 58.0132C48.469 58.0253 48.6322 58.6655 48.6188 58.7044C48.6006 58.7568 48.4459 58.8091 48.4044 58.9223C48.3642 59.0318 48.5592 59.5564 48.6335 59.6075C48.7809 59.7109 48.9332 59.47 49.0538 59.6051L49.3242 60.1296L49.1293 60.4497L49.5581 61.0728L49.8505 60.8866L50.2879 61.4051L50.0466 61.6582L50.5534 62.1682L50.8556 61.9832L51.4074 62.3458L51.2491 62.6793C51.3806 62.8314 51.7047 63.1016 51.8935 63.0322C51.9824 62.9994 52.0677 62.8047 52.1591 62.8144C52.2614 62.8266 52.5051 63.0712 52.6829 63.0517L52.5794 63.3888C52.795 63.5446 52.9948 63.6992 53.2799 63.6164L53.3993 63.289L54.0791 63.5081C54.1875 63.575 53.8451 63.7625 54.2788 63.8659C54.4397 63.9037 54.6175 63.872 54.7735 63.9316L54.9221 63.5166L55.5763 63.5264C55.6603 63.575 55.4496 63.9949 56.0782 63.8428C56.479 63.7467 56.2865 63.6858 56.3925 63.4667C56.451 63.3438 56.9553 63.2927 57.0991 63.2744L57.1283 63.5665L57.8788 63.3426L57.869 63.0164C57.9044 62.9434 58.3685 62.7183 58.4465 62.7134C58.6402 62.7012 58.5902 62.9665 58.7669 62.9276L59.3699 62.5479L59.2432 62.2193L59.8999 61.8237L60.0997 62.0331L60.7587 61.4793L60.6259 61.1531L61.1644 60.6164L61.3252 60.855L61.9307 60.1065L61.6882 59.8825L62.1439 59.2217L62.4728 59.4262L62.8882 58.6582L62.6141 58.5182L62.9711 57.6833L63.2549 57.7722C63.3134 57.5799 63.4413 57.4217 63.5132 57.2391C63.5412 57.1685 63.6204 56.958 63.6131 56.9422L63.6155 56.9361ZM54.1034 60.4339C51.3039 59.5077 49.9358 56.0355 51.0493 52.6764C52.1615 49.3186 55.3338 47.347 58.1334 48.2732C60.9329 49.1993 62.301 52.6716 61.1876 56.0306C60.0753 59.3884 56.903 61.36 54.1034 60.4339Z" fill="white"/>
<path d="M63.571 56.9557C63.5917 56.9459 63.3675 56.9836 63.3176 56.8376C63.2372 56.5005 63.4272 56.2035 63.5064 55.8907L63.5588 55.9078L63.8475 56.0003L63.7757 56.0404C63.8414 55.7459 63.9084 55.4526 63.9718 55.1569L64.0157 55.2372C63.9486 55.2165 63.6477 55.1167 63.5978 55.1009L63.6112 55.0339L63.7866 54.1893L63.8037 54.1078L63.8914 54.1163L64.1253 54.1382L64.012 54.2295L64.0619 53.3885L64.1631 53.5272C63.9413 53.4956 63.7221 53.3398 63.6977 53.0952C63.6709 52.8676 63.6624 52.6753 63.6027 52.4623C63.7562 52.3954 63.8756 52.3418 64.012 52.2822L63.8975 52.4623L63.7964 51.5569L64.0485 51.7577L63.6806 51.8307L63.4211 51.5264C63.4211 51.5264 63.4211 51.5033 63.4151 51.4729C63.3286 51.1053 63.1361 50.8753 63.5101 50.5662C63.5393 50.5382 63.5491 50.5187 63.5393 50.5297C63.5284 50.5406 63.5235 50.5893 63.5259 50.593L63.5369 50.6234L63.2835 50.0855L63.7099 50.2424C63.4419 50.3982 63.1007 50.3775 62.9156 50.1049C62.7803 49.909 62.7438 49.6595 62.6524 49.4733L62.879 48.995C62.879 48.995 62.8742 48.9925 62.8729 48.995C62.8729 48.9962 62.8559 48.9998 62.8522 49.0072C62.8473 49.0145 62.8327 49.0205 62.8279 49.0327C62.823 49.0437 62.8145 49.0461 62.8145 49.057C62.8071 49.0814 62.8096 49.0473 62.7937 49.0059C62.7803 48.9633 62.7548 48.9098 62.7255 48.8648C62.7109 48.8428 62.6951 48.8222 62.6841 48.8112C62.6817 48.8112 62.6707 48.7978 62.6817 48.8112L62.6878 48.8161C62.7316 48.8599 62.8693 48.8794 62.9058 48.8623C62.9278 48.8562 62.918 48.8599 62.9083 48.8648C62.8754 48.8781 62.8132 48.9207 62.678 48.9414C62.5026 48.9706 62.2955 48.8915 62.1822 48.7491C62.0336 48.5581 61.9056 48.3719 61.8009 48.154C61.7607 48.0591 61.7582 47.9581 61.7485 47.8583L61.8411 47.7268L62.0604 47.4165L62.0872 47.9459L61.5828 47.408L62.1822 47.442L61.9422 47.6562L61.69 47.8814C61.3696 47.6574 60.8823 47.3155 60.5619 47.0915C60.6582 46.9065 60.8494 46.5341 60.9457 46.3491L61.1016 46.9224L60.7714 46.7155L61.327 46.6412L61.2185 46.7581L61.2051 46.7727C61.1479 46.8335 61.065 46.8944 60.953 46.9138C60.8372 46.937 60.7507 46.9102 60.6764 46.8785C60.4474 46.7654 60.1818 46.6278 59.9577 46.5061C59.9382 46.4964 59.9832 46.5195 60.0076 46.5256C60.1002 46.5572 60.2208 46.5475 60.3024 46.5086C60.1526 46.5865 59.8992 46.5548 59.7774 46.4891L59.5093 45.894C59.5337 45.8416 59.552 45.7796 59.5495 45.7905C59.5398 45.8343 59.608 45.9414 59.6348 45.9439C59.5422 45.8903 59.3217 45.8635 59.1694 45.7917L59.7225 45.5374L59.6031 45.8806L59.4655 46.2761C59.0135 46.1191 58.5189 45.9475 58.0706 45.7832L58.1486 45.4522L58.2326 45.0944L58.4897 45.5386L57.7782 45.2818L58.2399 45.0518C58.1705 45.2404 58.0401 45.5873 57.9731 45.7698C57.615 45.6919 57.0119 45.5617 56.6525 45.485C56.6757 45.3718 56.7463 45.0262 56.7707 44.9045L57.0972 45.2781H56.3309L56.6099 45.0432L56.5222 45.3986L56.4698 45.6092L56.2724 45.6213C56.1165 45.6311 55.5135 45.6688 55.3709 45.6785L55.31 45.4984L55.1943 45.1576L55.5025 45.3061L54.8398 45.4996L54.9957 45.2647L55.0164 45.608L54.7289 45.8319C54.7557 45.8355 54.7167 45.827 54.6668 45.8465C54.4767 45.9037 54.1831 46.1155 53.9773 45.9171C53.8932 45.8307 53.8835 45.7844 53.8408 45.7004C53.8408 45.7004 53.8433 45.7029 53.8493 45.7102C53.8627 45.7284 53.9103 45.7455 53.9261 45.7443C53.7726 45.7832 53.5801 45.8806 53.429 45.9694L53.5155 45.8307C53.5046 45.9244 53.4766 46.2177 53.468 46.2968C53.2195 46.4209 52.9685 46.5402 52.7212 46.6668L52.6006 46.7288L52.5214 46.6205L52.3521 46.3917L52.5702 46.4246L52.0268 46.8128L52.0524 46.7885C52.0402 46.8043 52.0439 46.7994 52.0415 46.8153C52.0402 46.8323 52.05 46.8725 52.0622 46.926C52.0841 47.0088 52.0792 47.1439 52.0281 47.2303C51.9586 47.3532 51.8344 47.4384 51.7345 47.5224C51.5481 47.6684 51.3873 47.7731 51.1862 47.5917C51.1497 47.5601 51.1156 47.5406 51.1266 47.5467C51.1412 47.5516 51.1619 47.5455 51.1753 47.5357C51.0218 47.6745 50.8695 47.8412 50.7538 48.0128C50.7428 48.0238 50.7428 48.0481 50.7477 48.008L50.7379 47.9422L50.8634 48.2562L50.8987 48.3439L50.8342 48.4157C50.6466 48.6238 50.4577 48.8343 50.2738 49.0461C50.1312 48.9706 50.0179 48.9147 49.8912 48.8477L50.1044 48.7966L49.6586 49.4562L49.6366 49.2299L49.8778 49.4562L49.9741 49.5463C49.8766 49.7398 49.5221 50.4469 49.4259 50.6392C49.2809 50.5917 49.0701 50.5272 48.9325 50.4822L49.1871 50.3775L48.8423 51.1272L48.7095 50.8108C48.8435 50.8522 49.0896 50.924 49.22 50.9642C49.125 51.2757 48.9106 51.9974 48.8155 52.309C48.6791 52.2676 48.4038 52.1836 48.2673 52.1423L48.6096 51.9719L48.3611 52.7897L48.249 52.4538L48.5195 52.6291L48.6706 52.7277L48.6474 52.9236C48.6218 53.0806 48.5573 53.7305 48.5353 53.8717C48.3928 53.9082 48.1272 53.9873 47.9859 54.025L48.2381 53.7451L48.1443 54.6092L47.8957 54.2173C48.0492 54.2623 48.3465 54.3475 48.4976 54.3913C48.4671 54.8356 48.4147 55.5682 48.3843 56.0112L47.9091 55.8676L47.6923 55.8019L48.2076 55.4575L48.1577 56.3897L47.6923 55.9516C47.9031 55.92 48.3209 55.8579 48.5317 55.8262C48.5585 56.0964 48.6255 56.739 48.6535 57.0153L48.6632 57.1102C48.6157 57.2502 48.5548 57.3877 48.433 57.4851C48.3514 57.5617 48.1589 57.6153 48.0955 57.6165C48.2222 57.6031 48.3599 57.451 48.355 57.3536C48.3843 57.5131 48.433 57.7151 48.4829 57.8818L48.489 57.8976C48.4903 57.9013 48.4854 57.8855 48.4817 57.8806C48.4403 57.7905 48.3526 57.7078 48.2637 57.6737L47.9652 57.653L48.2429 57.5715L48.3294 57.5459C48.4501 57.5557 48.578 57.5873 48.673 57.6676C48.8033 57.7735 48.8777 57.9451 48.9313 58.0875C48.997 58.2798 49.0543 58.4453 49.0799 58.6498C49.0969 58.8542 48.9824 59.0246 48.8241 59.1329C48.7839 59.1609 48.7753 59.1731 48.796 59.1524C48.807 59.1439 48.8314 59.105 48.8423 59.0721C48.8582 59.0319 48.8679 58.982 48.8655 58.9419C48.8655 58.9346 48.8716 58.9699 48.8789 58.9966C48.9069 59.0928 48.9556 59.2267 48.9995 59.3033C48.9995 59.3033 49.0056 59.3131 48.997 59.2997C48.9946 59.2948 48.991 59.2912 48.9873 59.2875C48.913 59.1828 48.7546 59.1269 48.6377 59.1622C48.7315 59.1196 48.835 59.0818 48.9471 59.0782C49.1371 59.0648 49.326 59.1719 49.4454 59.3143L49.4795 59.3776L49.756 59.8985L49.8815 60.1346C49.795 60.277 49.633 60.5532 49.5465 60.6956L49.5319 60.165L49.9668 60.7845L49.2919 60.6469L49.583 60.4583L49.9448 60.2234C50.2421 60.5678 50.6697 61.0668 50.9657 61.4125L50.6539 61.7459L50.4151 62.0015L50.4078 61.2932L50.9194 61.7983L50.2835 61.7216L50.5844 61.5342L50.8622 61.3614C51.207 61.5877 51.7235 61.9261 52.067 62.1512C51.9866 62.3216 51.799 62.7208 51.7174 62.8936L51.6407 62.3326C51.6869 62.3861 51.7808 62.4664 51.8417 62.5017C51.905 62.5382 51.8806 62.5151 51.8331 62.5163C51.7552 62.5102 51.6346 62.5614 51.5846 62.6149C51.7381 62.4068 52.0134 62.2011 52.3521 62.3216C52.4946 62.3727 52.6445 62.4871 52.7359 62.5346C52.7237 62.5309 52.6944 62.52 52.6274 62.5261L53.1805 63.1979L53.077 63.535L52.8845 62.9593C53.0051 63.0445 53.0721 63.0956 53.1233 63.1139C53.122 63.1139 53.1233 63.1163 53.1354 63.1139L52.7943 63.4328L52.9162 63.1066L53.0904 62.6392C53.3608 62.7293 53.9578 62.9265 54.2331 63.0177C54.4731 63.0847 54.6546 63.378 54.5974 63.6421C54.5852 63.7042 54.5632 63.7626 54.5377 63.8186C54.5377 63.821 54.5352 63.8234 54.5377 63.8186C54.5401 63.8137 54.5413 63.8076 54.5425 63.8015C54.5876 63.647 54.5206 63.4547 54.3805 63.3683C54.3744 63.3646 54.3647 63.3597 54.361 63.3597C54.3683 63.3634 54.3817 63.3646 54.3902 63.3683C54.5364 63.3938 54.7301 63.3719 54.9494 63.4583L54.3025 63.7553L54.4548 63.3415L54.5779 63.0056L54.9263 63.0141C55.0237 63.019 55.6304 63.0287 55.7133 63.0323C55.8241 63.0908 55.9484 63.1735 56.0105 63.2891C56.0605 63.3792 56.0836 63.4827 56.0861 63.5849V63.6129C56.0861 63.636 56.0909 63.6141 56.0617 63.552C56.0459 63.5228 56.0203 63.4827 55.9849 63.4547C55.9411 63.4084 55.879 63.3914 55.8461 63.3865C55.8461 63.3865 55.8485 63.3865 55.8497 63.3877H55.8643L55.8948 63.3841C55.935 63.3804 56.0203 63.3597 56.0519 63.35C56.0519 63.35 56.0593 63.3476 56.0568 63.35C56.0532 63.3512 56.0495 63.3536 56.0471 63.3561C55.9594 63.406 55.8875 63.5228 55.8826 63.6202C55.8863 63.5143 55.9131 63.3756 55.9667 63.2697C56.1031 62.963 56.4881 62.8912 56.7719 62.8522C56.9608 62.8279 57.3214 62.795 57.5102 62.7768L57.5431 63.2222L57.565 63.5155L56.9985 63.137L57.7563 62.9362L57.459 63.3476V63.0214V62.9106C57.4919 62.8401 57.5419 62.7512 57.5942 62.7038C57.6881 62.6173 57.7928 62.5614 57.8988 62.509C58.2204 62.3459 58.6005 62.1853 58.8698 62.5321C58.9404 62.638 58.9684 62.6916 58.9221 62.6332C58.8771 62.5881 58.793 62.5504 58.7297 62.5553C58.7089 62.5553 58.698 62.5565 58.6821 62.5614L58.5664 62.6088L59.1853 62.2534L59.0501 62.6612L58.9368 62.3277L58.8442 62.0575L59.0708 61.9346C59.2279 61.8518 59.8151 61.5281 59.9601 61.4514L60.1038 61.6169L60.2939 61.8348L59.915 61.8141L60.5985 61.2908L60.5315 61.5622C60.4876 61.4453 60.3999 61.1897 60.3597 61.0814C60.4169 61.034 60.9518 60.5362 61.0236 60.4741L61.1991 60.3135C61.2685 60.4254 61.3964 60.636 61.4659 60.748L61.1808 60.7358L61.8143 60.0092L61.8289 60.2027L61.595 59.9703L61.5121 59.8875L61.5767 59.7999C61.7558 59.5577 61.9385 59.3167 62.114 59.0709C62.2589 59.1658 62.3954 59.2547 62.5196 59.3374L62.3844 59.3727L62.8169 58.6145L62.8486 58.7179C62.7803 58.6814 62.5745 58.5707 62.5209 58.5415L62.5464 58.4843L62.9156 57.6542L62.9363 57.6068L62.9838 57.6226L63.2676 57.7139L63.2006 57.7492C63.2494 57.5934 63.3371 57.4644 63.4065 57.3342C63.4723 57.2137 63.521 57.0701 63.5625 56.9386C63.5625 56.9264 63.5625 56.9484 63.5673 56.9532L63.571 56.9557ZM63.6599 56.9167C63.6685 56.9496 63.6611 56.952 63.6624 56.9605L63.6587 56.9776L63.6502 57.0068L63.6319 57.0628L63.5929 57.1711C63.5186 57.4023 63.3481 57.6068 63.292 57.8356L63.2396 57.8198L62.9546 57.7333L63.0228 57.7017L62.6768 58.5415L62.6451 58.4538L62.9217 58.5865L62.9899 58.6194L62.9533 58.6899L62.5562 59.4676L62.5111 59.5565C62.4539 59.5224 62.1517 59.3447 62.0884 59.307L62.2309 59.2778C62.0823 59.5005 61.941 59.7281 61.796 59.9532L61.7777 59.7828L62.0275 59.9983L62.1249 60.081C62.0993 60.1273 61.5121 60.8904 61.4646 60.9622L61.3258 61.1472C61.249 61.0425 61.0858 60.8234 61.0078 60.7175L61.299 60.7455L60.7836 61.3054L60.8324 61.0644L60.9798 61.3857L61.048 61.533L60.9128 61.6571C60.7836 61.78 60.2159 62.2948 60.0965 62.4068C59.9954 62.3094 59.7932 62.1159 59.6909 62.0186L60.0502 62.0672L59.4107 62.492L59.5459 62.0989C59.5946 62.2121 59.7408 62.5455 59.792 62.6636C59.6324 62.778 59.1305 63.1151 58.9636 63.2344L58.9124 63.2697C58.8515 63.2794 58.7979 63.2952 58.7333 63.2964C58.6115 63.2989 58.475 63.2441 58.391 63.1528C58.3362 63.1017 58.257 62.9605 58.2777 63.0019C58.3289 63.0701 58.4373 63.1127 58.5213 63.0871C58.4129 63.1395 58.2619 63.2125 58.1583 63.2916C58.1571 63.2928 58.1534 63.2964 58.1656 63.2867C58.1936 63.2587 58.2192 63.2271 58.2351 63.1906L58.2753 63.0031C58.2838 63.1516 58.3057 63.4839 58.3142 63.6348L57.9987 63.7407C57.7027 63.8392 57.0497 64.0583 56.7585 64.1557C56.7317 63.9476 56.6781 63.5167 56.6525 63.3196L57.1532 63.72C57.0144 63.7395 56.7439 63.782 56.6854 63.8125C56.7451 63.7784 56.8024 63.7005 56.8207 63.6445V63.6664V63.6896L56.817 63.7285C56.817 63.737 56.8121 63.7662 56.8085 63.7857C56.8036 63.8076 56.7999 63.8259 56.7902 63.8563C56.6915 64.1703 56.3394 64.2823 56.0519 64.3346C55.7291 64.4003 55.3466 64.309 55.1943 63.9829C55.1175 63.81 55.1236 63.7358 55.1151 63.6311C55.1297 63.7614 55.2187 63.8855 55.332 63.9476L55.5707 64.0133L54.9165 64.0096L55.3892 63.6822L55.2442 64.0985L54.5974 64.3954C54.4987 64.3857 54.3403 64.393 54.1551 64.3504C54.0187 64.3151 53.9017 64.275 53.7848 64.1837C53.5716 64.0242 53.4912 63.72 53.5911 63.4741C53.6033 63.4401 53.6118 63.423 53.624 63.395C53.5862 63.49 53.5886 63.5958 53.6215 63.6956C53.691 63.8758 53.7836 63.9269 53.9261 63.9889L53.2451 63.776L53.8847 63.4632C53.8469 63.5666 53.7226 63.9232 53.6824 64.0352L53.4278 64.1107C53.211 64.1825 52.9101 64.1642 52.7042 64.0705C52.3801 63.9208 52.2266 63.7626 51.9708 63.5958C52.0256 63.4194 52.1328 63.0737 52.1864 62.8985L52.7395 63.5703C52.435 63.6104 52.1755 63.4206 51.9866 63.3001C51.9879 63.3001 52.0061 63.3098 52.0159 63.3123C52.0159 63.3123 52.0427 63.322 52.0573 63.3244C52.1803 63.3573 52.3424 63.305 52.3826 63.2721C52.4544 63.2234 52.4386 63.2234 52.4289 63.2405C52.1426 63.6348 51.6906 63.6409 51.3056 63.3962C51.0388 63.249 50.8378 62.9885 50.6344 62.7695C50.7111 62.6076 50.8634 62.2851 50.9402 62.1244L51.1241 62.7792L50.5735 62.4153L51.129 62.4238C50.9657 62.5236 50.6356 62.7208 50.4724 62.8206C50.3006 62.6441 49.8657 62.1975 49.6878 62.0161L49.3394 61.6583C49.488 61.5062 49.7792 61.2056 49.9241 61.0571L49.9034 61.7301L49.4709 61.208L50.1203 61.3078C49.9424 61.4198 49.5928 61.6352 49.4149 61.7472C49.1725 61.3857 48.7912 60.8222 48.5475 60.4607C48.634 60.3196 48.8228 60.0202 48.9106 59.8778L48.8935 60.3524L48.6291 59.8254L48.6961 59.924C48.7765 60.0202 48.941 60.0664 49.0543 60.0275C48.9678 60.0628 48.8582 60.1041 48.7571 60.1066C48.5633 60.1236 48.327 60.0214 48.2186 59.8449C48.0578 59.5686 47.9798 59.3325 47.9372 59.0173C47.9311 58.926 47.9433 58.8238 47.981 58.7362C48.0322 58.5853 48.2113 58.438 48.2978 58.3857L48.2892 58.393L48.2758 58.4052C48.1906 58.483 48.1491 58.6352 48.1613 58.7325C48.1455 58.6145 48.0724 58.3905 48.0432 58.3163C48.1053 58.3991 48.2113 58.4551 48.3136 58.4624L48.4854 58.449L48.2052 58.5232L48.0492 58.5646C47.9177 58.5123 47.7544 58.4417 47.6862 58.2993C47.6241 58.1837 47.5985 58.0267 47.5656 57.9025C47.5278 57.7139 47.4669 57.5106 47.4815 57.3122C47.4962 57.0202 47.7057 56.7828 47.9981 56.7634C48.0212 56.7609 48.0054 56.7597 47.9567 56.7792C47.9031 56.8023 47.8324 56.8595 47.8178 56.9167L47.7946 57.0981L47.741 56.3496L48.2137 56.7281L47.7995 56.7768L47.2866 56.8376C47.3378 56.2887 47.417 55.4477 47.4681 54.8989C47.6326 54.9548 47.9969 55.0875 48.1491 55.1398L47.6411 55.4721L47.7374 54.6372L47.9932 55.023L47.674 54.9135L47.3768 54.8112L47.4255 54.5204C47.4486 54.3463 47.5851 53.5881 47.607 53.4299C47.7252 53.4019 48.0322 53.3398 48.154 53.3106L47.9104 53.5796L48.0407 52.8445L48.1686 53.139C48.0894 53.0794 47.808 52.8761 47.7228 52.8116C47.7642 52.6802 48.0432 51.956 48.0919 51.8088L48.1881 51.5483C48.3173 51.5958 48.5877 51.6956 48.7193 51.7431L48.3879 51.9086L48.6974 51.0566L48.8472 51.3548C48.7266 51.3122 48.4354 51.2051 48.3124 51.1613C48.4464 50.9033 48.7619 50.296 48.8971 50.0356L49.0653 50.0976L49.3857 50.2157L49.1432 50.3118L49.5891 49.5098L49.6232 49.724L49.3881 49.4903L49.2797 49.3832C49.4003 49.214 49.7962 48.6652 49.9168 48.4972C49.9875 48.5362 50.2311 48.6725 50.3079 48.7138L50.113 48.7467C50.2774 48.5715 50.4395 48.395 50.6015 48.2173L50.5722 48.3767L50.4504 48.0615L50.437 48.0262L50.4407 47.9958C50.4443 47.9605 50.4602 47.9167 50.4663 47.9082C50.5613 47.7353 50.6977 47.6015 50.8281 47.4591C51.0072 47.2619 51.1509 47.1706 51.3702 47.3702C51.4031 47.3994 51.4311 47.4104 51.4128 47.4043C51.3751 47.4043 51.3848 47.4092 51.4007 47.3994C51.5213 47.3325 51.6492 47.223 51.7418 47.1256C51.7491 47.1183 51.7515 47.1134 51.7576 47.1073C51.76 47.1013 51.7576 47.1073 51.7613 47.1C51.799 47.0112 51.7357 46.9479 51.7369 46.8274C51.7332 46.7386 51.7747 46.6254 51.8465 46.5718C51.9294 46.5061 52.435 46.1447 52.5093 46.0862C52.5617 46.1544 52.7188 46.3637 52.7748 46.4368L52.5751 46.3905C52.7943 46.2761 53.01 46.1556 53.228 46.0388L53.1367 46.1763L53.1598 45.8051L53.1659 45.7163C53.3182 45.625 53.4632 45.5313 53.6325 45.4534C53.7799 45.3828 54.0309 45.2927 54.1563 45.4899C54.1953 45.5447 54.2197 45.6153 54.2367 45.6286C54.2343 45.625 54.2233 45.6177 54.2112 45.6128C54.2026 45.6092 54.1941 45.6092 54.1868 45.608C54.3842 45.5459 54.6205 45.339 54.869 45.4266L54.5815 45.6505L54.5413 45.3086L54.5206 45.1357C54.7716 45.0469 55.3112 44.8534 55.561 44.7645C55.6134 44.8862 55.7389 45.1942 55.7925 45.3219L55.5244 45.1552L56.2152 45.0639L55.9654 45.2866L56.0288 44.9264L56.0678 44.7086C56.2371 44.6952 56.8925 44.6562 57.0728 44.6428L57.4529 44.6185L57.3993 45.0177L57.3616 45.2927L57.0948 44.913L57.805 45.0177L57.4066 45.2514L57.5394 44.8217L57.6442 44.4846C57.8708 44.5516 58.4909 44.7402 58.7248 44.8096L59.044 44.9057C59.0111 45.0858 58.9502 45.4363 58.9185 45.6165L58.6541 45.1601C58.8819 45.227 59.1073 45.3 59.3339 45.3694L58.8162 45.6311C58.8758 45.44 58.994 45.0591 59.0537 44.868L59.4777 45.0286C59.5617 45.07 59.7335 45.0858 59.8505 45.1297C60.3974 45.2854 60.5193 45.7978 60.2866 46.2627L60.0186 45.6676C60.0746 45.6846 60.1124 45.7017 60.1221 45.7041C60.1343 45.709 60.1185 45.7004 60.0783 45.6968C60.0344 45.6944 59.9845 45.7004 59.9552 45.7151C59.954 45.7151 59.965 45.7114 59.9637 45.7114L59.9832 45.7041C60.0807 45.6615 60.2439 45.6846 60.3268 45.7297L60.3512 45.7418L60.3901 45.7613C60.5583 45.8465 60.8409 45.9938 61.0102 46.0765C61.0163 46.0802 61.0163 46.0789 61.0151 46.0789C60.9639 46.0583 60.8689 46.0376 60.7763 46.0583C60.6764 46.0753 60.5875 46.141 60.5449 46.1909H60.5461L60.5522 46.1824L60.5656 46.1678L60.6716 46.0522L60.9189 45.7844C61.21 45.967 61.6108 46.2165 61.902 46.4002C61.8033 46.5877 61.6023 46.971 61.5024 47.1597L61.3684 46.6023L61.8983 46.9844L61.3635 47.0112C61.5097 46.8846 61.7863 46.651 61.9324 46.5256C62.2114 46.8433 62.6488 47.3362 62.9278 47.6538C62.8193 47.7938 62.5976 48.0798 62.4892 48.2197L62.5684 47.9483C62.5684 47.9155 62.5586 47.8826 62.5489 47.8546C62.5964 47.9763 62.6975 48.1224 62.7706 48.2416C62.773 48.2453 62.7803 48.2562 62.7779 48.2526H62.7767C62.7633 48.2392 62.7243 48.2015 62.7036 48.1966C62.6683 48.1747 62.6025 48.1686 62.5684 48.1747C62.5196 48.1856 62.5355 48.1881 62.5818 48.1662C62.9034 48.014 63.1946 48.1686 63.3627 48.4875C63.6051 48.8854 63.6209 49.5244 63.0581 49.6777L63.2847 49.2007C63.3602 49.3686 63.3822 49.5682 63.4345 49.7118C63.4382 49.7228 63.4431 49.7362 63.4443 49.7386C63.4443 49.741 63.4467 49.7447 63.4467 49.7471C63.4467 49.7459 63.4467 49.7447 63.4443 49.7447C63.4443 49.7483 63.4333 49.7325 63.4224 49.7313C63.4126 49.7216 63.3919 49.7179 63.3809 49.7155C63.3688 49.7118 63.3541 49.7155 63.3554 49.7143C63.3541 49.7143 63.3529 49.7143 63.3517 49.7167C63.3517 49.7167 63.3566 49.7155 63.359 49.7155C63.3675 49.7179 63.3956 49.7045 63.4187 49.6972L63.7513 49.6011L63.8463 49.8542L64.0534 50.4116C64.1009 50.5321 64.0863 50.6879 64.0242 50.7962C63.9681 50.896 63.9048 50.9459 63.8597 50.9848C63.8146 51.0214 63.7793 51.0506 63.7793 51.0481C63.7757 51.0506 63.7939 51.0262 63.7964 50.997C63.8 50.9775 63.7964 50.9642 63.7964 50.9836C63.8012 51.0384 63.8317 51.1455 63.8548 51.2526C63.878 51.395 63.9072 51.5167 63.8548 51.6798L63.5954 51.3755L63.9681 51.3341L64.2142 51.3074C64.2191 51.5569 64.2422 52.3321 64.2483 52.5865C64.1777 52.6108 63.9218 52.6984 63.8451 52.724L63.9486 52.5366C63.9791 52.7057 63.9657 52.9029 63.9779 53.0611C63.9864 53.1317 63.9974 53.1694 64.0327 53.1999C64.0912 53.2534 64.2325 53.2911 64.3214 53.3155L64.308 53.4226L64.2008 54.2575L64.1874 54.3634L64.0875 54.3488L63.8548 54.3147L63.9596 54.2417L63.744 55.0765L63.6953 54.9889L64.0461 55.1179L64.1058 55.1398C64.0193 55.4709 63.9377 55.8031 63.8561 56.1354L63.7988 56.1159L63.5125 56.0173L63.5795 55.9832C63.5491 56.0806 63.5125 56.1731 63.4796 56.2656C63.4431 56.3873 63.2786 56.8376 63.4723 56.8607L63.5454 56.8668C63.5807 56.8668 63.6331 56.8887 63.649 56.9264L63.6599 56.9167Z" fill="white"/>
<path d="M54.0869 60.4801C49.8718 58.9552 49.097 53.7462 51.8758 50.47C53.3743 48.6444 55.8363 47.3677 58.2156 48.0213C59.831 48.4375 61.1089 49.7884 61.6535 51.3414C62.5185 53.6793 62.036 56.4006 60.523 58.3576C59.0684 60.2781 56.3907 61.2651 54.0869 60.4801ZM54.1174 60.3876C57.1521 61.3527 59.8529 58.5462 60.6923 55.8675C61.1248 54.5057 61.2149 53.0111 60.7824 51.6407C60.3561 50.2837 59.3912 49.0618 58.0475 48.5276C56.6684 47.958 55.0165 48.2683 53.8214 49.1458C52.0037 50.4687 51.1887 52.7823 51.0925 54.9523C50.9853 57.1333 51.8417 59.6586 54.1162 60.3888L54.1174 60.3876Z" fill="white"/>
<path d="M42.5586 74.5115L49.5112 63.8758L54.4158 64.8677L59.2048 62.3958L62.9314 64.5841L67.6814 60.9573L69.9607 56.2571L74.8264 56.0952L78.592 59.4372L78.5531 58.2822L79.6544 54.7772L84.559 55.769L92.9979 53.1755L96.493 48.4351L98.8101 44.8899C98.8101 44.8899 101.166 42.4996 101.243 44.8084C101.32 47.1183 103.831 49.3467 103.831 49.3467L106.341 51.5751L107.751 57.3086L99.4668 64.5208C99.4668 64.5208 97.0717 65.7573 94.6778 66.9926C92.2827 68.2291 88.6719 69.5046 88.7108 70.6596C88.7498 71.8145 82.7438 74.3265 80.311 74.4081C77.8781 74.4896 70.5016 72.4231 69.2846 72.4632C68.0676 72.5034 64.4567 73.7801 62.0628 75.0166C59.6689 76.2531 52.4069 77.6503 52.4069 77.6503C52.4069 77.6503 45.1462 79.0486 42.5586 74.5103V74.5115Z" fill="white"/>
</svg>
