<svg width="121" height="104" viewBox="0 0 121 104" fill="none" xmlns="http://www.w3.org/2000/svg">
<g clip-path="url(#clip0_2145_661)">
<path d="M8.84081 49.9551C12.2293 21.7822 37.8537 1.68484 66.0759 5.06754C67.453 5.23222 68.8057 5.46643 70.1438 5.7348C65.0226 2.96204 59.3087 1.07856 53.1745 0.342982C27.1237 -2.77866 3.47033 15.7719 0.343348 41.7783C-1.59467 57.8891 4.80592 73.0777 16.1481 83.0477C10.2387 73.4986 7.39769 61.9659 8.84204 49.9551H8.84081Z" fill="#099A39"/>
<path d="M73.3019 100.048C47.0641 100.048 25.7948 78.8147 25.7948 52.6216C25.7948 33.1183 37.5915 16.372 54.4472 9.08691C33.3599 11.7743 15.9788 28.4487 13.3297 50.4795C10.2027 76.4859 28.7849 100.098 54.8358 103.221C63.5055 104.26 71.9028 102.888 79.3726 99.65C77.3832 99.9038 75.3609 100.049 73.3019 100.049V100.048Z" fill="#FFDD08"/>
<path d="M53.2129 48.496L56.9777 45.1889C57.7195 44.5375 58.653 44.2313 59.5438 44.3497L70.3276 45.7818C70.9923 45.8696 71.3809 46.5698 71.1622 47.2871L66.2304 63.4052C66.1241 63.7505 65.6622 63.7029 65.6842 63.3479L66.4088 51.9494C66.4332 51.5713 66.212 51.2529 65.876 51.1822L53.2141 48.496H53.2129Z" fill="white"/>
<path d="M63.4836 37.127L65.341 35.7205C66.1695 35.0934 67.2473 35.3704 67.5955 36.2975L69.1584 40.4609L79.4815 43.3544C79.7564 43.4312 79.6586 43.8826 79.3678 43.8777L67.7336 43.7106L63.4824 37.127H63.4836Z" fill="white"/>
<path d="M64.8889 51.8774L57.7759 60.2775C57.5743 60.5153 57.8175 60.8386 58.068 60.6666L64.8217 56.0335L64.8889 51.8774Z" fill="white"/>
<path d="M61.1259 52.9363C56.9602 49.1291 49.9181 50.0403 45.3969 54.971C40.8756 59.9017 40.5885 66.9843 44.7541 70.7915C48.9198 74.5987 55.9619 73.6875 60.4831 68.7568C65.0043 63.8261 65.2915 56.7435 61.1259 52.9363ZM58.9056 67.3149C54.7387 71.8589 48.4237 72.8592 44.8006 69.5485C41.1775 66.2377 41.6186 59.87 45.7855 55.3248C49.9523 50.7808 56.2674 49.7805 59.8905 53.0912C63.5136 56.4019 63.0724 62.7696 58.9056 67.3149Z" fill="white"/>
<path d="M54.5548 63.4711C55.7951 62.1184 55.9265 60.2231 54.8483 59.2378C53.7701 58.2525 51.8905 58.5503 50.6501 59.903C49.4098 61.2557 49.2784 63.151 50.3566 64.1363C51.4349 65.1216 53.3144 64.8238 54.5548 63.4711Z" fill="white"/>
<path d="M66.2189 31.1873C66.4071 28.894 69.1736 28.0437 71.108 27.9803C73.7303 27.8949 77.698 29.1014 78.8417 31.6936C79.0372 32.1352 79.3268 33.1123 79.0384 33.5283C78.7977 33.8747 78.4592 33.7637 78.0963 33.7991C78.0462 33.8345 78.0829 34.2358 78.0731 34.3309C78.0401 34.6298 77.77 34.8494 77.4804 34.875C76.8951 34.925 76.245 34.8311 75.6524 34.8799L73.7266 37.6136C73.7205 37.6648 73.7278 37.6466 73.7633 37.6514C73.8537 37.6624 73.9478 37.649 74.037 37.6783C74.1372 37.4745 74.395 37.3184 74.6223 37.3208C74.7958 37.3233 75.4239 37.4538 75.5571 37.5502C75.7905 37.7197 75.8516 37.9357 75.8198 38.2162C75.7929 38.4529 75.5449 39.5288 75.4483 39.7142C75.3616 39.8814 75.1563 40.0192 74.9693 40.0436C74.7714 40.0692 74.0834 39.9338 73.9184 39.8191C73.7901 39.7301 73.6704 39.5276 73.6716 39.3702C71.835 39.2165 70.4432 37.7393 70.1597 35.9619C69.9239 35.9631 69.6893 35.8668 69.5585 35.6655C69.5329 35.6264 69.4534 35.452 69.4534 35.4178V34.875H68.6824C68.6201 34.875 68.4331 34.7689 68.3793 34.7225C68.0824 34.4651 68.1814 34.1138 68.1606 33.7674C67.3309 33.6015 66.6319 33.033 66.3509 32.2303C66.2983 32.0815 66.2324 31.8461 66.2177 31.6936C66.2055 31.557 66.2067 31.3252 66.2177 31.1886L66.2189 31.1873ZM71.0395 28.417C69.7296 28.4756 68.0812 28.872 67.2038 29.9126C66.1346 31.1812 66.6576 33.133 68.3769 33.3587L78.6193 33.3392C78.7452 33.2855 78.7317 33.0842 78.7268 32.9671C78.5778 29.7638 73.6655 28.2987 71.0395 28.417ZM77.6405 33.7869H68.5932V34.4444H77.6405V33.7869ZM72.0305 34.8726H69.8823V35.3654C69.8823 35.4642 70.0632 35.5228 70.1463 35.5301C70.6754 35.5789 71.279 35.491 71.8155 35.5301C71.8753 35.5423 72.0293 35.4386 72.0293 35.391V34.8738L72.0305 34.8726ZM73.547 34.8726H72.4985L72.4607 34.9104V35.4654C72.4607 35.4776 72.4032 35.596 72.3898 35.6216C72.3018 35.7887 72.1197 35.9192 71.9303 35.9326C71.8998 35.9619 72.055 36.3559 72.0855 36.4218C72.1075 36.4682 72.2334 36.7243 72.2835 36.6902L73.547 34.8726ZM75.1135 34.8726H74.0895L72.545 37.0427C72.5193 37.1427 73.1352 37.5014 73.2561 37.5172L75.1123 34.8726H75.1135ZM71.4745 35.9583H70.5898C70.8575 37.2928 71.7128 38.4553 73.0655 38.8237C73.1963 38.8591 73.5677 38.9482 73.6851 38.9396C73.7132 38.9372 73.7254 38.9396 73.7303 38.9067L73.9246 38.1052C72.6818 38.0296 71.7348 37.1598 71.4733 35.9595L71.4745 35.9583ZM75.0304 39.5605C75.061 39.5312 75.0793 39.4739 75.0927 39.4337C75.1856 39.1555 75.3506 38.4724 75.386 38.187C75.4031 38.0442 75.408 37.9369 75.2528 37.8783C75.1771 37.8503 74.6394 37.7466 74.5771 37.7563C74.5038 37.7685 74.417 37.8369 74.4048 37.9149L74.0883 39.319C74.1164 39.4495 74.1616 39.4703 74.2789 39.5068C74.3742 39.5361 74.7885 39.6227 74.874 39.6203C74.9156 39.6203 74.9999 39.5886 75.0292 39.5617L75.0304 39.5605Z" fill="white"/>
<path d="M71.1907 28.8464L71.5891 28.8379C72.9113 28.9013 74.2615 29.1795 75.459 29.743C75.6484 29.8321 76.0211 29.9455 75.9417 30.209C75.8513 30.5116 75.2574 30.12 75.079 30.0456C73.3194 29.3149 71.3203 29.0136 69.458 29.5381C69.3199 29.5771 68.9045 29.7577 68.8006 29.7308C68.6271 29.6857 68.5855 29.4503 68.7309 29.3429C68.825 29.2734 69.2112 29.1624 69.3456 29.1233C69.9456 28.9501 70.5663 28.8733 71.1907 28.8464Z" fill="white"/>
<path d="M71.1416 29.7053C72.1876 29.6614 73.3094 29.8578 74.293 30.2018C74.5252 30.2835 75.3549 30.5946 75.4942 30.7446C75.6494 30.9105 75.5248 31.1265 75.3097 31.1069C73.7102 30.303 71.7575 29.8956 69.9832 30.2908C69.7853 30.3348 69.5335 30.447 69.3588 30.4738C69.0289 30.5263 68.9274 30.1994 69.2268 30.064C69.7205 29.8407 70.5966 29.7285 71.1416 29.7053Z" fill="white"/>
<path d="M67.2744 31.242C67.5457 31.2152 67.5127 31.608 67.5726 31.791C67.6924 32.1582 68.0284 32.4302 68.4084 32.4961C68.5551 32.5217 68.7775 32.457 68.7982 32.6876C68.819 32.9181 68.6455 32.9364 68.4549 32.9291C67.9441 32.9072 67.4406 32.5436 67.2256 32.0874C67.1339 31.8922 66.9262 31.2762 67.2744 31.242Z" fill="white"/>
<path d="M68.5172 33.7577L68.1604 33.765L67.8513 33.5271C67.2977 36.983 70.6544 39.5972 73.9562 38.9689C70.5518 39.5703 67.7792 36.6829 68.516 33.7564L68.5172 33.7577Z" fill="white"/>
<path d="M77.8905 33.5527C78.4111 35.8644 76.8017 38.4871 73.957 38.9689C76.6575 38.5469 78.6701 36.0925 78.4208 33.5405L77.8905 33.5515V33.5527Z" fill="white"/>
<path d="M59.4573 52.0644C55.1646 48.7829 48.5257 50.2419 44.6277 55.3227C40.7309 60.4034 41.051 67.1822 45.3437 70.4637C49.6365 73.7451 56.2753 72.2862 60.1734 67.2054C64.0702 62.1247 63.75 55.3458 59.4573 52.0644Z" fill="white"/>
<path d="M53.9411 59.7775C53.544 59.4737 53.0259 59.4091 52.5151 59.5481C52.7803 59.5701 53.0308 59.6591 53.2434 59.8214C53.9656 60.374 53.9875 61.556 53.2935 62.4612C52.7803 63.1309 52.019 63.4602 51.3652 63.3651C52.14 63.8445 53.2861 63.5237 53.9937 62.6015C54.7366 61.6317 54.7134 60.3679 53.9411 59.7775Z" fill="#171A32"/>
<path d="M52.5616 61.0144C52.4321 60.9156 52.2647 60.8948 52.0985 60.94C52.1841 60.9473 52.2659 60.9753 52.3356 61.029C52.5702 61.2083 52.5775 61.5926 52.3515 61.8866C52.1853 62.1037 51.9372 62.2111 51.7246 62.1806C51.9763 62.3367 52.349 62.2318 52.5788 61.9329C52.8207 61.6182 52.8121 61.2071 52.5616 61.0156V61.0144Z" fill="#171A32"/>
<path d="M73.6836 51.8152L76.967 47.8153C77.6146 47.0273 78.5506 46.5686 79.5404 46.5552L91.529 46.3929C92.2683 46.3832 92.8536 47.0492 92.7864 47.8251L91.2748 65.2716C91.2418 65.6461 90.7311 65.6656 90.6712 65.296L88.7564 53.3803C88.6928 52.9851 88.3788 52.6899 87.9988 52.6667L73.6836 51.8165V51.8152Z" fill="white"/>
<path d="M82.0879 38.4737L83.762 36.7342C84.5086 35.9583 85.7379 36.0803 86.3342 36.9879L89.0078 41.0623L100.845 42.4834C101.16 42.5212 101.161 43.0031 100.846 43.0433L88.238 44.645L82.0879 38.4749V38.4737Z" fill="white"/>
<path d="M87.588 53.688L83.3344 60.995C83.2134 61.2024 83.4663 61.4244 83.6386 61.2634L88.2686 56.9097L87.588 53.688Z" fill="white"/>
<path d="M84.748 31.1873C84.9264 28.894 87.5499 28.0437 89.3841 27.9803C91.8707 27.8949 95.6331 29.1014 96.717 31.6936C96.9015 32.1352 97.1777 33.1123 96.9027 33.5283C96.6742 33.8747 96.3529 33.7637 96.0095 33.7991C95.9618 33.8345 95.9973 34.2358 95.9875 34.3309C95.9557 34.6298 95.7003 34.8494 95.4254 34.875C94.8706 34.925 94.2535 34.8311 93.6927 34.8799L91.8671 37.6136C91.861 37.6648 91.8683 37.6466 91.9025 37.6514C91.988 37.6624 92.0772 37.649 92.1628 37.6783C92.2569 37.4745 92.5013 37.3184 92.7188 37.3208C92.8837 37.3233 93.4788 37.4538 93.6059 37.5502C93.8271 37.7197 93.8857 37.9357 93.8552 38.2162C93.8295 38.4529 93.5949 39.5288 93.5033 39.7142C93.4202 39.8814 93.2259 40.0192 93.0487 40.0436C92.8605 40.0692 92.208 39.9338 92.0528 39.8191C91.9318 39.7301 91.817 39.5276 91.8194 39.3702C90.0781 39.2165 88.7572 37.7393 88.4896 35.9619C88.266 35.9631 88.0436 35.8668 87.9202 35.6655C87.8957 35.6264 87.82 35.452 87.82 35.4178V34.875H87.0892C87.0294 34.875 86.8534 34.7689 86.8021 34.7225C86.5198 34.4651 86.6139 34.1138 86.5943 33.7674C85.8086 33.6015 85.1451 33.033 84.8787 32.2303C84.8298 32.0815 84.7663 31.8461 84.7529 31.6936C84.7406 31.557 84.7419 31.3252 84.7529 31.1886L84.748 31.1873ZM89.3205 28.417C88.079 28.4756 86.5161 28.872 85.684 29.9126C84.6698 31.1812 85.1659 33.133 86.7972 33.3587L96.5093 33.3392C96.629 33.2855 96.6156 33.0842 96.6107 32.9671C96.4702 29.7638 91.8109 28.2987 89.3205 28.417ZM95.5794 33.7869H87V34.4444H95.5794V33.7869ZM90.259 34.8726H88.222V35.3654C88.222 35.4642 88.3931 35.5228 88.4725 35.5301C88.9747 35.5789 89.5466 35.491 90.0561 35.5301C90.1136 35.5423 90.259 35.4386 90.259 35.391V34.8738V34.8726ZM91.6972 34.8726H90.7025L90.6671 34.9104V35.4654C90.6671 35.4776 90.6121 35.596 90.5999 35.6216C90.5168 35.7887 90.3433 35.9192 90.1637 35.9326C90.1356 35.9619 90.281 36.3559 90.3115 36.4218C90.3323 36.4682 90.452 36.7243 90.4997 36.6902L91.6984 34.8726H91.6972ZM93.1831 34.8726H92.2129L90.749 37.0427C90.7245 37.1427 91.3086 37.5014 91.4235 37.5172L93.1843 34.8726H93.1831ZM89.7323 35.9583H88.894C89.1482 37.2928 89.9584 38.4553 91.2426 38.8237C91.3673 38.8591 91.7192 38.9482 91.8304 38.9396C91.8573 38.9372 91.8695 38.9396 91.8732 38.9067L92.0577 38.1052C90.8797 38.0296 89.9816 37.1598 89.7335 35.9595L89.7323 35.9583ZM93.1037 39.5605C93.133 39.5312 93.1501 39.4739 93.1623 39.4337C93.2503 39.1555 93.4067 38.4724 93.4397 38.187C93.4568 38.0442 93.4605 37.9369 93.3139 37.8783C93.2418 37.8503 92.7322 37.7466 92.6735 37.7563C92.6039 37.7685 92.522 37.8369 92.511 37.9149L92.2104 39.319C92.2373 39.4495 92.2801 39.4703 92.3913 39.5068C92.4817 39.5361 92.874 39.6227 92.9558 39.6203C92.9961 39.6203 93.0744 39.5886 93.1037 39.5617V39.5605Z" fill="white"/>
<path d="M89.4644 28.8464L89.8419 28.8379C91.0957 28.9013 92.3763 29.1795 93.5115 29.743C93.6911 29.8321 94.0442 29.9455 93.9697 30.209C93.8842 30.5116 93.3208 30.12 93.1522 30.0456C91.483 29.3149 89.5878 29.0136 87.822 29.5381C87.6913 29.5771 87.2966 29.7577 87.1988 29.7308C87.0339 29.6857 86.9948 29.4503 87.1329 29.3429C87.2221 29.2734 87.5887 29.1624 87.7157 29.1233C88.2852 28.9501 88.8729 28.8733 89.4656 28.8464H89.4644Z" fill="white"/>
<path d="M89.4158 29.7053C90.408 29.6614 91.4711 29.8578 92.4047 30.2018C92.6247 30.2835 93.4116 30.5946 93.5436 30.7446C93.6902 30.9105 93.5717 31.1265 93.3688 31.1069C91.8524 30.303 90.0011 29.8956 88.3185 30.2908C88.1303 30.3348 87.892 30.447 87.7258 30.4738C87.413 30.5263 87.3165 30.1994 87.6 30.064C88.068 29.8407 88.8989 29.7285 89.4158 29.7053Z" fill="white"/>
<path d="M85.7474 31.2423C86.004 31.2154 85.9735 31.6082 86.0309 31.7912C86.1445 32.1584 86.4635 32.4304 86.8227 32.4963C86.962 32.5219 87.1722 32.4573 87.193 32.6878C87.2137 32.9184 87.0476 32.9367 86.8679 32.9294C86.384 32.9074 85.905 32.5439 85.7022 32.0876C85.6154 31.8925 85.4187 31.2764 85.7486 31.2423H85.7474Z" fill="white"/>
<path d="M86.928 33.7577L86.5907 33.765L86.2975 33.5271C85.772 36.983 88.9564 39.5972 92.0871 38.9689C88.8587 39.5703 86.2303 36.6829 86.928 33.7564V33.7577Z" fill="white"/>
<path d="M95.8173 33.5527C96.311 35.8644 94.7847 38.4871 92.0879 38.9689C94.6491 38.5469 96.5578 36.0925 96.3207 33.5405L95.8173 33.5515V33.5527Z" fill="white"/>
<path d="M108.91 52.3227C104.84 49.0412 98.5433 50.5002 94.8481 55.581C91.153 60.6617 91.456 67.4405 95.5275 70.722C99.5979 74.0034 105.895 72.5445 109.59 67.4637C113.285 62.383 112.982 55.6041 108.91 52.3227Z" fill="white"/>
<path d="M103.284 60.7754C103.065 60.5997 102.782 60.5619 102.501 60.6424C102.646 60.6558 102.784 60.7058 102.9 60.801C103.298 61.1206 103.31 61.8049 102.927 62.3307C102.645 62.7186 102.227 62.9089 101.869 62.854C102.294 63.1322 102.925 62.9455 103.312 62.4112C103.72 61.8501 103.708 61.1169 103.283 60.7754H103.284Z" fill="#171A32"/>
<path d="M102.526 61.4916C102.455 61.4343 102.362 61.4221 102.272 61.4489C102.319 61.4526 102.363 61.4696 102.401 61.5001C102.53 61.6038 102.534 61.8271 102.41 61.9966C102.318 62.1223 102.182 62.1845 102.066 62.1662C102.204 62.2565 102.41 62.1955 102.536 62.0222C102.669 61.8393 102.664 61.6014 102.526 61.4904V61.4916Z" fill="#171A32"/>
<path d="M94.7222 60.7952C94.0416 63.8302 94.8261 66.9055 97.0195 68.6731C99.0822 70.3358 101.879 70.4321 104.373 69.2037L101.703 62.6018L94.721 60.7952H94.7222Z" fill="#171A32"/>
<path d="M107.536 54.471C107.497 54.438 107.46 54.4039 107.421 54.3722C104.257 51.8214 99.3636 52.9559 96.492 56.9046C95.8492 57.7878 95.3629 58.7381 95.0293 59.7091L101.739 60.1751L107.536 54.471Z" fill="#171A32"/>
<path d="M107.946 54.8467L108.13 55.1297L103.592 62.0342L105.378 68.6239C106.328 67.9944 107.206 67.1625 107.949 66.1402C110.653 62.4221 110.601 57.5341 107.944 54.8467H107.946Z" fill="#171A32"/>
<path d="M107.637 54.3723L107.537 54.4699C107.679 54.5907 107.816 54.7151 107.945 54.8456L107.636 54.3711L107.637 54.3723Z" fill="#171A32"/>
<path d="M90.3984 45.0134C94.5494 44.4864 98.7383 44.4657 102.912 44.6267L102.631 44.7474C103.453 43.9582 104.291 43.1872 105.157 42.448C105.448 42.2016 105.739 41.9564 106.041 41.7209C105.821 42.0345 105.591 42.337 105.36 42.6407C104.635 43.5837 103.875 44.4974 103.096 45.394L102.912 45.4025C98.7383 45.5635 94.5494 45.5428 90.3984 45.0158V45.0134Z" fill="white"/>
</g>
<defs>
<clipPath id="clip0_2145_661">
<rect width="120.685" height="103.561" fill="white"/>
</clipPath>
</defs>
</svg>
