<svg width="82" height="71" viewBox="0 0 82 71" fill="none" xmlns="http://www.w3.org/2000/svg">
<g clip-path="url(#clip0_3751_4117)">
<path d="M75.9931 34.2484C73.6908 14.9334 56.2802 1.15494 37.1044 3.47407C36.1687 3.58698 35.2496 3.74755 34.3405 3.93154C37.8201 2.03057 41.7024 0.739282 45.8703 0.234977C63.5707 -1.90518 79.6421 10.8128 81.7667 28.6425C83.0835 39.6879 78.7346 50.101 71.0281 56.9363C75.0432 50.3895 76.9736 42.4829 75.9922 34.2484H75.9931Z" fill="#FFDE0D"/>
<path d="M32.1941 68.5916C50.0215 68.5916 64.473 54.0344 64.473 36.0768C64.473 22.7056 56.4577 11.2245 45.005 6.22998C59.3329 8.07241 71.1425 19.5042 72.9425 34.6082C75.0671 52.4379 62.4414 68.6258 44.741 70.7668C38.8503 71.4794 33.1447 70.5385 28.0693 68.3189C29.421 68.4929 30.7951 68.5924 32.1941 68.5924V68.5916Z" fill="#5CB5AF"/>
<path d="M-0.000118256 36.5526C0.14933 64.0778 32.8085 78.0119 52.5414 58.8901C64.9463 46.8888 64.9521 26.2122 52.5447 14.2109C32.8135 -4.92004 0.145176 9.02906 -0.000118256 36.5518V36.5526Z" fill="white"/>
<g clip-path="url(#clip1_3751_4117)">
<path fill-rule="evenodd" clip-rule="evenodd" d="M15.6638 25.7903C15.6638 24.8015 16.4662 24 17.4561 24H45.2071C46.197 24 46.9994 24.8015 46.9994 25.7903V43.327C46.9994 44.3157 46.197 45.1172 45.2071 45.1172H21.0536C21.1888 45.2566 21.3239 45.4003 21.4678 45.5397C23.2426 47.3126 24.9476 48.4451 26.0988 49.0593C26.4913 49.2683 27.0102 49.1595 27.3547 48.7239L28.6847 47.0381C29.2167 46.363 30.1848 46.2192 30.8912 46.7071L36.1719 50.3617C37.0702 50.9846 37.3493 52.1911 36.8086 53.1407L35.7271 55.0486C35.2649 55.8675 34.5018 56.7082 33.3767 56.8911C30.3592 57.392 24.7645 56.1811 17.7831 49.2074C10.8148 42.238 9.59819 36.6538 10.0997 33.6395C10.2872 32.5157 11.1288 31.7534 11.9486 31.2917L13.8585 30.2158C14.4298 29.8935 15.0926 29.863 15.6638 30.0851V25.7903ZM16.9851 31.3527L20.2948 36.1311C20.7832 36.8367 20.6393 37.8037 19.9634 38.3395L18.2802 39.668C17.8442 40.0121 17.7351 40.5305 17.9445 40.9225C18.084 41.1882 18.2541 41.4801 18.4503 41.7937L27.3634 34.0315L16.9851 26.0037V31.3483V31.3527ZM18.2584 25.3198L31.0438 35.1989C31.2139 35.3296 31.4493 35.3296 31.6194 35.1989L44.4048 25.3198H18.2584ZM45.6781 26.0037L35.2998 34.0228L45.6781 43.0612V26.0037ZM44.5182 43.7974L34.2358 34.8461L32.4305 36.2443C31.7851 36.7409 30.8825 36.7409 30.2327 36.2443L28.4274 34.8461L19.1916 42.887C19.4053 43.1832 19.6364 43.4881 19.8937 43.7974H44.5182ZM15.5505 31.601C15.315 31.2612 14.8615 31.1567 14.5039 31.3614L12.5939 32.4417C11.9311 32.8163 11.4907 33.2998 11.3991 33.8573C10.9936 36.2922 11.9137 41.4801 18.725 48.2839C25.5363 55.0878 30.7255 56.0069 33.1631 55.6018C33.7212 55.5103 34.2053 55.0704 34.5803 54.4083L35.6574 52.5004C35.8579 52.1432 35.7577 51.6902 35.4175 51.4593L30.1368 47.8048C30.0016 47.7133 29.8185 47.7394 29.7182 47.8658L28.3882 49.5515C27.7166 50.4009 26.5262 50.7929 25.4753 50.231C24.215 49.5558 22.4054 48.3493 20.5303 46.4806C19.9896 45.9405 19.5012 45.4047 19.0695 44.8864C18.5724 44.2896 18.145 43.719 17.7787 43.1832L17.7569 43.1571C17.3514 42.5603 17.0244 42.0115 16.7714 41.5411C16.2089 40.4913 16.6014 39.3021 17.4517 38.6313L19.1393 37.3028C19.2657 37.2026 19.2962 37.0197 19.2003 36.8846L15.5417 31.6097L15.5505 31.601Z" fill="#1C2142"/>
</g>
</g>
<defs>
<clipPath id="clip0_3751_4117">
<rect width="82" height="71" fill="white" transform="matrix(-1 0 0 1 82 0)"/>
</clipPath>
<clipPath id="clip1_3751_4117">
<rect width="37" height="33" fill="white" transform="translate(10 24)"/>
</clipPath>
</defs>
</svg>
