<svg width="22" height="26" viewBox="0 0 22 26" fill="none" xmlns="http://www.w3.org/2000/svg">
<path fill-rule="evenodd" clip-rule="evenodd" d="M5.58833 0.317781C5.7933 0.116059 6.07229 0 6.36835 0H18.9255C20.6194 0 22.0001 1.34573 22.0001 2.98438V23.0129C22.0001 24.657 20.6194 25.9972 18.9255 25.9972H3.07462C2.24905 25.9972 1.43771 25.6573 0.905362 25.1185C0.350238 24.5797 0.00292969 23.8336 0.00292969 23.0129V6.15389C0.0541719 5.87204 0.0513251 5.69518 0.330311 5.42438L5.58833 0.317781ZM14.2255 9.81528L9.36033 15.1927L7.77467 13.438C6.82953 12.3907 5.18978 13.7834 6.13492 14.8307L8.53476 17.4835C8.96747 17.9671 9.7418 17.9781 10.1831 17.4918L15.8681 11.2108C16.8132 10.1635 15.1735 8.77075 14.2283 9.81805L14.2255 9.81528ZM2.18642 7.24264V23.0129C2.18642 23.2505 2.28606 23.4633 2.44832 23.6208C2.61059 23.7783 2.83264 23.875 3.07746 23.875H18.9284C19.4152 23.875 19.8166 23.4854 19.8166 23.0129V2.98438C19.8166 2.50632 19.4123 2.12222 18.9284 2.12222H7.45867V6.18153C7.45867 6.76735 6.96903 7.24264 6.36551 7.24264H2.18642ZM5.27234 5.12042V3.6227L3.72938 5.12042H5.27234Z" fill="white"/>
</svg>
