<svg width="23" height="21" viewBox="0 0 23 21" fill="none" xmlns="http://www.w3.org/2000/svg">
<path d="M11.2501 0C10.5601 0 10.0001 0.56 10.0001 1.25V12.58L6.05007 9.29C5.52007 8.85 4.73007 8.92 4.29007 9.45C3.85007 9.98 3.92007 10.77 4.45007 11.21L10.4501 16.21C10.5101 16.25 10.5801 16.29 10.6501 16.33C10.7001 16.36 10.7401 16.39 10.7901 16.41C11.0801 16.53 11.4101 16.53 11.7001 16.41C11.7501 16.39 11.8001 16.36 11.8401 16.33C11.9101 16.3 11.9801 16.26 12.0401 16.21L18.0401 11.21C18.5701 10.77 18.6401 9.98 18.2001 9.45C17.9601 9.17 17.6101 9 17.2401 9C16.9501 9 16.6601 9.1 16.4401 9.29L12.4901 12.58V1.25C12.4901 0.56 11.9301 0 11.2401 0H11.2501Z" fill="white"/>
<path d="M21.25 13C20.56 13 20 13.56 20 14.25V17.25C20 17.66 19.66 18 19.25 18H3.25C2.84 18 2.5 17.66 2.5 17.25V14.25C2.5 13.56 1.94 13 1.25 13C0.56 13 0 13.56 0 14.25V17.25C0 19.04 1.46 20.5 3.25 20.5H19.25C21.04 20.5 22.5 19.04 22.5 17.25V14.25C22.5 13.56 21.94 13 21.25 13Z" fill="white"/>
</svg>
