<svg width="71" height="85" viewBox="0 0 71 85" fill="none" xmlns="http://www.w3.org/2000/svg">
<path d="M42.6 47.2222H14.2V42.5H42.6V47.2222ZM42.6 33.0556H14.2V37.7778H42.6V33.0556ZM42.6 23.6111H14.2V28.3333H42.6V23.6111ZM71 68.4722C71 77.5861 63.5687 85 54.4333 85C46.1027 85 39.2157 78.8375 38.056 70.8333H2.36667C1.065 70.8333 0 69.7708 0 68.4722V2.36111C0 1.0625 1.065 0 2.36667 0H42.6C43.239 0 43.8307 0.236111 44.2803 0.684722L56.1137 12.4903C56.5633 12.9389 56.8 13.5292 56.8 14.1667V52.1333C64.823 53.2903 71 60.1611 71 68.4722ZM42.6 5.69028V14.1667H51.0963L42.6 5.69028ZM4.73333 66.1111H38.056C39.0973 58.8861 44.8247 53.1722 52.0667 52.1333V18.8889H40.2333C38.9317 18.8889 37.8667 17.8264 37.8667 16.5278V4.72222H4.73333V66.1111ZM66.2667 68.4722C66.2667 61.9556 60.9653 56.6667 54.4333 56.6667C47.9013 56.6667 42.6 61.9556 42.6 68.4722C42.6 74.9889 47.9013 80.2778 54.4333 80.2778C60.9653 80.2778 66.2667 74.9889 66.2667 68.4722ZM53.747 66.1111H47.3333V70.8333H53.747V77.2319L62.5273 68.4722L53.747 59.7125V66.1111Z" fill="#2578A8"/>
</svg>
