<svg width="84" height="88" viewBox="0 0 84 88" fill="none" xmlns="http://www.w3.org/2000/svg">
<path fill-rule="evenodd" clip-rule="evenodd" d="M65.62 64.53V85.94C65.62 86.8 64.92 87.5 64.06 87.5H1.56C0.7 87.5 0 86.8 0 85.94V1.56C0 0.7 0.7 0 1.56 0H64.06C64.92 0 65.62 0.7 65.62 1.56V25.06C72.49 25.61 78.87 29.74 82 36.43C86.07 45.15 83.22 55.33 75.72 60.79L82.48 70.64C83.45 72.05 83.75 73.83 83.3 75.49C82.85 77.15 81.69 78.53 80.13 79.26C78.57 79.99 76.77 79.99 75.21 79.27C73.65 78.56 72.49 77.19 72.02 75.53L68.81 64.01C67.76 64.27 66.7 64.44 65.63 64.53H65.62ZM17.19 3.13H3.12V84.38H62.5V64.53C60.9 64.4 59.32 64.07 57.81 63.57V79.69C57.81 80.55 57.11 81.25 56.25 81.25H9.38C8.52 81.25 7.82 80.55 7.82 79.69V7.81C7.82 6.95 8.52 6.25 9.38 6.25H17.19V3.13ZM45.31 3.13H20.31V9.38C20.31 9.79 20.47 10.19 20.76 10.48C21.06 10.77 21.46 10.93 21.87 10.93H43.75C44.16 10.93 44.56 10.77 44.86 10.48C45.16 10.19 45.32 9.79 45.32 9.38V3.13H45.31ZM62.5 25.06V3.13H48.44V6.25H56.25C57.11 6.25 57.81 6.95 57.81 7.81V26.01C59.35 25.5 60.92 25.18 62.5 25.06ZM73.06 62.42C72.85 62.53 72.64 62.63 72.43 62.73C72.22 62.83 71.99 62.93 71.78 63.02L75.03 74.68C75.24 75.45 75.78 76.09 76.51 76.43C77.24 76.77 78.07 76.76 78.8 76.43H78.81C79.53 76.09 80.07 75.45 80.28 74.68C80.49 73.9 80.35 73.07 79.9 72.41L73.05 62.43L73.06 62.42ZM69.46 60.57C70.01 60.37 70.56 60.16 71.1 59.9C79.44 56.01 83.04 46.09 79.16 37.75C76.57 32.19 71.31 28.74 65.62 28.2C64.58 28.1 63.54 28.1 62.5 28.2C60.92 28.35 59.34 28.72 57.81 29.34C57.54 29.45 57.28 29.57 57.01 29.69C56.19 30.07 55.41 30.51 54.68 31.01C48.04 35.52 45.44 44.33 48.95 51.84C50.27 54.66 52.28 56.95 54.68 58.58C55.66 59.25 56.71 59.81 57.8 60.25C59.29 60.86 60.87 61.24 62.49 61.39C63.52 61.5 64.56 61.5 65.61 61.39C66.84 61.27 68.07 61.02 69.29 60.62C69.34 60.6 69.4 60.58 69.45 60.57H69.46ZM17.19 9.38H10.94V78.13H54.69V62.23C51.06 60.28 48 57.19 46.13 53.17C45.65 52.13 45.26 51.08 44.97 50.01H34.38C33.52 50.01 32.82 49.31 32.82 48.45C32.82 47.59 33.52 46.88 34.38 46.88H44.38C44.27 45.84 44.24 44.8 44.3 43.76H34.38C33.52 43.76 32.82 43.06 32.82 42.2C32.82 41.34 33.52 40.64 34.38 40.64H44.72C45.47 37.16 47.16 33.9 49.63 31.26H34.38C33.52 31.26 32.82 30.56 32.82 29.69C32.82 28.82 33.52 28.14 34.38 28.14H50C50.78 28.14 51.43 28.72 51.55 29.47C52.51 28.68 53.56 27.99 54.69 27.38V9.38H48.44C48.44 10.62 47.94 11.81 47.06 12.69C46.18 13.57 44.99 14.07 43.75 14.07H21.87C20.62 14.07 19.43 13.58 18.56 12.69C17.68 11.81 17.18 10.62 17.18 9.38H17.19ZM29.69 20.31V32.81C29.69 33.67 28.99 34.38 28.13 34.38H15.63C14.77 34.38 14.07 33.68 14.07 32.81V20.31C14.07 19.45 14.77 18.75 15.63 18.75H28.13C28.99 18.75 29.69 19.45 29.69 20.31ZM26.56 21.88H17.18V31.25H26.56V21.88ZM17.58 27.6C17.01 26.95 17.07 25.96 17.71 25.39C18.35 24.82 19.34 24.88 19.92 25.52L20.83 26.56L23.83 23.18C24.4 22.53 25.39 22.48 26.04 23.05C26.68 23.62 26.74 24.61 26.17 25.26L22 29.95C21.7 30.28 21.28 30.48 20.83 30.48C20.38 30.48 19.96 30.28 19.66 29.95L17.58 27.61V27.6ZM34.38 68.75C33.52 68.75 32.82 68.05 32.82 67.19C32.82 66.33 33.52 65.62 34.38 65.62H50C50.86 65.62 51.56 66.32 51.56 67.19C51.56 68.06 50.86 68.75 50 68.75H34.38ZM34.38 25C33.52 25 32.82 24.3 32.82 23.43C32.82 22.56 33.52 21.88 34.38 21.88H50C50.86 21.88 51.56 22.58 51.56 23.43C51.56 24.28 50.86 25 50 25H34.38ZM29.69 39.06V51.56C29.69 52.42 28.99 53.11 28.13 53.11H15.63C14.77 53.11 14.07 52.42 14.07 51.56V39.06C14.07 38.2 14.77 37.5 15.63 37.5H28.13C28.99 37.5 29.69 38.2 29.69 39.06ZM26.56 40.63H17.18V50H26.56V40.63ZM29.69 57.82V70.32C29.69 71.18 28.99 71.87 28.13 71.87H15.63C14.77 71.87 14.07 71.18 14.07 70.32V57.82C14.07 56.96 14.77 56.25 15.63 56.25H28.13C28.99 56.25 29.69 56.95 29.69 57.82ZM26.56 59.37H17.18V68.75H26.56V59.37ZM34.38 62.5C33.52 62.5 32.82 61.8 32.82 60.94C32.82 60.08 33.52 59.37 34.38 59.37H50C50.86 59.37 51.56 60.07 51.56 60.94C51.56 61.81 50.86 62.5 50 62.5H34.38Z" fill="#2578A8"/>
</svg>
