<svg width="139" height="137" viewBox="0 0 139 137" fill="none" xmlns="http://www.w3.org/2000/svg">
<g clip-path="url(#clip0_2825_2779)">
<path d="M137.662 77.9932L110.762 51.145C108.955 49.3575 106.053 49.3575 104.246 51.145L97.9029 57.4796C96.1131 59.2845 96.1131 62.1828 97.9029 63.9877L98.0246 64.1092C91.6124 70.652 82.0028 72.8735 73.349 69.8537C68.9352 68.3785 65.0775 67.7364 58.1961 71.5371C53.0003 70.2702 47.9957 67.3719 42.1744 62.2696C42.7652 60.6035 42.3481 58.7292 41.097 57.4796L34.7543 51.145C32.9471 49.3575 30.0451 49.3575 28.2379 51.145L1.33799 77.9932C-0.451857 79.7981 -0.451857 82.6964 1.33799 84.5013L7.68066 90.8358C9.48789 92.6234 12.3899 92.6234 14.1971 90.8358L14.8922 90.1416C18.1591 93.2308 21.1306 96.615 23.8067 100.225C22.625 102.151 22.5034 104.546 23.4939 106.577C24.467 108.625 26.4133 110.013 28.6549 110.308C27.8556 112.703 28.4811 115.358 30.271 117.163C31.192 118.083 32.3562 118.708 33.6248 118.968C32.1999 121.571 32.669 124.799 34.7543 126.899C37.3609 129.503 41.6009 129.503 44.2075 126.899L44.3986 126.709C45.0068 129.017 46.8141 130.839 49.1078 131.446C51.419 132.071 53.8866 131.412 55.5721 129.728L58.1961 127.108L66.1722 135.074C67.9099 136.809 70.4644 137.469 72.8103 136.757C75.1562 136.045 76.9461 134.119 77.4326 131.707C80.0218 133.06 83.2019 132.574 85.2697 130.527C86.2255 129.572 86.8858 128.323 87.1117 126.986C89.6488 128.114 92.6029 127.576 94.5665 125.615C95.5223 124.661 96.1826 123.411 96.4259 122.075C98.9456 123.185 101.882 122.665 103.846 120.721C105.792 118.777 106.366 115.844 105.271 113.31C111.005 105.188 117.574 97.691 124.855 90.9226C126.662 92.6407 129.512 92.6234 131.285 90.8532L137.627 84.5186C139.417 82.7137 139.417 79.8154 137.627 78.0279L137.662 77.9932ZM10.9649 88.8574C10.6174 88.8574 10.3046 88.7185 10.0613 88.4929L3.71866 82.1583C3.21473 81.6551 3.21473 80.8567 3.71866 80.3534L30.6185 53.488C31.1225 52.9847 31.9218 52.9847 32.4258 53.488L38.7684 59.8225C39.2724 60.3258 39.2724 61.1241 38.7684 61.6274L11.8686 88.4929C11.6253 88.7359 11.3125 88.8574 10.9649 88.8574ZM26.1873 103.678C26.1873 102.776 26.5349 101.926 27.1778 101.301L35.3973 93.092C36.631 91.8598 38.612 91.7904 39.9327 92.9184C41.2707 94.0465 41.514 96.0076 40.5061 97.4134C40.4714 97.4828 40.4366 97.5348 40.4019 97.5869L31.5569 106.421C31.47 106.455 31.3657 106.49 31.2789 106.542C30.2362 107.167 28.9503 107.167 27.8903 106.577C26.8303 105.987 26.1873 104.859 26.1873 103.661V103.678ZM31.6438 112.425C31.6438 111.523 31.9913 110.673 32.6169 110.048L44.1206 98.5588C45.4065 97.2919 47.4744 97.2572 48.7951 98.5241C50.1157 99.7736 50.2026 101.839 48.9862 103.193L37.2566 114.924C37.2392 114.924 37.2219 114.959 37.1871 114.977C35.8491 116.105 33.8681 116.035 32.6169 114.803C31.9913 114.178 31.6264 113.31 31.6438 112.425ZM37.1002 124.522C35.7969 123.203 35.7969 121.086 37.1002 119.767L53.8518 103.036C55.1725 101.735 57.2925 101.735 58.6132 103.036C59.9338 104.355 59.9338 106.473 58.6132 107.792L46.1363 120.252L41.8789 124.504C40.5583 125.823 38.4383 125.823 37.1176 124.504L37.1002 124.522ZM53.2436 127.351C51.9229 128.652 49.8029 128.652 48.4823 127.351C47.1616 126.049 47.1616 123.914 48.4823 122.595L56.7017 114.387C58.0223 113.085 60.1423 113.085 61.463 114.387C62.7663 115.705 62.7663 117.823 61.463 119.142L53.261 127.351H53.2436ZM101.535 118.291C100.214 119.593 98.0941 119.593 96.7734 118.291L85.3219 106.854C84.6789 106.212 83.6189 106.212 82.9759 106.854C82.333 107.514 82.333 108.555 82.9759 109.215L92.2206 118.465C93.5413 119.767 93.5413 121.901 92.2206 123.22C90.9173 124.522 88.7799 124.522 87.4766 123.22L77.1198 112.877C76.4595 112.234 75.4169 112.234 74.7739 112.877C74.1136 113.536 74.1136 114.577 74.7739 115.22L82.9412 123.376C84.2619 124.695 84.2619 126.813 82.9412 128.132C81.6205 129.451 79.5005 129.451 78.1798 128.132L69.6477 119.61C69.3522 119.263 68.9178 119.055 68.466 119.055C67.9968 119.055 67.5624 119.211 67.2322 119.541C66.9021 119.853 66.7283 120.305 66.7457 120.756C66.7457 121.207 66.9542 121.641 67.3017 121.953L73.2969 127.941C74.6002 129.26 74.6002 131.377 73.2969 132.696C71.9762 133.998 69.8562 133.998 68.5355 132.696L60.5594 124.73L63.7915 121.485C65.4771 119.801 66.1548 117.337 65.5293 115.029C64.9037 112.72 63.0791 110.933 60.7679 110.325L60.9591 110.135C63.2876 107.774 63.5483 104.078 61.5673 101.422C59.5863 98.767 55.9544 97.9687 53.0351 99.5307C52.6354 97.6737 51.4538 96.077 49.8029 95.1225C48.1521 94.1853 46.1711 93.9944 44.3813 94.5845C44.0337 92.068 42.296 89.9507 39.8979 89.135C37.4999 88.3194 34.8238 88.9441 33.034 90.7317L26.1178 97.639C23.4244 94.1159 20.4703 90.8185 17.2729 87.764L40.176 64.8728C44.3291 68.7256 49.16 71.7627 54.4426 73.828C49.9767 76.9519 45.7019 80.3708 41.653 84.05C41.1665 84.4839 40.9753 85.1608 41.1665 85.7682C42.7826 91.0094 48.3085 93.9944 53.5738 92.4672C57.1535 91.5647 60.5768 90.1416 63.7394 88.2326C67.3539 86.2888 71.09 84.293 72.5844 85.4905C73.1752 86.3756 73.6444 87.3301 73.9746 88.3367C75.6949 92.554 78.6664 99.8257 87.772 99.8257H87.8068L101.535 113.519C102.838 114.838 102.838 116.955 101.535 118.274V118.291ZM103.151 110.482L92.0294 99.3745C92.4813 99.2877 92.9504 99.1662 93.437 99.0447C94.3059 98.8018 94.8272 97.8993 94.6013 97.0315C94.358 96.1638 93.4718 95.6258 92.5855 95.8514C81.7769 98.6976 79.153 92.2763 77.0503 87.1219C76.5985 85.5599 75.7818 84.1195 74.6523 82.9393C71.4549 80.3708 66.9368 82.8005 62.1581 85.3517C59.2735 87.1045 56.1456 88.4235 52.8787 89.2565L52.6875 89.2912C49.5249 90.2458 46.1363 88.7706 44.694 85.7855C62.8706 69.819 67.2322 71.2768 72.289 72.9602C75.1736 73.9495 78.2146 74.4528 81.2556 74.4528C88.4498 74.4528 95.3311 71.5371 100.353 66.4174L122.509 88.545C115.35 95.2093 108.868 102.55 103.151 110.482ZM135.299 82.141L128.956 88.4755C128.452 88.9788 127.653 88.9788 127.149 88.4755L100.249 61.6101C99.7449 61.1068 99.7449 60.3085 100.249 59.8052L106.592 53.4706C107.095 52.9673 107.895 52.9673 108.399 53.4706L135.281 80.3361C135.785 80.8394 135.785 81.6377 135.281 82.141H135.299ZM87.1812 36.3066C86.1212 36.3066 85.096 36.7231 84.3487 37.4867L77.6412 44.2031L75.1562 41.7213C73.5923 40.1594 71.0552 40.1594 69.4739 41.7213C67.9099 43.2833 67.9099 45.8171 69.4739 47.379L74.7913 52.6896C76.3552 54.2516 78.8923 54.2516 80.4736 52.6896L90.0311 43.1444C91.178 41.999 91.5255 40.2808 90.8999 38.771C90.2744 37.2784 88.8147 36.2892 87.1986 36.2892L87.1812 36.3066ZM87.6678 40.7841L78.1103 50.3294C77.8323 50.5897 77.3979 50.5897 77.1372 50.3294L71.8198 45.0187C71.6113 44.7411 71.6287 44.3593 71.8893 44.1163C72.1326 43.8733 72.5149 43.8386 72.7929 44.0469L76.4421 47.6914C77.1025 48.3335 78.1451 48.3335 78.8054 47.6914L86.6947 39.8123C86.9727 39.5519 87.4071 39.5519 87.6678 39.8123C87.9458 40.0726 87.9458 40.5238 87.6678 40.7841ZM50.8456 37.3999L48.7429 55.9697C48.6908 56.4383 48.8298 56.9069 49.16 57.2713C49.4728 57.6358 49.9246 57.8267 50.3938 57.8267C50.637 57.8267 50.8629 57.7746 51.0888 57.6705L62.523 52.4814C64.782 57.7746 69.3696 61.7316 74.9477 63.2241C80.5258 64.7166 86.4688 63.5538 91.0737 60.0828C95.6787 56.6119 98.4416 51.2318 98.5459 45.47C98.6675 39.7081 96.1131 34.224 91.6472 30.5794L98.042 23.5854C98.4416 23.1515 98.5807 22.5267 98.4069 21.954C98.2157 21.3987 97.7465 20.9648 97.1557 20.8433L78.8054 17.0946L69.5608 0.833038C69.2654 0.312389 68.7093 0 68.1185 0C67.5276 0 66.9716 0.312389 66.6762 0.833038L57.4315 17.0946L39.0986 20.8433C38.5078 20.9648 38.0386 21.3987 37.8474 21.954C37.6563 22.5267 37.7953 23.1515 38.195 23.5854L50.8282 37.3826L50.8456 37.3999ZM95.2095 45.0708C95.2095 51.3186 91.456 56.9416 85.6694 59.3192C79.9002 61.7142 73.2621 60.3952 68.8309 55.9697C64.3997 51.5442 63.0965 44.9146 65.4771 39.1528C67.8752 33.3909 73.5054 29.6249 79.7438 29.6249C88.276 29.6249 95.1747 36.5322 95.1921 45.0535L95.2095 45.0708ZM58.8391 20.2012C59.3082 20.1144 59.7079 19.8194 59.9512 19.4028L68.1185 5.03294L76.2857 19.4028C76.529 19.8194 76.9287 20.1144 77.3979 20.2012L93.6108 23.516L88.8668 28.6877C82.3851 25.0953 74.3742 25.6333 68.4486 30.0935C62.523 34.5537 59.7774 42.0858 61.463 49.3054L52.3574 53.4359L54.1994 37.0181C54.2515 36.5495 54.0951 36.0636 53.7823 35.7165L42.6088 23.516L58.8217 20.2012H58.8391Z" fill="#2578A8"/>
</g>
<defs>
<clipPath id="clip0_2825_2779">
<rect width="139" height="137" fill="white"/>
</clipPath>
</defs>
</svg>
