<svg width="89" height="91" viewBox="0 0 89 91" fill="none" xmlns="http://www.w3.org/2000/svg">
<path fill-rule="evenodd" clip-rule="evenodd" d="M70.35 4.51C70.35 5.17 69.81 5.71 69.15 5.71C68.49 5.71 67.95 5.17 67.95 4.51V1.2C67.95 0.54 68.49 0 69.15 0C69.81 0 70.35 0.54 70.35 1.2V4.51ZM62.67 5.75C63 6.32 62.8 7.05 62.23 7.38C61.66 7.71 60.93 7.51 60.6 6.94L58.94 4.07C58.61 3.5 58.81 2.77 59.38 2.44C59.95 2.11 60.68 2.31 61.01 2.88L62.67 5.75ZM56.64 10.66C57.21 10.99 57.41 11.72 57.08 12.29C56.75 12.86 56.02 13.06 55.45 12.73L52.58 11.07C52.01 10.74 51.81 10.01 52.14 9.44C52.47 8.87 53.2 8.67 53.77 9L56.64 10.66ZM53.88 17.92C54.54 17.92 55.08 18.46 55.08 19.12C55.08 19.78 54.54 20.32 53.88 20.32H50.57C49.91 20.32 49.37 19.78 49.37 19.12C49.37 18.46 49.91 17.92 50.57 17.92H53.88ZM83.76 20.97C83.1 20.97 82.56 20.43 82.56 19.77C82.56 19.11 83.1 18.57 83.76 18.57H87.07C87.73 18.57 88.27 19.11 88.27 19.77C88.27 20.43 87.73 20.97 87.07 20.97H83.76ZM82.52 13.3C81.95 13.63 81.22 13.44 80.89 12.87C80.56 12.3 80.75 11.57 81.32 11.24L84.19 9.58C84.76 9.25 85.49 9.44 85.82 10.01C86.15 10.58 85.96 11.31 85.39 11.64L82.52 13.3ZM77.61 7.27C77.28 7.84 76.55 8.04 75.98 7.7C75.41 7.36 75.21 6.64 75.55 6.07L77.21 3.2C77.54 2.63 78.27 2.43 78.84 2.77C79.41 3.1 79.61 3.83 79.27 4.4L77.61 7.27ZM26.96 60.38C26.96 59.72 27.5 59.18 28.16 59.18C28.82 59.18 29.36 59.72 29.36 60.38V61.07C29.36 61.73 28.82 62.27 28.16 62.27C27.5 62.27 26.96 61.73 26.96 61.07V60.38ZM26.96 39.81C26.96 39.15 27.5 38.61 28.16 38.61C28.82 38.61 29.36 39.15 29.36 39.81V54.08C29.36 54.74 28.82 55.28 28.16 55.28C27.5 55.28 26.96 54.74 26.96 54.08V39.81ZM41.81 52.85C44.19 50.04 47.49 48.46 50.89 48.18C54.29 47.9 57.79 48.92 60.6 51.3C63.41 53.68 64.99 56.98 65.27 60.39C65.55 63.79 64.53 67.29 62.15 70.1C59.77 72.91 56.47 74.49 53.06 74.77C49.66 75.05 46.16 74.03 43.35 71.65C40.54 69.27 38.96 65.97 38.68 62.56C38.4 59.16 39.42 55.66 41.8 52.85H41.81ZM43.63 54.4C41.68 56.7 40.84 59.59 41.07 62.38C41.3 65.17 42.59 67.87 44.9 69.83C47.2 71.78 50.09 72.62 52.88 72.39C55.67 72.16 58.37 70.87 60.33 68.56C62.28 66.26 63.12 63.37 62.89 60.58C62.66 57.79 61.37 55.09 59.06 53.13C56.76 51.18 53.87 50.34 51.08 50.57C48.29 50.8 45.59 52.09 43.63 54.4ZM50.64 45.18C46.47 45.52 42.44 47.45 39.52 50.9C36.6 54.34 35.36 58.65 35.7 62.82C35.93 65.67 36.91 68.46 38.61 70.87C38.64 70.91 38.66 70.94 38.69 70.98C39.46 72.05 40.37 73.05 41.42 73.94C44.86 76.86 49.17 78.11 53.34 77.76C57.51 77.42 61.54 75.49 64.46 72.05C67.38 68.61 68.63 64.3 68.28 60.13C67.94 55.96 66.01 51.93 62.57 49.01C59.13 46.09 54.82 44.85 50.65 45.19L50.64 45.18ZM37.69 49.36C39.21 47.57 40.99 46.14 42.93 45.07L32.5 27C32.04 26.2 31.41 25.57 30.68 25.15C29.95 24.73 29.1 24.51 28.17 24.51C27.24 24.51 26.39 24.74 25.66 25.15C24.92 25.58 24.3 26.2 23.84 27L3.09 62.93C2.63 63.73 2.4 64.58 2.4 65.43C2.4 66.28 2.63 67.13 3.09 67.93C3.55 68.73 4.18 69.36 4.91 69.78C5.64 70.2 6.49 70.42 7.42 70.42H35.51C34.26 68.11 33.51 65.58 33.3 63.01C32.91 58.24 34.34 53.31 37.69 49.36ZM63.69 76.11L64.05 76.42C64.51 76.81 65.1 76.98 65.68 76.94C66.25 76.89 66.8 76.63 67.19 76.17L68.94 74.11C69.33 73.65 69.5 73.06 69.46 72.48C69.41 71.91 69.15 71.36 68.69 70.97L68.33 70.67C67.75 71.69 67.07 72.68 66.28 73.61C65.49 74.55 64.62 75.39 63.69 76.13V76.11ZM68.64 78.09C68.77 77.97 68.89 77.84 69.01 77.7L70.76 75.64C70.88 75.5 70.99 75.35 71.09 75.2L81.78 84.26C82.17 84.6 82.4 85.06 82.44 85.54C82.48 86.03 82.34 86.53 82 86.92C81.66 87.31 81.2 87.54 80.72 87.58C80.23 87.62 79.73 87.48 79.34 87.14L68.65 78.08L68.64 78.09ZM71.86 72.72C71.86 72.57 71.86 72.43 71.84 72.28C71.74 71.1 71.2 69.96 70.23 69.13L69.39 68.42C70.48 65.7 70.89 62.79 70.66 59.94C70.27 55.16 68.05 50.53 64.1 47.18C60.15 43.83 55.22 42.4 50.45 42.79C48.62 42.94 46.82 43.36 45.1 44.04L34.57 25.79C33.9 24.63 32.98 23.7 31.88 23.07C30.78 22.43 29.52 22.09 28.17 22.09C26.82 22.09 25.56 22.43 24.46 23.06C23.37 23.69 22.45 24.61 21.77 25.78L1.02 61.74C0.34 62.92 0 64.17 0 65.44C0 66.71 0.34 67.96 1.02 69.14C1.69 70.3 2.61 71.23 3.71 71.86C4.81 72.5 6.07 72.84 7.42 72.84H37.07C37.88 73.9 38.81 74.89 39.87 75.79C43.82 79.14 48.75 80.57 53.52 80.18C56.37 79.95 59.16 79.06 61.67 77.55L62.51 78.27C63.48 79.09 64.69 79.45 65.87 79.35C66.02 79.34 66.17 79.32 66.32 79.29L77.78 89.01C78.68 89.77 79.81 90.1 80.89 90.01C81.98 89.92 83.05 89.41 83.81 88.51C84.57 87.61 84.9 86.48 84.81 85.4C84.72 84.31 84.21 83.24 83.31 82.48L71.84 72.76H71.85L71.86 72.72ZM61.24 23.23C61.24 22.57 61.78 22.03 62.44 22.03C63.1 22.03 63.64 22.57 63.64 23.23V23.41C63.64 24.07 63.1 24.61 62.44 24.61C61.78 24.61 61.24 24.07 61.24 23.41V23.23ZM67.93 13.5C68.59 13.5 69.13 14.04 69.13 14.7C69.13 15.36 68.59 15.9 67.93 15.9C66.75 15.9 65.68 16.38 64.91 17.16C64.13 17.94 63.65 19.01 63.65 20.18C63.65 20.84 63.11 21.38 62.45 21.38C61.79 21.38 61.25 20.84 61.25 20.18C61.25 18.34 62 16.67 63.21 15.46C64.42 14.25 66.09 13.5 67.93 13.5ZM80.86 32.91C81.35 32.91 81.8 33.11 82.12 33.44C82.44 33.76 82.65 34.21 82.65 34.7V36.49H54.65V34.7C54.65 34.21 54.85 33.76 55.18 33.44C55.5 33.12 55.95 32.91 56.44 32.91H80.86ZM58.87 30.52V20.56C58.87 15.81 61.43 12.78 64.71 11.47C66 10.95 67.41 10.69 68.83 10.69C70.25 10.69 71.66 10.95 72.95 11.47C76.23 12.79 78.79 15.82 78.79 20.56V30.52H58.87ZM56.44 30.52C55.29 30.52 54.24 30.99 53.49 31.75C52.73 32.51 52.26 33.55 52.26 34.7V37.68C52.26 38.34 52.8 38.88 53.46 38.88H83.85C84.51 38.88 85.05 38.34 85.05 37.68V34.7C85.05 33.55 84.58 32.5 83.82 31.75C83.13 31.06 82.21 30.61 81.19 30.54V20.57C81.19 14.69 77.97 10.92 73.84 9.26C72.25 8.62 70.54 8.3 68.83 8.3C67.12 8.3 65.41 8.62 63.82 9.26C59.7 10.92 56.47 14.69 56.47 20.57V30.53H56.43L56.44 30.52Z" fill="#2578A8"/>
</svg>
