<svg width="82" height="71" viewBox="0 0 82 71" fill="none" xmlns="http://www.w3.org/2000/svg">
<g clip-path="url(#clip0_1175_463)">
<path d="M75.9931 34.2485C73.6908 14.9336 56.2802 1.15506 37.1044 3.47419C36.1687 3.5871 35.2496 3.74767 34.3405 3.93166C37.8201 2.03069 41.7024 0.739404 45.8703 0.235099C63.5707 -1.90506 79.6421 10.813 81.7667 28.6426C83.0835 39.688 78.7346 50.1011 71.0281 56.9364C75.0432 50.3896 76.9736 42.483 75.9922 34.2485H75.9931Z" fill="#FFDE0D"/>
<path d="M32.1941 68.5914C50.0215 68.5914 64.473 54.0343 64.473 36.0766C64.473 22.7054 56.4577 11.2243 45.005 6.2298C59.3329 8.07223 71.1425 19.504 72.9425 34.6081C75.0671 52.4377 62.4414 68.6257 44.741 70.7667C38.8503 71.4792 33.1447 70.5383 28.0693 68.3187C29.421 68.4927 30.7951 68.5922 32.1941 68.5922V68.5914Z" fill="#0F9B39"/>
<path d="M-0.000118256 36.5525C0.14933 64.0777 32.8085 78.0118 52.5414 58.89C64.9463 46.8887 64.9521 26.2122 52.5447 14.2109C32.8135 -4.92012 0.145176 9.02899 -0.000118256 36.5517V36.5525Z" fill="white"/>
<g clip-path="url(#clip1_1175_463)">
<path d="M41.8824 35.8667L30.292 24.1592C28.7887 22.7068 26.3922 22.7068 24.889 24.1592C23.9086 25.1495 23.5382 26.602 23.9304 27.9443L20.2267 36.7469L17.0894 39.8499C15.6297 41.3243 15.6297 43.701 17.0894 45.1754L21.0763 49.2026C21.7735 49.9288 22.7103 50.3249 23.7125 50.3249C24.6929 50.3249 25.6515 49.9508 26.3487 49.2686L30.706 53.6699C30.902 53.89 31.1853 54 31.4685 54H31.8171L35.6733 52.6796C36.0219 52.5696 36.2833 52.2615 36.3704 51.9094C36.4576 51.5353 36.3704 51.1612 36.0872 50.8971L30.706 45.4835L38.048 42.2926C38.3966 42.4026 38.7452 42.4686 39.0938 42.4686C41.207 42.4686 42.9282 40.7081 42.9064 38.5735C42.9064 37.5612 42.4924 36.5929 41.7953 35.8667H41.8824ZM25.3683 30.123L35.9783 40.9062L29.1155 43.877L22.4271 37.055L25.3683 30.123ZM22.6232 47.7282L18.6362 43.613C18.048 42.9968 18.048 42.0285 18.6362 41.4123L21.1417 38.8816L27.3291 45.1314L25.5208 46.9579L24.8236 47.6842C24.1918 48.2563 23.2332 48.2343 22.6232 47.6621V47.7282ZM31.7517 51.7333L27.8301 47.7722L28.8759 46.7379L33.2332 51.1392L31.7517 51.7333ZM40.3356 39.8499C39.7038 40.488 38.658 40.488 38.0262 39.8499L26.3487 28.0764C25.7169 27.4162 25.7169 26.3819 26.3487 25.7217C26.6755 25.4136 27.0894 25.2376 27.5251 25.2376C27.9609 25.2376 28.3748 25.4136 28.6798 25.7217L40.2702 37.4291C40.9238 38.0453 40.9674 39.1016 40.3574 39.7618C40.3574 39.7618 40.3574 39.7618 40.3574 39.7838V39.8499H40.3356Z" fill="#1C2142"/>
<path d="M39.1154 28.0544C39.4204 28.0544 39.6819 27.9443 39.8997 27.7243L42.7102 24.8854C43.1241 24.4673 43.1241 23.7631 42.7102 23.345C42.2962 22.9049 41.5991 22.9049 41.1633 23.345L38.3529 26.1838C37.9389 26.5799 37.9172 27.2621 38.3093 27.6803C38.3093 27.6803 38.3311 27.7023 38.3529 27.7243C38.549 27.9223 38.8322 28.0544 39.1154 28.0544Z" fill="#1C2142"/>
<path d="M35.3247 26.2278C35.9129 26.2278 36.3922 25.7217 36.414 25.1275V21.1003C36.414 20.4841 35.9347 20 35.3247 20C34.7147 20 34.2354 20.4841 34.2354 21.1003V25.1275C34.2354 25.7437 34.7147 26.2278 35.3247 26.2278Z" fill="#1C2142"/>
<path d="M39.8564 30.8052C39.8564 31.4214 40.3357 31.9055 40.9458 31.9055H44.9109C45.5209 31.9055 46.0002 31.4214 46.0002 30.8052C46.0002 30.189 45.5209 29.7049 44.9109 29.7049H40.9458C40.3357 29.7049 39.8564 30.189 39.8564 30.8052Z" fill="#1C2142"/>
</g>
</g>
<defs>
<clipPath id="clip0_1175_463">
<rect width="82" height="71" fill="white" transform="matrix(-1 0 0 1 82 0)"/>
</clipPath>
<clipPath id="clip1_1175_463">
<rect width="30" height="34" fill="white" transform="translate(16 20)"/>
</clipPath>
</defs>
</svg>
