<svg width="108" height="121" viewBox="0 0 108 121" fill="none" xmlns="http://www.w3.org/2000/svg">
<g clip-path="url(#clip0_1064_2385)">
<path d="M93.1764 56.4667L51.4509 14.802C46.0392 9.63306 37.4117 9.63306 32 14.802C28.4705 18.3263 27.1372 23.4952 28.549 28.2725L15.2156 59.5994L3.92152 70.6421C-1.33338 75.8894 -1.33338 84.3476 3.92152 89.5949L18.2745 103.927C20.7843 106.511 24.1568 107.921 27.7647 107.921C31.2941 107.921 34.7451 106.59 37.2549 104.162L52.9411 119.825C53.647 120.608 54.6666 121 55.6862 121H56.9411L70.8235 116.301C72.0784 115.909 73.0196 114.813 73.3333 113.56C73.647 112.229 73.3333 110.897 72.3137 109.957L52.9411 90.6913L79.3725 79.3353C80.6274 79.7269 81.8823 79.9619 83.1372 79.9619C90.745 79.9619 96.9411 73.6965 96.8627 66.0997C96.8627 62.4971 95.3725 59.0512 92.8627 56.4667H93.1764ZM33.7254 36.0259L71.9215 74.4013L47.2156 84.9742L23.1372 60.6958L33.7254 36.0259ZM23.8431 98.6797L9.49015 84.0344C7.3725 81.8415 7.3725 78.3955 9.49015 76.2026L18.5098 67.1962L40.7843 89.4382L34.2745 95.9386L31.7647 98.523C29.4902 100.559 26.0392 100.481 23.8431 98.4447V98.6797ZM56.7058 112.933L42.5882 98.8363L46.3529 95.1554L62.0392 110.819L56.7058 112.933ZM87.6078 70.6421C85.3333 72.9133 81.5686 72.9133 79.2941 70.6421L37.2549 28.7424C34.9803 26.3929 34.9803 22.712 37.2549 20.3625C38.4313 19.2661 39.9215 18.6395 41.4901 18.6395C43.0588 18.6395 44.549 19.2661 45.647 20.3625L87.3725 62.0272C89.7254 64.2201 89.8823 67.9793 87.6862 70.3288C87.6862 70.3288 87.6862 70.3288 87.6862 70.4072V70.6421H87.6078Z" fill="white"/>
<path d="M83.2157 28.6641C84.3137 28.6641 85.2549 28.2725 86.0392 27.4894L96.1569 17.3865C97.6471 15.8984 97.6471 13.3923 96.1569 11.9042C94.6667 10.3379 92.1569 10.3379 90.5882 11.9042L80.4706 22.0072C78.9804 23.4169 78.9019 25.8447 80.3137 27.3327C80.3137 27.3327 80.3921 27.411 80.4706 27.4894C81.1765 28.1942 82.1961 28.6641 83.2157 28.6641Z" fill="white"/>
<path d="M69.5687 22.1638C71.6863 22.1638 73.4118 20.3625 73.4902 18.2479V3.91586C73.4902 1.72298 71.7647 0 69.5687 0C67.3726 0 65.6471 1.72298 65.6471 3.91586V18.2479C65.6471 20.4408 67.3726 22.1638 69.5687 22.1638Z" fill="white"/>
<path d="M85.8823 38.4537C85.8823 40.6466 87.6078 42.3696 89.8039 42.3696H104.078C106.274 42.3696 108 40.6466 108 38.4537C108 36.2608 106.274 34.5378 104.078 34.5378H89.8039C87.6078 34.5378 85.8823 36.2608 85.8823 38.4537Z" fill="white"/>
</g>
<defs>
<clipPath id="clip0_1064_2385">
<rect width="108" height="121" fill="white"/>
</clipPath>
</defs>
</svg>
