<svg width="82" height="71" viewBox="0 0 82 71" fill="none" xmlns="http://www.w3.org/2000/svg">
<g clip-path="url(#clip0_2951_2085)">
<path d="M75.9931 34.2485C73.6908 14.9336 56.2802 1.15506 37.1044 3.47419C36.1687 3.5871 35.2496 3.74767 34.3405 3.93166C37.8201 2.03069 41.7024 0.739404 45.8703 0.235099C63.5707 -1.90506 79.6421 10.813 81.7667 28.6426C83.0835 39.688 78.7346 50.1011 71.0281 56.9364C75.0432 50.3896 76.9736 42.483 75.9922 34.2485H75.9931Z" fill="#FFDE0D"/>
<path d="M32.1941 68.5914C50.0215 68.5914 64.473 54.0343 64.473 36.0766C64.473 22.7054 56.4577 11.2243 45.005 6.2298C59.3329 8.07223 71.1425 19.504 72.9425 34.6081C75.0671 52.4377 62.4414 68.6257 44.741 70.7667C38.8503 71.4792 33.1447 70.5383 28.0693 68.3187C29.421 68.4927 30.7951 68.5922 32.1941 68.5922V68.5914Z" fill="#5CB5AF"/>
<path d="M-0.000118256 36.5525C0.14933 64.0777 32.8085 78.0118 52.5414 58.89C64.9463 46.8887 64.9521 26.2122 52.5447 14.2109C32.8135 -4.9201 0.145176 9.029 -0.000118256 36.5517V36.5525Z" fill="white"/>
<g clip-path="url(#clip1_2951_2085)">
<path d="M30.5 15.5C37.4651 15.5 43.135 21.0953 43.1445 27.9863L43.1357 28.5547C43.0253 32.1626 41.8741 35.5071 40.3359 38.4102C40.5409 38.221 40.8156 38.1055 41.1172 38.1055H44.2588C44.7326 38.1055 45.16 38.3958 45.332 38.834L45.3623 38.9238L45.3633 38.9248L49.3438 52.3145C49.3543 52.3471 49.3641 52.3801 49.3711 52.4043L50.4512 56.0371L50.4834 56.1709C50.5385 56.4839 50.4544 56.8004 50.2656 57.0479C50.0468 57.3346 49.7076 57.4999 49.3486 57.5H11.6523C11.2933 57.5 10.9542 57.3346 10.7354 57.0479C10.5143 56.7581 10.4502 56.3875 10.5469 56.0469L10.5479 56.041H10.5498L15.6328 38.9209L15.6338 38.917C15.7806 38.4356 16.2307 38.1075 16.7324 38.1055H19.8701C20.1654 38.1055 20.4587 38.2134 20.6816 38.4326C20.6867 38.4376 20.6913 38.4432 20.6963 38.4482C19.0682 35.3848 17.8701 31.827 17.8701 27.9863C17.8702 21.0951 23.535 15.5002 30.5 15.5ZM32.3018 55.2217H47.8076L47.2656 53.3936L41.7627 49.7695L32.3018 55.2217ZM13.1934 55.2178H24.0244L14.8691 49.5645L13.1934 55.2178ZM20.9932 38.9932C21.0115 39.0741 21.0225 39.1573 21.0225 39.2422C21.0225 39.5515 20.8997 39.841 20.6816 40.0557C20.4623 40.2713 20.1659 40.3877 19.8652 40.3877H17.5889L15.5371 47.2949L28.0508 55.0273L39.6172 48.3613L36.4873 46.3008C35.9538 45.9506 35.8111 45.236 36.1719 44.7119C36.529 44.1886 37.2413 44.0584 37.7617 44.4033L46.248 49.9902L43.3984 40.3877H41.1172C40.8129 40.3877 40.5224 40.2688 40.3057 40.0557L40.2988 40.0498C40.0921 39.8387 39.9689 39.5527 39.9688 39.2471C39.9688 39.1799 39.9752 39.1137 39.9863 39.0498C39.1149 40.6021 38.1431 42.0194 37.1748 43.2695C35.69 45.1864 34.2058 46.7278 33.0928 47.79C32.5362 48.3212 32.0717 48.7334 31.7451 49.0137C31.5819 49.1538 31.4529 49.2613 31.3643 49.334C31.3199 49.3703 31.2852 49.3981 31.2617 49.417C31.25 49.4264 31.2406 49.4335 31.2344 49.4385C31.2314 49.4409 31.2292 49.443 31.2275 49.4443C31.2267 49.445 31.2261 49.4459 31.2256 49.4463H31.2246C31.2244 49.446 31.2237 49.4456 31.2227 49.4443C31.1775 49.4804 31.139 49.5034 31.1201 49.5127C31.1172 49.5141 31.114 49.5153 31.1113 49.5166C31.0923 49.5285 31.0695 49.5416 31.0449 49.5547L31.0459 49.5566C31.0416 49.559 31.0366 49.5601 31.0322 49.5625C31.0285 49.5644 31.0252 49.5675 31.0215 49.5693L31.0205 49.5674C30.9623 49.5974 30.9003 49.6251 30.8955 49.627L30.876 49.6348L30.8564 49.6406C30.8282 49.6499 30.7598 49.6716 30.6729 49.6797C30.6179 49.6899 30.5613 49.6973 30.5049 49.6973H30.4746L30.4443 49.6934C30.4443 49.6934 30.4421 49.6929 30.4355 49.6924C30.4313 49.692 30.4154 49.6916 30.4033 49.6904C30.3877 49.6889 30.3621 49.6826 30.3301 49.6768V49.6787C30.3088 49.6757 30.2305 49.6659 30.1533 49.6406L30.1445 49.6387L30.1357 49.6348C30.1113 49.6257 30.0844 49.6152 30.0557 49.6025L29.9482 49.5488L29.9346 49.5391C29.9351 49.5394 29.9334 49.5386 29.9189 49.5303C29.9128 49.5267 29.9028 49.52 29.8906 49.5127C29.865 49.4998 29.8466 49.4896 29.8398 49.4854C29.8287 49.4784 29.8192 49.4714 29.8125 49.4668C29.8093 49.4645 29.8061 49.4627 29.8037 49.4609C29.8025 49.4601 29.8018 49.4587 29.8008 49.458L29.7988 49.457H29.7979V49.4561L29.791 49.4512L29.7852 49.4473L30.0947 49.0537L29.7852 49.4463H29.7842C29.7837 49.4459 29.7831 49.445 29.7822 49.4443C29.7805 49.443 29.7784 49.4409 29.7754 49.4385C29.7691 49.4335 29.7597 49.4264 29.748 49.417C29.7245 49.3981 29.6898 49.3703 29.6455 49.334C29.5569 49.2613 29.4279 49.1538 29.2646 49.0137C28.9381 48.7333 28.4734 48.3213 27.917 47.79C26.8044 46.7278 25.3211 45.1865 23.8369 43.2695C22.8571 42.004 21.8724 40.568 20.9932 38.9932ZM30.5 17.7822C24.783 17.7824 20.17 22.349 20.1699 27.9863C20.1699 32.7253 22.3167 37.1243 24.748 40.5791C26.9407 43.6948 29.3369 46.0013 30.5 47.0439C31.6632 46.0014 34.061 43.6951 36.2549 40.5791C38.6873 37.1243 40.8359 32.7252 40.8359 27.9863C40.8358 22.3491 36.2174 17.7822 30.5 17.7822ZM30.8291 21.2568C34.2138 21.4229 36.9285 24.2044 36.9287 27.6006C36.9287 31.1064 34.0405 33.957 30.5 33.957C26.9597 33.9569 24.0762 31.1111 24.0762 27.6055C24.0762 24.1001 26.964 21.2492 30.5 21.249L30.8291 21.2568ZM30.5 23.5312C28.2132 23.5314 26.3809 25.3528 26.3809 27.6055C26.3809 29.8584 28.209 31.6795 30.5 31.6797C32.7924 31.6797 34.6289 29.8573 34.6289 27.6055C34.6289 25.354 32.7882 23.5312 30.5 23.5312Z" fill="#1C2142" stroke="#1C2142"/>
</g>
</g>
<defs>
<clipPath id="clip0_2951_2085">
<rect width="82" height="71" fill="white" transform="matrix(-1 0 0 1 82 0)"/>
</clipPath>
<clipPath id="clip1_2951_2085">
<rect width="39" height="41" fill="white" transform="translate(11 15)"/>
</clipPath>
</defs>
</svg>
