<svg width="82" height="71" viewBox="0 0 82 71" fill="none" xmlns="http://www.w3.org/2000/svg">
<g clip-path="url(#clip0_3405_2790)">
<path d="M75.9931 34.2485C73.6908 14.9336 56.2802 1.15506 37.1044 3.47419C36.1687 3.5871 35.2496 3.74767 34.3405 3.93166C37.8201 2.03069 41.7024 0.739404 45.8703 0.235099C63.5707 -1.90506 79.6421 10.813 81.7667 28.6426C83.0835 39.688 78.7346 50.1011 71.0281 56.9364C75.0432 50.3896 76.9736 42.483 75.9922 34.2485H75.9931Z" fill="#FFDE0D"/>
<path d="M32.1941 68.5914C50.0215 68.5914 64.473 54.0343 64.473 36.0766C64.473 22.7054 56.4577 11.2243 45.005 6.2298C59.3329 8.07223 71.1425 19.504 72.9425 34.6081C75.0671 52.4377 62.4414 68.6257 44.741 70.7667C38.8503 71.4792 33.1447 70.5383 28.0693 68.3187C29.421 68.4927 30.7951 68.5922 32.1941 68.5922V68.5914Z" fill="#5CB5AF"/>
<path d="M-0.000118256 36.5525C0.14933 64.0777 32.8085 78.0118 52.5414 58.89C64.9463 46.8887 64.9521 26.2122 52.5447 14.2109C32.8135 -4.9201 0.145176 9.029 -0.000118256 36.5517V36.5525Z" fill="white"/>
<g clip-path="url(#clip1_3405_2790)">
<path fill-rule="evenodd" clip-rule="evenodd" d="M30.5018 22.4101C32.2549 22.4101 33.674 23.8437 33.674 25.6147C33.674 27.3857 32.2549 28.8194 30.5018 28.8194C28.7487 28.8194 27.3296 27.3857 27.3296 25.6147C27.3296 23.8437 28.7487 22.4101 30.5018 22.4101ZM40.9114 36.2444C41.7353 36.0537 42.3196 35.3167 42.3196 34.4624V33.6337H43.5573C44.1308 33.6337 44.5954 33.1644 44.599 32.5814V30.9791C45.7133 30.9607 46.1742 29.6664 45.2959 29.0504L31.2168 19.2237C30.7849 18.9267 30.2151 18.9267 29.7795 19.2237L15.7114 29.0541C14.833 29.6701 15.294 30.9644 16.4083 30.9827V32.5851C16.4083 33.1644 16.8728 33.6337 17.4499 33.6374H18.6876V34.4661C18.6876 35.3204 19.2756 36.0574 20.0959 36.2481V44.1607C19.272 44.3514 18.6876 45.0884 18.6876 45.9427V46.7714H16.9055C16.5861 46.7714 16.3248 47.0354 16.3248 47.3581V48.8871H15.4936C15.2214 48.8834 15 49.1071 15 49.3821V51.4977C15 51.7727 15.2214 52.0001 15.4936 52.0001H45.5027C45.775 52.0001 45.9964 51.7764 45.9964 51.5014V49.3857C45.9964 49.1107 45.775 48.8834 45.5027 48.8834H44.6752V47.3544C44.6752 47.0317 44.4139 46.7677 44.0945 46.7677H42.3124V45.9427C42.3124 45.0884 41.7244 44.3514 40.9041 44.1607V36.2481L40.9114 36.2444ZM40.4177 45.1141H40.5121C40.9622 45.1141 41.3288 45.4844 41.3288 45.9427V46.7714H36.9624V45.9427C36.9624 45.4881 37.329 45.1177 37.7827 45.1141H40.4177ZM37.3834 44.1607C36.5595 44.3514 35.9752 45.0884 35.9715 45.9427V46.7714H33.674V45.9427C33.674 45.0884 33.0861 44.3514 32.2658 44.1607V36.2481C33.0897 36.0574 33.674 35.3204 33.674 34.4661V33.6374H35.9752V34.4661C35.9752 35.3204 36.5632 36.0574 37.3871 36.2481V44.1607H37.3834ZM38.3743 36.2921H39.9205V44.1167H38.3743V36.2921ZM41.826 47.7687H43.6916V48.8834H17.3084V47.7687H41.826ZM36.9624 33.6374H41.3288V34.4661C41.3288 34.9207 40.9622 35.2911 40.5121 35.2947H37.7827C37.3326 35.2947 36.966 34.9244 36.9624 34.4661V33.6374ZM31.7722 45.1141H31.8665C32.3166 45.1141 32.6832 45.4844 32.6868 45.9427V46.7714H28.3205V45.9427C28.3205 45.4881 28.687 45.1177 29.1407 45.1141H31.7758H31.7722ZM28.7379 44.1607C27.9139 44.3514 27.3296 45.0884 27.3296 45.9427V46.7714H25.0285V45.9427C25.0285 45.0884 24.4405 44.3514 23.6166 44.1607V36.2481C24.4405 36.0574 25.0248 35.3204 25.0285 34.4661V33.6374H27.326V34.4661C27.326 35.3204 27.9139 36.0574 28.7342 36.2481V44.1607H28.7379ZM29.7287 36.2921H31.2749V44.1167H29.7287V36.2921ZM28.3168 33.6374H32.6832V34.4661C32.6832 34.9207 32.3166 35.2911 31.8629 35.2911H29.1335C28.6834 35.2911 28.3168 34.9207 28.3132 34.4624V33.6337L28.3168 33.6374ZM23.1266 45.1141H23.2209C23.6746 45.1141 24.0376 45.4844 24.0412 45.9427V46.7714H19.6712V45.9427C19.6712 45.4881 20.0378 45.1177 20.4915 45.1141H23.1266ZM21.0831 36.2921H22.6293V44.1167H21.0831V36.2921ZM19.6712 33.6374H24.0412V34.4661C24.0412 34.9207 23.6746 35.2911 23.2209 35.2947H20.4915C20.0414 35.2947 19.6749 34.9244 19.6712 34.4661V33.6374ZM30.5018 20.0011C30.4474 20.0011 30.3929 20.0157 30.3457 20.0451L16.2377 29.9011C16.2558 29.9524 16.3466 29.9817 16.43 29.9817H44.5772C44.6571 29.9817 44.7478 29.9524 44.7696 29.9011L30.6579 20.0451C30.6107 20.0157 30.5563 20.0011 30.5018 20.0011ZM43.5573 30.9827C43.5863 30.9827 43.6081 31.0047 43.6081 31.0341V32.5851C43.6081 32.6144 43.5863 32.6364 43.5573 32.6364H17.4463C17.4173 32.6364 17.3955 32.6144 17.3955 32.5851V31.0341C17.3955 31.0047 17.4173 30.9827 17.4463 30.9827H43.5573ZM44.1671 49.8844H45.0091V50.9991H15.9909V49.8844H44.1671ZM32.0444 24.0564C31.1914 23.1947 29.8086 23.1947 28.9556 24.0564C28.1027 24.9181 28.1027 26.3151 28.9556 27.1767C29.8086 28.0384 31.1914 28.0384 32.0444 27.1767C32.8973 26.3151 32.8973 24.9181 32.0444 24.0564Z" fill="#1C2142"/>
</g>
</g>
<defs>
<clipPath id="clip0_3405_2790">
<rect width="82" height="71" fill="white" transform="matrix(-1 0 0 1 82 0)"/>
</clipPath>
<clipPath id="clip1_3405_2790">
<rect width="31" height="33" fill="white" transform="translate(15 19)"/>
</clipPath>
</defs>
</svg>
