<svg width="60" height="60" viewBox="0 0 60 60" fill="none" xmlns="http://www.w3.org/2000/svg">
<rect x="1.5" y="1.5" width="57" height="57" rx="28.5" stroke="white" stroke-width="3"/>
<g clip-path="url(#clip0_1038_1240)">
<path d="M34.8518 22.7461L33.5449 21.3518C33.037 20.8089 32.328 20.5002 31.5873 20.5002H27.4127C26.6719 20.5002 25.9629 20.8089 25.455 21.3518L24.1481 22.7461C23.6402 23.289 22.9312 23.5976 22.1904 23.5976H21.1904C19.7037 23.5976 18.4973 24.811 18.4973 26.3065V36.7961C18.4973 38.2916 19.7037 39.505 21.1904 39.505H37.8095C39.2963 39.505 40.5026 38.2916 40.5026 36.7961V26.3012C40.5026 24.8057 39.2963 23.5923 37.8095 23.5923H36.8095C36.0687 23.5923 35.3597 23.2836 34.8518 22.7408V22.7461Z" stroke="white" stroke-width="1.89" stroke-miterlimit="10"/>
<path d="M29.4973 36.1362C32.3026 36.1362 34.5767 33.8487 34.5767 31.0271C34.5767 28.2054 32.3026 25.918 29.4973 25.918C26.6921 25.918 24.418 28.2054 24.418 31.0271C24.418 33.8487 26.6921 36.1362 29.4973 36.1362Z" stroke="white" stroke-width="1.89" stroke-miterlimit="10"/>
</g>
<defs>
<clipPath id="clip0_1038_1240">
<rect width="23" height="20" fill="white" transform="translate(18 20)"/>
</clipPath>
</defs>
</svg>
