<svg width="36" height="37" viewBox="0 0 36 37" fill="none" xmlns="http://www.w3.org/2000/svg">
<path d="M24.5881 20.5716L34.7329 14.8L35.4683 2.85118H29.241V0.494385H6.76189V2.85118H0.53125L1.26663 14.8L11.4115 20.5716C12.2538 21.6231 13.1931 22.5724 14.2293 23.3833L16.1279 24.8699L16.1179 27.8464C12.4711 28.4562 9.44936 30.8196 7.91509 34.0136H5.59197V36.5055H30.4042V34.0136H28.0677C26.5335 30.8163 23.5118 28.4529 19.865 27.8464L19.8549 24.8699L21.7535 23.3833C22.7897 22.5724 23.729 21.6231 24.5714 20.5716H24.5881ZM29.241 6.62205V6.2265H31.8315L31.4271 12.7827L27.787 14.8527C28.7296 12.3047 29.241 9.50623 29.241 6.61875V6.62205ZM4.57582 12.7827L4.17136 6.2265H6.76189V6.62205C6.76189 9.50953 7.27331 12.308 8.21593 14.856L4.57582 12.786V12.7827ZM17.9998 13.8737L14.831 16.158L16.0544 12.4794L12.8722 10.2149L16.7998 10.2248L18.0031 6.53964L19.2065 10.2248L23.134 10.2149L19.9485 12.4794L21.1719 16.158L18.0031 13.8737H17.9998Z" stroke="white" stroke-width="3" stroke-miterlimit="10"/>
</svg>
