<svg width="61" height="41" viewBox="0 0 61 41" fill="none" xmlns="http://www.w3.org/2000/svg">
<g clip-path="url(#clip0_1064_1364)">
<path d="M40.17 0H20.09C9.04 0 0 9.04 0 20.08C0 31.12 9.04 40.16 20.08 40.16H40.16C51.21 40.16 60.24 31.12 60.24 20.08C60.24 9.04 51.21 0 40.17 0ZM40.17 37.66H20.09C10.45 37.66 2.52 29.73 2.52 20.09C2.52 10.45 10.44 2.51 20.08 2.51H40.16C49.8 2.51 57.73 10.44 57.73 20.08C57.73 29.72 49.8 37.65 40.16 37.65L40.17 37.66Z" fill="white"/>
<path d="M46.39 20.08C46.39 15.16 42.37 11.24 37.55 11.24H22.79C17.87 11.24 13.95 15.26 13.95 20.08C13.95 24.9 17.97 28.92 22.79 28.92H37.55C42.37 28.92 46.39 25 46.39 20.08ZM37.46 26.41H22.8C19.29 26.41 16.47 23.6 16.47 20.08C16.47 16.56 19.28 13.75 22.8 13.75H37.56C41.07 13.75 43.89 16.56 43.89 20.08C43.89 23.6 40.98 26.41 37.46 26.41Z" fill="white"/>
<path d="M26.41 30.13H23.9C23.2 30.13 22.59 30.73 22.59 31.44C22.59 32.15 23.19 32.75 23.9 32.75H26.41C27.11 32.75 27.71 32.15 27.71 31.44C27.71 30.73 27.01 30.13 26.41 30.13Z" fill="white"/>
<path d="M36.45 30.13H32.63C31.93 30.13 31.32 30.73 31.32 31.44C31.32 32.15 31.92 32.65 32.63 32.65H36.45C37.15 32.65 37.76 32.05 37.76 31.34C37.76 30.63 37.06 30.13 36.45 30.13Z" fill="white"/>
<path d="M44.79 29.52C43.69 29.92 42.58 30.12 41.48 30.12C40.78 30.12 40.17 30.72 40.17 31.43C40.17 32.14 40.77 32.74 41.48 32.74C42.89 32.74 44.29 32.54 45.7 32.04C46.4 31.84 46.7 31.14 46.5 30.43C46.1 29.63 45.4 29.33 44.79 29.53V29.52Z" fill="white"/>
<path d="M52.02 24.1C51.42 23.8 50.61 24 50.31 24.6C50.01 25.2 49.61 25.8 49.21 26.31C48.81 26.81 48.81 27.62 49.41 28.12C49.91 28.52 50.72 28.52 51.22 27.92C51.72 27.22 52.22 26.51 52.63 25.81C52.93 25.21 52.63 24.5 52.03 24.1H52.02Z" fill="white"/>
<path d="M53.62 17.27C53.42 16.57 52.82 16.17 52.11 16.37C51.41 16.57 51.01 17.17 51.21 17.88C51.41 18.58 51.41 19.39 51.41 20.09C51.41 20.79 52.01 21.4 52.72 21.4C53.43 21.4 54.02 20.8 54.02 20.09C54.02 19.19 53.82 18.18 53.62 17.28V17.27Z" fill="white"/>
<path d="M51.01 13.96C51.51 13.56 51.61 12.75 51.21 12.15C50.61 11.45 50.01 10.84 49.3 10.24C48.8 9.83996 48 9.83996 47.49 10.44C47.09 10.94 47.09 11.75 47.69 12.25C48.19 12.65 48.69 13.15 49.2 13.76C49.7 14.36 50.5 14.36 51.01 13.96Z" fill="white"/>
<path d="M45.59 8.23003C44.28 7.73003 42.88 7.53003 41.37 7.53003C40.67 7.53003 40.06 8.13003 40.06 8.84003C40.06 9.55003 40.66 10.15 41.37 10.15C42.47 10.15 43.68 10.35 44.68 10.75C45.28 10.95 46.09 10.65 46.29 9.95003C46.59 9.25003 46.29 8.44003 45.59 8.24003V8.23003Z" fill="white"/>
<path d="M32.64 10.04H35.15C35.85 10.04 36.45 9.44004 36.45 8.73004C36.45 8.02004 35.85 7.42004 35.15 7.42004H32.64C31.94 7.42004 31.33 8.02004 31.33 8.73004C31.43 9.43004 31.93 10.04 32.64 10.04Z" fill="white"/>
<path d="M21.39 10.04H25.21C25.91 10.04 26.51 9.44004 26.51 8.73004C26.51 8.02004 25.91 7.42004 25.21 7.42004H21.39C20.69 7.42004 20.08 8.02004 20.08 8.73004C20.08 9.44004 20.68 10.04 21.39 10.04Z" fill="white"/>
<path d="M16.27 9.04002C16.07 8.34002 15.37 8.04002 14.66 8.24002C13.66 8.54002 12.75 9.04002 11.85 9.65002C11.25 10.05 11.15 10.85 11.55 11.36C11.95 11.96 12.76 12.06 13.26 11.66C13.96 11.16 14.67 10.86 15.47 10.56C16.17 10.36 16.47 9.66002 16.27 9.05002V9.04002Z" fill="white"/>
<path d="M8.84001 20.08C8.84001 18.47 9.24001 16.87 9.94001 15.46C10.24 14.86 10.04 14.05 9.44001 13.75C8.84001 13.45 8.03001 13.65 7.73001 14.25C6.83001 16.06 6.32001 17.97 6.32001 19.97C6.32001 20.67 6.92001 21.28 7.63001 21.28C8.23001 21.38 8.84001 20.78 8.84001 20.07V20.08Z" fill="white"/>
<path d="M9.93998 24.7C9.63998 24.1 8.83998 23.8 8.22998 24.2C7.62998 24.5 7.32998 25.3 7.72998 25.91C8.22998 26.81 8.82998 27.72 9.53998 28.52C10.04 29.02 10.85 29.12 11.35 28.62C11.85 28.12 11.95 27.31 11.45 26.81C10.75 26.11 10.24 25.4 9.93998 24.7Z" fill="white"/>
<path d="M18.88 30.1299C17.78 30.1299 16.57 29.9299 15.57 29.5299C14.87 29.3299 14.16 29.6299 13.96 30.3299C13.76 31.0299 14.06 31.7399 14.76 31.9399C16.06 32.4399 17.47 32.6399 18.98 32.6399C19.68 32.6399 20.29 32.0399 20.29 31.3299C20.29 30.6199 19.49 30.1199 18.88 30.1199V30.1299Z" fill="white"/>
</g>
<defs>
<clipPath id="clip0_1064_1364">
<rect width="60.25" height="40.17" fill="white"/>
</clipPath>
</defs>
</svg>
