<svg width="51" height="44" viewBox="0 0 51 44" fill="none" xmlns="http://www.w3.org/2000/svg">
<g clip-path="url(#clip0_2579_2061)">
<path d="M37.7951 20.7784C37.1801 20.7784 36.5788 20.8503 36.0002 20.9805L34.301 15.072C34.4559 14.8789 34.5652 14.6454 34.6017 14.385C34.7156 13.6083 34.1643 12.8855 33.3762 12.7777L29.0667 12.1761L26.2832 8.44062C26.1511 7.8345 25.8277 7.2643 25.3038 6.83778C24.0692 5.84105 22.2516 6.02064 21.2402 7.23736L16.6938 12.7149C16.2701 13.2222 16.0697 13.8328 16.0515 14.4434C15.8601 15.2112 16.1426 16.0462 16.8305 16.5356L19.6048 18.5021L17.327 21.7976C16.1243 21.1197 14.7349 20.729 13.2498 20.729C8.69878 20.729 4.99512 24.3792 4.99512 28.8645C4.99512 33.3497 8.69878 36.9999 13.2498 36.9999C17.5092 36.9999 21.0216 33.8032 21.4543 29.722H23.4087C23.7321 30.3955 24.4246 30.8624 25.2263 30.8624C26.3425 30.8624 27.249 29.9689 27.249 28.869V26.651L33.6496 19.0813L34.3557 21.5327C31.5449 22.8168 29.586 25.6184 29.586 28.8645C29.586 33.3228 33.2669 36.9505 37.7906 36.9505C42.3142 36.9505 45.9951 33.3228 45.9951 28.8645C45.9951 24.4062 42.3142 20.7784 37.7906 20.7784H37.7951ZM13.2543 35.2938C9.66001 35.2938 6.73534 32.4114 6.73534 28.869C6.73534 25.3266 9.66001 22.4441 13.2543 22.4441C14.375 22.4441 15.4319 22.7225 16.3567 23.2164L12.7806 28.3886C12.5983 28.649 12.5801 28.9902 12.7305 29.2685C12.8808 29.5469 13.1769 29.722 13.4958 29.722H19.7096C19.2859 32.8603 16.5526 35.2938 13.2543 35.2938ZM15.1312 28.0114L17.7507 24.2221C18.7939 25.2053 19.5091 26.5298 19.7096 28.0114H15.1312ZM23.2128 28.0114H21.4589C21.2402 25.9461 20.2289 24.1143 18.7347 22.8033L21.017 19.5033L23.2173 21.0613V28.0069L23.2128 28.0114ZM27.2536 23.9841V20.0466C27.2536 19.4944 27.0076 18.978 26.6067 18.6054L32.087 18.2687L27.2536 23.9841ZM24.4382 17.025L22.0147 15.3054L25.076 11.6194L27.1078 14.3446C27.3356 14.6544 27.6818 14.8565 28.069 14.9103L32.6473 15.5524L32.9207 16.5087L24.4428 17.0295L24.4382 17.025ZM37.7951 35.2444C34.2281 35.2444 31.3217 32.3844 31.3217 28.8645C31.3217 26.3951 32.7521 24.258 34.8386 23.1984L36.4786 28.9094C36.5879 29.2865 36.9341 29.529 37.3122 29.529C37.3897 29.529 37.4717 29.52 37.5491 29.4975C38.0092 29.3673 38.278 28.8959 38.1459 28.4424L36.474 22.6192C36.9022 22.5339 37.3441 22.4845 37.7951 22.4845C41.3621 22.4845 44.2686 25.3445 44.2686 28.8645C44.2686 32.3844 41.3621 35.2444 37.7951 35.2444Z" fill="#2578A8"/>
<path d="M28.1517 6.93217C30.094 6.93217 31.6685 5.38035 31.6685 3.46608C31.6685 1.55182 30.094 0 28.1517 0C26.2093 0 24.6348 1.55182 24.6348 3.46608C24.6348 5.38035 26.2093 6.93217 28.1517 6.93217Z" fill="#2578A8"/>
</g>
<rect y="37" width="51" height="7" fill="#2578A8"/>
<defs>
<clipPath id="clip0_2579_2061">
<rect width="41" height="37" fill="white" transform="translate(5)"/>
</clipPath>
</defs>
</svg>
