<svg width="30" height="37" viewBox="0 0 30 37" fill="none" xmlns="http://www.w3.org/2000/svg">
<g clip-path="url(#clip0_3228_3604)">
<path d="M25.8819 16.8744L14.2915 4.4234C12.7883 2.87872 10.3917 2.87872 8.88848 4.4234C7.90808 5.47658 7.53771 7.02126 7.92987 8.44891L4.22617 17.8106L1.08891 21.1105C-0.370783 22.6786 -0.370783 25.2063 1.08891 26.7743L5.07584 31.0573C5.77301 31.8296 6.70983 32.2509 7.71201 32.2509C8.6924 32.2509 9.651 31.853 10.3482 31.1275L14.7055 35.8083C14.9015 36.0424 15.1848 36.1594 15.468 36.1594H15.8166L19.6728 34.7551C20.0214 34.6381 20.2828 34.3105 20.37 33.936C20.4571 33.5381 20.37 33.1403 20.0867 32.8594L14.7055 27.102L22.0475 23.7084C22.3961 23.8254 22.7447 23.8956 23.0933 23.8956C25.2066 23.8956 26.9277 22.0233 26.9059 19.7531C26.9059 18.6765 26.492 17.6467 25.7948 16.8744H25.8819ZM9.36778 10.7659L19.9778 22.2339L13.1151 25.3935L6.4266 18.1382L9.36778 10.7659ZM6.62268 29.4892L2.63575 25.1126C2.04752 24.4573 2.04752 23.4275 2.63575 22.7722L5.1412 20.0808L11.3286 26.7275L9.52028 28.6701L8.82312 29.4424C8.19131 30.0509 7.2327 30.0275 6.62268 29.419V29.4892ZM15.7512 33.7488L11.8297 29.536L12.8754 28.436L17.2327 33.1169L15.7512 33.7488ZM24.3351 21.1105C23.7033 21.7893 22.6575 21.7893 22.0257 21.1105L10.3482 8.58933C9.71636 7.88721 9.71636 6.78721 10.3482 6.08509C10.675 5.75743 11.0889 5.5702 11.5246 5.5702C11.9604 5.5702 12.3743 5.75743 12.6793 6.08509L24.2697 18.5361C24.9233 19.1914 24.9669 20.3148 24.3569 21.0169C24.3569 21.0169 24.3569 21.0169 24.3569 21.0403V21.1105H24.3351Z" fill="white"/>
<path d="M23.1154 8.56597C23.4204 8.56597 23.6819 8.44895 23.8997 8.2149L26.7102 5.19577C27.1241 4.75109 27.1241 4.00216 26.7102 3.55748C26.2962 3.0894 25.5991 3.0894 25.1633 3.55748L22.3529 6.57662C21.9389 6.99789 21.9172 7.72342 22.3093 8.1681C22.3093 8.1681 22.3311 8.1915 22.3529 8.2149C22.549 8.42554 22.8322 8.56597 23.1154 8.56597Z" fill="white"/>
<path d="M19.3247 6.62337C19.9129 6.62337 20.3922 6.08507 20.414 5.45316V1.17021C20.414 0.514891 19.9347 0 19.3247 0C18.7147 0 18.2354 0.514891 18.2354 1.17021V5.45316C18.2354 6.10848 18.7147 6.62337 19.3247 6.62337Z" fill="white"/>
<path d="M23.8564 11.4914C23.8564 12.1467 24.3357 12.6616 24.9458 12.6616H28.9109C29.5209 12.6616 30.0002 12.1467 30.0002 11.4914C30.0002 10.8361 29.5209 10.3212 28.9109 10.3212H24.9458C24.3357 10.3212 23.8564 10.8361 23.8564 11.4914Z" fill="white"/>
</g>
<defs>
<clipPath id="clip0_3228_3604">
<rect width="30" height="36.1594" fill="white"/>
</clipPath>
</defs>
</svg>
