<svg width="131" height="123" viewBox="0 0 131 123" fill="none" xmlns="http://www.w3.org/2000/svg">
<g clip-path="url(#clip0_1064_2433)">
<path d="M131 83.5201C131 73.092 124.244 64.2266 114.892 61.0376V52.7302C114.892 43.3545 112.263 34.3456 107.324 26.5007L108.407 25.1134C109.124 24.2046 109.108 22.929 108.407 22.036L106.814 20.011C96.7602 7.28688 81.7036 0 65.4999 0C51.4152 0 38.1909 5.48509 28.2488 15.4348C26.8468 16.838 25.4925 18.3687 24.2019 20.011L22.6086 22.036C21.8916 22.9449 21.8916 24.2046 22.6086 25.1134L23.692 26.5007C18.7529 34.3297 16.1239 43.3546 16.1239 52.7143V61.0217C6.75541 64.2107 0.0158081 73.0761 0.0158081 83.5042C0.0158081 96.611 10.6749 107.278 23.7717 107.278H28.6312C29.6828 107.278 30.575 106.609 30.9415 105.684C31.8975 106.098 32.949 106.337 34.0643 106.337C38.4299 106.337 41.983 102.782 41.983 98.4128V69.0898C41.983 64.7209 38.4299 61.1652 34.0643 61.1652C33.0287 61.1652 32.0409 61.3724 31.1327 61.7392V52.2838C31.1327 47.7235 32.0568 43.2429 33.7775 39.1132C34.1918 39.4161 34.6698 39.6234 35.1956 39.6234H35.2752C36.0719 39.5915 36.8048 39.1929 37.2509 38.5392L39.7683 34.808C40.8517 33.2135 42.1104 31.6828 43.5285 30.2637C49.3918 24.3959 57.1989 21.1591 65.5158 21.1591C75.8403 21.1591 85.4638 26.2615 91.2633 34.808L93.7807 38.5232C94.2268 39.177 94.9597 39.5756 95.7564 39.6075C96.2981 39.6712 96.8398 39.4799 97.27 39.1451C98.9748 43.2589 99.883 47.7235 99.883 52.2678V61.7232C98.9748 61.3565 97.987 61.1492 96.9514 61.1492C92.5857 61.1492 89.0327 64.705 89.0327 69.0739V98.3968C89.0327 102.766 92.5857 106.321 96.9514 106.321C98.0667 106.321 99.1182 106.098 100.074 105.668C100.441 106.608 101.333 107.262 102.384 107.262H107.244C110.207 107.262 113.028 106.688 115.641 105.7C114.94 112.588 109.108 117.977 102.034 117.977H78.6604V117.276C78.6604 111.886 74.2789 107.517 68.9095 107.517C63.5401 107.517 59.1586 111.902 59.1586 117.276C59.1586 120.417 61.7079 122.968 64.8466 122.968H102.034C112.311 122.968 120.675 114.597 120.675 104.312V103.069C126.905 98.7795 131 91.6202 131 83.4882V83.5201ZM73.1636 118.025H64.8466C64.4642 118.025 64.1456 117.706 64.1456 117.324C64.1456 114.693 66.2806 112.54 68.9254 112.54C71.5703 112.54 73.7053 114.677 73.7053 117.324V118.025H73.1795H73.1636ZM109.905 52.7302V59.9055C109.028 59.8098 108.136 59.746 107.228 59.746H104.838V52.2997C104.838 46.2087 103.42 40.2293 100.759 34.8718L104.041 30.6782C107.865 37.3592 109.889 44.9172 109.889 52.7302H109.905ZM21.0791 52.7302C21.0791 44.9012 23.1025 37.3592 26.9264 30.6782L30.2086 34.8718C27.5478 40.2293 26.1298 46.2087 26.1298 52.2997V59.746H23.7398C22.8317 59.746 21.9554 59.8098 21.0631 59.9055V52.7302H21.0791ZM26.1298 102.319H23.7558C13.3994 102.319 4.97093 93.8844 4.97093 83.5201C4.97093 73.1558 13.3994 64.7209 23.7558 64.7209H26.1298V102.319ZM34.0484 66.156C35.6736 66.156 36.98 67.4794 36.98 69.1058V98.4287C36.98 100.055 35.6576 101.363 34.0484 101.363C32.4392 101.363 31.1168 100.039 31.1168 98.4287V82.4837C31.1168 82.4837 31.1168 82.4518 31.1168 82.4358V69.0739C31.1486 67.4794 32.4392 66.1719 34.0484 66.1719V66.156ZM65.4999 16.2161C55.8605 16.2161 46.8106 19.9632 39.9914 26.7717C38.3503 28.4141 36.8845 30.184 35.6258 32.0336L35.0203 32.9265L27.7071 23.5827L28.0895 23.1044C29.2685 21.6215 30.4954 20.2342 31.7541 18.9746C40.7561 9.96565 52.7377 4.9908 65.4839 4.9908C80.1422 4.9908 93.7807 11.592 102.878 23.1044L103.261 23.5827L95.9476 32.9265L95.3421 32.0336C88.6025 22.1158 77.4336 16.2002 65.468 16.2002L65.4999 16.2161ZM96.9514 101.363C95.3262 101.363 94.0197 100.039 94.0197 98.4287V69.1058C94.0197 67.4794 95.3421 66.156 96.9514 66.156C98.5606 66.156 99.8511 67.4475 99.883 69.058V82.4199C99.883 82.4199 99.883 82.4518 99.883 82.4677V98.4128C99.883 100.039 98.5606 101.363 96.9354 101.363H96.9514ZM104.87 102.319V64.7209H107.244C117.6 64.7209 126.029 73.1558 126.029 83.5201C126.029 93.8844 117.6 102.319 107.244 102.319H104.87Z" fill="white"/>
</g>
<defs>
<clipPath id="clip0_1064_2433">
<rect width="131" height="123" fill="white"/>
</clipPath>
</defs>
</svg>
