<svg width="82" height="71" viewBox="0 0 82 71" fill="none" xmlns="http://www.w3.org/2000/svg">
<g clip-path="url(#clip0_3224_3047)">
<path d="M75.9931 34.2485C73.6908 14.9336 56.2802 1.15506 37.1044 3.47419C36.1687 3.5871 35.2496 3.74767 34.3405 3.93166C37.8201 2.03069 41.7024 0.739404 45.8703 0.235099C63.5707 -1.90506 79.6421 10.813 81.7667 28.6426C83.0835 39.688 78.7346 50.1011 71.0281 56.9364C75.0432 50.3896 76.9736 42.483 75.9922 34.2485H75.9931Z" fill="#FFDE0D"/>
<path d="M32.1941 68.5914C50.0215 68.5914 64.473 54.0343 64.473 36.0766C64.473 22.7054 56.4577 11.2243 45.005 6.2298C59.3329 8.07223 71.1425 19.504 72.9425 34.6081C75.0671 52.4377 62.4414 68.6257 44.741 70.7667C38.8503 71.4792 33.1447 70.5383 28.0693 68.3187C29.421 68.4927 30.7951 68.5922 32.1941 68.5922V68.5914Z" fill="#5CB5AF"/>
<path d="M-0.000118256 36.5525C0.14933 64.0777 32.8085 78.0118 52.5414 58.89C64.9463 46.8887 64.9521 26.2122 52.5447 14.2109C32.8135 -4.9201 0.145176 9.029 -0.000118256 36.5517V36.5525Z" fill="white"/>
<g clip-path="url(#clip1_3224_3047)">
<path d="M44.5463 38.5822C44.2843 38.5822 44.0699 38.3652 44.0699 38.1V34.5172C44.0699 27.2215 38.2055 21.2856 30.9977 21.2856C23.7899 21.2856 18.0828 27.0962 17.9303 34.2279C17.9303 34.3243 17.9303 34.4208 17.9303 34.5172V38.1C17.9303 38.3652 17.7159 38.5822 17.4539 38.5822C17.1919 38.5822 16.9775 38.3652 16.9775 38.1V34.5172C16.9775 34.4111 16.9775 34.3099 16.9775 34.2038C17.1395 26.5513 23.4279 20.3212 30.9977 20.3212C38.5676 20.3212 45.0227 26.6911 45.0227 34.5172V38.1C45.0227 38.3652 44.8083 38.5822 44.5463 38.5822Z" fill="#1C2142"/>
<path d="M39.7391 25.9775C35.8708 20.6347 26.1334 20.6347 22.2651 25.9775C21.5791 25.4808 20.855 25.0227 20.0928 24.5984C24.6804 17.7704 37.3238 17.7704 41.9162 24.5984C41.154 25.0227 40.4299 25.4808 39.7439 25.9775H39.7391Z" fill="white"/>
<path d="M39.7393 26.4597C39.5916 26.4597 39.4487 26.3921 39.3534 26.2619C37.6241 23.8751 34.5037 22.4526 30.9975 22.4526C27.4913 22.4526 24.3709 23.8751 22.6464 26.2619C22.4939 26.4741 22.1986 26.5223 21.9842 26.368C21.3173 25.8858 20.6027 25.4326 19.8595 25.0179C19.7404 24.9504 19.6594 24.8395 19.6261 24.7093C19.5927 24.5791 19.6213 24.4392 19.6975 24.3235C21.9413 20.9915 26.1669 19 31.0023 19C35.8376 19 40.0632 20.9915 42.307 24.3283C42.3832 24.4392 42.4071 24.5791 42.3785 24.7141C42.3451 24.8491 42.2594 24.96 42.1451 25.0227C41.4114 25.4277 40.6968 25.881 40.0203 26.368C39.9346 26.4307 39.8393 26.4597 39.744 26.4597H39.7393ZM20.7885 24.4489C21.2601 24.7285 21.7222 25.0179 22.1652 25.3265C24.1137 22.9203 27.3769 21.493 31.0023 21.493C34.6276 21.493 37.8909 22.9155 39.8393 25.3265C40.2871 25.0179 40.7445 24.7237 41.2161 24.4489C39.0819 21.6328 35.3088 19.9692 31.0023 19.9692C26.6957 19.9692 22.9227 21.6328 20.7885 24.4537V24.4489Z" fill="#1C2142"/>
<path d="M39.7393 26.4597C39.5916 26.4597 39.4487 26.3921 39.3534 26.2619C37.6241 23.8751 34.5037 22.4526 30.9975 22.4526C27.4913 22.4526 24.3709 23.8751 22.6464 26.2619C22.4939 26.4741 22.1986 26.5223 21.9842 26.368C21.3173 25.8858 20.6027 25.4326 19.8595 25.0179C19.7404 24.9504 19.6594 24.8395 19.6261 24.7093C19.5927 24.5791 19.6213 24.4392 19.6975 24.3235C21.9413 20.9915 26.1669 19 31.0023 19C35.8376 19 40.0632 20.9915 42.307 24.3283C42.3832 24.4392 42.4071 24.5791 42.3785 24.7141C42.3451 24.8491 42.2594 24.96 42.1451 25.0227C41.4114 25.4277 40.6968 25.881 40.0203 26.368C39.9346 26.4307 39.8393 26.4597 39.744 26.4597H39.7393ZM20.7885 24.4489C21.2601 24.7285 21.7222 25.0179 22.1652 25.3265C24.1137 22.9203 27.3769 21.493 31.0023 21.493C34.6276 21.493 37.8909 22.9155 39.8393 25.3265C40.2871 25.0179 40.7445 24.7237 41.2161 24.4489C39.0819 21.6328 35.3088 19.9692 31.0023 19.9692C26.6957 19.9692 22.9227 21.6328 20.7885 24.4537V24.4489Z" fill="#1C2142"/>
<path d="M34.4373 52.0067C34.1753 52.0067 33.9609 51.7897 33.9609 51.5245C33.9609 51.2593 34.1753 51.0423 34.4373 51.0423C38.9916 51.0423 42.2025 50.0393 43.7269 48.1394C45.0132 46.5385 44.6797 44.8412 44.6797 44.8219C44.6273 44.5615 44.7893 44.3059 45.0465 44.2529C45.3038 44.1998 45.5563 44.3638 45.6087 44.6242C45.6277 44.711 46.0327 46.7893 44.4654 48.747C42.7265 50.9121 39.3537 52.0067 34.4373 52.0067Z" fill="#1C2142"/>
<path d="M47.5238 41.6683C47.5238 38.8763 46.3805 36.6148 44.9704 36.5955H44.0509V36.9089C43.0124 37.6178 42.1787 39.4791 42.1787 41.6683C42.1787 43.8575 43.0076 45.7188 44.0509 46.4276V46.741H44.9704C46.3805 46.7266 47.5238 44.4602 47.5238 41.6683Z" fill="white"/>
<path d="M44.9702 47.2232H44.0508C43.7887 47.2232 43.5744 47.0062 43.5744 46.741V46.6687C42.4453 45.738 41.7021 43.7755 41.7021 41.6683C41.7021 39.561 42.4453 37.5985 43.5744 36.6678V36.5955C43.5744 36.3303 43.7887 36.1133 44.0508 36.1133H44.9702C44.9702 36.1133 45.0083 36.1133 45.0226 36.1133C46.6947 36.176 48 38.6015 48 41.6634C48 44.7254 46.6709 47.1991 44.9749 47.2184C44.9749 47.2184 44.975 47.2184 44.9702 47.2184V47.2232ZM44.4986 46.2588H44.9702C45.9563 46.2444 47.052 44.3589 47.052 41.6683C47.052 38.9776 45.9563 37.0922 44.9702 37.0777C44.9559 37.0777 44.9464 37.0777 44.9321 37.0777H44.5033C44.47 37.1693 44.408 37.2513 44.3223 37.3092C43.522 37.8541 42.6597 39.455 42.6597 41.6683C42.6597 43.8816 43.522 45.4825 44.3223 46.0274C44.4033 46.0852 44.4652 46.1672 44.5033 46.2588H44.4986Z" fill="#1C2142"/>
<path d="M45.0372 45.6706C45.0372 46.3312 44.6132 46.8664 44.0892 46.8664H43.1364C42.6123 46.8664 42.1836 46.3312 42.1836 45.6706V37.6612C42.1836 37.0006 42.6123 36.4605 43.1364 36.4605H44.0892C44.6132 36.4605 45.0372 36.9958 45.0372 37.6612V45.6706Z" fill="white"/>
<path d="M44.0841 47.3534H43.1313C42.3453 47.3534 41.7021 46.6012 41.7021 45.6754V37.666C41.7021 36.7402 42.3453 35.9831 43.1313 35.9831H44.0841C44.8701 35.9831 45.5085 36.7354 45.5085 37.666V45.6754C45.5085 46.6012 44.8701 47.3534 44.0841 47.3534ZM43.1361 36.9475C42.8836 36.9475 42.6597 37.2802 42.6597 37.666V45.6754C42.6597 46.0563 42.8836 46.389 43.1361 46.389H44.0889C44.3414 46.389 44.5605 46.0563 44.5605 45.6754V37.666C44.5605 37.2851 44.3414 36.9475 44.0889 36.9475H43.1361Z" fill="#1C2142"/>
<path d="M14.4766 41.6683C14.4766 38.8763 15.6151 36.6148 17.03 36.5955H17.9495V36.9089C18.988 37.6178 19.8169 39.4791 19.8169 41.6683C19.8169 43.8575 18.988 45.7188 17.9495 46.4276V46.741H17.03C15.6199 46.7266 14.4766 44.4602 14.4766 41.6683Z" fill="white"/>
<path d="M17.9493 47.2232H17.0298C15.3291 47.2039 14 44.764 14 41.6683C14 38.5725 15.3005 36.1808 16.9727 36.1181C16.9917 36.1181 17.0108 36.1181 17.0251 36.1181H17.9445C18.2065 36.1181 18.4209 36.3351 18.4209 36.6003V36.6727C19.55 37.6033 20.2884 39.5659 20.2884 41.6731C20.2884 43.7803 19.5452 45.7429 18.4209 46.6735V46.7458C18.4209 47.0111 18.2065 47.228 17.9445 47.228L17.9493 47.2232ZM17.0727 37.0777C17.0727 37.0777 17.0489 37.0777 17.0346 37.0777C16.0485 37.0874 14.9528 38.9728 14.9528 41.6683C14.9528 44.3638 16.0485 46.2492 17.0346 46.2588H17.5015C17.5348 46.1672 17.5967 46.0852 17.6825 46.0274C18.4828 45.4825 19.3403 43.8816 19.3403 41.6683C19.3403 39.455 18.4781 37.8541 17.6825 37.3092C17.6015 37.2513 17.5396 37.1693 17.5015 37.0777H17.068H17.0727Z" fill="#1C2142"/>
<path d="M16.9639 45.6706C16.9639 46.3312 17.3879 46.8664 17.9166 46.8664H18.8694C19.3935 46.8664 19.8222 46.3312 19.8222 45.6706V37.6612C19.8222 37.0006 19.3935 36.4605 18.8694 36.4605H17.9166C17.3926 36.4605 16.9639 36.9958 16.9639 37.6612V45.6706Z" fill="white"/>
<path d="M18.8644 47.3534H17.9116C17.1255 47.3534 16.4824 46.6012 16.4824 45.6754V37.666C16.4824 36.7402 17.1208 35.9831 17.9116 35.9831H18.8644C19.6504 35.9831 20.2935 36.7354 20.2935 37.666V45.6754C20.2935 46.6012 19.6552 47.3534 18.8644 47.3534ZM17.9164 36.9475C17.6639 36.9475 17.44 37.2802 17.44 37.666V45.6754C17.44 46.0563 17.6639 46.389 17.9164 46.389H18.8691C19.1216 46.389 19.3455 46.0563 19.3455 45.6754V37.666C19.3455 37.2851 19.1216 36.9475 18.8691 36.9475H17.9164Z" fill="#1C2142"/>
<path d="M35.8042 51.5389C35.8042 52.079 35.3326 52.5178 34.7466 52.5178H31.1308C30.5449 52.5178 30.0732 52.0838 30.0732 51.5389V51.51C30.0732 50.9699 30.5496 50.5311 31.1308 50.5311H34.7466C35.3326 50.5311 35.8042 50.9699 35.8042 51.51V51.5389Z" fill="white"/>
<path d="M34.7465 53H31.1307C30.2827 53 29.5967 52.3442 29.5967 51.5389C29.5967 50.7336 30.2874 50.0489 31.1307 50.0489H34.7465C35.5944 50.0489 36.2804 50.7047 36.2804 51.51C36.2804 52.3153 35.5897 53 34.7465 53ZM31.1307 51.0133C30.8115 51.0133 30.5495 51.2351 30.5495 51.51C30.5495 51.8138 30.8115 52.0356 31.1307 52.0356H34.7465C35.0656 52.0356 35.3277 51.8138 35.3277 51.5389C35.3277 51.2351 35.0656 51.0133 34.7465 51.0133H31.1307Z" fill="#1C2142"/>
<path d="M40.4686 35.7854C40.4686 41.08 36.2335 45.3716 30.998 45.3716C25.7625 45.3716 21.5273 41.08 21.5273 35.7854C21.5273 30.4909 25.7672 26.1993 30.998 26.1993C36.2288 26.1993 40.4686 30.4909 40.4686 35.7854Z" fill="white"/>
<path d="M30.9978 45.8538C25.5146 45.8538 21.0508 41.3356 21.0508 35.7854C21.0508 30.2353 25.5146 25.7171 30.9978 25.7171C36.4811 25.7171 40.9449 30.2353 40.9449 35.7854C40.9449 41.3356 36.4811 45.8538 30.9978 45.8538ZM30.9978 26.6815C26.0386 26.6815 22.0036 30.7657 22.0036 35.7854C22.0036 40.8051 26.0386 44.8894 30.9978 44.8894C35.957 44.8894 39.9921 40.8051 39.9921 35.7854C39.9921 30.7657 35.957 26.6815 30.9978 26.6815Z" fill="#1C2142"/>
<path d="M30.997 45.8634C28.4293 45.8634 27.043 40.6653 27.043 35.7806C27.043 30.8959 28.4293 25.6978 30.997 25.6978C33.5648 25.6978 34.9511 30.8911 34.9511 35.7806C34.9511 40.6701 33.5648 45.8634 30.997 45.8634ZM30.997 26.6622C29.5774 26.6622 27.9958 30.4089 27.9958 35.7806C27.9958 41.1523 29.5774 44.899 30.997 44.899C32.4167 44.899 33.9983 41.1523 33.9983 35.7806C33.9983 30.4089 32.4167 26.6622 30.997 26.6622Z" fill="#1C2142"/>
<path d="M31.4743 26.18H30.5215V45.3861H31.4743V26.18Z" fill="#1C2142"/>
<path d="M30.9975 41.2873C25.4094 41.2873 21.0361 38.8667 21.0361 35.7758C21.0361 32.6849 25.4142 30.2642 30.9975 30.2642C36.5808 30.2642 40.9588 32.6849 40.9588 35.7758C40.9588 38.8667 36.5808 41.2873 30.9975 41.2873ZM30.9975 31.2334C26.1145 31.2334 21.9889 33.3166 21.9889 35.7806C21.9889 38.2446 26.1145 40.3278 30.9975 40.3278C35.8805 40.3278 40.006 38.2446 40.006 35.7806C40.006 33.3166 35.8805 31.2334 30.9975 31.2334Z" fill="#1C2142"/>
<path d="M40.4873 35.2984H21.5127V36.2628H40.4873V35.2984Z" fill="#1C2142"/>
<path d="M30.9971 45.8634C26.7906 45.8634 23.3701 41.3404 23.3701 35.7806C23.3701 30.2208 26.7906 25.6978 30.9971 25.6978C35.2037 25.6978 38.6241 30.2208 38.6241 35.7806C38.6241 41.3404 35.2037 45.8634 30.9971 45.8634ZM30.9971 26.6622C27.3146 26.6622 24.3229 30.7513 24.3229 35.7806C24.3229 40.81 27.3194 44.899 30.9971 44.899C34.6749 44.899 37.6714 40.81 37.6714 35.7806C37.6714 30.7513 34.6749 26.6622 30.9971 26.6622Z" fill="#1C2142"/>
</g>
</g>
<defs>
<clipPath id="clip0_3224_3047">
<rect width="82" height="71" fill="white" transform="matrix(-1 0 0 1 82 0)"/>
</clipPath>
<clipPath id="clip1_3224_3047">
<rect width="34" height="34" fill="white" transform="translate(14 19)"/>
</clipPath>
</defs>
</svg>
