<svg width="82" height="71" viewBox="0 0 82 71" fill="none" xmlns="http://www.w3.org/2000/svg">
<g clip-path="url(#clip0_1119_987)">
<path d="M75.9931 34.2485C73.6908 14.9336 56.2802 1.15506 37.1044 3.47419C36.1687 3.5871 35.2496 3.74767 34.3405 3.93166C37.8201 2.03069 41.7024 0.739404 45.8703 0.235099C63.5707 -1.90506 79.6421 10.813 81.7667 28.6426C83.0835 39.688 78.7346 50.1011 71.0281 56.9364C75.0432 50.3896 76.9736 42.483 75.9922 34.2485H75.9931Z" fill="#FFDE0D"/>
<path d="M32.1941 68.5914C50.0215 68.5914 64.473 54.0343 64.473 36.0766C64.473 22.7054 56.4577 11.2243 45.005 6.2298C59.3329 8.07223 71.1425 19.504 72.9425 34.6081C75.0671 52.4377 62.4414 68.6257 44.741 70.7667C38.8503 71.4792 33.1447 70.5383 28.0693 68.3187C29.421 68.4927 30.7951 68.5922 32.1941 68.5922V68.5914Z" fill="#0F9B39"/>
<path d="M-0.000118256 36.5525C0.14933 64.0777 32.8085 78.0118 52.5414 58.89C64.9463 46.8887 64.9521 26.2122 52.5447 14.2109C32.8135 -4.92012 0.145176 9.02899 -0.000118256 36.5517V36.5525Z" fill="white"/>
<g clip-path="url(#clip1_1119_987)">
<path d="M34.1426 26.4288C34.6444 26.4288 35.0501 26.0185 35.0501 25.5166V23.6135C35.0501 23.1072 34.6444 22.6969 34.1426 22.6969H18.2468C17.745 22.6969 17.3348 23.1072 17.3348 23.6135V25.5166C17.3348 26.0185 17.745 26.4288 18.2468 26.4288H34.1426ZM18.4999 23.8667H33.8851V25.2634H18.4999V23.8623V23.8667ZM17.6665 28.0132C17.6665 27.6902 17.9283 27.4283 18.2511 27.4283H26.1969C26.5197 27.4283 26.7815 27.6902 26.7815 28.0132C26.7815 28.3362 26.5197 28.5981 26.1969 28.5981H18.2511C17.9283 28.5981 17.6665 28.3362 17.6665 28.0132ZM26.8819 32.5918H18.2511C17.9283 32.5918 17.6665 32.3299 17.6665 32.0069C17.6665 31.684 17.9283 31.4221 18.2511 31.4221H26.8819C27.2048 31.4221 27.4666 31.684 27.4666 32.0069C27.4666 32.3299 27.2048 32.5918 26.8819 32.5918ZM17.6665 30.0123C17.6665 29.6893 17.9283 29.4274 18.2511 29.4274H21.0088C21.3317 29.4274 21.5935 29.6893 21.5935 30.0123C21.5935 30.3352 21.3317 30.5971 21.0088 30.5971H18.2511C17.9283 30.5971 17.6665 30.3352 17.6665 30.0123ZM34.7229 30.0123C34.7229 30.3352 34.4611 30.5971 34.1382 30.5971H22.7062C22.3833 30.5971 22.1215 30.3352 22.1215 30.0123C22.1215 29.6893 22.3833 29.4274 22.7062 29.4274H34.1382C34.4611 29.4274 34.7229 29.6893 34.7229 30.0123ZM34.7229 32.0113C34.7229 32.3343 34.4611 32.5962 34.1382 32.5962H28.4789C28.156 32.5962 27.8942 32.3343 27.8942 32.0113C27.8942 31.6883 28.156 31.4264 28.4789 31.4264H34.1382C34.4611 31.4264 34.7229 31.6883 34.7229 32.0113ZM34.7229 39.1389C34.7229 39.4619 34.4611 39.7238 34.1382 39.7238H29.8272C29.5043 39.7238 29.2425 39.4619 29.2425 39.1389C29.2425 38.8159 29.5043 38.5541 29.8272 38.5541H34.1382C34.4611 38.5541 34.7229 38.8159 34.7229 39.1389ZM34.7229 35.0448C34.7229 35.3678 34.4611 35.6297 34.1382 35.6297H31.1886C30.8657 35.6297 30.6039 35.3678 30.6039 35.0448C30.6039 34.7218 30.8657 34.4599 31.1886 34.4599H34.1382C34.4611 34.4599 34.7229 34.7218 34.7229 35.0448ZM34.7229 37.0919C34.7229 37.4149 34.4611 37.6767 34.1382 37.6767H27.3488C27.0259 37.6767 26.7641 37.4149 26.7641 37.0919C26.7641 36.7689 27.0259 36.507 27.3488 36.507H34.1382C34.4611 36.507 34.7229 36.7689 34.7229 37.0919ZM28.6578 39.1389C28.6578 39.4619 28.396 39.7238 28.0731 39.7238H27.3488C27.0259 39.7238 26.7641 39.4619 26.7641 39.1389C26.7641 38.8159 27.0259 38.5541 27.3488 38.5541H28.0731C28.396 38.5541 28.6578 38.8159 28.6578 39.1389ZM27.3532 34.4599H29.9494C30.2723 34.4599 30.5341 34.7218 30.5341 35.0448C30.5341 35.3678 30.2723 35.6297 29.9494 35.6297H27.3532C27.0303 35.6297 26.7685 35.3678 26.7685 35.0448C26.7685 34.7218 27.0303 34.4599 27.3532 34.4599ZM25.394 34.2199H18.2555C17.9326 34.2199 17.6708 34.4818 17.6708 34.8047V37.0875C17.6708 37.4105 17.9326 37.6724 18.2555 37.6724H25.394C25.7169 37.6724 25.9787 37.4105 25.9787 37.0875V34.8047C25.9787 34.4818 25.7169 34.2199 25.394 34.2199ZM24.8093 36.5026H18.8358V35.3809H24.8093V36.5026ZM25.394 42.0109C25.7169 42.0109 25.9787 41.7491 25.9787 41.4261V39.1433C25.9787 38.8203 25.7169 38.5584 25.394 38.5584H18.2555C17.9326 38.5584 17.6708 38.8203 17.6708 39.1433V41.4261C17.6708 41.7491 17.9326 42.0109 18.2555 42.0109H25.394ZM18.8358 39.7238H24.8137V40.8412H18.8402V39.7238H18.8358ZM48.9911 41.0682C48.773 40.2476 48.2537 39.5667 47.525 39.1477C46.9796 38.829 46.3644 38.6937 45.7448 38.7417L44.8896 35.5118C44.8416 35.3285 44.7063 35.1801 44.5274 35.1146C44.3485 35.0492 44.1522 35.0754 43.9951 35.1845L38.3227 39.1346L37.1533 39.4532V23.1989C37.1533 20.8812 35.2901 19 32.995 19H13.0282C11.357 19 10 20.3705 10 22.0597V24.9142C10 25.2372 10.2618 25.4991 10.5847 25.4991H14.8957V46.0963C14.8957 47.7811 16.2527 49.156 17.9239 49.156H20.7034H33.1521C33.728 49.4092 34.3433 49.5401 34.9629 49.5401C35.0894 49.5401 35.2116 49.5358 35.3381 49.5227L38.2354 54.5945C38.4361 54.9437 38.7503 55.1968 39.1255 55.2972C39.2521 55.3321 39.383 55.3496 39.5095 55.3496C39.7888 55.3496 40.0724 55.271 40.3342 55.1183C41.0367 54.7123 41.2854 53.8176 40.9014 53.1018L39.0252 48.6017L40.7313 48.139L47.5949 48.689C47.7825 48.7065 47.9657 48.6279 48.0879 48.4795C48.2101 48.3355 48.2537 48.139 48.2057 47.9557L47.3505 44.7171C48.677 44.0755 49.4057 42.5522 49.0086 41.0682H49.0042H48.9911ZM35.8356 48.2525C35.6479 48.3005 35.4647 48.3355 35.277 48.3529L33.5142 41.6923C33.6844 41.6137 33.8633 41.5439 34.0553 41.4959L38.1656 40.3829L39.9546 47.1395L35.8356 48.2569V48.2525ZM11.165 22.0597C11.165 21.0165 11.9984 20.1654 13.0282 20.1654C14.0579 20.1654 14.8913 21.0165 14.8913 22.0597V24.3337H11.165V22.0597ZM16.0564 46.092V22.0597C16.0564 21.3439 15.812 20.6892 15.4019 20.1654H32.9994C34.6487 20.1654 35.9926 21.5272 35.9926 23.2032V39.7587L33.7499 40.3654C33.523 40.4265 33.3048 40.5051 33.0954 40.5968H27.3575C27.0346 40.5968 26.7728 40.8586 26.7728 41.1816C26.7728 41.5046 27.0346 41.7665 27.3575 41.7665H31.5202C31.1886 42.1462 30.9224 42.574 30.7304 43.0367H19.5732C19.2504 43.0367 18.9886 43.2985 18.9886 43.6215V43.7568C18.9886 44.0056 19.1456 44.2239 19.3769 44.3068C20.1274 44.573 20.6292 45.2932 20.6292 46.0963C20.6292 47.0959 19.8263 47.947 18.8402 47.9863C18.8315 47.9863 18.8271 47.9863 18.8184 47.9863H17.9195C16.8898 47.9863 16.0564 47.1352 16.0564 46.092ZM21.1397 44.202H30.4075C30.329 44.7869 30.3595 45.4023 30.521 46.009V46.0178L30.5515 46.1182C30.7391 46.8209 31.0795 47.4538 31.5464 47.9819H21.1441C21.5499 47.4625 21.7898 46.8034 21.7898 46.092C21.7898 45.3805 21.5499 44.7302 21.1353 44.202H21.1397ZM31.6773 45.817V45.8083L31.6467 45.7079C31.3282 44.4945 31.6947 43.2549 32.5019 42.4169L34.0422 48.2394C33.7804 48.1609 33.523 48.0561 33.2786 47.9121C32.4845 47.4538 31.9172 46.7074 31.6816 45.817H31.6773ZM39.828 53.5688C39.8368 53.5906 39.8499 53.6124 39.8586 53.6343C39.9502 53.7957 39.8979 54.0096 39.7364 54.1013C39.6273 54.1668 39.5095 54.1886 39.4135 54.1624C39.3393 54.1406 39.2826 54.0926 39.2346 54.0096L36.525 49.2651L37.8733 48.8985L39.8237 53.5644L39.828 53.5688ZM41.1196 46.9955L39.2434 39.9071L43.9776 36.6117L46.8531 47.4581L41.1196 46.9955ZM47.0233 43.5561L46.0546 39.894C46.3644 39.9071 46.6698 39.9944 46.9447 40.1516C47.4029 40.4178 47.7301 40.8456 47.8654 41.3606C48.0923 42.2204 47.7258 43.0978 47.0233 43.5517V43.5561ZM51.8404 40.8936L50.5096 41.2515C50.4572 41.2646 50.4092 41.2733 50.3569 41.2733C50.0994 41.2733 49.8682 41.1031 49.794 40.8456C49.7111 40.5357 49.8944 40.2127 50.2042 40.1297L51.535 39.7718C51.8448 39.6845 52.1677 39.8722 52.2506 40.1821C52.3335 40.492 52.1502 40.815 51.8404 40.8979V40.8936ZM47.7388 37.62L48.4283 36.411C48.5853 36.1316 48.9431 36.0356 49.2224 36.1927C49.5017 36.3499 49.5976 36.7078 49.4406 36.9871L48.7512 38.1962C48.6421 38.3838 48.4457 38.4886 48.245 38.4886C48.149 38.4886 48.0486 38.4668 47.957 38.41C47.6778 38.2529 47.5818 37.895 47.7388 37.6156V37.62ZM51.6004 45.1623C51.4914 45.35 51.295 45.4504 51.0986 45.4504C50.9983 45.4504 50.8979 45.4242 50.8063 45.3718L49.6107 44.6734C49.3315 44.5119 49.2399 44.154 49.4013 43.879C49.5627 43.5997 49.9205 43.508 50.1954 43.6695L51.391 44.3679C51.6702 44.5294 51.7619 44.8873 51.6004 45.1623Z" fill="#1C2142"/>
</g>
</g>
<defs>
<clipPath id="clip0_1119_987">
<rect width="82" height="71" fill="white" transform="matrix(-1 0 0 1 82 0)"/>
</clipPath>
<clipPath id="clip1_1119_987">
<rect width="42.268" height="36.3452" fill="white" transform="translate(10 19)"/>
</clipPath>
</defs>
</svg>
