<svg width="100" height="122" viewBox="0 0 100 122" fill="none" xmlns="http://www.w3.org/2000/svg">
<path d="M99.9735 81.0595C99.9735 80.9383 99.9337 80.7901 99.8939 80.6554C99.8541 80.5208 99.8276 80.3861 99.7745 80.2784C99.748 80.2514 99.748 80.211 99.748 80.1706L87.4536 57.5321L91.618 58.9058C94.7215 59.9159 98.0637 58.192 99.0584 55.0811C100.053 51.9432 98.3554 48.5764 95.2653 47.5529L56.167 34.7186V20.6588C59.2705 18.6791 61.3262 15.191 61.3262 11.2047C61.3262 5.03672 56.3527 0.0134277 50.2652 0.0134277C44.1776 0.0134277 39.2041 5.03672 39.2041 11.2047C39.2041 15.1776 41.2731 18.6791 44.3898 20.6588V30.8265L8.88576 19.1504C5.79557 18.2077 2.54622 19.9315 1.51174 22.9213C1.00776 24.3757 1.14038 25.9514 1.8433 27.3789C2.58601 28.9142 3.9388 30.0724 5.51705 30.5976L14.1643 33.4392L0.782294 58.0304C0.782294 58.0304 0.755769 58.0978 0.742506 58.1382C0.676193 58.2594 0.66293 58.394 0.623142 58.5153C0.596617 58.6365 0.556829 58.7711 0.556829 58.9193C0.556829 58.9597 0.530304 58.9866 0.530304 59.027C0.530304 68.2386 7.94411 75.7534 17.0688 75.7534C26.1935 75.7534 33.6206 68.2386 33.6206 59.027C33.6206 58.9866 33.594 58.9597 33.594 58.9193C33.594 58.7711 33.5542 58.6499 33.5145 58.5018C33.4747 58.3806 33.4481 58.2459 33.4084 58.1382C33.3818 58.0978 33.3818 58.0708 33.3686 58.0304L21.2863 35.769L44.35 43.3511V108.667H31.5251C29.3102 108.667 27.5065 110.499 27.5065 112.734V117.96C27.5065 120.209 29.3102 122.027 31.5251 122.027H68.992C71.2068 122.027 73.0106 120.195 73.0106 117.96V112.734C73.0106 110.485 71.2068 108.667 68.992 108.667H56.167V47.2297L80.6631 55.2696L67.1485 80.1841C67.1485 80.1841 67.122 80.2514 67.122 80.2918C67.0556 80.413 67.0424 80.5477 67.0026 80.6689C66.9628 80.7901 66.923 80.9248 66.923 81.0729C66.923 81.1133 66.8965 81.1403 66.8965 81.1807C66.8965 90.3923 74.3103 97.907 83.4482 97.907C92.5862 97.907 99.9867 90.3923 99.9867 81.1807C99.9867 81.1403 99.9602 81.1133 99.9602 81.0729L99.9735 81.0595ZM50.2652 4.06708C54.1378 4.06708 57.3076 7.27229 57.3076 11.1778C57.3076 15.0833 54.1378 18.3154 50.2652 18.3154C46.3925 18.3154 43.2227 15.1102 43.2227 11.2047C43.2227 7.29922 46.3925 4.06708 50.2652 4.06708ZM17.0821 36.4693L28.2094 56.98H5.94146L17.0953 36.4693H17.0821ZM17.0688 71.6728C10.8486 71.6728 5.6762 67.067 4.69477 61.0471H29.4163C28.4614 67.067 23.3022 71.6728 17.0688 71.6728ZM68.992 112.748V117.973H31.5251V112.748H68.992ZM53.793 43.9571C52.7585 44.7113 52.1352 45.9503 52.1352 47.2431V108.694H48.4084V43.378C48.4084 41.6138 47.2943 40.0516 45.6365 39.4995L17.7187 30.3283C17.7187 30.3283 17.6789 30.3283 17.6524 30.3013H17.6258C17.6258 30.3013 17.586 30.2744 17.5463 30.2744L6.75048 26.719C6.20671 26.5305 5.71599 26.113 5.45074 25.5608C5.33138 25.305 5.1457 24.7797 5.33137 24.241C5.59663 23.4599 6.29955 22.9347 7.10857 22.9347C7.32077 22.9347 7.51971 22.9751 7.69212 23.0155L43.1431 34.6512C44.3633 35.0553 45.7161 34.8398 46.7506 34.0856C47.785 33.3315 48.4084 32.0925 48.4084 30.7996V22.194C49.0052 22.3018 49.6285 22.3556 50.2784 22.3556C50.9283 22.3556 51.5384 22.2883 52.1484 22.194V34.6782C52.1484 36.4424 53.2625 38.0046 54.9203 38.5568L94.0186 51.3911C95.0133 51.7008 95.557 52.8051 95.2255 53.7882C94.8939 54.7713 93.8329 55.3235 92.8382 55.0138L57.3872 43.378C56.1803 42.974 54.8408 43.2164 53.8063 43.9706L53.793 43.9571ZM94.5889 79.1202H72.3076L83.435 58.6095L94.5889 79.1202ZM83.4615 93.813C77.2413 93.813 72.0689 89.2072 71.0875 83.1873H95.809C94.8408 89.2072 89.6817 93.813 83.4615 93.813Z" fill="white"/>
</svg>
