<svg width="19" height="19" viewBox="0 0 19 19" fill="none" xmlns="http://www.w3.org/2000/svg">
<path fill-rule="evenodd" clip-rule="evenodd" d="M7.0254 6.64643C7.68134 5.98718 8.57098 5.61681 9.49861 5.61681C10.4262 5.61681 11.3159 5.98718 11.9718 6.64643C12.6278 7.30569 12.9963 8.19983 12.9963 9.13215C12.9963 10.0645 12.6278 10.9586 11.9718 11.6179C11.3159 12.2771 10.4262 12.6475 9.49861 12.6475C8.57098 12.6475 7.68134 12.2771 7.0254 11.6179C6.36946 10.9586 6.00096 10.0645 6.00096 9.13215C6.00096 8.19983 6.36946 7.30569 7.0254 6.64643ZM8.62972 11.2405C8.90519 11.3551 9.20044 11.4142 9.49861 11.4142C10.1008 11.4142 10.6783 11.1737 11.1041 10.7458C11.5299 10.3178 11.7691 9.73738 11.7691 9.13215C11.7691 8.52693 11.5299 7.94649 11.1041 7.51853C10.6783 7.09057 10.1008 6.85015 9.49861 6.85015C9.20044 6.85015 8.90519 6.90917 8.62972 7.02385C8.35425 7.13853 8.10395 7.30663 7.89311 7.51853C7.68227 7.73043 7.51503 7.982 7.40092 8.25887C7.28682 8.53573 7.22809 8.83248 7.22809 9.13215C7.22809 9.43183 7.28682 9.72857 7.40092 10.0054C7.51503 10.2823 7.68227 10.5339 7.89311 10.7458C8.10395 10.9577 8.35425 11.1258 8.62972 11.2405Z" fill="#2578A8"/>
<path d="M13.7716 6.14056C13.9267 5.98472 14.0138 5.77337 14.0138 5.55298C14.0138 5.3326 13.9267 5.12124 13.7716 4.9654C13.6166 4.80957 13.4063 4.72202 13.187 4.72202C12.9677 4.72202 12.7574 4.80957 12.6024 4.9654C12.4473 5.12124 12.3602 5.3326 12.3602 5.55298C12.3602 5.77337 12.4473 5.98472 12.6024 6.14056C12.7574 6.29639 12.9677 6.38394 13.187 6.38394C13.4063 6.38394 13.6166 6.29639 13.7716 6.14056Z" fill="#2578A8"/>
<path fill-rule="evenodd" clip-rule="evenodd" d="M6.69323 2.334C7.41908 2.30072 7.65044 2.29297 9.49861 2.29297C11.3472 2.29297 11.5781 2.30118 12.3035 2.334C13.028 2.36729 13.5234 2.48355 13.9562 2.6518C14.4101 2.82362 14.8212 3.0928 15.1611 3.44058C15.5072 3.78223 15.7751 4.19566 15.9459 4.65203C16.1142 5.087 16.2294 5.58444 16.2625 6.31258C16.2957 7.0421 16.3034 7.27463 16.3034 9.13215C16.3034 10.9897 16.2957 11.2222 16.2625 11.9517C16.2294 12.6799 16.1142 13.1773 15.9464 13.6123C15.7754 14.0684 15.5076 14.4817 15.1615 14.8233C14.8213 15.1716 14.4098 15.4406 13.9562 15.612C13.5234 15.7812 13.0285 15.897 12.304 15.9303C11.5781 15.9636 11.3468 15.9713 9.49861 15.9713C7.65044 15.9713 7.41908 15.9636 6.69323 15.9303C5.96875 15.897 5.47382 15.7812 5.04104 15.6125C4.58716 15.4407 4.17599 15.1715 3.83614 14.8237C3.48955 14.4818 3.2219 14.0682 3.05132 13.6123C2.88302 13.1773 2.76779 12.6799 2.73468 11.9517C2.70156 11.2222 2.69385 10.9901 2.69385 9.13215C2.69385 7.27417 2.70201 7.0421 2.73468 6.31304C2.76779 5.5849 2.88347 5.087 3.05087 4.65203C3.22183 4.19586 3.48965 3.7826 3.83569 3.44104C4.17593 3.0927 4.58739 2.82369 5.04104 2.65225C5.47382 2.4831 5.96875 2.36729 6.69323 2.334ZM12.2486 3.56506C11.531 3.53223 11.3155 3.52539 9.49861 3.52539C7.68174 3.52539 7.46626 3.53223 6.74858 3.56506C6.08534 3.59561 5.72514 3.70686 5.48516 3.80078C5.18957 3.9102 4.92215 4.08485 4.70261 4.3119C4.4649 4.55127 4.31701 4.77924 4.19407 5.0984C4.10017 5.3396 3.98993 5.70162 3.95953 6.36821C3.92687 7.08952 3.92007 7.30609 3.92007 9.13215C3.92007 10.9582 3.92687 11.1748 3.95953 11.8961C3.98993 12.5627 4.10062 12.9247 4.19407 13.1659C4.30301 13.463 4.47678 13.7317 4.70261 13.9524C4.92218 14.1794 5.18959 14.3541 5.48516 14.4635C5.72514 14.5579 6.08534 14.6687 6.74858 14.6992C7.46626 14.7321 7.68129 14.7389 9.49861 14.7389C11.3159 14.7389 11.531 14.7321 12.2486 14.6992C12.9119 14.6687 13.2721 14.5574 13.5121 14.4635C13.8077 14.3541 14.0751 14.1795 14.2946 13.9524C14.5205 13.7317 14.6942 13.463 14.8032 13.1659C14.8971 12.9247 15.0073 12.5627 15.0377 11.8961C15.0704 11.1748 15.0772 10.9582 15.0772 9.13215C15.0772 7.30609 15.0704 7.08952 15.0377 6.36821C15.0073 5.70162 14.8966 5.3396 14.8032 5.0984C14.6802 4.77924 14.5328 4.55127 14.2946 4.3119C14.0564 4.07298 13.8296 3.92434 13.5121 3.80078C13.2721 3.7064 12.9119 3.59561 12.2486 3.56506Z" fill="#2578A8"/>
</svg>
