<svg width="19" height="20" viewBox="0 0 19 20" fill="none" xmlns="http://www.w3.org/2000/svg">
<path fill-rule="evenodd" clip-rule="evenodd" d="M15.8156 4.34321C16.4659 4.52856 16.9803 5.0743 17.155 5.76418C17.4753 7.0204 17.485 9.62551 17.485 9.62551C17.485 9.62551 17.485 12.2409 17.1647 13.4868C16.99 14.1767 16.4756 14.7225 15.8253 14.9078C14.6509 15.2476 9.92413 15.2476 9.92413 15.2476C9.92413 15.2476 5.19739 15.2476 4.02298 14.9078C3.37269 14.7225 2.85828 14.1767 2.68357 13.4868C2.36328 12.2306 2.36328 9.62551 2.36328 9.62551C2.36328 9.62551 2.36328 7.0204 2.67387 5.77448C2.84857 5.08459 3.36298 4.53886 4.01327 4.35351C5.18768 4.01371 9.91442 4.00342 9.91442 4.00342C9.91442 4.00342 14.6412 4.00342 15.8156 4.34321ZM12.3312 9.62551L8.41002 12.035V7.21604L12.3312 9.62551Z" fill="#2578A8"/>
</svg>
