<svg width="40" height="44" viewBox="0 0 40 44" fill="none" xmlns="http://www.w3.org/2000/svg">
<g clip-path="url(#clip0_3016_3797)">
<path d="M28.6957 33.44C28.2087 33.44 27.8261 33.8272 27.8261 34.32V36.96H1.73913V5.28H27.8261V6.16C27.8261 6.6528 28.2087 7.04 28.6957 7.04C29.1826 7.04 29.5652 6.6528 29.5652 6.16V0.88C29.5652 0.3872 29.1826 0 28.6957 0H0.869565C0.382609 0 0 0.3872 0 0.88V43.12C0 43.6128 0.382609 44 0.869565 44H28.6957C29.1826 44 29.5652 43.6128 29.5652 43.12V34.32C29.5652 33.8272 29.1826 33.44 28.6957 33.44ZM27.8261 1.76V3.52H1.73913V1.76H27.8261ZM1.73913 42.24V38.72H27.8261V42.24H1.73913Z" fill="#5CB5AF"/>
<path d="M39.2696 17.6176L37.8262 17.3712C37.6522 16.808 37.4262 16.2624 37.1653 15.752L38.0175 14.5376C38.2609 14.1856 38.2262 13.7104 37.9305 13.4112L35.4783 10.912C35.1827 10.6128 34.6957 10.56 34.3653 10.824L33.1653 11.6864C32.6435 11.4048 32.1218 11.1936 31.5653 11.0176L31.3218 9.55683C31.2522 9.13443 30.887 8.81763 30.4696 8.81763H26.9914C26.574 8.81763 26.2088 9.13443 26.1392 9.55683L25.8957 11.0176C25.3392 11.1936 24.8001 11.4224 24.2957 11.6864L23.0957 10.824C22.7479 10.5776 22.2783 10.6128 21.9827 10.912L19.5305 13.4112C19.2348 13.7104 19.1827 14.2032 19.4435 14.5376L20.2957 15.752C20.0175 16.28 19.8088 16.8256 19.6349 17.3712L18.1914 17.6176C17.774 17.688 17.4609 18.0576 17.4609 18.48V22C17.4609 22.4224 17.774 22.792 18.1914 22.8624L19.6349 23.1088C19.8088 23.672 20.0349 24.2176 20.2957 24.728L19.4435 25.9424C19.2001 26.2944 19.2348 26.7696 19.5305 27.0688L21.9827 29.568C22.2783 29.8672 22.7479 29.92 23.0957 29.656L24.2957 28.7936C24.8175 29.0752 25.3392 29.2864 25.8957 29.4624L26.1392 30.9232C26.2088 31.3456 26.574 31.6624 26.9914 31.6624H30.4696C30.887 31.6624 31.2522 31.3456 31.3218 30.9232L31.5653 29.4624C32.1218 29.2864 32.6609 29.0576 33.1653 28.7936L34.3653 29.656C34.7131 29.9024 35.1827 29.8672 35.4783 29.568L37.9305 27.0688C38.2262 26.7696 38.2783 26.2768 38.0175 25.9424L37.1653 24.728C37.4435 24.2 37.6522 23.6544 37.8262 23.1088L39.2696 22.8624C39.687 22.792 40.0001 22.4224 40.0001 22V18.48C40.0001 18.0576 39.687 17.688 39.2696 17.6176ZM38.2609 21.2608L36.9914 21.472C36.6435 21.5248 36.3653 21.7888 36.2957 22.1232C36.1044 22.8976 35.8088 23.6544 35.3914 24.3408C35.2175 24.64 35.2175 25.0272 35.4262 25.3088L36.174 26.3648L34.7653 27.808L33.7218 27.0512C33.4435 26.84 33.0609 26.84 32.7653 27.016C32.087 27.4384 31.3566 27.7376 30.574 27.9312C30.2435 28.0192 29.9827 28.3008 29.9305 28.6352L29.7218 29.92H27.7218L27.5131 28.6352C27.4609 28.2832 27.2001 28.0016 26.8696 27.9312C26.1044 27.7376 25.3566 27.4208 24.6783 27.016C24.3827 26.84 24.0001 26.84 23.7218 27.0512L22.6783 27.808L21.2696 26.3648L22.0175 25.3088C22.2262 25.0272 22.2262 24.64 22.0522 24.3408C21.6349 23.6544 21.3392 22.9152 21.1479 22.1232C21.0609 21.7888 20.7827 21.5248 20.4522 21.472L19.1827 21.2608V19.2368L20.4522 19.0256C20.8001 18.9728 21.0783 18.7088 21.1479 18.3744C21.3392 17.6 21.6349 16.8432 22.0522 16.1568C22.2262 15.8576 22.2262 15.4704 22.0175 15.1888L21.2696 14.1328L22.6783 12.6896L23.7218 13.4464C24.0001 13.6576 24.3827 13.6576 24.6783 13.4816C25.3566 13.0592 26.087 12.76 26.8696 12.5664C27.2001 12.4784 27.4609 12.1968 27.5131 11.8624L27.7218 10.5776H29.7218L29.9305 11.8624C29.9827 12.2144 30.2435 12.496 30.574 12.5664C31.3392 12.76 32.087 13.0768 32.7653 13.4816C33.0609 13.6576 33.4435 13.64 33.7218 13.4464L34.7653 12.6896L36.174 14.1328L35.4262 15.1888C35.2175 15.4704 35.2175 15.8576 35.3914 16.1568C35.8088 16.8432 36.1044 17.5824 36.2957 18.3744C36.3827 18.7088 36.6609 18.9728 36.9914 19.0256L38.2609 19.2368V21.2608Z" fill="#5CB5AF"/>
<path d="M28.6958 15.136C25.9132 15.136 23.6523 17.424 23.6523 20.24C23.6523 23.056 25.9132 25.344 28.6958 25.344C31.4784 25.344 33.7393 23.056 33.7393 20.24C33.7393 17.424 31.4784 15.136 28.6958 15.136ZM28.6958 23.584C26.8697 23.584 25.3915 22.088 25.3915 20.24C25.3915 18.392 26.8697 16.896 28.6958 16.896C30.5219 16.896 32.0002 18.392 32.0002 20.24C32.0002 22.088 30.5219 23.584 28.6958 23.584Z" fill="#5CB5AF"/>
</g>
<defs>
<clipPath id="clip0_3016_3797">
<rect width="40" height="44" fill="white"/>
</clipPath>
</defs>
</svg>
