<svg width="36" height="36" viewBox="0 0 36 36" fill="none" xmlns="http://www.w3.org/2000/svg">
<g clip-path="url(#clip0_3016_3775)">
<path d="M25.6093 35.9999H10.4522C10.0346 35.9999 9.67969 35.6559 9.67969 35.2363V29.8979C9.67969 29.5539 9.88846 29.2718 10.2434 29.1342L14.9478 27.6758C15.1566 27.607 15.4419 27.607 15.5811 27.7446L18.0377 29.3406L20.8423 27.7446C21.051 27.607 21.2668 27.607 21.4756 27.6758L25.8251 29.1342C26.173 29.2718 26.3888 29.5539 26.3888 29.8979V35.2363C26.3888 35.649 26.0408 35.9999 25.6163 35.9999H25.6093ZM11.2246 34.4039H24.8368V30.3794L21.399 29.2718L18.4553 30.9366C18.1769 31.0742 17.8916 31.0742 17.6132 30.9366L15.0174 29.2718L11.2316 30.4482V34.4039H11.2246Z" fill="#5CB5AF"/>
<path d="M13.751 36C13.5422 36 13.3334 35.9312 13.1873 35.7936C13.0481 35.656 12.9785 35.4496 12.9785 35.2364V32.3264C12.9785 31.9136 13.3265 31.5627 13.751 31.5627C14.1755 31.5627 14.5235 31.9067 14.5235 32.3264V34.4796H21.8237V32.3264C21.8237 31.9136 22.1716 31.5627 22.5961 31.5627C23.0137 31.5627 23.3686 31.9067 23.3686 32.3264V35.2364C23.3686 35.4427 23.299 35.656 23.1598 35.7936C23.0207 35.9312 22.8119 36 22.5961 36H13.7579H13.751Z" fill="#5CB5AF"/>
<path d="M18.1703 27.1874C15.7137 27.1874 13.6816 25.1786 13.6816 22.7502C13.6816 20.3218 15.7137 18.313 18.1703 18.313C20.6269 18.313 22.659 20.3218 22.659 22.7502C22.659 25.1786 20.6965 27.1874 18.1703 27.1874ZM18.1703 19.8333C16.5558 19.8333 15.2266 21.1542 15.2266 22.7433C15.2266 24.3325 16.5628 25.6533 18.1703 25.6533C19.7779 25.6533 21.1141 24.3325 21.1141 22.7433C21.1141 21.1542 19.7779 19.8333 18.1703 19.8333Z" fill="#5CB5AF"/>
<path d="M13.7505 29.4095C13.6113 29.4095 13.5418 29.4095 13.4026 29.3407C9.68635 27.6071 7.16016 23.6515 7.16016 19.4206C7.16016 18.5194 7.29934 17.6182 7.50812 16.717C7.6473 16.2974 8.07181 16.0222 8.48937 16.1598C8.91388 16.2974 9.19225 16.717 9.05306 17.1298C8.84429 17.8934 8.77469 18.657 8.77469 19.4206C8.77469 23.0942 10.9529 26.4927 14.1055 27.9511C14.523 28.1575 14.6691 28.5771 14.523 28.9899C14.3142 29.1963 14.0289 29.4027 13.7505 29.4027V29.4095Z" fill="#5CB5AF"/>
<path d="M22.6655 29.4095C22.3871 29.4095 22.1018 29.2031 21.9626 28.921C21.7539 28.5083 21.9626 28.0886 22.3871 27.8823C25.3309 26.5614 27.0846 23.3762 27.0846 19.3518C27.0846 18.5882 27.015 17.8245 26.8062 17.0609C26.6671 16.6413 26.9454 16.2285 27.3699 16.0909C27.7945 15.9533 28.212 16.2285 28.3512 16.6482C28.56 17.5494 28.6991 18.4506 28.6991 19.3518C28.6991 24.0711 26.5975 27.7447 23.0135 29.3407C22.8743 29.3407 22.7351 29.4095 22.6655 29.4095Z" fill="#5CB5AF"/>
<path d="M22.6667 11.5163C22.5275 11.5163 22.3883 11.5163 22.3187 11.4475C20.9825 10.7526 19.4446 10.3399 17.9692 10.3399C16.633 10.3399 15.3734 10.6151 14.1834 11.1723C13.7589 11.3787 13.3413 11.1723 13.1326 10.7595C12.9238 10.3399 13.1326 9.92711 13.5571 9.72073C14.9628 9.0947 16.5008 8.75073 18.0458 8.75073C19.8691 8.75073 21.6228 9.17038 23.1677 10.0716C23.5157 10.278 23.6618 10.7664 23.5157 11.1104C23.2373 11.3855 22.952 11.5231 22.6736 11.5231L22.6667 11.5163Z" fill="#5CB5AF"/>
<path d="M15.9992 17.6183H0.772472C0.35492 17.6183 0 17.2743 0 16.8547V11.5163C0 11.1723 0.208776 10.8902 0.563696 10.7526L5.26116 9.29421C5.46994 9.22542 5.75527 9.22542 5.89445 9.36301L8.35105 10.959L11.1556 9.36301C11.3644 9.22542 11.5732 9.22542 11.7889 9.29421L16.1384 10.7526C16.4864 10.8902 16.7021 11.1654 16.7021 11.5163V16.8547C16.7717 17.2743 16.4237 17.6183 15.9992 17.6183ZM1.61454 16.0911H15.2268V12.0666L11.7889 10.959L8.84516 12.6239C8.56679 12.7614 8.28146 12.7614 8.00309 12.6239L5.40731 10.959L1.6215 12.0666V16.0911H1.61454Z" fill="#5CB5AF"/>
<path d="M4.0713 17.6181C3.86252 17.6181 3.65375 17.5493 3.5076 17.4118C3.36842 17.2742 3.29883 17.0678 3.29883 16.8545V13.9445C3.29883 13.5318 3.64679 13.1809 4.0713 13.1809C4.49581 13.1809 4.84377 13.5249 4.84377 13.9445V16.0978H12.144V13.9445C12.144 13.5318 12.4919 13.1809 12.9165 13.1809C13.341 13.1809 13.6889 13.5249 13.6889 13.9445V16.8545C13.6889 17.0609 13.6193 17.2742 13.4802 17.4118C13.341 17.5493 13.2018 17.6181 12.9861 17.6181H4.0713Z" fill="#5CB5AF"/>
<path d="M8.559 8.88133C6.1024 8.88133 4.07031 6.87254 4.07031 4.4441C4.07031 2.01567 6.1024 0 8.559 0C11.0156 0 13.0477 2.00879 13.0477 4.43722C13.0477 6.86566 11.0156 8.87445 8.559 8.87445V8.88133ZM8.559 1.52723C6.94447 1.52723 5.61526 2.84808 5.61526 4.43722C5.61526 6.02637 6.95143 7.34722 8.559 7.34722C10.1666 7.34722 11.5028 6.02637 11.5028 4.43722C11.5028 2.84808 10.1666 1.52723 8.559 1.52723Z" fill="#5CB5AF"/>
<path d="M35.2902 17.6183H20.0635C19.6459 17.6183 19.291 17.2743 19.291 16.8547V11.5163C19.291 11.1723 19.4998 10.8902 19.8547 10.7526L24.5522 9.29421C24.761 9.22542 25.0463 9.22542 25.1855 9.36301L27.6421 10.959L30.4466 9.36301C30.6554 9.22542 30.8711 9.22542 31.0799 9.29421L35.4294 10.7526C35.7774 10.8902 35.9931 11.1654 35.9931 11.5163V16.8547C36.0627 17.2743 35.7148 17.6183 35.2902 17.6183ZM20.9056 16.0911H34.5178V12.0666L31.0103 10.8902L28.0666 12.5551C27.7882 12.6926 27.5029 12.6926 27.2245 12.5551L24.6983 10.8902L20.9125 12.0666V16.0911H20.9056Z" fill="#5CB5AF"/>
<path d="M23.3623 17.6181C23.1535 17.6181 22.9448 17.5493 22.7986 17.4118C22.6594 17.2742 22.5898 17.0678 22.5898 16.8545V13.9445C22.5898 13.5318 22.9378 13.1809 23.3623 13.1809C23.7868 13.1809 24.1348 13.5249 24.1348 13.9445V16.0978H31.435V13.9445C31.435 13.5318 31.783 13.1809 32.2075 13.1809C32.632 13.1809 32.9799 13.5249 32.9799 13.9445V16.8545C32.9799 17.0609 32.9104 17.2742 32.7712 17.4118C32.632 17.5493 32.4232 17.6181 32.2075 17.6181H23.3693H23.3623Z" fill="#5CB5AF"/>
<path d="M27.8578 8.88129C25.4012 8.88129 23.3691 6.8725 23.3691 4.44406C23.3691 2.01563 25.4012 0.00683594 27.8578 0.00683594C30.3144 0.00683594 32.3465 2.01563 32.3465 4.44406C32.3465 6.8725 30.3144 8.88129 27.8578 8.88129ZM27.8578 1.52719C26.2433 1.52719 24.9141 2.84804 24.9141 4.43718C24.9141 6.02633 26.2503 7.34718 27.8578 7.34718C29.4654 7.34718 30.8016 6.02633 30.8016 4.43718C30.8016 2.84804 29.4654 1.52719 27.8578 1.52719Z" fill="#5CB5AF"/>
</g>
<defs>
<clipPath id="clip0_3016_3775">
<rect width="36" height="36" fill="white"/>
</clipPath>
</defs>
</svg>
