<svg width="34" height="37" viewBox="0 0 34 37" fill="none" xmlns="http://www.w3.org/2000/svg">
<g clip-path="url(#clip0_3016_3790)">
<path d="M30.8708 18.241H25.5229V3.42867C25.5229 1.54167 24.0011 0 22.1309 0H3.39817C1.52184 0 0 1.5355 0 3.42867V31.0122C0 32.8992 1.52184 34.4408 3.39817 34.4408H17.767C18.0421 35.9023 19.3133 37.0062 20.8352 37.0062H30.8708C32.5943 37.0062 34 35.5878 34 33.8488V21.4045C34 19.6655 32.5943 18.2472 30.8708 18.2472V18.241ZM5.11558 19.7518H18.1765C17.8832 20.2328 17.7059 20.794 17.7059 21.3983V23.7602H5.11558C4.77944 23.7602 4.5044 24.0377 4.5044 24.3768C4.5044 24.716 4.77944 24.9935 5.11558 24.9935H17.7059V29.0018H5.11558C4.77944 29.0018 4.5044 29.2793 4.5044 29.6185C4.5044 29.9577 4.77944 30.2352 5.11558 30.2352H17.7059V33.2013H3.39817C2.20025 33.2013 1.22236 32.2208 1.22236 31.006V3.42867C1.22236 2.22 2.19414 1.23333 3.39817 1.23333H22.1309C23.3288 1.23333 24.3006 2.21383 24.3006 3.42867V18.241H20.8352C20.3829 18.241 19.9551 18.3397 19.57 18.5185H5.11558C4.77944 18.5185 4.5044 18.796 4.5044 19.1352C4.5044 19.4743 4.77944 19.7518 5.11558 19.7518ZM18.9283 26.677V23.6307H22.9498V26.677H18.9222H18.9283ZM22.956 27.9103V31.3452H18.9283V27.9103H22.956ZM20.8352 35.7667C19.7839 35.7667 18.9283 34.9033 18.9283 33.8427V33.8242C18.9283 33.8242 18.9283 33.8242 18.9283 33.818C18.9283 33.8118 18.9283 33.818 18.9283 33.8118V32.5785H22.9682V35.7728H20.8352V35.7667ZM24.1722 23.6183H27.5765L27.5826 26.677H24.1783V23.6183H24.1722ZM24.1783 27.9103H27.5826V31.3452H24.1905V27.9103H24.1783ZM24.1967 35.7667V32.5723H27.5948V35.7667H24.1967ZM32.7776 33.8427C32.7776 34.9033 31.922 35.7667 30.8708 35.7667H28.8172L28.7988 27.9103H32.7776V33.8427ZM32.7776 26.677H28.7988V23.6122L32.7776 23.606V26.677ZM32.7776 22.3665H28.1877C28.1877 22.3665 28.1877 22.3727 28.1816 22.3727C28.1816 22.3727 28.1816 22.3727 28.1754 22.3727H23.561V22.3788H18.9344V21.3922C18.9344 20.6707 19.3378 20.0417 19.9245 19.7148C20.0101 19.6902 20.0895 19.6532 20.1567 19.5977C20.3707 19.5175 20.5968 19.462 20.8413 19.462H24.9117C24.9117 19.462 24.9117 19.462 24.9179 19.462C24.924 19.462 24.9178 19.462 24.924 19.462H30.8769C31.9281 19.462 32.7837 20.3253 32.7837 21.386V22.3542L32.7776 22.3665ZM12.7615 15.3303C16.2696 15.3303 19.13 12.4505 19.13 8.90467C19.13 5.35883 16.2757 2.479 12.7615 2.479C9.24717 2.479 6.39295 5.35883 6.39295 8.90467C6.39295 12.4505 9.24717 15.3303 12.7615 15.3303ZM12.7615 3.71233C15.5973 3.71233 17.9076 6.04333 17.9076 8.90467C17.9076 11.766 15.5973 14.097 12.7615 14.097C9.92558 14.097 7.61532 11.766 7.61532 8.90467C7.61532 6.04333 9.92558 3.71233 12.7615 3.71233ZM13.8249 10.0578C13.7944 9.6385 13.3115 9.55833 12.902 9.57067C11.0196 9.6015 10.6101 8.49767 10.5184 8.1585C10.2984 7.30133 10.7507 6.327 11.5758 5.88917C11.7652 5.7905 11.9547 5.72267 12.1442 5.6795V5.19233C12.1442 4.85317 12.4192 4.57567 12.7553 4.57567C13.0915 4.57567 13.3665 4.85317 13.3665 5.19233V5.72883C14.0388 5.91383 14.5278 6.27767 14.5583 6.3085C14.8273 6.512 14.8761 6.9005 14.6745 7.17183C14.4728 7.44317 14.0877 7.4925 13.8188 7.289C13.8066 7.28283 13.3115 6.919 12.7615 6.86967C12.7615 6.86967 12.7615 6.86967 12.7553 6.86967C12.737 6.86967 12.7248 6.8635 12.7126 6.8635C12.5231 6.85117 12.3275 6.882 12.1442 6.98067C11.8264 7.14717 11.6247 7.548 11.698 7.85017C11.7836 8.17083 12.2053 8.34967 12.8715 8.33733C14.3811 8.30033 14.98 9.1945 15.0412 9.96533C15.1084 10.8842 14.4544 11.951 13.3726 12.1298V12.6108C13.3726 12.95 13.0976 13.2275 12.7615 13.2275C12.4253 13.2275 12.1503 12.95 12.1503 12.6108V12.0867C11.2029 11.8708 10.659 11.3158 10.6284 11.2788C10.3962 11.0322 10.4084 10.6375 10.659 10.4093C10.9035 10.175 11.2946 10.1873 11.5208 10.4402C11.5391 10.4587 12.1258 11.0568 13.1587 10.9212C13.5621 10.8718 13.8494 10.4155 13.8188 10.0578H13.8249Z" fill="#5CB5AF"/>
</g>
<defs>
<clipPath id="clip0_3016_3790">
<rect width="34" height="37" fill="white"/>
</clipPath>
</defs>
</svg>
