<svg width="37" height="37" viewBox="0 0 37 37" fill="none" xmlns="http://www.w3.org/2000/svg">
<g clip-path="url(#clip0_3016_3792)">
<path d="M35.5193 32.6931V30.3399C35.5193 30.1401 35.4379 29.9551 35.3047 29.8145L33.8247 28.3345C33.6841 28.1939 33.4991 28.1199 33.2993 28.1199V27.3799C33.2993 26.1589 32.3003 25.1599 31.0793 25.1599H22.1993C20.9783 25.1599 19.9793 26.1589 19.9793 27.3799V28.1199C19.7795 28.1199 19.5945 28.2013 19.4539 28.3345L17.9739 29.8145C17.8333 29.9551 17.7593 30.1401 17.7593 30.3399V32.6931C16.9009 32.9965 16.2793 33.8105 16.2793 34.7799V36.2599C16.2793 36.6669 16.6123 36.9999 17.0193 36.9999H36.2593C36.6663 36.9999 36.9993 36.6669 36.9993 36.2599V34.7799C36.9993 33.8179 36.3777 33.0039 35.5193 32.6931ZM21.4593 27.3799C21.4593 26.9729 21.7923 26.6399 22.1993 26.6399H31.0793C31.4863 26.6399 31.8193 26.9729 31.8193 27.3799V28.1199H21.4593V27.3799ZM19.2393 30.6433L20.2827 29.5999H32.9885L34.0319 30.6433V32.5599H19.2319V30.6433H19.2393ZM35.5193 35.5199H17.7593V34.7799C17.7593 34.3729 18.0923 34.0399 18.4993 34.0399H34.7793C35.1863 34.0399 35.5193 34.3729 35.5193 34.7799V35.5199Z" fill="#5CB5AF"/>
<path d="M33.3 16.4132V4.3068C34.1584 3.996 34.78 3.182 34.78 2.22C34.78 0.999 33.781 0 32.56 0H20.72C19.499 0 18.5 0.999 18.5 2.22C18.5 3.182 19.1216 3.996 19.98 4.3068V6.66H19.24C18.3076 6.66 17.5084 7.2372 17.1828 8.0586L4.5066 6.401C3.367 6.253 2.22 6.6082 1.3542 7.363C0.4958 8.1178 0 9.213 0 10.36C0 11.507 0.4958 12.6022 1.3542 13.357C2.2126 14.1118 3.3818 14.4596 4.5066 14.319L17.1828 12.6614C17.5084 13.4828 18.3076 14.06 19.24 14.06H19.98V16.4132C19.1216 16.724 18.5 17.538 18.5 18.5C18.5 19.721 19.499 20.72 20.72 20.72H32.56C33.781 20.72 34.78 19.721 34.78 18.5C34.78 17.538 34.1584 16.724 33.3 16.4132ZM12.58 11.766L4.3142 12.8464C3.5964 12.9426 2.8786 12.7206 2.331 12.247C1.7908 11.766 1.48 11.0852 1.48 10.36C1.48 9.6348 1.7908 8.954 2.331 8.473C2.8638 7.9994 3.6112 7.7774 4.3142 7.8736L12.58 8.954V11.766ZM17.02 11.1888L14.06 11.5736V9.1464L17.02 9.5312V11.1888ZM20.72 1.48H32.56C32.967 1.48 33.3 1.813 33.3 2.22C33.3 2.627 32.967 2.96 32.56 2.96H20.72C20.313 2.96 19.98 2.627 19.98 2.22C19.98 1.813 20.313 1.48 20.72 1.48ZM31.82 4.44V16.28H21.46V4.44H31.82ZM19.24 12.58C18.833 12.58 18.5 12.247 18.5 11.84V8.88C18.5 8.473 18.833 8.14 19.24 8.14H19.98V12.58H19.24ZM32.56 19.24H20.72C20.313 19.24 19.98 18.907 19.98 18.5C19.98 18.093 20.313 17.76 20.72 17.76H32.56C32.967 17.76 33.3 18.093 33.3 18.5C33.3 18.907 32.967 19.24 32.56 19.24Z" fill="#5CB5AF"/>
<path d="M23.6795 14.7999C24.0865 14.7999 24.4195 14.4669 24.4195 14.0599V6.65992C24.4195 6.25292 24.0865 5.91992 23.6795 5.91992C23.2725 5.91992 22.9395 6.25292 22.9395 6.65992V14.0599C22.9395 14.4669 23.2725 14.7999 23.6795 14.7999Z" fill="#5CB5AF"/>
<path d="M29.5994 14.7999C30.0064 14.7999 30.3394 14.4669 30.3394 14.0599V6.65992C30.3394 6.25292 30.0064 5.91992 29.5994 5.91992C29.1924 5.91992 28.8594 6.25292 28.8594 6.65992V14.0599C28.8594 14.4669 29.1924 14.7999 29.5994 14.7999Z" fill="#5CB5AF"/>
</g>
<defs>
<clipPath id="clip0_3016_3792">
<rect width="37" height="37" fill="white"/>
</clipPath>
</defs>
</svg>
