<svg width="35" height="48" viewBox="0 0 35 48" fill="none" xmlns="http://www.w3.org/2000/svg">
<g clip-path="url(#clip0_3016_3731)">
<path opacity="0.9" d="M21.4582 12.7036C20.0799 12.7036 18.959 11.5821 18.959 10.1909C18.959 8.80516 20.0745 7.67822 21.4582 7.67822C22.8366 7.67822 23.9575 8.79977 23.9575 10.1909C23.9575 11.5767 22.8419 12.7036 21.4582 12.7036Z" fill="#5CB5AF"/>
<path d="M27.052 47.1912H0.804688V0.808838H34.1957V40.009" stroke="#5CB5AF" stroke-width="3" stroke-miterlimit="10"/>
<path d="M23.8613 43.983V36.8008H31.0051" stroke="#5CB5AF" stroke-width="3" stroke-miterlimit="10"/>
<path d="M8.46875 21.455H18.9591" stroke="#5CB5AF" stroke-width="3" stroke-miterlimit="10"/>
<path d="M8.46875 10.1909H14.9206" stroke="#5CB5AF" stroke-width="3" stroke-miterlimit="10"/>
<path d="M8.46875 27.7637H18.9591" stroke="#5CB5AF" stroke-width="3" stroke-miterlimit="10"/>
<path d="M8.46875 34.0669H18.9591" stroke="#5CB5AF" stroke-width="3" stroke-miterlimit="10"/>
<path d="M21.8809 19.3952L24.1763 21.703L27.2708 18.5918" stroke="#5CB5AF" stroke-width="3" stroke-miterlimit="10"/>
<path d="M21.8809 27.0141L24.1763 29.3165L27.2708 26.2053" stroke="#5CB5AF" stroke-width="3" stroke-miterlimit="10"/>
</g>
<defs>
<clipPath id="clip0_3016_3731">
<rect width="35" height="48" fill="white"/>
</clipPath>
</defs>
</svg>
