<svg width="37" height="46" viewBox="0 0 37 46" fill="none" xmlns="http://www.w3.org/2000/svg">
<g clip-path="url(#clip0_3016_3741)">
<path d="M29.8134 1.56916V39.8762C29.8134 40.435 29.3534 40.8896 28.7897 40.8896H4.73952C4.31119 40.8896 3.90373 40.8276 3.51715 40.7036C3.39189 40.6623 3.25581 40.6102 3.13056 40.5589C3.12334 40.5661 3.11974 40.5661 3.11974 40.5589C2.11694 40.1349 1.32289 39.3489 0.894556 38.3562C0.88734 38.3562 0.88734 38.3526 0.894556 38.3454C0.84198 38.2214 0.790178 38.0867 0.748427 37.9627C0.623174 37.58 0.560547 37.1767 0.560547 36.7527V3.92733C0.56132 2.06514 2.08601 0.555786 3.96713 0.555786H28.7897C29.3541 0.555786 29.8134 1.01119 29.8134 1.56916Z" stroke="#5CB5AF" stroke-miterlimit="10"/>
<path d="M28.7897 41.4069H4.73952C4.25784 41.4069 3.79239 41.3365 3.35632 41.1957C3.32076 41.1835 3.28519 41.1712 3.24885 41.159L2.59862 40.8865C1.72262 40.4387 1.01517 39.7392 0.562864 38.8727H0.545081L0.269833 38.2336L0.28375 38.2199C0.272153 38.1877 0.262102 38.1563 0.251277 38.125C0.109014 37.691 0.0371094 37.2294 0.0371094 36.7534V3.92652C0.0386557 1.78266 1.80071 0.0383301 3.96635 0.0383301H28.7889C29.641 0.0383301 30.3353 0.724886 30.3353 1.56911V39.8754C30.3353 40.7196 29.6417 41.4062 28.7889 41.4062L28.7897 41.4069ZM3.20092 40.027L3.33468 40.0813C3.44756 40.1287 3.56972 40.1754 3.68337 40.2129C4.0112 40.3193 4.36763 40.3721 4.7403 40.3721H28.7897C29.0665 40.3721 29.2915 40.1486 29.2915 39.8754V1.56911C29.2915 1.2951 29.0665 1.07237 28.7897 1.07237H3.96635C2.37595 1.07237 1.08321 2.35287 1.08321 3.92652V36.7526C1.08321 37.12 1.1381 37.4736 1.24557 37.8027C1.28268 37.9129 1.33062 38.0346 1.37701 38.1471L1.43036 38.2757C1.79839 39.048 2.41924 39.6634 3.20014 40.027H3.20092Z" fill="#5CB5AF" stroke="#5CB5AF" stroke-miterlimit="10"/>
<path d="M7.35324 0.555786V36.7534H0.5625V3.92733C0.5625 2.06514 2.08719 0.555786 3.96831 0.555786H7.35324Z" stroke="#5CB5AF" stroke-miterlimit="10"/>
<path d="M7.87436 37.27H0.0390625V3.92652C0.0390625 1.78266 1.80111 0.0383301 3.96676 0.0383301H7.87436V37.27ZM1.08361 36.236H6.82981V1.07237H3.96676C2.37635 1.07237 1.08361 2.35287 1.08361 3.92652V36.2352V36.236Z" fill="#5CB5AF" stroke="#5CB5AF" stroke-miterlimit="10"/>
<path d="M29.8134 33.381V39.8761C29.8134 40.4348 29.3534 40.8895 28.7897 40.8895H4.73952C4.31119 40.8895 3.90373 40.8275 3.51715 40.7035C3.39189 40.6622 3.25581 40.6101 3.13056 40.5588C3.12334 40.566 3.11974 40.566 3.11974 40.5588C2.11694 40.1448 1.31207 39.3487 0.894556 38.356C0.88734 38.356 0.88734 38.3525 0.894556 38.3453C0.84198 38.2213 0.790178 38.0866 0.748427 37.9626C0.623174 37.5799 0.560547 37.1766 0.560547 36.7525V36.7212C0.571371 35.5937 1.04146 34.5704 1.78293 33.8257C2.54527 33.081 3.5906 32.6156 4.73952 32.6156H29.0395C29.4678 32.6156 29.8126 32.957 29.8126 33.381H29.8134Z" stroke="#5CB5AF" stroke-miterlimit="10"/>
<path d="M28.7889 41.4069H4.73875C4.25707 41.4069 3.79162 41.3365 3.35555 41.1957C3.31998 41.1834 3.28442 41.1712 3.24808 41.1589L2.59784 40.888C1.72571 40.4479 1.00589 39.7353 0.560545 38.8719H0.545081L0.269833 38.2328L0.28375 38.2191C0.272153 38.1869 0.262102 38.1555 0.251277 38.1242C0.109014 37.6902 0.0371094 37.2286 0.0371094 36.7526C0.0487069 35.495 0.535803 34.3401 1.40948 33.4622C2.31255 32.5812 3.49317 32.099 4.73798 32.099H29.0379C29.7523 32.099 30.3337 32.6746 30.3337 33.3818V39.8761C30.3337 40.7204 29.6402 41.4069 28.7874 41.4069H28.7889ZM3.17231 40.0162L3.33313 40.082C3.44601 40.1295 3.56817 40.1762 3.68183 40.2137C4.00965 40.3201 4.36608 40.3729 4.73875 40.3729H28.7882C29.065 40.3729 29.29 40.1494 29.29 39.8761V33.3818C29.29 33.2425 29.1794 33.133 29.0387 33.133H4.73875C3.7692 33.133 2.8499 33.5096 2.14863 34.1946C1.47134 34.8743 1.09094 35.7752 1.08166 36.7266C1.08166 37.1207 1.13656 37.4736 1.24403 37.8035C1.28114 37.9137 1.32907 38.0354 1.37546 38.1479L1.44041 38.3025C1.79684 39.051 2.41538 39.6641 3.17154 40.0162H3.17231Z" fill="#5CB5AF" stroke="#5CB5AF" stroke-miterlimit="10"/>
<path d="M29.8133 37.2807H6.49532C6.20693 37.2807 5.97266 37.0495 5.97266 36.7633C5.97266 36.477 6.20615 36.2458 6.49532 36.2458H29.8125C30.1009 36.2458 30.3352 36.477 30.3352 36.7633C30.3352 37.0495 30.1017 37.2807 29.8125 37.2807H29.8133Z" fill="#5CB5AF" stroke="#5CB5AF" stroke-miterlimit="10"/>
<path d="M24.0718 5.08374H13.041V9.08214H24.0718V5.08374Z" stroke="#5CB5AF" stroke-miterlimit="10"/>
<path d="M24.5937 9.59958H12.5176V4.56714H24.5937V9.59958ZM13.5621 8.56554H23.5484V5.60118H13.5621V8.56554Z" fill="#5CB5AF" stroke="#5CB5AF" stroke-miterlimit="10"/>
<path d="M14.1211 36.764V45.4443L17.155 42.4409L20.1897 45.4443V36.764H14.1211Z" stroke="#5CB5AF" stroke-miterlimit="10"/>
<path d="M20.1889 45.9617C20.0528 45.9617 19.9199 45.9089 19.8193 45.8102L17.1542 43.1719L14.4891 45.8102C14.3391 45.9587 14.1157 46.0008 13.9201 45.9219C13.7245 45.8423 13.5977 45.6533 13.5977 45.4443V36.7633C13.5977 36.4778 13.8312 36.2458 14.1203 36.2458H20.1889C20.4773 36.2458 20.7116 36.477 20.7116 36.7633V45.4443C20.7116 45.6533 20.5848 45.8423 20.3892 45.9219C20.3242 45.9479 20.2562 45.961 20.1889 45.961V45.9617ZM17.1542 41.9235C17.288 41.9235 17.4217 41.974 17.5238 42.0751L19.6663 44.196V37.2807H14.643V44.196L16.7854 42.0751C16.8875 41.974 17.0212 41.9235 17.155 41.9235H17.1542Z" fill="#5CB5AF" stroke="#5CB5AF" stroke-miterlimit="10"/>
<path d="M33.53 10.5132L33.4536 27.8553C33.4501 28.6496 34.0977 29.2963 34.9 29.2997L34.9008 29.2997C35.7032 29.3032 36.3564 28.6621 36.3599 27.8679L36.4364 10.5258C36.4399 9.73152 35.7923 9.08483 34.9899 9.08136L34.9892 9.08136C34.1868 9.07789 33.5335 9.71897 33.53 10.5132Z" stroke="#5CB5AF" stroke-miterlimit="10"/>
<path d="M34.9083 29.8181H34.8998C33.8104 29.8127 32.929 28.931 32.9336 27.8533L33.0109 10.5119C33.0132 9.98832 33.2212 9.49847 33.5954 9.13109C33.9704 8.7637 34.4405 8.57235 34.9949 8.5647C35.5222 8.56699 36.017 8.77212 36.3889 9.14333C36.76 9.51378 36.9641 10.0059 36.961 10.5279L36.8837 27.8702C36.8791 28.9455 35.993 29.8173 34.9075 29.8173L34.9083 29.8181ZM34.9044 28.784H34.9083C35.4201 28.784 35.8376 28.373 35.84 27.8671L35.9173 10.5249C35.918 10.2784 35.8222 10.0473 35.6474 9.87275C35.4712 9.69671 35.2361 9.63778 34.9864 9.60027C34.739 9.60027 34.507 9.69518 34.3315 9.86663C34.1552 10.0404 34.057 10.2708 34.0563 10.5172L33.9789 27.8587C33.9766 28.3669 34.3918 28.7817 34.9052 28.7848L34.9044 28.784Z" fill="#5CB5AF" stroke="#5CB5AF" stroke-miterlimit="10"/>
<path d="M21.4639 29.1675L19.8271 29.1606C19.6624 29.1606 19.5217 29.042 19.4931 28.8812L18.457 22.9609L20.9374 22.9717L21.9262 28.6256C21.9757 28.9096 21.7546 29.169 21.4631 29.1675H21.4639Z" stroke="#5CB5AF" stroke-miterlimit="10"/>
<path d="M21.4652 29.6849H21.4613L19.8245 29.6781C19.4055 29.675 19.0506 29.378 18.9779 28.9708L17.8359 22.4413L21.3778 22.4566L22.4417 28.5376C22.492 28.8231 22.4116 29.1155 22.2221 29.3375C22.0335 29.5587 21.7575 29.6849 21.4652 29.6849ZM19.9815 28.6448L21.4211 28.6509L20.4995 23.4868L19.0784 23.4815L19.9815 28.6448Z" fill="#5CB5AF" stroke="#5CB5AF" stroke-miterlimit="10"/>
<path d="M24.0262 15.333L24.0092 19.1439L23.9922 22.9548C31.0605 23.2341 33.4565 27.6558 33.4565 27.6558L33.5315 10.7139C33.5315 10.7139 31.0961 15.1149 24.0254 15.3322L24.0262 15.333Z" stroke="#5CB5AF" stroke-miterlimit="10"/>
<path d="M33.9699 29.6696L32.9973 27.9007C32.9037 27.7308 30.6298 23.7347 23.9721 23.4722L23.4688 23.4523L23.5066 14.8325L24.0107 14.8164C30.7048 14.6105 33.0522 10.508 33.0754 10.4667L34.065 8.67871L33.9715 29.6703L33.9699 29.6696ZM24.5172 22.4657C29.082 22.7757 31.679 24.7611 32.9416 26.122L33.0035 12.2439C31.7285 13.5933 29.1144 15.5565 24.5465 15.8275L24.5172 22.4657Z" fill="#5CB5AF" stroke="#5CB5AF" stroke-miterlimit="10"/>
<path d="M18.3409 22.9953L22.5795 23.0137L22.6142 15.2618L18.3757 15.2434C16.2132 15.2343 14.4527 16.9617 14.4434 19.1025C14.4341 21.2433 16.1792 22.9861 18.3417 22.9953H18.3409Z" stroke="#5CB5AF" stroke-miterlimit="10"/>
<path d="M23.099 23.5334L18.3378 23.512C17.1526 23.5066 16.04 23.0451 15.2057 22.2124C14.3715 21.3789 13.9153 20.2729 13.92 19.1003C13.9308 16.6847 15.9201 14.7261 18.3579 14.7261H18.3765L23.1369 14.746L23.099 23.5327V23.5334ZM18.3579 15.7601C16.4938 15.7601 14.973 17.2572 14.9645 19.1041C14.9606 20.0011 15.3093 20.8461 15.9472 21.4837C16.5851 22.1213 17.4356 22.4734 18.3417 22.4772L22.0576 22.494L22.0877 15.7754L18.3719 15.7594H18.3572L18.3579 15.7601Z" fill="#5CB5AF" stroke="#5CB5AF" stroke-miterlimit="10"/>
<path d="M21.1557 15.391L21.1227 22.8711C21.1218 23.0728 21.2862 23.2369 21.4899 23.2378L24.5477 23.251C24.7514 23.2519 24.9173 23.0891 24.9182 22.8875L24.9511 15.4074C24.952 15.2058 24.7876 15.0416 24.5839 15.0407L21.5261 15.0275C21.3224 15.0266 21.1566 15.1894 21.1557 15.391Z" stroke="#5CB5AF" stroke-miterlimit="10"/>
<path d="M24.5509 23.7684H24.5463L21.4892 23.7554C20.9967 23.7531 20.5993 23.3551 20.6016 22.8683L20.6348 15.3897C20.6356 15.1532 20.7299 14.932 20.8992 14.7667C21.0678 14.6014 21.3268 14.5034 21.5309 14.511L24.5873 14.524C25.0798 14.5263 25.4772 14.9243 25.4749 15.4111L25.4416 22.8898C25.4408 23.1263 25.3465 23.3475 25.178 23.5128C25.0094 23.6774 24.7875 23.7684 24.5509 23.7684ZM21.6469 22.7222L24.3978 22.7336L24.4303 15.5581L21.6794 15.5466L21.6469 22.7222Z" fill="#5CB5AF" stroke="#5CB5AF" stroke-miterlimit="10"/>
</g>
<defs>
<clipPath id="clip0_3016_3741">
<rect width="37" height="46" fill="white"/>
</clipPath>
</defs>
</svg>
