<svg width="38" height="39" viewBox="0 0 38 39" fill="none" xmlns="http://www.w3.org/2000/svg">
<g clip-path="url(#clip0_3016_3712)">
<path d="M36.8188 4.31078H33.6015V1.16192C33.6015 0.522649 33.0726 0 32.4159 0H1.18557C0.52888 0 0 0.51833 0 1.16192V33.5273C0 34.1666 0.52888 34.6892 1.18557 34.6892H4.40292V37.8424C4.40292 38.4817 4.9318 39.0043 5.58849 39.0043H36.8188C37.4711 39.0043 38.0044 38.486 38.0044 37.8424V5.4727C38.0044 4.83343 37.4755 4.31078 36.8188 4.31078ZM4.74669 17.2474C4.52633 17.4634 4.39852 17.7614 4.39852 18.0681V32.3654H2.36674V2.31953H31.2303V4.31078H18.4359C18.1229 4.31078 17.8188 4.43172 17.5985 4.65201L4.74669 17.2474ZM17.2503 8.276V16.9062H8.44444L17.2503 8.276ZM35.6333 36.6762H6.76966V19.2257H18.4359C19.0881 19.2257 19.6214 18.7074 19.6214 18.0638V6.64326C19.6214 6.64326 19.6214 6.63894 19.6214 6.63462H35.6333V36.6805V36.6762Z" fill="#5CB5AF"/>
</g>
<defs>
<clipPath id="clip0_3016_3712">
<rect width="38" height="39" fill="white"/>
</clipPath>
</defs>
</svg>
