<svg width="38" height="43" viewBox="0 0 38 43" fill="none" xmlns="http://www.w3.org/2000/svg">
<g clip-path="url(#clip0_3016_3801)">
<path d="M22.8537 3.9765H11.6113V8.38839H22.8537V3.9765ZM21.8812 7.47994H12.5838V4.88361H21.8812V7.47994Z" stroke="#5CB5AF" stroke-miterlimit="10"/>
<path d="M36.7705 15.2871C36.4552 14.9766 36.1896 14.6252 35.983 14.2429C35.8319 13.8149 35.7498 13.368 35.7397 12.9172C35.7721 12.1075 35.4964 11.3133 34.9616 10.6749C34.272 10.1898 33.4219 9.9459 32.5595 9.98488C32.0686 9.96875 31.5834 9.88274 31.1198 9.73089C30.7081 9.53334 30.3287 9.28271 29.9919 8.98639C29.4923 8.51066 28.879 8.15319 28.2023 7.94221V1.34386C28.2023 0.602049 27.5581 0 26.7627 0H3.65675C1.6369 0 0 1.52797 0 3.4134V32.6806C0.0309528 32.9333 0.08638 33.1819 0.165562 33.4251C0.161962 33.452 0.161962 33.4796 0.165562 33.5071L0.418223 34.0702C0.521159 34.2583 0.641372 34.4377 0.77814 34.6057C0.874597 34.7401 0.985452 34.8644 1.10854 34.978L1.2158 35.0868L1.46846 35.3045C1.64482 35.4416 1.82982 35.5693 2.02273 35.6855L2.31426 35.8401L2.91748 36.0759H3.01466C3.45088 36.2264 3.91157 36.3057 4.37587 36.3118H12.6424V39.8521C12.641 40.0363 12.7605 40.2022 12.944 40.2694C13.124 40.3427 13.3342 40.3023 13.4695 40.1693L15.9493 37.8545L18.4292 40.1693C18.522 40.256 18.648 40.305 18.779 40.3057C18.8395 40.3185 18.9028 40.3185 18.964 40.3057C19.1454 40.2358 19.2642 40.0712 19.2656 39.8884V36.3118H26.7828C27.5682 36.297 28.1973 35.701 28.2031 34.9679V26.9336C28.8869 26.726 29.5074 26.3679 30.012 25.8895C30.3431 25.5945 30.716 25.3445 31.1206 25.145C31.5791 25.0038 32.0578 24.9272 32.5401 24.9178C33.4024 24.9454 34.2482 24.6921 34.9328 24.2009C35.4676 23.5626 35.7433 22.7683 35.7109 21.9587C35.726 21.5065 35.8182 21.0589 35.983 20.6329C36.1925 20.2506 36.4617 19.8985 36.7806 19.5888C37.4234 19.021 37.8301 18.2583 37.928 17.4372C37.8251 16.6155 37.4155 15.8535 36.7705 15.2857V15.2871ZM34.7579 21.878C34.7967 22.4727 34.6261 23.0626 34.2713 23.5572C33.7393 23.8844 33.1087 24.0437 32.4724 24.0114C31.8886 24.0269 31.3106 24.1277 30.7606 24.3111C30.2539 24.5463 29.7881 24.8527 29.38 25.2189C29.0323 25.5353 28.6357 25.8014 28.2031 26.0084C28.0497 26.0715 27.8842 26.1058 27.7165 26.1085C27.5487 26.1072 27.3832 26.0729 27.2299 26.0084C26.7958 25.7994 26.3963 25.5333 26.0436 25.2189C25.639 24.8486 25.1726 24.5422 24.6629 24.3111C24.113 24.1277 23.5349 24.0269 22.9512 24.0114C22.3177 24.0457 21.6893 23.8864 21.1617 23.5572C20.8075 23.062 20.6362 22.472 20.6751 21.878C20.6542 21.3338 20.5462 20.7949 20.354 20.2802C20.1035 19.8085 19.7753 19.3771 19.3815 19.0002C18.8805 18.595 18.5386 18.0453 18.409 17.4386C18.5386 16.8318 18.8805 16.2822 19.3815 15.877C19.7753 15.5001 20.1035 15.0687 20.354 14.597C20.5462 14.0823 20.6542 13.5441 20.6751 12.9992C20.6362 12.4045 20.8068 11.8145 21.1617 11.32C21.6929 11.0008 22.3206 10.851 22.9512 10.8933C23.5349 10.8779 24.113 10.7771 24.6629 10.5936C25.1726 10.3625 25.639 10.0561 26.0436 9.68587C26.3956 9.36737 26.7958 9.0986 27.2299 8.88694C27.3832 8.82244 27.5487 8.78884 27.7165 8.78683C27.8842 8.78951 28.0497 8.82311 28.2031 8.88694C28.6357 9.0939 29.0323 9.35998 29.38 9.67646C29.7881 10.0427 30.2539 10.3491 30.7606 10.5842C31.3106 10.7677 31.8886 10.8685 32.4724 10.8839C33.1095 10.8476 33.7415 11.0069 34.2713 11.3381C34.6254 11.8334 34.7967 12.4233 34.7579 13.0173C34.7744 13.5622 34.8824 14.1018 35.0789 14.6151C35.3287 15.0868 35.6569 15.5189 36.0514 15.8952C36.551 16.301 36.8929 16.85 37.0239 17.4567C36.8929 18.0628 36.551 18.6118 36.0514 19.0183C35.6569 19.3946 35.3287 19.8266 35.0789 20.2983C34.8846 20.8063 34.7766 21.3391 34.7579 21.878ZM27.2306 34.9686C27.2255 35.2071 27.0197 35.3993 26.7641 35.404H19.2469V32.6806H27.2313V34.9686H27.2306ZM18.2737 36.3118V38.7535L16.2798 36.938C16.184 36.8567 16.0595 36.8117 15.9299 36.811C15.8032 36.8123 15.6823 36.8574 15.5894 36.938L13.5955 38.7535V32.6806H18.273V36.3118H18.2737ZM18.7596 31.7729H6.00989C5.74643 31.7682 5.52904 31.963 5.524 32.2083C5.524 32.2116 5.524 32.2143 5.524 32.2177C5.524 32.4334 5.68668 32.6195 5.91271 32.6625H12.6424V35.3858H4.37659C4.04618 35.3892 3.71722 35.3401 3.40409 35.2407L3.07369 35.1318L2.9182 35.0862L2.66554 34.9592C2.49566 34.8718 2.33586 34.7683 2.18901 34.6507C2.10407 34.6044 2.02345 34.5526 1.94571 34.4962C1.66353 34.2348 1.43607 33.9271 1.27482 33.5884L1.21652 33.4614C1.16757 33.3613 1.1287 33.2525 1.08983 33.153C1.0344 32.9998 0.995529 32.8412 0.973215 32.6806C0.958098 32.5295 0.958098 32.3776 0.973215 32.2264C0.956658 32.0752 0.956658 31.9234 0.973215 31.7722C1.20428 30.1905 2.66698 29.0206 4.37731 29.0489H26.9981C27.1269 29.0489 27.2313 29.1463 27.2313 29.2666V31.7722H18.761L18.7596 31.7729ZM0.972495 3.4134C0.977534 2.03192 2.17678 0.913153 3.65675 0.907777H6.32158V28.1418H4.37659C3.21262 28.1404 2.09687 28.5718 1.2741 29.3398C1.16325 29.4399 1.06247 29.5495 0.972495 29.6664V3.4134ZM27.2306 28.1418H7.29407V0.907777H26.7447C27.0024 0.907777 27.2111 1.10264 27.2111 1.34319V7.94288C26.5309 8.15185 25.914 8.50999 25.4123 8.98706C25.0804 9.28472 24.704 9.53603 24.2937 9.73156C23.8351 9.87266 23.3564 9.94926 22.8741 9.95867C22.0082 9.92978 21.1588 10.1831 20.4721 10.6756C19.9401 11.3146 19.668 12.1088 19.704 12.9178C19.691 13.3687 19.6054 13.8155 19.4513 14.2436C19.2375 14.6259 18.9662 14.978 18.6444 15.2877C18.0059 15.8575 17.6028 16.6195 17.5063 17.4393C17.6114 18.2644 18.0289 19.0277 18.6833 19.5908C18.9914 19.9026 19.2498 20.2546 19.4513 20.635C19.6025 21.063 19.6846 21.5098 19.6946 21.96C19.6586 22.769 19.9307 23.5632 20.4627 24.2022C21.1494 24.6948 21.9988 24.9481 22.8648 24.9192C23.3572 24.9259 23.8459 25.0025 24.3138 25.1463C24.7234 25.3418 25.1006 25.5931 25.4324 25.8908C25.9342 26.3679 26.5511 26.7253 27.2313 26.935V28.1424L27.2306 28.1418Z" stroke="#5CB5AF" stroke-miterlimit="10"/>
<path d="M30.7126 15.2326H30.4405C29.0109 15.2326 28.8166 15.0331 28.8065 15.0149C28.7964 14.9968 28.8065 14.933 28.8555 14.7972C29.3413 13.9204 29.3413 12.8782 28.8555 12.0013C28.6885 11.7668 28.4416 11.5908 28.1551 11.5021C28.0068 11.447 27.8477 11.4194 27.6886 11.4201C27.5223 11.4201 27.3582 11.4477 27.202 11.5021C26.6736 11.7003 26.2432 12.0759 25.9963 12.555L25.6659 13.0724C25.2765 13.612 24.9748 14.2026 24.7711 14.8241H23.2148C22.7369 14.8241 22.3496 15.1856 22.3496 15.6318V20.5792C22.3496 21.0254 22.7369 21.3869 23.2148 21.3869H24.8683C24.9396 21.3963 25.0116 21.3963 25.0821 21.3869C25.4823 21.7826 26.0596 21.9781 26.6384 21.9136H30.6745C32.5029 21.9136 32.6195 21.0059 32.96 18.4915V18.2557C33.1543 16.7761 33.0766 16.0773 32.6583 15.6506C32.2401 15.2239 31.5592 15.1964 30.7134 15.2333L30.7126 15.2326ZM28.204 20.9971H26.6384C25.9574 20.9971 25.8703 20.8607 25.8509 20.8157C25.7328 20.4421 25.6932 20.0504 25.7343 19.6627V15.1238C25.9135 14.5742 26.182 14.0534 26.5318 13.5804C26.6679 13.3714 26.7946 13.1718 26.8817 13.0173C26.9709 12.8547 27.089 12.7069 27.2315 12.5819C27.364 12.4623 27.5346 12.3857 27.7181 12.3642C27.8686 12.3628 28.0089 12.4347 28.0874 12.555C28.1313 12.6027 28.1709 12.6545 28.204 12.7095V13.6899C28.1399 13.9466 28.055 14.1985 27.9514 14.4431C27.7685 14.7885 27.7901 15.197 28.0097 15.5236C28.0644 15.5955 28.1299 15.66 28.204 15.7144C28.8907 16.088 29.6933 16.2318 30.4794 16.123H30.7515C31.3252 16.123 31.8212 16.0773 31.9572 16.2231C32.0933 16.3689 32.1617 17.0401 32.0155 18.1025V18.3383C31.6657 20.9709 31.6074 20.9709 30.6738 20.9709C29.7401 20.9709 28.9138 21.0072 28.2033 20.9985L28.204 20.9971ZM24.7611 20.4892H23.3415V15.7413H24.7812V20.4892H24.7618H24.7611Z" stroke="#5CB5AF" stroke-miterlimit="10"/>
</g>
<defs>
<clipPath id="clip0_3016_3801">
<rect width="38" height="43" fill="white"/>
</clipPath>
</defs>
</svg>
