<svg width="47" height="37" viewBox="0 0 47 37" fill="none" xmlns="http://www.w3.org/2000/svg">
<path d="M24.3451 9.22707H30.7773C31.4206 9.22707 31.9154 8.7563 31.9154 8.1443C31.9154 7.53229 31.4206 7.06152 30.7773 7.06152H24.3451C23.7018 7.06152 23.207 7.53229 23.207 8.1443C23.207 8.7563 23.7018 9.22707 24.3451 9.22707Z" fill="#5CB5AF"/>
<path d="M15.3884 8.80344L16.8233 10.2628C17.0212 10.4982 17.3676 10.5924 17.6644 10.5924C17.9613 10.5924 18.3077 10.4511 18.5056 10.2628L21.1775 7.53235C21.6228 7.10866 21.5733 6.4025 21.128 5.9788C20.6827 5.55511 19.9405 5.60219 19.4952 6.02588L17.6644 7.90897L17.0707 7.29697C16.6254 6.87327 15.8832 6.82619 15.4379 7.24989C14.9926 7.67358 14.9431 8.37974 15.3884 8.80344Z" fill="#5CB5AF"/>
<path d="M24.3451 15.253H30.7773C31.4206 15.253 31.9154 14.7822 31.9154 14.1702C31.9154 13.5582 31.4206 13.0874 30.7773 13.0874H24.3451C23.7018 13.0874 23.207 13.5582 23.207 14.1702C23.207 14.7822 23.7018 15.253 24.3451 15.253Z" fill="#5CB5AF"/>
<path d="M19.4952 12.0518L17.6644 13.9349L17.0707 13.3229C16.6254 12.8992 15.8832 12.8521 15.4379 13.2758C14.9926 13.6995 14.9431 14.4057 15.3884 14.8294L16.8233 16.2888C17.0212 16.5242 17.3676 16.6183 17.6644 16.6183C17.9613 16.6183 18.3077 16.4771 18.5056 16.2888L21.1775 13.5583C21.6228 13.1346 21.5733 12.4284 21.128 12.0047C20.6332 11.5811 19.9405 11.5811 19.4952 12.0518Z" fill="#5CB5AF"/>
<path d="M24.3451 21.3259H30.7773C31.4206 21.3259 31.9154 20.8552 31.9154 20.2432C31.9154 19.6312 31.4206 19.1604 30.7773 19.1604H24.3451C23.7018 19.1604 23.207 19.6312 23.207 20.2432C23.207 20.8552 23.7018 21.3259 24.3451 21.3259Z" fill="#5CB5AF"/>
<path d="M19.4952 18.0777L17.6644 19.9608L17.0707 19.3958C16.6254 18.9722 15.8832 18.9251 15.4379 19.3488C14.9926 19.7725 14.9431 20.4786 15.3884 20.9023L16.8233 22.3617C17.0212 22.5971 17.3676 22.6913 17.6644 22.6913C17.9613 22.6913 18.3077 22.55 18.5056 22.3617L21.1775 19.6312C21.6228 19.2075 21.5733 18.5014 21.128 18.0777C20.6332 17.6069 19.9405 17.6069 19.4952 18.0777Z" fill="#5CB5AF"/>
<path d="M41.4635 0H15.7839C11.9245 0 8.80729 2.96586 8.80729 6.63788V25.6571H1.13802C0.494792 25.6571 0 26.1278 0 26.7398V29.5174C0 33.1894 3.11719 36.1553 6.97656 36.1553H32.6562C35.724 36.1553 38.1979 33.8014 38.1979 30.8826V10.8748H45.8177C46.4609 10.8748 46.9557 10.4041 46.9557 9.79205V5.27264C47.0052 2.35386 44.5312 0 41.4635 0ZM6.97656 33.9897C4.40365 33.9897 2.27604 32.0125 2.27604 29.5174V27.8697H27.1146V30.8826C27.1146 32.0125 27.5104 33.0953 28.1536 33.9426H6.97656V33.9897ZM35.9219 5.27264V30.9297C35.9219 32.6245 34.487 33.9897 32.7057 33.9897C30.9245 33.9897 29.4896 32.6245 29.4896 30.9297V26.7869C29.4896 26.1749 28.9948 25.7041 28.3516 25.7041H11.0833V6.63788C11.0833 4.18987 13.1615 2.16555 15.7839 2.16555H37.0104C36.3177 3.06002 35.9219 4.09571 35.9219 5.27264ZM44.6797 8.6622H38.2474V5.27264C38.2474 3.57787 39.6823 2.21263 41.4635 2.21263C43.2448 2.21263 44.6797 3.57787 44.6797 5.27264V8.6622Z" fill="#5CB5AF"/>
</svg>
