<svg width="430" height="431" viewBox="0 0 430 431" fill="none" xmlns="http://www.w3.org/2000/svg">
<g clip-path="url(#clip0_3326_4473)">
<path d="M70.1565 176.401V161.711H361.112V176.401" stroke="#110537" stroke-width="0.63947" stroke-linecap="round" stroke-linejoin="round"/>
<path d="M215.631 150.955V176.401" stroke="#110537" stroke-width="0.63947" stroke-linecap="round" stroke-linejoin="round"/>
<path d="M70.1562 163.678C71.2425 163.678 72.123 162.797 72.123 161.711C72.123 160.625 71.2425 159.744 70.1562 159.744C69.07 159.744 68.1895 160.625 68.1895 161.711C68.1895 162.797 69.07 163.678 70.1562 163.678Z" fill="white" stroke="#110537" stroke-width="0.63947" stroke-linecap="round" stroke-linejoin="round"/>
<path d="M215.63 163.678C216.717 163.678 217.597 162.797 217.597 161.711C217.597 160.625 216.717 159.744 215.63 159.744C214.544 159.744 213.664 160.625 213.664 161.711C213.664 162.797 214.544 163.678 215.63 163.678Z" fill="white" stroke="#110537" stroke-width="0.63947" stroke-linecap="round" stroke-linejoin="round"/>
<path d="M361.112 163.678C362.199 163.678 363.079 162.797 363.079 161.711C363.079 160.625 362.199 159.744 361.112 159.744C360.026 159.744 359.146 160.625 359.146 161.711C359.146 162.797 360.026 163.678 361.112 163.678Z" fill="white" stroke="#110537" stroke-width="0.63947" stroke-linecap="round" stroke-linejoin="round"/>
<path d="M91.3991 229.157C102.578 217.978 102.578 199.854 91.3991 188.675C80.2202 177.496 62.0957 177.496 50.9169 188.675C39.738 199.854 39.738 217.978 50.9169 229.157C62.0957 240.336 80.2202 240.336 91.3991 229.157Z" stroke="#110537" stroke-width="0.63947" stroke-linecap="round" stroke-linejoin="round"/>
<path d="M105.139 208.915C105.139 209.22 105.139 209.517 105.124 209.822" stroke="#110537" stroke-width="0.63947" stroke-linecap="round" stroke-linejoin="round"/>
<path d="M105.033 211.659C103.638 229.147 89.0014 242.899 71.1554 242.899C53.3094 242.899 38.1697 228.666 37.2168 210.744" stroke="#110537" stroke-width="0.63947" stroke-linecap="round" stroke-linejoin="round"/>
<path d="M37.1861 209.822C37.1785 209.517 37.1709 209.22 37.1709 208.915" stroke="#110537" stroke-width="0.63947" stroke-linecap="round" stroke-linejoin="round"/>
<path d="M37.1709 208.915C37.1709 190.147 52.3869 174.931 71.1553 174.931C89.9237 174.931 105.14 190.147 105.14 208.915" stroke="#5CB5AF" stroke-width="4.0585" stroke-linejoin="round"/>
<path d="M74.6541 245.247H67.6636L71.155 249.486L74.6541 245.247Z" fill="#5CB5AF"/>
<path d="M387.925 215.582C391.615 200.21 382.145 184.756 366.773 181.066C351.4 177.375 335.947 186.845 332.256 202.217C328.566 217.59 338.036 233.044 353.408 236.734C368.781 240.425 384.234 230.955 387.925 215.582Z" stroke="#110537" stroke-width="0.63947" stroke-linecap="round" stroke-linejoin="round"/>
<path d="M394.09 208.915C394.09 209.22 394.09 209.517 394.075 209.822" stroke="#110537" stroke-width="0.63947" stroke-linecap="round" stroke-linejoin="round"/>
<path d="M393.984 211.659C392.589 229.147 377.953 242.899 360.107 242.899C342.261 242.899 327.121 228.666 326.168 210.744" stroke="#110537" stroke-width="0.63947" stroke-linecap="round" stroke-linejoin="round"/>
<path d="M326.137 209.822C326.13 209.517 326.122 209.22 326.122 208.915" stroke="#110537" stroke-width="0.63947" stroke-linecap="round" stroke-linejoin="round"/>
<path d="M326.122 208.915C326.122 190.147 341.338 174.931 360.106 174.931C378.875 174.931 394.091 190.147 394.091 208.915" stroke="#5CB5AF" stroke-width="4.0585" stroke-linejoin="round"/>
<path d="M363.605 245.247H356.615L360.106 249.486L363.605 245.247Z" fill="#5CB5AF"/>
<path d="M235.876 229.156C247.054 217.977 247.054 199.853 235.876 188.674C224.697 177.495 206.572 177.495 195.393 188.674C184.215 199.853 184.215 217.977 195.393 229.156C206.572 240.335 224.697 240.335 235.876 229.156Z" stroke="#110537" stroke-width="0.63947" stroke-linecap="round" stroke-linejoin="round"/>
<path d="M249.615 208.915C249.615 209.22 249.615 209.517 249.6 209.822" stroke="#110537" stroke-width="0.63947" stroke-linecap="round" stroke-linejoin="round"/>
<path d="M249.509 211.659C248.114 229.147 233.477 242.899 215.631 242.899C197.786 242.899 182.646 228.666 181.693 210.744" stroke="#110537" stroke-width="0.63947" stroke-linecap="round" stroke-linejoin="round"/>
<path d="M181.662 209.822C181.654 209.517 181.646 209.22 181.646 208.915" stroke="#110537" stroke-width="0.63947" stroke-linecap="round" stroke-linejoin="round"/>
<path d="M181.646 208.915C181.646 190.147 196.862 174.931 215.631 174.931C234.399 174.931 249.615 190.147 249.615 208.915" stroke="#5CB5AF" stroke-width="4.0585" stroke-linejoin="round"/>
<path d="M229.878 216.957V227.912H201.383V216.957C201.383 213.809 203.525 211.164 206.429 210.394C206.986 210.241 207.58 210.165 208.183 210.165H213.336L216.21 213.9L219.076 210.165H223.071C223.681 210.165 224.26 210.241 224.817 210.394C227.721 211.164 229.863 213.809 229.863 216.957H229.878Z" stroke="#110537" stroke-width="0.63947" stroke-linecap="round" stroke-linejoin="round"/>
<path d="M207.558 227.912V219.077" stroke="#110537" stroke-width="0.63947" stroke-linecap="round" stroke-linejoin="round"/>
<path d="M223.705 227.912V219.077" stroke="#110537" stroke-width="0.63947" stroke-linecap="round" stroke-linejoin="round"/>
<path d="M222.926 198.479V200.949C222.926 203.709 221.371 206.14 219.084 207.368C218.055 207.924 216.881 208.244 215.631 208.244C214.83 208.244 214.06 208.115 213.336 207.863C210.439 206.903 208.335 204.151 208.335 200.949V198.433C210.577 197.961 213.664 193.897 213.664 193.897C213.664 193.897 217.514 198.479 222.919 198.479H222.926Z" stroke="#110537" stroke-width="0.63947" stroke-linecap="round" stroke-linejoin="round"/>
<path d="M219.085 207.367V210.165L216.218 213.9L213.344 210.165V207.87C214.068 208.122 214.838 208.251 215.639 208.251C216.889 208.251 218.063 207.931 219.092 207.375L219.085 207.367Z" stroke="#110537" stroke-width="0.63947" stroke-linecap="round" stroke-linejoin="round"/>
<path d="M208.336 198.441C208.221 198.464 208.107 198.487 207.992 198.487" stroke="#110537" stroke-width="0.63947" stroke-linecap="round" stroke-linejoin="round"/>
<path d="M223.392 198.472C223.232 198.472 223.087 198.487 222.926 198.487" stroke="#110537" stroke-width="0.63947" stroke-linecap="round" stroke-linejoin="round"/>
<path d="M224.832 198.09V210.394C224.276 210.241 223.689 210.165 223.086 210.165H219.092V207.367C221.379 206.14 222.934 203.716 222.934 200.948V198.479C217.521 198.479 213.679 193.897 213.679 193.897C213.679 193.897 210.592 197.968 208.351 198.433V200.948C208.351 204.15 210.455 206.902 213.351 207.863V210.157H208.198C207.588 210.157 207.001 210.234 206.445 210.386V198.082C206.445 192.997 210.561 188.881 215.646 188.881C218.185 188.881 220.487 189.91 222.156 191.572C223.818 193.241 224.847 195.544 224.847 198.082L224.832 198.09Z" stroke="#110537" stroke-width="0.63947" stroke-linecap="round" stroke-linejoin="round"/>
<path d="M206.43 210.403V210.394" stroke="#110537" stroke-width="0.63947" stroke-linecap="round" stroke-linejoin="round"/>
<path d="M219.13 245.247H212.139L215.631 249.486L219.13 245.247Z" fill="#5CB5AF"/>
<path d="M84.9077 217.133V228.088H56.4121V217.133C56.4121 213.985 58.5542 211.339 61.4587 210.57C62.0152 210.417 62.6098 210.341 63.212 210.341H68.3653L71.2393 214.076L74.1056 210.341H78.1002C78.71 210.341 79.2894 210.417 79.8459 210.57C82.7504 211.339 84.8925 213.985 84.8925 217.133H84.9077Z" stroke="#110537" stroke-width="0.63947" stroke-linecap="round" stroke-linejoin="round"/>
<path d="M62.5872 228.087V219.252" stroke="#110537" stroke-width="0.63947" stroke-linecap="round" stroke-linejoin="round"/>
<path d="M78.7332 228.087V219.252" stroke="#110537" stroke-width="0.63947" stroke-linecap="round" stroke-linejoin="round"/>
<path d="M77.9554 198.654V201.124C77.9554 203.883 76.4002 206.315 74.1133 207.543C73.0841 208.099 71.9101 208.419 70.6599 208.419C69.8595 208.419 69.0895 208.29 68.3653 208.038C65.4685 207.077 63.3645 204.326 63.3645 201.124V198.608C65.6057 198.135 68.6931 194.072 68.6931 194.072C68.6931 194.072 72.5429 198.654 77.9477 198.654H77.9554Z" stroke="#110537" stroke-width="0.63947" stroke-linecap="round" stroke-linejoin="round"/>
<path d="M74.1131 207.543V210.341L71.2468 214.076L68.3728 210.341V208.046C69.097 208.298 69.867 208.427 70.6674 208.427C71.9176 208.427 73.0916 208.107 74.1207 207.551L74.1131 207.543Z" stroke="#110537" stroke-width="0.63947" stroke-linecap="round" stroke-linejoin="round"/>
<path d="M63.3649 198.615C63.2503 198.638 63.1358 198.661 63.0212 198.661" stroke="#110537" stroke-width="0.63947" stroke-linecap="round" stroke-linejoin="round"/>
<path d="M78.4211 198.646C78.2608 198.646 78.1157 198.662 77.9553 198.662" stroke="#110537" stroke-width="0.63947" stroke-linecap="round" stroke-linejoin="round"/>
<path d="M79.8609 198.266V210.569C79.3044 210.417 78.7174 210.341 78.1152 210.341H74.1206V207.543C76.4075 206.316 77.9627 203.891 77.9627 201.124V198.654C72.5502 198.654 68.7081 194.073 68.7081 194.073C68.7081 194.073 65.6207 198.144 63.3794 198.609V201.124C63.3794 204.326 65.4835 207.078 68.3803 208.038V210.333H63.227C62.6171 210.333 62.0301 210.409 61.4736 210.562V198.258C61.4736 193.173 65.5902 189.057 70.6749 189.057C73.2134 189.057 75.5156 190.086 77.1851 191.748C78.847 193.417 79.8761 195.719 79.8761 198.258L79.8609 198.266Z" stroke="#110537" stroke-width="0.63947" stroke-linecap="round" stroke-linejoin="round"/>
<path d="M61.4587 210.578V210.569" stroke="#110537" stroke-width="0.63947" stroke-linecap="round" stroke-linejoin="round"/>
<path d="M375.353 217.133V228.088H346.857V217.133C346.857 213.985 348.999 211.339 351.904 210.57C352.46 210.417 353.055 210.341 353.657 210.341H358.81L361.684 214.076L364.55 210.341H368.545C369.155 210.341 369.734 210.417 370.291 210.57C373.195 211.339 375.337 213.985 375.337 217.133H375.353Z" stroke="#110537" stroke-width="0.63947" stroke-linecap="round" stroke-linejoin="round"/>
<path d="M353.032 228.087V219.252" stroke="#110537" stroke-width="0.63947" stroke-linecap="round" stroke-linejoin="round"/>
<path d="M369.178 228.087V219.252" stroke="#110537" stroke-width="0.63947" stroke-linecap="round" stroke-linejoin="round"/>
<path d="M368.4 198.654V201.124C368.4 203.883 366.845 206.315 364.558 207.543C363.529 208.099 362.355 208.419 361.105 208.419C360.305 208.419 359.535 208.29 358.81 208.038C355.914 207.077 353.81 204.326 353.81 201.124V198.608C356.051 198.135 359.138 194.072 359.138 194.072C359.138 194.072 362.988 198.654 368.393 198.654H368.4Z" stroke="#110537" stroke-width="0.63947" stroke-linecap="round" stroke-linejoin="round"/>
<path d="M364.559 207.543V210.341L361.692 214.076L358.818 210.341V208.046C359.543 208.298 360.313 208.427 361.113 208.427C362.363 208.427 363.537 208.107 364.566 207.551L364.559 207.543Z" stroke="#110537" stroke-width="0.63947" stroke-linecap="round" stroke-linejoin="round"/>
<path d="M353.81 198.615C353.695 198.638 353.581 198.661 353.466 198.661" stroke="#110537" stroke-width="0.63947" stroke-linecap="round" stroke-linejoin="round"/>
<path d="M368.866 198.646C368.706 198.646 368.561 198.662 368.4 198.662" stroke="#110537" stroke-width="0.63947" stroke-linecap="round" stroke-linejoin="round"/>
<path d="M370.306 198.266V210.569C369.75 210.417 369.163 210.341 368.56 210.341H364.566V207.543C366.853 206.316 368.408 203.891 368.408 201.124V198.654C362.996 198.654 359.153 194.073 359.153 194.073C359.153 194.073 356.066 198.144 353.825 198.609V201.124C353.825 204.326 355.929 207.078 358.826 208.038V210.333H353.672C353.062 210.333 352.475 210.409 351.919 210.562V198.258C351.919 193.173 356.035 189.057 361.12 189.057C363.659 189.057 365.961 190.086 367.63 191.748C369.292 193.417 370.321 195.719 370.321 198.258L370.306 198.266Z" stroke="#110537" stroke-width="0.63947" stroke-linecap="round" stroke-linejoin="round"/>
<path d="M351.904 210.578V210.569" stroke="#110537" stroke-width="0.63947" stroke-linecap="round" stroke-linejoin="round"/>
<path d="M0.289551 283.432C96.7158 281.358 193.531 283.645 289.241 282.845" stroke="#110537" stroke-width="0.63947" stroke-linecap="round" stroke-linejoin="round"/>
<path d="M71.1553 272.088V282.844" stroke="#110537" stroke-width="0.63947" stroke-linecap="round" stroke-linejoin="round"/>
<path d="M289.241 282.845C336.085 282.89 382.587 282.89 429.18 282.845" stroke="#110537" stroke-width="0.63947" stroke-linecap="round" stroke-linejoin="round"/>
<path d="M360.106 272.088V282.844" stroke="#110537" stroke-width="0.63947" stroke-linecap="round" stroke-linejoin="round"/>
<path d="M215.631 270.267V282.845" stroke="#110537" stroke-width="0.63947" stroke-linecap="round" stroke-linejoin="round"/>
<path d="M166.761 121.531H170.624V126.58C169.998 126.785 169.408 126.927 168.852 127.007C168.302 127.091 167.738 127.133 167.161 127.133C165.691 127.133 164.567 126.702 163.79 125.841C163.017 124.975 162.631 123.734 162.631 122.117C162.631 120.545 163.079 119.32 163.976 118.44C164.878 117.561 166.126 117.122 167.72 117.122C168.719 117.122 169.683 117.321 170.611 117.721L169.925 119.373C169.214 119.018 168.475 118.84 167.707 118.84C166.814 118.84 166.099 119.14 165.562 119.739C165.024 120.339 164.756 121.145 164.756 122.157C164.756 123.214 164.971 124.022 165.402 124.582C165.837 125.137 166.468 125.415 167.294 125.415C167.724 125.415 168.162 125.37 168.606 125.281V123.25H166.761V121.531ZM172.703 117.628C172.703 116.966 173.071 116.635 173.808 116.635C174.545 116.635 174.914 116.966 174.914 117.628C174.914 117.943 174.821 118.19 174.634 118.367C174.452 118.54 174.177 118.627 173.808 118.627C173.071 118.627 172.703 118.294 172.703 117.628ZM174.821 127H172.789V119.553H174.821V127ZM182.155 124.789C182.155 125.552 181.888 126.134 181.355 126.534C180.827 126.933 180.034 127.133 178.977 127.133C178.436 127.133 177.974 127.095 177.592 127.02C177.21 126.949 176.852 126.842 176.519 126.7V125.022C176.897 125.199 177.321 125.348 177.792 125.468C178.267 125.588 178.684 125.648 179.044 125.648C179.781 125.648 180.15 125.435 180.15 125.008C180.15 124.848 180.101 124.72 180.003 124.622C179.905 124.52 179.737 124.407 179.497 124.282C179.257 124.153 178.937 124.005 178.538 123.836C177.965 123.596 177.543 123.374 177.272 123.17C177.006 122.966 176.81 122.732 176.686 122.47C176.566 122.204 176.506 121.878 176.506 121.491C176.506 120.83 176.761 120.319 177.272 119.959C177.787 119.595 178.516 119.413 179.457 119.413C180.354 119.413 181.227 119.608 182.075 119.999L181.462 121.465C181.089 121.305 180.74 121.174 180.416 121.072C180.092 120.969 179.761 120.918 179.424 120.918C178.824 120.918 178.524 121.08 178.524 121.405C178.524 121.587 178.62 121.744 178.811 121.878C179.006 122.011 179.43 122.208 180.083 122.47C180.665 122.706 181.091 122.926 181.362 123.13C181.633 123.334 181.833 123.57 181.962 123.836C182.09 124.102 182.155 124.42 182.155 124.789ZM186.824 120.858C186.393 120.858 186.056 120.996 185.812 121.271C185.567 121.542 185.428 121.929 185.392 122.43H188.243C188.234 121.929 188.103 121.542 187.85 121.271C187.597 120.996 187.255 120.858 186.824 120.858ZM187.111 127.133C185.912 127.133 184.975 126.802 184.3 126.141C183.625 125.479 183.287 124.542 183.287 123.33C183.287 122.082 183.598 121.118 184.22 120.439C184.846 119.755 185.71 119.413 186.811 119.413C187.863 119.413 188.683 119.713 189.269 120.312C189.855 120.912 190.148 121.74 190.148 122.797V123.783H185.345C185.368 124.36 185.539 124.811 185.858 125.135C186.178 125.459 186.627 125.621 187.204 125.621C187.652 125.621 188.076 125.575 188.476 125.481C188.876 125.388 189.293 125.239 189.728 125.035V126.607C189.373 126.785 188.994 126.916 188.589 127C188.185 127.089 187.692 127.133 187.111 127.133ZM193.832 127H191.8V116.635H193.832V127ZM195.883 117.628C195.883 116.966 196.252 116.635 196.989 116.635C197.726 116.635 198.095 116.966 198.095 117.628C198.095 117.943 198.002 118.19 197.815 118.367C197.633 118.54 197.358 118.627 196.989 118.627C196.252 118.627 195.883 118.294 195.883 117.628ZM198.002 127H195.97V119.553H198.002V127ZM209.805 127L209.099 124.682H205.549L204.843 127H202.618L206.055 117.221H208.579L212.03 127H209.805ZM208.606 122.95C207.953 120.85 207.585 119.662 207.5 119.386C207.42 119.111 207.363 118.893 207.327 118.734C207.181 119.302 206.761 120.707 206.068 122.95H208.606ZM219.77 127H217.739V122.65C217.739 122.113 217.648 121.711 217.465 121.445C217.288 121.174 217.006 121.038 216.619 121.038C216.1 121.038 215.722 121.229 215.487 121.611C215.252 121.993 215.134 122.621 215.134 123.496V127H213.102V119.553H214.654L214.928 120.505H215.041C215.241 120.163 215.529 119.897 215.907 119.706C216.284 119.511 216.717 119.413 217.206 119.413C218.32 119.413 219.075 119.777 219.47 120.505H219.65C219.85 120.159 220.143 119.89 220.53 119.699C220.92 119.508 221.36 119.413 221.848 119.413C222.692 119.413 223.329 119.631 223.76 120.066C224.195 120.497 224.413 121.189 224.413 122.144V127H222.375V122.65C222.375 122.113 222.284 121.711 222.102 121.445C221.924 121.174 221.642 121.038 221.256 121.038C220.758 121.038 220.385 121.216 220.137 121.571C219.892 121.926 219.77 122.49 219.77 123.263V127ZM231.234 127L230.841 125.988H230.788C230.446 126.418 230.093 126.718 229.729 126.887C229.369 127.051 228.898 127.133 228.316 127.133C227.601 127.133 227.038 126.929 226.625 126.52C226.216 126.112 226.012 125.53 226.012 124.775C226.012 123.985 226.287 123.403 226.838 123.03C227.393 122.652 228.228 122.444 229.342 122.404L230.635 122.364V122.037C230.635 121.283 230.248 120.905 229.475 120.905C228.88 120.905 228.181 121.085 227.377 121.445L226.704 120.072C227.562 119.624 228.512 119.4 229.555 119.4C230.555 119.4 231.321 119.617 231.854 120.052C232.386 120.488 232.653 121.149 232.653 122.037V127H231.234ZM230.635 123.55L229.849 123.576C229.258 123.594 228.818 123.701 228.53 123.896C228.241 124.091 228.097 124.389 228.097 124.789C228.097 125.361 228.425 125.648 229.082 125.648C229.553 125.648 229.928 125.512 230.208 125.241C230.492 124.971 230.635 124.611 230.635 124.162V123.55ZM241.625 127H239.594V122.65C239.594 122.113 239.498 121.711 239.307 121.445C239.116 121.174 238.812 121.038 238.395 121.038C237.826 121.038 237.416 121.229 237.162 121.611C236.909 121.989 236.783 122.617 236.783 123.496V127H234.751V119.553H236.303L236.576 120.505H236.69C236.916 120.146 237.227 119.875 237.622 119.693C238.022 119.506 238.475 119.413 238.981 119.413C239.847 119.413 240.504 119.648 240.953 120.119C241.401 120.585 241.625 121.26 241.625 122.144V127ZM246.854 125.515C247.21 125.515 247.636 125.437 248.133 125.281V126.794C247.627 127.02 247.005 127.133 246.268 127.133C245.456 127.133 244.863 126.929 244.49 126.52C244.121 126.107 243.937 125.49 243.937 124.669V121.078H242.964V120.219L244.083 119.54L244.67 117.967H245.968V119.553H248.053V121.078H245.968V124.669C245.968 124.957 246.048 125.17 246.208 125.308C246.373 125.446 246.588 125.515 246.854 125.515ZM249.559 117.628C249.559 116.966 249.927 116.635 250.665 116.635C251.402 116.635 251.77 116.966 251.77 117.628C251.77 117.943 251.677 118.19 251.491 118.367C251.308 118.54 251.033 118.627 250.665 118.627C249.927 118.627 249.559 118.294 249.559 117.628ZM251.677 127H249.645V119.553H251.677V127ZM260.69 127H258.658V122.65C258.658 122.113 258.562 121.711 258.372 121.445C258.181 121.174 257.876 121.038 257.459 121.038C256.891 121.038 256.48 121.229 256.227 121.611C255.974 121.989 255.847 122.617 255.847 123.496V127H253.815V119.553H255.367L255.64 120.505H255.754C255.98 120.146 256.291 119.875 256.686 119.693C257.086 119.506 257.539 119.413 258.045 119.413C258.911 119.413 259.568 119.648 260.017 120.119C260.465 120.585 260.69 121.26 260.69 122.144V127ZM264.4 123.263C264.4 124 264.52 124.558 264.76 124.935C265.004 125.313 265.399 125.501 265.945 125.501C266.487 125.501 266.876 125.315 267.111 124.942C267.351 124.564 267.471 124.005 267.471 123.263C267.471 122.526 267.351 121.973 267.111 121.604C266.871 121.236 266.478 121.052 265.932 121.052C265.39 121.052 264.999 121.236 264.76 121.604C264.52 121.969 264.4 122.521 264.4 123.263ZM269.549 123.263C269.549 124.475 269.229 125.424 268.59 126.107C267.95 126.791 267.06 127.133 265.919 127.133C265.204 127.133 264.573 126.978 264.027 126.667C263.481 126.352 263.061 125.901 262.768 125.315C262.475 124.729 262.328 124.045 262.328 123.263C262.328 122.046 262.646 121.1 263.281 120.425C263.916 119.75 264.808 119.413 265.959 119.413C266.674 119.413 267.304 119.568 267.85 119.879C268.397 120.19 268.816 120.636 269.109 121.218C269.402 121.8 269.549 122.482 269.549 123.263Z" fill="#5CB5AF"/>
<path d="M178.358 140.263C178.358 139.086 178.529 137.985 178.871 136.959C179.217 135.933 179.715 135.034 180.363 134.261H181.442C180.803 135.118 180.321 136.06 179.997 137.086C179.677 138.112 179.517 139.166 179.517 140.25C179.517 141.316 179.681 142.357 180.01 143.374C180.338 144.391 180.811 145.319 181.429 146.158H180.363C179.71 145.403 179.213 144.522 178.871 143.514C178.529 142.506 178.358 141.422 178.358 140.263ZM189.362 137.099C189.362 138.085 189.025 138.844 188.35 139.377C187.679 139.906 186.718 140.17 185.465 140.17H184.32V144H183.187V134.261H185.712C188.145 134.261 189.362 135.207 189.362 137.099ZM184.32 139.197H185.339C186.342 139.197 187.068 139.035 187.517 138.711C187.965 138.387 188.19 137.867 188.19 137.152C188.19 136.508 187.979 136.029 187.557 135.714C187.135 135.398 186.478 135.241 185.585 135.241H184.32V139.197ZM194.571 136.566C194.895 136.566 195.186 136.593 195.444 136.646L195.291 137.672C194.989 137.605 194.722 137.572 194.491 137.572C193.901 137.572 193.394 137.812 192.972 138.291C192.555 138.771 192.346 139.368 192.346 140.083V144H191.241V136.699H192.153L192.28 138.052H192.333C192.604 137.576 192.93 137.21 193.312 136.953C193.694 136.695 194.114 136.566 194.571 136.566ZM199.893 144.133C198.814 144.133 197.962 143.805 197.335 143.147C196.714 142.49 196.403 141.578 196.403 140.41C196.403 139.233 196.692 138.298 197.269 137.605C197.851 136.913 198.63 136.566 199.607 136.566C200.522 136.566 201.246 136.868 201.778 137.472C202.311 138.072 202.578 138.864 202.578 139.85V140.55H197.549C197.571 141.407 197.786 142.057 198.195 142.501C198.608 142.945 199.187 143.167 199.933 143.167C200.719 143.167 201.496 143.003 202.265 142.674V143.66C201.874 143.829 201.503 143.949 201.152 144.02C200.806 144.095 200.386 144.133 199.893 144.133ZM199.594 137.492C199.007 137.492 198.539 137.683 198.188 138.065C197.842 138.447 197.637 138.975 197.575 139.65H201.392C201.392 138.953 201.237 138.42 200.926 138.052C200.615 137.679 200.171 137.492 199.594 137.492ZM209.179 142.008C209.179 142.688 208.926 143.212 208.42 143.58C207.913 143.949 207.203 144.133 206.288 144.133C205.32 144.133 204.565 143.98 204.023 143.674V142.648C204.374 142.825 204.749 142.965 205.149 143.067C205.553 143.17 205.942 143.221 206.315 143.221C206.892 143.221 207.336 143.13 207.647 142.948C207.958 142.761 208.113 142.479 208.113 142.102C208.113 141.817 207.989 141.575 207.74 141.376C207.496 141.171 207.016 140.931 206.301 140.656C205.622 140.403 205.138 140.183 204.849 139.997C204.565 139.806 204.352 139.59 204.21 139.351C204.072 139.111 204.003 138.824 204.003 138.491C204.003 137.896 204.245 137.428 204.729 137.086C205.213 136.739 205.877 136.566 206.721 136.566C207.507 136.566 208.275 136.726 209.026 137.046L208.633 137.945C207.9 137.643 207.236 137.492 206.641 137.492C206.117 137.492 205.722 137.574 205.455 137.739C205.189 137.903 205.056 138.129 205.056 138.418C205.056 138.613 205.105 138.78 205.202 138.918C205.304 139.055 205.467 139.186 205.689 139.311C205.911 139.435 206.337 139.615 206.967 139.85C207.833 140.165 208.417 140.483 208.719 140.803C209.026 141.122 209.179 141.524 209.179 142.008ZM212.09 144H210.984V136.699H212.09V144ZM210.891 134.721C210.891 134.468 210.953 134.284 211.077 134.168C211.202 134.048 211.357 133.988 211.544 133.988C211.721 133.988 211.875 134.048 212.003 134.168C212.132 134.288 212.196 134.472 212.196 134.721C212.196 134.97 212.132 135.156 212.003 135.281C211.875 135.4 211.721 135.46 211.544 135.46C211.357 135.46 211.202 135.4 211.077 135.281C210.953 135.156 210.891 134.97 210.891 134.721ZM219.404 143.021H219.344C218.833 143.762 218.069 144.133 217.052 144.133C216.098 144.133 215.354 143.807 214.821 143.154C214.293 142.501 214.028 141.573 214.028 140.37C214.028 139.166 214.295 138.231 214.828 137.565C215.361 136.899 216.102 136.566 217.052 136.566C218.043 136.566 218.802 136.926 219.331 137.645H219.417L219.371 137.119L219.344 136.606V133.635H220.45V144H219.55L219.404 143.021ZM217.192 143.207C217.947 143.207 218.493 143.003 218.831 142.594C219.173 142.182 219.344 141.518 219.344 140.603V140.37C219.344 139.335 219.171 138.598 218.824 138.158C218.482 137.714 217.934 137.492 217.179 137.492C216.531 137.492 216.033 137.745 215.687 138.251C215.345 138.753 215.174 139.464 215.174 140.383C215.174 141.316 215.345 142.019 215.687 142.495C216.029 142.97 216.531 143.207 217.192 143.207ZM225.885 144.133C224.806 144.133 223.953 143.805 223.327 143.147C222.706 142.49 222.395 141.578 222.395 140.41C222.395 139.233 222.683 138.298 223.261 137.605C223.842 136.913 224.622 136.566 225.599 136.566C226.513 136.566 227.237 136.868 227.77 137.472C228.303 138.072 228.57 138.864 228.57 139.85V140.55H223.54C223.563 141.407 223.778 142.057 224.187 142.501C224.6 142.945 225.179 143.167 225.925 143.167C226.711 143.167 227.488 143.003 228.256 142.674V143.66C227.866 143.829 227.495 143.949 227.144 144.02C226.798 144.095 226.378 144.133 225.885 144.133ZM225.585 137.492C224.999 137.492 224.531 137.683 224.18 138.065C223.834 138.447 223.629 138.975 223.567 139.65H227.384C227.384 138.953 227.228 138.42 226.918 138.052C226.607 137.679 226.163 137.492 225.585 137.492ZM235.457 144V139.277C235.457 138.682 235.322 138.238 235.051 137.945C234.78 137.652 234.356 137.505 233.779 137.505C233.015 137.505 232.455 137.712 232.1 138.125C231.745 138.538 231.567 139.22 231.567 140.17V144H230.461V136.699H231.361L231.54 137.699H231.594C231.82 137.339 232.138 137.061 232.546 136.866C232.955 136.666 233.41 136.566 233.912 136.566C234.791 136.566 235.453 136.779 235.897 137.206C236.341 137.628 236.563 138.305 236.563 139.237V144H235.457ZM241.199 143.221C241.395 143.221 241.583 143.207 241.765 143.181C241.947 143.15 242.092 143.119 242.198 143.087V143.933C242.078 143.991 241.901 144.038 241.665 144.073C241.434 144.113 241.226 144.133 241.039 144.133C239.627 144.133 238.921 143.389 238.921 141.902V137.559H237.875V137.026L238.921 136.566L239.387 135.007H240.027V136.699H242.145V137.559H240.027V141.855C240.027 142.295 240.131 142.632 240.34 142.868C240.549 143.103 240.835 143.221 241.199 143.221ZM246.748 144.133C245.669 144.133 244.816 143.805 244.19 143.147C243.568 142.49 243.257 141.578 243.257 140.41C243.257 139.233 243.546 138.298 244.123 137.605C244.705 136.913 245.484 136.566 246.461 136.566C247.376 136.566 248.1 136.868 248.633 137.472C249.166 138.072 249.432 138.864 249.432 139.85V140.55H244.403C244.425 141.407 244.641 142.057 245.049 142.501C245.462 142.945 246.042 143.167 246.788 143.167C247.574 143.167 248.351 143.003 249.119 142.674V143.66C248.728 143.829 248.358 143.949 248.007 144.02C247.66 144.095 247.241 144.133 246.748 144.133ZM246.448 137.492C245.862 137.492 245.393 137.683 245.043 138.065C244.696 138.447 244.492 138.975 244.43 139.65H248.247C248.247 138.953 248.091 138.42 247.78 138.052C247.469 137.679 247.025 137.492 246.448 137.492ZM253.642 140.263C253.642 141.431 253.469 142.519 253.123 143.527C252.781 144.535 252.285 145.412 251.637 146.158H250.571C251.189 145.323 251.662 144.397 251.99 143.381C252.319 142.359 252.483 141.316 252.483 140.25C252.483 139.166 252.321 138.112 251.997 137.086C251.677 136.06 251.197 135.118 250.558 134.261H251.637C252.29 135.039 252.787 135.942 253.129 136.972C253.471 137.998 253.642 139.095 253.642 140.263Z" fill="black"/>
<path d="M40.2334 263.296C40.2334 264.175 39.9159 264.868 39.2809 265.374C38.6503 265.88 37.771 266.133 36.6431 266.133C35.6039 266.133 34.6847 265.938 33.8854 265.547V263.629C34.5426 263.922 35.0977 264.128 35.5506 264.248C36.008 264.368 36.4255 264.428 36.8029 264.428C37.2559 264.428 37.6023 264.341 37.8421 264.168C38.0863 263.995 38.2084 263.737 38.2084 263.395C38.2084 263.205 38.1552 263.036 38.0486 262.889C37.942 262.738 37.7843 262.594 37.5756 262.456C37.3714 262.319 36.9517 262.099 36.3167 261.797C35.7216 261.517 35.2753 261.248 34.9778 260.991C34.6803 260.733 34.4427 260.434 34.265 260.092C34.0874 259.75 33.9986 259.35 33.9986 258.893C33.9986 258.031 34.2895 257.354 34.8712 256.861C35.4574 256.368 36.2656 256.122 37.2959 256.122C37.8021 256.122 38.2839 256.181 38.7413 256.301C39.2032 256.421 39.685 256.59 40.1868 256.808L39.5207 258.413C39.0011 258.2 38.5704 258.051 38.2284 257.967C37.8909 257.882 37.5579 257.84 37.2293 257.84C36.8385 257.84 36.5387 257.931 36.33 258.113C36.1213 258.295 36.0169 258.533 36.0169 258.826C36.0169 259.008 36.0591 259.168 36.1435 259.306C36.2279 259.439 36.3611 259.57 36.5432 259.699C36.7297 259.823 37.1671 260.049 37.8554 260.378C38.7658 260.813 39.3897 261.251 39.7272 261.69C40.0647 262.125 40.2334 262.661 40.2334 263.296ZM44.9229 259.858C44.4921 259.858 44.1546 259.996 43.9104 260.271C43.6661 260.542 43.5263 260.929 43.4907 261.43H46.3417C46.3328 260.929 46.2018 260.542 45.9487 260.271C45.6956 259.996 45.3536 259.858 44.9229 259.858ZM45.2093 266.133C44.0103 266.133 43.0733 265.802 42.3983 265.141C41.7233 264.479 41.3858 263.542 41.3858 262.33C41.3858 261.082 41.6967 260.118 42.3184 259.439C42.9445 258.755 43.8082 258.413 44.9095 258.413C45.962 258.413 46.7813 258.713 47.3675 259.312C47.9537 259.912 48.2468 260.74 48.2468 261.797V262.783H43.4441C43.4663 263.36 43.6373 263.811 43.957 264.135C44.2767 264.459 44.7253 264.621 45.3026 264.621C45.7511 264.621 46.1752 264.575 46.5748 264.481C46.9745 264.388 47.3919 264.239 47.8271 264.035V265.607C47.4719 265.785 47.0922 265.916 46.6881 266C46.284 266.089 45.791 266.133 45.2093 266.133ZM51.9304 266H49.8987V255.635H51.9304V266ZM60.7364 266H58.7048V261.65C58.7048 261.113 58.6137 260.711 58.4317 260.445C58.254 260.174 57.9721 260.038 57.5857 260.038C57.0661 260.038 56.6887 260.229 56.4533 260.611C56.2179 260.993 56.1003 261.621 56.1003 262.496V266H54.0686V258.553H55.6207L55.8938 259.505H56.007C56.2068 259.163 56.4955 258.897 56.873 258.706C57.2504 258.511 57.6834 258.413 58.1719 258.413C59.2865 258.413 60.0414 258.777 60.4367 259.505H60.6165C60.8164 259.159 61.1094 258.89 61.4958 258.699C61.8866 258.508 62.3262 258.413 62.8147 258.413C63.6584 258.413 64.2957 258.631 64.7264 259.066C65.1616 259.497 65.3792 260.189 65.3792 261.144V266H63.3409V261.65C63.3409 261.113 63.2499 260.711 63.0678 260.445C62.8902 260.174 62.6082 260.038 62.2219 260.038C61.7245 260.038 61.3515 260.216 61.1028 260.571C60.8585 260.926 60.7364 261.49 60.7364 262.263V266ZM72.2002 266L71.8072 264.988H71.754C71.412 265.418 71.059 265.718 70.6948 265.887C70.3351 266.051 69.8644 266.133 69.2827 266.133C68.5677 266.133 68.0037 265.929 67.5907 265.52C67.1822 265.112 66.9779 264.53 66.9779 263.775C66.9779 262.985 67.2532 262.403 67.8039 262.03C68.359 261.652 69.1939 261.444 70.3085 261.404L71.6007 261.364V261.037C71.6007 260.283 71.2144 259.905 70.4417 259.905C69.8466 259.905 69.1472 260.085 68.3434 260.445L67.6707 259.072C68.5277 258.624 69.4781 258.4 70.5216 258.4C71.5208 258.4 72.2868 258.617 72.8197 259.052C73.3526 259.488 73.6191 260.149 73.6191 261.037V266H72.2002ZM71.6007 262.55L70.8147 262.576C70.2241 262.594 69.7845 262.701 69.4958 262.896C69.2072 263.091 69.0629 263.389 69.0629 263.789C69.0629 264.361 69.3915 264.648 70.0487 264.648C70.5194 264.648 70.8947 264.512 71.1744 264.241C71.4586 263.971 71.6007 263.611 71.6007 263.162V262.55ZM83.5442 266L81.1995 258.36H81.1395C81.2239 259.914 81.2661 260.951 81.2661 261.47V266H79.4209V256.261H82.2319L84.5367 263.709H84.5767L87.0213 256.261H89.8323V266H87.9072V261.39C87.9072 261.173 87.9094 260.922 87.9139 260.638C87.9228 260.354 87.9539 259.599 88.0071 258.373H87.9472L85.4359 266H83.5442ZM95.2145 259.858C94.7837 259.858 94.4462 259.996 94.202 260.271C93.9578 260.542 93.8179 260.929 93.7824 261.43H96.6333C96.6244 260.929 96.4934 260.542 96.2403 260.271C95.9872 259.996 95.6453 259.858 95.2145 259.858ZM95.5009 266.133C94.3019 266.133 93.3649 265.802 92.6899 265.141C92.0149 264.479 91.6774 263.542 91.6774 262.33C91.6774 261.082 91.9883 260.118 92.61 259.439C93.2361 258.755 94.0999 258.413 95.2012 258.413C96.2536 258.413 97.073 258.713 97.6591 259.312C98.2453 259.912 98.5384 260.74 98.5384 261.797V262.783H93.7357C93.7579 263.36 93.9289 263.811 94.2486 264.135C94.5684 264.459 95.0169 264.621 95.5942 264.621C96.0427 264.621 96.4668 264.575 96.8665 264.481C97.2661 264.388 97.6836 264.239 98.1188 264.035V265.607C97.7635 265.785 97.3838 265.916 96.9797 266C96.5756 266.089 96.0827 266.133 95.5009 266.133ZM102.222 266H100.19V255.635H102.222V266ZM105.979 262.263C105.979 263 106.099 263.558 106.339 263.935C106.583 264.313 106.978 264.501 107.524 264.501C108.066 264.501 108.455 264.315 108.69 263.942C108.93 263.564 109.05 263.005 109.05 262.263C109.05 261.526 108.93 260.973 108.69 260.604C108.45 260.236 108.057 260.052 107.511 260.052C106.969 260.052 106.578 260.236 106.339 260.604C106.099 260.969 105.979 261.521 105.979 262.263ZM111.128 262.263C111.128 263.475 110.808 264.424 110.169 265.107C109.529 265.791 108.639 266.133 107.498 266.133C106.783 266.133 106.152 265.978 105.606 265.667C105.06 265.352 104.64 264.901 104.347 264.315C104.054 263.729 103.907 263.045 103.907 262.263C103.907 261.046 104.225 260.1 104.86 259.425C105.495 258.75 106.387 258.413 107.538 258.413C108.253 258.413 108.883 258.568 109.429 258.879C109.976 259.19 110.395 259.636 110.688 260.218C110.981 260.8 111.128 261.482 111.128 262.263Z" fill="#5CB5AF"/>
<path d="M177.212 260.584H177.878C178.531 260.584 179.013 260.476 179.324 260.258C179.635 260.04 179.79 259.699 179.79 259.232C179.79 258.77 179.63 258.442 179.31 258.246C178.995 258.051 178.504 257.953 177.838 257.953H177.212V260.584ZM177.212 262.263V266H175.147V256.261H177.985C179.308 256.261 180.287 256.503 180.922 256.987C181.557 257.467 181.875 258.198 181.875 259.179C181.875 259.752 181.717 260.263 181.402 260.711C181.087 261.155 180.64 261.504 180.063 261.757C181.529 263.946 182.483 265.361 182.927 266H180.636L178.311 262.263H177.212ZM188.723 266L188.33 264.988H188.276C187.934 265.418 187.581 265.718 187.217 265.887C186.858 266.051 186.387 266.133 185.805 266.133C185.09 266.133 184.526 265.929 184.113 265.52C183.705 265.112 183.5 264.53 183.5 263.775C183.5 262.985 183.776 262.403 184.326 262.03C184.881 261.652 185.716 261.444 186.831 261.404L188.123 261.364V261.037C188.123 260.283 187.737 259.905 186.964 259.905C186.369 259.905 185.67 260.085 184.866 260.445L184.193 259.072C185.05 258.624 186 258.4 187.044 258.4C188.043 258.4 188.809 258.617 189.342 259.052C189.875 259.488 190.141 260.149 190.141 261.037V266H188.723ZM188.123 262.55L187.337 262.576C186.746 262.594 186.307 262.701 186.018 262.896C185.73 263.091 185.585 263.389 185.585 263.789C185.585 264.361 185.914 264.648 186.571 264.648C187.042 264.648 187.417 264.512 187.697 264.241C187.981 263.971 188.123 263.611 188.123 263.162V262.55ZM195.324 264.541C195.839 264.541 196.216 264.395 196.456 264.102C196.696 263.804 196.827 263.287 196.849 262.55V262.303C196.849 261.504 196.725 260.931 196.476 260.584C196.232 260.238 195.837 260.065 195.291 260.065C194.336 260.065 193.858 260.815 193.858 262.316C193.858 263.062 193.976 263.62 194.211 263.988C194.451 264.357 194.822 264.541 195.324 264.541ZM194.598 266.133C193.718 266.133 193.03 265.796 192.533 265.121C192.035 264.441 191.787 263.498 191.787 262.29C191.787 261.073 192.04 260.123 192.546 259.439C193.057 258.755 193.754 258.413 194.638 258.413C195.108 258.413 195.519 258.502 195.87 258.679C196.221 258.857 196.529 259.132 196.796 259.505H196.849L197.029 258.553H198.748V269.277H196.709V266.153C196.709 265.882 196.738 265.509 196.796 265.034H196.709C196.492 265.394 196.203 265.667 195.843 265.853C195.484 266.04 195.068 266.133 194.598 266.133ZM206.148 266L205.875 265.047H205.768C205.551 265.394 205.242 265.663 204.843 265.853C204.443 266.04 203.988 266.133 203.477 266.133C202.602 266.133 201.943 265.9 201.499 265.434C201.055 264.963 200.833 264.288 200.833 263.409V258.553H202.864V262.903C202.864 263.44 202.96 263.844 203.151 264.115C203.342 264.381 203.646 264.515 204.063 264.515C204.632 264.515 205.042 264.326 205.296 263.948C205.549 263.566 205.675 262.936 205.675 262.057V258.553H207.707V266H206.148ZM212.923 259.858C212.492 259.858 212.154 259.996 211.91 260.271C211.666 260.542 211.526 260.929 211.49 261.43H214.341C214.332 260.929 214.201 260.542 213.948 260.271C213.695 259.996 213.353 259.858 212.923 259.858ZM213.209 266.133C212.01 266.133 211.073 265.802 210.398 265.141C209.723 264.479 209.385 263.542 209.385 262.33C209.385 261.082 209.696 260.118 210.318 259.439C210.944 258.755 211.808 258.413 212.909 258.413C213.962 258.413 214.781 258.713 215.367 259.312C215.953 259.912 216.246 260.74 216.246 261.797V262.783H211.444C211.466 263.36 211.637 263.811 211.957 264.135C212.276 264.459 212.725 264.621 213.302 264.621C213.751 264.621 214.175 264.575 214.575 264.481C214.974 264.388 215.392 264.239 215.827 264.035V265.607C215.472 265.785 215.092 265.916 214.688 266C214.284 266.089 213.791 266.133 213.209 266.133ZM219.93 266H217.898V255.635H219.93V266ZM225.772 266V256.261H227.837V264.295H231.787V266H225.772ZM233.239 256.628C233.239 255.966 233.608 255.635 234.345 255.635C235.082 255.635 235.451 255.966 235.451 256.628C235.451 256.943 235.357 257.19 235.171 257.367C234.989 257.54 234.713 257.627 234.345 257.627C233.608 257.627 233.239 257.294 233.239 256.628ZM235.357 266H233.326V258.553H235.357V266ZM244.163 266H242.132V261.65C242.132 261.113 242.041 260.711 241.859 260.445C241.681 260.174 241.399 260.038 241.013 260.038C240.493 260.038 240.116 260.229 239.88 260.611C239.645 260.993 239.527 261.621 239.527 262.496V266H237.496V258.553H239.048L239.321 259.505H239.434C239.634 259.163 239.922 258.897 240.3 258.706C240.677 258.511 241.11 258.413 241.599 258.413C242.713 258.413 243.468 258.777 243.864 259.505H244.043C244.243 259.159 244.536 258.89 244.923 258.699C245.313 258.508 245.753 258.413 246.242 258.413C247.085 258.413 247.723 258.631 248.153 259.066C248.589 259.497 248.806 260.189 248.806 261.144V266H246.768V261.65C246.768 261.113 246.677 260.711 246.495 260.445C246.317 260.174 246.035 260.038 245.649 260.038C245.151 260.038 244.778 260.216 244.53 260.571C244.285 260.926 244.163 261.49 244.163 262.263V266ZM255.627 266L255.234 264.988H255.181C254.839 265.418 254.486 265.718 254.122 265.887C253.762 266.051 253.291 266.133 252.71 266.133C251.995 266.133 251.431 265.929 251.018 265.52C250.609 265.112 250.405 264.53 250.405 263.775C250.405 262.985 250.68 262.403 251.231 262.03C251.786 261.652 252.621 261.444 253.735 261.404L255.028 261.364V261.037C255.028 260.283 254.641 259.905 253.869 259.905C253.274 259.905 252.574 260.085 251.77 260.445L251.098 259.072C251.955 258.624 252.905 258.4 253.949 258.4C254.948 258.4 255.714 258.617 256.247 259.052C256.78 259.488 257.046 260.149 257.046 261.037V266H255.627ZM255.028 262.55L254.242 262.576C253.651 262.594 253.211 262.701 252.923 262.896C252.634 263.091 252.49 263.389 252.49 263.789C252.49 264.361 252.818 264.648 253.476 264.648C253.946 264.648 254.322 264.512 254.601 264.241C254.886 263.971 255.028 263.611 255.028 263.162V262.55Z" fill="#5CB5AF"/>
<path d="M302.401 266L301.695 263.682H298.145L297.439 266H295.214L298.651 256.221H301.175L304.626 266H302.401ZM301.202 261.95C300.549 259.85 300.181 258.662 300.096 258.386C300.016 258.111 299.959 257.893 299.923 257.734C299.777 258.302 299.357 259.707 298.664 261.95H301.202ZM307.73 266H305.698V255.635H307.73V266ZM312.952 259.858C312.522 259.858 312.184 259.996 311.94 260.271C311.696 260.542 311.556 260.929 311.52 261.43H314.371C314.362 260.929 314.231 260.542 313.978 260.271C313.725 259.996 313.383 259.858 312.952 259.858ZM313.239 266.133C312.04 266.133 311.103 265.802 310.428 265.141C309.753 264.479 309.415 263.542 309.415 262.33C309.415 261.082 309.726 260.118 310.348 259.439C310.974 258.755 311.838 258.413 312.939 258.413C313.991 258.413 314.811 258.713 315.397 259.312C315.983 259.912 316.276 260.74 316.276 261.797V262.783H311.474C311.496 263.36 311.667 263.811 311.986 264.135C312.306 264.459 312.755 264.621 313.332 264.621C313.781 264.621 314.205 264.575 314.604 264.481C315.004 264.388 315.421 264.239 315.857 264.035V265.607C315.501 265.785 315.122 265.916 314.718 266C314.313 266.089 313.821 266.133 313.239 266.133ZM319.454 262.196L317.056 258.553H319.36L320.806 260.924L322.265 258.553H324.569L322.145 262.196L324.683 266H322.371L320.806 263.449L319.234 266H316.929L319.454 262.196ZM330.544 266L330.151 264.988H330.098C329.756 265.418 329.403 265.718 329.039 265.887C328.679 266.051 328.209 266.133 327.627 266.133C326.912 266.133 326.348 265.929 325.935 265.52C325.526 265.112 325.322 264.53 325.322 263.775C325.322 262.985 325.597 262.403 326.148 262.03C326.703 261.652 327.538 261.444 328.653 261.404L329.945 261.364V261.037C329.945 260.283 329.559 259.905 328.786 259.905C328.191 259.905 327.491 260.085 326.688 260.445L326.015 259.072C326.872 258.624 327.822 258.4 328.866 258.4C329.865 258.4 330.631 258.617 331.164 259.052C331.697 259.488 331.963 260.149 331.963 261.037V266H330.544ZM329.945 262.55L329.159 262.576C328.568 262.594 328.129 262.701 327.84 262.896C327.551 263.091 327.407 263.389 327.407 263.789C327.407 264.361 327.736 264.648 328.393 264.648C328.864 264.648 329.239 264.512 329.519 264.241C329.803 263.971 329.945 263.611 329.945 263.162V262.55ZM340.936 266H338.904V261.65C338.904 261.113 338.809 260.711 338.618 260.445C338.427 260.174 338.123 260.038 337.705 260.038C337.137 260.038 336.726 260.229 336.473 260.611C336.22 260.989 336.093 261.617 336.093 262.496V266H334.062V258.553H335.614L335.887 259.505H336C336.226 259.146 336.537 258.875 336.932 258.693C337.332 258.506 337.785 258.413 338.291 258.413C339.157 258.413 339.815 258.648 340.263 259.119C340.712 259.585 340.936 260.26 340.936 261.144V266ZM345.385 266.133C344.511 266.133 343.822 265.794 343.32 265.114C342.823 264.435 342.574 263.493 342.574 262.29C342.574 261.069 342.828 260.118 343.334 259.439C343.845 258.755 344.546 258.413 345.439 258.413C346.376 258.413 347.091 258.777 347.584 259.505H347.65C347.548 258.95 347.497 258.455 347.497 258.02V255.635H349.535V266H347.977L347.584 265.034H347.497C347.035 265.767 346.331 266.133 345.385 266.133ZM346.098 264.515C346.618 264.515 346.997 264.364 347.237 264.062C347.481 263.76 347.615 263.247 347.637 262.523V262.303C347.637 261.504 347.513 260.931 347.264 260.584C347.02 260.238 346.62 260.065 346.065 260.065C345.612 260.065 345.259 260.258 345.006 260.644C344.757 261.026 344.633 261.584 344.633 262.316C344.633 263.049 344.759 263.6 345.012 263.968C345.266 264.332 345.627 264.515 346.098 264.515ZM355.817 258.413C356.092 258.413 356.321 258.433 356.503 258.473L356.35 260.378C356.185 260.334 355.986 260.311 355.75 260.311C355.102 260.311 354.596 260.478 354.231 260.811C353.872 261.144 353.692 261.61 353.692 262.21V266H351.66V258.553H353.199L353.499 259.805H353.599C353.83 259.388 354.14 259.052 354.531 258.799C354.926 258.542 355.355 258.413 355.817 258.413ZM362.585 266L362.192 264.988H362.138C361.796 265.418 361.443 265.718 361.079 265.887C360.719 266.051 360.249 266.133 359.667 266.133C358.952 266.133 358.388 265.929 357.975 265.52C357.566 265.112 357.362 264.53 357.362 263.775C357.362 262.985 357.638 262.403 358.188 262.03C358.743 261.652 359.578 261.444 360.693 261.404L361.985 261.364V261.037C361.985 260.283 361.599 259.905 360.826 259.905C360.231 259.905 359.531 260.085 358.728 260.445L358.055 259.072C358.912 258.624 359.862 258.4 360.906 258.4C361.905 258.4 362.671 258.617 363.204 259.052C363.737 259.488 364.003 260.149 364.003 261.037V266H362.585ZM361.985 262.55L361.199 262.576C360.608 262.594 360.169 262.701 359.88 262.896C359.591 263.091 359.447 263.389 359.447 263.789C359.447 264.361 359.776 264.648 360.433 264.648C360.904 264.648 361.279 264.512 361.559 264.241C361.843 263.971 361.985 263.611 361.985 263.162V262.55ZM375.767 266L375.061 263.682H371.51L370.804 266H368.58L372.017 256.221H374.541L377.992 266H375.767ZM374.568 261.95C373.915 259.85 373.547 258.662 373.462 258.386C373.382 258.111 373.325 257.893 373.289 257.734C373.142 258.302 372.723 259.707 372.03 261.95H374.568ZM385.732 266H383.7V261.65C383.7 261.113 383.609 260.711 383.427 260.445C383.25 260.174 382.968 260.038 382.581 260.038C382.062 260.038 381.684 260.229 381.449 260.611C381.214 260.993 381.096 261.621 381.096 262.496V266H379.064V258.553H380.616L380.889 259.505H381.003C381.202 259.163 381.491 258.897 381.869 258.706C382.246 258.511 382.679 258.413 383.167 258.413C384.282 258.413 385.037 258.777 385.432 259.505H385.612C385.812 259.159 386.105 258.89 386.491 258.699C386.882 258.508 387.322 258.413 387.81 258.413C388.654 258.413 389.291 258.631 389.722 259.066C390.157 259.497 390.375 260.189 390.375 261.144V266H388.336V261.65C388.336 261.113 388.245 260.711 388.063 260.445C387.886 260.174 387.604 260.038 387.217 260.038C386.72 260.038 386.347 260.216 386.098 260.571C385.854 260.926 385.732 261.49 385.732 262.263V266ZM397.196 266L396.803 264.988H396.75C396.408 265.418 396.055 265.718 395.69 265.887C395.331 266.051 394.86 266.133 394.278 266.133C393.563 266.133 392.999 265.929 392.586 265.52C392.178 265.112 391.973 264.53 391.973 263.775C391.973 262.985 392.249 262.403 392.799 262.03C393.355 261.652 394.189 261.444 395.304 261.404L396.596 261.364V261.037C396.596 260.283 396.21 259.905 395.437 259.905C394.842 259.905 394.143 260.085 393.339 260.445L392.666 259.072C393.523 258.624 394.474 258.4 395.517 258.4C396.516 258.4 397.282 258.617 397.815 259.052C398.348 259.488 398.615 260.149 398.615 261.037V266H397.196ZM396.596 262.55L395.81 262.576C395.22 262.594 394.78 262.701 394.491 262.896C394.203 263.091 394.058 263.389 394.058 263.789C394.058 264.361 394.387 264.648 395.044 264.648C395.515 264.648 395.89 264.512 396.17 264.241C396.454 263.971 396.596 263.611 396.596 263.162V262.55ZM403.071 266.133C402.196 266.133 401.508 265.794 401.006 265.114C400.509 264.435 400.26 263.493 400.26 262.29C400.26 261.069 400.513 260.118 401.019 259.439C401.53 258.755 402.232 258.413 403.124 258.413C404.061 258.413 404.776 258.777 405.269 259.505H405.336C405.234 258.95 405.183 258.455 405.183 258.02V255.635H407.221V266H405.662L405.269 265.034H405.183C404.721 265.767 404.017 266.133 403.071 266.133ZM403.784 264.515C404.303 264.515 404.683 264.364 404.923 264.062C405.167 263.76 405.3 263.247 405.322 262.523V262.303C405.322 261.504 405.198 260.931 404.949 260.584C404.705 260.238 404.305 260.065 403.75 260.065C403.297 260.065 402.944 260.258 402.691 260.644C402.443 261.026 402.318 261.584 402.318 262.316C402.318 263.049 402.445 263.6 402.698 263.968C402.951 264.332 403.313 264.515 403.784 264.515ZM412.43 259.858C411.999 259.858 411.662 259.996 411.417 260.271C411.173 260.542 411.033 260.929 410.998 261.43H413.849C413.84 260.929 413.709 260.542 413.456 260.271C413.203 259.996 412.861 259.858 412.43 259.858ZM412.716 266.133C411.517 266.133 410.58 265.802 409.905 265.141C409.23 264.479 408.893 263.542 408.893 262.33C408.893 261.082 409.204 260.118 409.825 259.439C410.451 258.755 411.315 258.413 412.417 258.413C413.469 258.413 414.288 258.713 414.874 259.312C415.461 259.912 415.754 260.74 415.754 261.797V262.783H410.951C410.973 263.36 411.144 263.811 411.464 264.135C411.784 264.459 412.232 264.621 412.81 264.621C413.258 264.621 413.682 264.575 414.082 264.481C414.481 264.388 414.899 264.239 415.334 264.035V265.607C414.979 265.785 414.599 265.916 414.195 266C413.791 266.089 413.298 266.133 412.716 266.133ZM419.024 262.263C419.024 263 419.144 263.558 419.384 263.935C419.628 264.313 420.024 264.501 420.57 264.501C421.112 264.501 421.5 264.315 421.735 263.942C421.975 263.564 422.095 263.005 422.095 262.263C422.095 261.526 421.975 260.973 421.735 260.604C421.496 260.236 421.103 260.052 420.556 260.052C420.015 260.052 419.624 260.236 419.384 260.604C419.144 260.969 419.024 261.521 419.024 262.263ZM424.173 262.263C424.173 263.475 423.854 264.424 423.214 265.107C422.575 265.791 421.684 266.133 420.543 266.133C419.828 266.133 419.198 265.978 418.651 265.667C418.105 265.352 417.685 264.901 417.392 264.315C417.099 263.729 416.953 263.045 416.953 262.263C416.953 261.046 417.27 260.1 417.905 259.425C418.54 258.75 419.433 258.413 420.583 258.413C421.298 258.413 421.929 258.568 422.475 258.879C423.021 259.19 423.441 259.636 423.734 260.218C424.027 260.8 424.173 261.482 424.173 262.263Z" fill="#5CB5AF"/>
<rect x="176.249" y="291.97" width="77.589" height="19.8204" rx="6.82101" fill="#4089B3"/>
<path d="M188.415 305.553C188.415 306.433 188.097 307.125 187.462 307.632C186.831 308.138 185.952 308.391 184.824 308.391C183.785 308.391 182.866 308.196 182.067 307.805V305.886C182.724 306.18 183.279 306.386 183.732 306.506C184.189 306.626 184.607 306.686 184.984 306.686C185.437 306.686 185.783 306.599 186.023 306.426C186.267 306.253 186.39 305.995 186.39 305.653C186.39 305.462 186.336 305.294 186.23 305.147C186.123 304.996 185.966 304.852 185.757 304.714C185.553 304.576 185.133 304.357 184.498 304.055C183.903 303.775 183.456 303.506 183.159 303.249C182.861 302.991 182.624 302.691 182.446 302.349C182.269 302.007 182.18 301.608 182.18 301.15C182.18 300.289 182.471 299.612 183.052 299.119C183.639 298.626 184.447 298.379 185.477 298.379C185.983 298.379 186.465 298.439 186.922 298.559C187.384 298.679 187.866 298.848 188.368 299.065L187.702 300.671C187.182 300.458 186.752 300.309 186.41 300.224C186.072 300.14 185.739 300.098 185.41 300.098C185.02 300.098 184.72 300.189 184.511 300.371C184.302 300.553 184.198 300.791 184.198 301.084C184.198 301.266 184.24 301.426 184.325 301.563C184.409 301.697 184.542 301.828 184.724 301.956C184.911 302.081 185.348 302.307 186.037 302.636C186.947 303.071 187.571 303.508 187.908 303.948C188.246 304.383 188.415 304.918 188.415 305.553ZM195.296 308.258L195.022 307.305H194.916C194.698 307.652 194.39 307.92 193.99 308.111C193.59 308.298 193.135 308.391 192.624 308.391C191.75 308.391 191.09 308.158 190.646 307.692C190.202 307.221 189.98 306.546 189.98 305.667V300.811H192.012V305.16C192.012 305.698 192.107 306.102 192.298 306.373C192.489 306.639 192.793 306.772 193.211 306.772C193.779 306.772 194.19 306.584 194.443 306.206C194.696 305.824 194.823 305.194 194.823 304.314V300.811H196.854V308.258H195.296ZM203.076 308.391C202.201 308.391 201.515 308.074 201.017 307.438H200.911C200.982 308.06 201.017 308.42 201.017 308.518V311.535H198.986V300.811H200.638L200.924 301.777H201.017C201.493 301.039 202.196 300.671 203.129 300.671C204.008 300.671 204.697 301.01 205.194 301.69C205.691 302.369 205.94 303.313 205.94 304.521C205.94 305.316 205.822 306.006 205.587 306.593C205.356 307.179 205.025 307.625 204.595 307.931C204.164 308.238 203.658 308.391 203.076 308.391ZM202.476 302.296C201.974 302.296 201.608 302.452 201.377 302.762C201.146 303.069 201.026 303.577 201.017 304.288V304.508C201.017 305.307 201.135 305.88 201.371 306.226C201.61 306.573 201.988 306.746 202.503 306.746C203.413 306.746 203.868 305.995 203.868 304.494C203.868 303.762 203.755 303.213 203.529 302.849C203.307 302.48 202.956 302.296 202.476 302.296ZM209.65 308.258H207.619V297.893H209.65V308.258ZM214.873 302.116C214.442 302.116 214.104 302.254 213.86 302.529C213.616 302.8 213.476 303.186 213.44 303.688H216.291C216.283 303.186 216.152 302.8 215.898 302.529C215.645 302.254 215.303 302.116 214.873 302.116ZM215.159 308.391C213.96 308.391 213.023 308.06 212.348 307.399C211.673 306.737 211.336 305.8 211.336 304.588C211.336 303.34 211.646 302.376 212.268 301.697C212.894 301.013 213.758 300.671 214.859 300.671C215.912 300.671 216.731 300.971 217.317 301.57C217.903 302.17 218.197 302.998 218.197 304.055V305.04H213.394C213.416 305.618 213.587 306.069 213.907 306.393C214.227 306.717 214.675 306.879 215.252 306.879C215.701 306.879 216.125 306.832 216.525 306.739C216.924 306.646 217.342 306.497 217.777 306.293V307.865C217.422 308.042 217.042 308.173 216.638 308.258C216.234 308.347 215.741 308.391 215.159 308.391ZM226.723 308.258H224.691V303.908C224.691 303.371 224.596 302.969 224.405 302.702C224.214 302.432 223.91 302.296 223.492 302.296C222.924 302.296 222.513 302.487 222.26 302.869C222.007 303.246 221.88 303.875 221.88 304.754V308.258H219.849V300.811H221.401L221.674 301.763H221.787C222.013 301.403 222.324 301.133 222.719 300.951C223.119 300.764 223.572 300.671 224.078 300.671C224.944 300.671 225.602 300.906 226.05 301.377C226.499 301.843 226.723 302.518 226.723 303.402V308.258ZM231.952 306.772C232.307 306.772 232.733 306.695 233.231 306.539V308.051C232.725 308.278 232.103 308.391 231.366 308.391C230.553 308.391 229.96 308.187 229.587 307.778C229.219 307.365 229.034 306.748 229.034 305.926V302.336H228.062V301.477L229.181 300.797L229.767 299.225H231.066V300.811H233.151V302.336H231.066V305.926C231.066 306.215 231.146 306.428 231.306 306.566C231.47 306.704 231.685 306.772 231.952 306.772ZM237.827 302.116C237.396 302.116 237.059 302.254 236.814 302.529C236.57 302.8 236.43 303.186 236.395 303.688H239.246C239.237 303.186 239.106 302.8 238.853 302.529C238.6 302.254 238.258 302.116 237.827 302.116ZM238.113 308.391C236.914 308.391 235.977 308.06 235.302 307.399C234.627 306.737 234.29 305.8 234.29 304.588C234.29 303.34 234.601 302.376 235.222 301.697C235.849 301.013 236.712 300.671 237.814 300.671C238.866 300.671 239.685 300.971 240.272 301.57C240.858 302.17 241.151 302.998 241.151 304.055V305.04H236.348C236.37 305.618 236.541 306.069 236.861 306.393C237.181 306.717 237.629 306.879 238.207 306.879C238.655 306.879 239.079 306.832 239.479 306.739C239.879 306.646 240.296 306.497 240.731 306.293V307.865C240.376 308.042 239.996 308.173 239.592 308.258C239.188 308.347 238.695 308.391 238.113 308.391ZM247.999 306.046C247.999 306.81 247.732 307.392 247.199 307.792C246.671 308.191 245.878 308.391 244.821 308.391C244.279 308.391 243.818 308.353 243.436 308.278C243.054 308.207 242.696 308.1 242.363 307.958V306.279C242.741 306.457 243.165 306.606 243.635 306.726C244.111 306.846 244.528 306.906 244.888 306.906C245.625 306.906 245.994 306.692 245.994 306.266C245.994 306.106 245.945 305.977 245.847 305.88C245.749 305.778 245.581 305.664 245.341 305.54C245.101 305.411 244.781 305.263 244.382 305.094C243.809 304.854 243.387 304.632 243.116 304.428C242.849 304.223 242.654 303.99 242.53 303.728C242.41 303.462 242.35 303.135 242.35 302.749C242.35 302.087 242.605 301.577 243.116 301.217C243.631 300.853 244.359 300.671 245.301 300.671C246.198 300.671 247.07 300.866 247.919 301.257L247.306 302.722C246.933 302.563 246.584 302.432 246.26 302.329C245.936 302.227 245.605 302.176 245.267 302.176C244.668 302.176 244.368 302.338 244.368 302.662C244.368 302.845 244.464 303.002 244.655 303.135C244.85 303.269 245.274 303.466 245.927 303.728C246.509 303.964 246.935 304.183 247.206 304.388C247.477 304.592 247.677 304.827 247.805 305.094C247.934 305.36 247.999 305.678 247.999 306.046Z" fill="white"/>
</g>
<path d="M214.654 388.884C230.463 388.884 243.279 376.068 243.279 360.259C243.279 344.45 230.463 331.634 214.654 331.634C198.845 331.634 186.029 344.45 186.029 360.259C186.029 376.068 198.845 388.884 214.654 388.884Z" stroke="#110537" stroke-width="0.63947" stroke-linecap="round" stroke-linejoin="round"/>
<path d="M248.64 360.259C248.64 360.564 248.64 360.861 248.625 361.166" stroke="#110537" stroke-width="0.63947" stroke-linecap="round" stroke-linejoin="round"/>
<path d="M248.532 363.01C247.137 380.498 232.5 394.25 214.654 394.25C196.808 394.25 181.669 380.018 180.716 362.096" stroke="#110537" stroke-width="0.63947" stroke-linecap="round" stroke-linejoin="round"/>
<path d="M180.686 361.174C180.678 360.869 180.67 360.572 180.67 360.267" stroke="#110537" stroke-width="0.63947" stroke-linecap="round" stroke-linejoin="round"/>
<path d="M180.67 360.259C180.67 341.49 195.886 326.274 214.655 326.274C233.423 326.274 248.639 341.49 248.639 360.259" stroke="#2578A8" stroke-width="4.0585" stroke-linejoin="round"/>
<path d="M229.535 368.27V379.224H201.04V368.27C201.04 365.121 203.182 362.476 206.086 361.706C206.643 361.554 207.237 361.478 207.839 361.478H212.993L215.867 365.213L218.733 361.478H222.728C223.337 361.478 223.917 361.554 224.473 361.706C227.378 362.476 229.52 365.121 229.52 368.27H229.535Z" stroke="#110537" stroke-width="0.63947" stroke-linecap="round" stroke-linejoin="round"/>
<path d="M207.215 379.227V370.392" stroke="#110537" stroke-width="0.63947" stroke-linecap="round" stroke-linejoin="round"/>
<path d="M223.361 379.227V370.392" stroke="#110537" stroke-width="0.63947" stroke-linecap="round" stroke-linejoin="round"/>
<path d="M222.583 349.792V352.262C222.583 355.022 221.027 357.454 218.74 358.681C217.711 359.238 216.537 359.558 215.287 359.558C214.487 359.558 213.717 359.428 212.993 359.177C210.096 358.216 207.992 355.464 207.992 352.262V349.747C210.233 349.274 213.32 345.211 213.32 345.211C213.32 345.211 217.17 349.792 222.575 349.792H222.583Z" stroke="#110537" stroke-width="0.63947" stroke-linecap="round" stroke-linejoin="round"/>
<path d="M218.741 358.681V361.478L215.874 365.214L213 361.478V359.184C213.725 359.435 214.495 359.565 215.295 359.565C216.545 359.565 217.719 359.245 218.748 358.688L218.741 358.681Z" stroke="#110537" stroke-width="0.63947" stroke-linecap="round" stroke-linejoin="round"/>
<path d="M207.993 349.754C207.878 349.777 207.763 349.8 207.649 349.8" stroke="#110537" stroke-width="0.63947" stroke-linecap="round" stroke-linejoin="round"/>
<path d="M223.049 349.784C222.888 349.784 222.743 349.799 222.583 349.799" stroke="#110537" stroke-width="0.63947" stroke-linecap="round" stroke-linejoin="round"/>
<path d="M224.489 349.403V361.707C223.932 361.555 223.345 361.478 222.743 361.478H218.749V358.681C221.035 357.453 222.591 355.029 222.591 352.262V349.792C217.178 349.792 213.336 345.21 213.336 345.21C213.336 345.21 210.249 349.281 208.007 349.746V352.262C208.007 355.464 210.111 358.216 213.008 359.176V361.471H207.855C207.245 361.471 206.658 361.547 206.102 361.699V349.396C206.102 344.311 210.218 340.194 215.303 340.194C217.841 340.194 220.144 341.223 221.813 342.885C223.475 344.555 224.504 346.857 224.504 349.396L224.489 349.403Z" stroke="#110537" stroke-width="0.63947" stroke-linecap="round" stroke-linejoin="round"/>
<path d="M206.086 361.716V361.707" stroke="#110537" stroke-width="0.63947" stroke-linecap="round" stroke-linejoin="round"/>
<path d="M218.154 396.599H211.163L214.655 400.837L218.154 396.599Z" fill="#2578A8"/>
<path d="M236.057 88.9276C247.236 77.7488 247.236 59.6243 236.057 48.4454C224.878 37.2666 206.754 37.2666 195.575 48.4454C184.396 59.6243 184.396 77.7488 195.575 88.9276C206.754 100.106 224.878 100.106 236.057 88.9276Z" stroke="#110537" stroke-width="0.63947" stroke-linecap="round" stroke-linejoin="round"/>
<path d="M249.797 68.6865C249.797 68.9915 249.797 69.2888 249.782 69.5937" stroke="#110537" stroke-width="0.63947" stroke-linecap="round" stroke-linejoin="round"/>
<path d="M249.69 71.4314C248.295 88.9191 233.659 102.671 215.813 102.671C197.967 102.671 182.827 88.4388 181.874 70.5166" stroke="#110537" stroke-width="0.63947" stroke-linecap="round" stroke-linejoin="round"/>
<path d="M181.843 69.5937C181.836 69.2888 181.828 68.9915 181.828 68.6865" stroke="#110537" stroke-width="0.63947" stroke-linecap="round" stroke-linejoin="round"/>
<path d="M181.828 68.6865C181.828 49.9181 197.044 34.7021 215.812 34.7021C234.581 34.7021 249.797 49.9181 249.797 68.6865" stroke="#5CB5AF" stroke-width="4.0585" stroke-linejoin="round"/>
<path d="M230.061 76.7298V87.6844H201.565V76.7298C201.565 73.5814 203.707 70.9361 206.612 70.1662C207.168 70.0137 207.763 69.9375 208.365 69.9375H213.518L216.392 73.6729L219.258 69.9375H223.253C223.863 69.9375 224.442 70.0137 224.999 70.1662C227.903 70.9361 230.045 73.5814 230.045 76.7298H230.061Z" stroke="#110537" stroke-width="0.63947" stroke-linecap="round" stroke-linejoin="round"/>
<path d="M207.74 87.6849V78.8496" stroke="#110537" stroke-width="0.63947" stroke-linecap="round" stroke-linejoin="round"/>
<path d="M223.886 87.6849V78.8496" stroke="#110537" stroke-width="0.63947" stroke-linecap="round" stroke-linejoin="round"/>
<path d="M223.108 58.2505V60.7204C223.108 63.48 221.553 65.9119 219.266 67.1392C218.237 67.6957 217.063 68.0159 215.813 68.0159C215.013 68.0159 214.243 67.8863 213.518 67.6347C210.622 66.6742 208.518 63.9222 208.518 60.7204V58.2048C210.759 57.7321 213.846 53.6689 213.846 53.6689C213.846 53.6689 217.696 58.2505 223.101 58.2505H223.108Z" stroke="#110537" stroke-width="0.63947" stroke-linecap="round" stroke-linejoin="round"/>
<path d="M219.266 67.1396V69.9374L216.399 73.6728L213.525 69.9374V67.6428C214.25 67.8943 215.02 68.0239 215.82 68.0239C217.07 68.0239 218.244 67.7038 219.273 67.1473L219.266 67.1396Z" stroke="#110537" stroke-width="0.63947" stroke-linecap="round" stroke-linejoin="round"/>
<path d="M208.517 58.2129C208.403 58.2358 208.288 58.2587 208.174 58.2587" stroke="#110537" stroke-width="0.63947" stroke-linecap="round" stroke-linejoin="round"/>
<path d="M223.574 58.2432C223.413 58.2432 223.268 58.2584 223.108 58.2584" stroke="#110537" stroke-width="0.63947" stroke-linecap="round" stroke-linejoin="round"/>
<path d="M225.014 57.8622V70.1661C224.458 70.0136 223.871 69.9374 223.268 69.9374H219.274V67.1397C221.561 65.9123 223.116 63.4881 223.116 60.7209V58.251C217.704 58.251 213.861 53.6694 213.861 53.6694C213.861 53.6694 210.774 57.7402 208.533 58.2052V60.7209C208.533 63.9227 210.637 66.6746 213.534 67.6352V69.9298H208.38C207.77 69.9298 207.183 70.006 206.627 70.1585V57.8546C206.627 52.7699 210.744 48.6533 215.828 48.6533C218.367 48.6533 220.669 49.6825 222.338 51.3443C224 53.0138 225.029 55.316 225.029 57.8546L225.014 57.8622Z" stroke="#110537" stroke-width="0.63947" stroke-linecap="round" stroke-linejoin="round"/>
<path d="M206.612 70.175V70.166" stroke="#110537" stroke-width="0.63947" stroke-linecap="round" stroke-linejoin="round"/>
<path d="M219.312 105.021H212.321L215.813 109.259L219.312 105.021Z" fill="#5CB5AF"/>
<rect x="180.67" width="69.3714" height="19.8204" rx="6.82101" fill="#5CB5AF"/>
<path d="M197.538 16.2871H195.473V8.26709H192.828V6.54852H200.182V8.26709H197.538V16.2871ZM203.553 8.83995V16.2871H201.521V8.83995H203.553ZM202.54 5.92237C202.842 5.92237 203.102 5.99342 203.319 6.13553C203.537 6.27319 203.646 6.53298 203.646 6.91488C203.646 7.29235 203.537 7.55435 203.319 7.7009C203.102 7.843 202.842 7.91405 202.54 7.91405C202.234 7.91405 201.972 7.843 201.754 7.7009C201.541 7.55435 201.434 7.29235 201.434 6.91488C201.434 6.53298 201.541 6.27319 201.754 6.13553C201.972 5.99342 202.234 5.92237 202.54 5.92237ZM208.828 14.8017C209.05 14.8017 209.266 14.7795 209.474 14.7351C209.688 14.6907 209.898 14.6351 210.107 14.5685V16.0806C209.89 16.1783 209.619 16.2582 209.295 16.3204C208.975 16.387 208.624 16.4203 208.242 16.4203C207.798 16.4203 207.398 16.3493 207.043 16.2072C206.692 16.0606 206.415 15.8097 206.21 15.4545C206.011 15.0948 205.911 14.5952 205.911 13.9557V10.3654H204.938V9.50607L206.057 8.82663L206.643 7.2546H207.942V8.83995H210.027V10.3654H207.942V13.9557C207.942 14.2399 208.022 14.4531 208.182 14.5952C208.346 14.7328 208.562 14.8017 208.828 14.8017ZM218.454 8.83995V16.2871H216.895L216.622 15.3346H216.515C216.355 15.5877 216.155 15.7942 215.916 15.9541C215.676 16.1139 215.412 16.2316 215.123 16.3071C214.834 16.3826 214.535 16.4203 214.224 16.4203C213.691 16.4203 213.227 16.3271 212.832 16.1406C212.436 15.9496 212.128 15.6543 211.906 15.2546C211.688 14.855 211.579 14.3354 211.579 13.6959V8.83995H213.611V13.1897C213.611 13.7226 213.706 14.1245 213.897 14.3953C214.088 14.6662 214.393 14.8017 214.81 14.8017C215.223 14.8017 215.547 14.7084 215.782 14.5219C216.018 14.331 216.182 14.0534 216.275 13.6893C216.373 13.3207 216.422 12.8722 216.422 12.3437V8.83995H218.454ZM222.617 16.2871H220.585V5.92237H222.617V16.2871ZM227.806 8.68675C228.805 8.68675 229.571 8.90434 230.104 9.33954C230.637 9.77473 230.903 10.4364 230.903 11.3246V16.2871H229.484L229.091 15.2746H229.038C228.825 15.5411 228.607 15.7587 228.385 15.9274C228.163 16.0962 227.908 16.2205 227.619 16.3004C227.331 16.3804 226.98 16.4203 226.567 16.4203C226.127 16.4203 225.732 16.336 225.381 16.1672C225.035 15.9985 224.762 15.7409 224.562 15.3945C224.362 15.0437 224.262 14.5996 224.262 14.0623C224.262 13.2718 224.54 12.6901 225.095 12.3171C225.65 11.9396 226.482 11.7309 227.593 11.6909L228.885 11.651V11.3246C228.885 10.9338 228.783 10.6473 228.579 10.4653C228.374 10.2832 228.09 10.1922 227.726 10.1922C227.366 10.1922 227.013 10.2432 226.667 10.3454C226.32 10.4475 225.974 10.5763 225.628 10.7317L224.955 9.35952C225.35 9.15081 225.792 8.9865 226.28 8.8666C226.773 8.7467 227.282 8.68675 227.806 8.68675ZM228.885 12.8366L228.099 12.8633C227.442 12.881 226.984 12.9987 226.727 13.2163C226.474 13.4339 226.347 13.7203 226.347 14.0756C226.347 14.3865 226.438 14.6085 226.62 14.7417C226.802 14.8705 227.04 14.9349 227.333 14.9349C227.768 14.9349 228.134 14.8061 228.432 14.5486C228.734 14.291 228.885 13.9246 228.885 13.4495V12.8366ZM237.158 8.70007C237.26 8.70007 237.378 8.70673 237.511 8.72005C237.649 8.72893 237.76 8.74226 237.844 8.76002L237.691 10.6651C237.624 10.6429 237.529 10.6274 237.405 10.6185C237.285 10.6052 237.18 10.5985 237.091 10.5985C236.829 10.5985 236.574 10.6318 236.325 10.6984C236.081 10.765 235.861 10.8738 235.666 11.0248C235.471 11.1714 235.315 11.3667 235.2 11.611C235.089 11.8508 235.033 12.1461 235.033 12.4969V16.2871H233.002V8.83995H234.54L234.84 10.0922H234.94C235.086 9.83912 235.269 9.6082 235.486 9.39949C235.708 9.18633 235.959 9.01758 236.239 8.89324C236.523 8.76446 236.829 8.70007 237.158 8.70007ZM210.047 25.7001C210.149 25.7001 210.267 25.7067 210.4 25.7201C210.538 25.7289 210.649 25.7423 210.733 25.76L210.58 27.6651C210.514 27.6429 210.418 27.6274 210.294 27.6185C210.174 27.6052 210.069 27.5985 209.981 27.5985C209.719 27.5985 209.463 27.6318 209.215 27.6984C208.97 27.765 208.751 27.8738 208.555 28.0248C208.36 28.1714 208.204 28.3667 208.089 28.611C207.978 28.8508 207.922 29.1461 207.922 29.4969V33.2871H205.891V25.84H207.429L207.729 27.0922H207.829C207.976 26.8391 208.158 26.6082 208.375 26.3995C208.597 26.1863 208.848 26.0176 209.128 25.8932C209.412 25.7645 209.719 25.7001 210.047 25.7001ZM215.156 25.7001C215.845 25.7001 216.437 25.8333 216.935 26.0997C217.432 26.3617 217.816 26.7436 218.087 27.2455C218.358 27.7473 218.494 28.3601 218.494 29.0839V30.0698H213.691C213.713 30.6426 213.884 31.0934 214.204 31.422C214.528 31.7462 214.976 31.9083 215.549 31.9083C216.024 31.9083 216.46 31.8594 216.855 31.7617C217.25 31.664 217.656 31.5175 218.074 31.3221V32.8941C217.705 33.0762 217.319 33.2094 216.915 33.2938C216.515 33.3781 216.029 33.4203 215.456 33.4203C214.71 33.4203 214.048 33.2827 213.471 33.0073C212.898 32.732 212.447 32.3124 212.119 31.7484C211.795 31.1844 211.633 30.4739 211.633 29.6168C211.633 28.7464 211.779 28.0226 212.072 27.4453C212.37 26.8635 212.783 26.4284 213.311 26.1397C213.84 25.8466 214.455 25.7001 215.156 25.7001ZM215.17 27.1455C214.774 27.1455 214.446 27.2721 214.184 27.5252C213.926 27.7783 213.777 28.1758 213.737 28.7176H216.588C216.584 28.4156 216.529 28.1469 216.422 27.9116C216.32 27.6762 216.164 27.4897 215.956 27.352C215.751 27.2144 215.489 27.1455 215.17 27.1455ZM225.341 31.0756C225.341 31.5819 225.221 32.0104 224.982 32.3612C224.746 32.7076 224.393 32.9718 223.922 33.1539C223.452 33.3315 222.865 33.4203 222.164 33.4203C221.644 33.4203 221.198 33.387 220.825 33.3204C220.456 33.2538 220.083 33.1428 219.706 32.9874V31.3088C220.11 31.4908 220.543 31.6418 221.005 31.7617C221.471 31.8772 221.88 31.9349 222.23 31.9349C222.626 31.9349 222.908 31.8772 223.076 31.7617C223.25 31.6418 223.336 31.4864 223.336 31.2954C223.336 31.1711 223.301 31.0601 223.23 30.9624C223.163 30.8602 223.016 30.747 222.79 30.6227C222.564 30.4939 222.208 30.3273 221.724 30.1231C221.258 29.9277 220.874 29.7301 220.572 29.5302C220.274 29.3304 220.052 29.095 219.906 28.8241C219.764 28.5488 219.693 28.2002 219.693 27.7783C219.693 27.09 219.959 26.5727 220.492 26.2263C221.029 25.8755 221.746 25.7001 222.643 25.7001C223.105 25.7001 223.545 25.7467 223.962 25.84C224.384 25.9332 224.817 26.082 225.261 26.2862L224.648 27.7517C224.28 27.5918 223.931 27.4608 223.603 27.3587C223.278 27.2566 222.948 27.2055 222.61 27.2055C222.313 27.2055 222.088 27.2455 221.937 27.3254C221.786 27.4053 221.711 27.5274 221.711 27.6917C221.711 27.8117 221.749 27.9182 221.824 28.0115C221.904 28.1047 222.055 28.2091 222.277 28.3246C222.504 28.4356 222.834 28.5799 223.27 28.7575C223.691 28.9307 224.058 29.1128 224.369 29.3037C224.68 29.4903 224.919 29.7234 225.088 30.0032C225.257 30.2785 225.341 30.636 225.341 31.0756Z" fill="white"/>
<path d="M163.589 426L161.245 418.36H161.185C161.269 419.914 161.311 420.951 161.311 421.47V426H159.466V416.261H162.277L164.582 423.709H164.622L167.066 416.261H169.877V426H167.952V421.39C167.952 421.173 167.955 420.922 167.959 420.638C167.968 420.354 167.999 419.599 168.052 418.373H167.992L165.481 426H163.589ZM176.905 426L176.512 424.988H176.459C176.117 425.418 175.764 425.718 175.4 425.887C175.04 426.051 174.569 426.133 173.987 426.133C173.272 426.133 172.708 425.929 172.295 425.52C171.887 425.112 171.683 424.53 171.683 423.775C171.683 422.985 171.958 422.403 172.509 422.03C173.064 421.652 173.899 421.444 175.013 421.404L176.305 421.364V421.037C176.305 420.283 175.919 419.905 175.146 419.905C174.551 419.905 173.852 420.085 173.048 420.445L172.375 419.072C173.232 418.624 174.183 418.4 175.226 418.4C176.225 418.4 176.992 418.617 177.524 419.052C178.057 419.488 178.324 420.149 178.324 421.037V426H176.905ZM176.305 422.55L175.519 422.576C174.929 422.594 174.489 422.701 174.201 422.896C173.912 423.091 173.768 423.389 173.768 423.789C173.768 424.361 174.096 424.648 174.753 424.648C175.224 424.648 175.599 424.512 175.879 424.241C176.163 423.971 176.305 423.611 176.305 423.162V422.55ZM184.579 418.413C184.854 418.413 185.083 418.433 185.265 418.473L185.111 420.378C184.947 420.334 184.747 420.311 184.512 420.311C183.864 420.311 183.357 420.478 182.993 420.811C182.634 421.144 182.454 421.61 182.454 422.21V426H180.422V418.553H181.961L182.26 419.805H182.36C182.591 419.388 182.902 419.052 183.293 418.799C183.688 418.542 184.117 418.413 184.579 418.413ZM189.641 426.133C187.323 426.133 186.164 424.861 186.164 422.316C186.164 421.051 186.479 420.085 187.11 419.419C187.74 418.748 188.644 418.413 189.821 418.413C190.682 418.413 191.455 418.582 192.139 418.919L191.539 420.491C191.22 420.362 190.922 420.258 190.647 420.178C190.372 420.094 190.096 420.052 189.821 420.052C188.764 420.052 188.236 420.802 188.236 422.303C188.236 423.76 188.764 424.488 189.821 424.488C190.212 424.488 190.574 424.437 190.907 424.335C191.24 424.228 191.573 424.064 191.906 423.842V425.58C191.577 425.789 191.244 425.933 190.907 426.013C190.574 426.093 190.152 426.133 189.641 426.133ZM196.722 419.858C196.291 419.858 195.954 419.996 195.709 420.271C195.465 420.542 195.325 420.929 195.29 421.43H198.141C198.132 420.929 198.001 420.542 197.748 420.271C197.495 419.996 197.153 419.858 196.722 419.858ZM197.008 426.133C195.809 426.133 194.872 425.802 194.197 425.141C193.522 424.479 193.185 423.542 193.185 422.33C193.185 421.082 193.496 420.118 194.117 419.439C194.743 418.755 195.607 418.413 196.709 418.413C197.761 418.413 198.58 418.713 199.166 419.312C199.753 419.912 200.046 420.74 200.046 421.797V422.783H195.243C195.265 423.36 195.436 423.811 195.756 424.135C196.076 424.459 196.524 424.621 197.102 424.621C197.55 424.621 197.974 424.575 198.374 424.481C198.773 424.388 199.191 424.239 199.626 424.035V425.607C199.271 425.785 198.891 425.916 198.487 426C198.083 426.089 197.59 426.133 197.008 426.133ZM203.729 426H201.698V415.635H203.729V426ZM207.899 426H205.868V415.635H207.899V426ZM214.767 426L214.374 424.988H214.321C213.979 425.418 213.626 425.718 213.261 425.887C212.902 426.051 212.431 426.133 211.849 426.133C211.134 426.133 210.57 425.929 210.157 425.52C209.749 425.112 209.545 424.53 209.545 423.775C209.545 422.985 209.82 422.403 210.371 422.03C210.926 421.652 211.76 421.444 212.875 421.404L214.167 421.364V421.037C214.167 420.283 213.781 419.905 213.008 419.905C212.413 419.905 211.714 420.085 210.91 420.445L210.237 419.072C211.094 418.624 212.045 418.4 213.088 418.4C214.087 418.4 214.853 418.617 215.386 419.052C215.919 419.488 216.186 420.149 216.186 421.037V426H214.767ZM214.167 422.55L213.381 422.576C212.791 422.594 212.351 422.701 212.062 422.896C211.774 423.091 211.629 423.389 211.629 423.789C211.629 424.361 211.958 424.648 212.615 424.648C213.086 424.648 213.461 424.512 213.741 424.241C214.025 423.971 214.167 423.611 214.167 423.162V422.55ZM226.111 426L223.766 418.36H223.706C223.79 419.914 223.833 420.951 223.833 421.47V426H221.988V416.261H224.799L227.103 423.709H227.143L229.588 416.261H232.399V426H230.474V421.39C230.474 421.173 230.476 420.922 230.48 420.638C230.489 420.354 230.52 419.599 230.574 418.373H230.514L228.003 426H226.111ZM239.426 426L239.033 424.988H238.98C238.638 425.418 238.285 425.718 237.921 425.887C237.561 426.051 237.091 426.133 236.509 426.133C235.794 426.133 235.23 425.929 234.817 425.52C234.408 425.112 234.204 424.53 234.204 423.775C234.204 422.985 234.479 422.403 235.03 422.03C235.585 421.652 236.42 421.444 237.535 421.404L238.827 421.364V421.037C238.827 420.283 238.441 419.905 237.668 419.905C237.073 419.905 236.373 420.085 235.57 420.445L234.897 419.072C235.754 418.624 236.704 418.4 237.748 418.4C238.747 418.4 239.513 418.617 240.046 419.052C240.579 419.488 240.845 420.149 240.845 421.037V426H239.426ZM238.827 422.55L238.041 422.576C237.45 422.594 237.011 422.701 236.722 422.896C236.433 423.091 236.289 423.389 236.289 423.789C236.289 424.361 236.618 424.648 237.275 424.648C237.746 424.648 238.121 424.512 238.401 424.241C238.685 423.971 238.827 423.611 238.827 423.162V422.55ZM249.818 426H247.786V421.65C247.786 420.576 247.386 420.038 246.587 420.038C246.019 420.038 245.608 420.231 245.355 420.618C245.102 421.004 244.975 421.63 244.975 422.496V426H242.943V415.635H244.975V417.747C244.975 417.911 244.96 418.297 244.929 418.906L244.882 419.505H244.988C245.441 418.777 246.161 418.413 247.147 418.413C248.022 418.413 248.685 418.648 249.138 419.119C249.591 419.59 249.818 420.265 249.818 421.144V426ZM256.026 420.078H254.267V426H252.236V420.078H251.117V419.099L252.236 418.553V418.007C252.236 417.158 252.445 416.539 252.862 416.148C253.279 415.757 253.948 415.562 254.867 415.562C255.569 415.562 256.193 415.666 256.739 415.875L256.219 417.367C255.811 417.238 255.433 417.174 255.087 417.174C254.798 417.174 254.589 417.261 254.461 417.434C254.332 417.603 254.267 417.82 254.267 418.087V418.553H256.026V420.078ZM262.474 426L262.201 425.047H262.094C261.877 425.394 261.568 425.663 261.168 425.853C260.769 426.04 260.314 426.133 259.803 426.133C258.928 426.133 258.269 425.9 257.824 425.434C257.38 424.963 257.158 424.288 257.158 423.409V418.553H259.19V422.903C259.19 423.44 259.285 423.844 259.476 424.115C259.667 424.381 259.972 424.515 260.389 424.515C260.957 424.515 261.368 424.326 261.621 423.948C261.874 423.566 262.001 422.936 262.001 422.057V418.553H264.033V426H262.474ZM271.347 426H265.465V424.801L268.915 420.105H265.671V418.553H271.227V419.872L267.869 424.448H271.347V426Z" fill="#2578A8"/>
<defs>
<clipPath id="clip0_3326_4473">
<rect width="429.462" height="318.308" fill="white" transform="translate(0 52.6006)"/>
</clipPath>
</defs>
</svg>
