<svg width="571" height="325" viewBox="0 0 571 325" fill="none" xmlns="http://www.w3.org/2000/svg">
<line x1="526.236" y1="184.741" x2="45.4278" y2="184.741" stroke="black" stroke-width="0.845006"/>
<path d="M206.706 183.895V200.71" stroke="#110537" stroke-width="0.633755" stroke-linecap="round" stroke-linejoin="round"/>
<path d="M366.53 183.473V199.528" stroke="#110537" stroke-width="0.633755" stroke-linecap="round" stroke-linejoin="round"/>
<path d="M45.4536 186.606C46.6576 186.606 47.6337 185.63 47.6337 184.426C47.6337 183.222 46.6576 182.246 45.4536 182.246C44.2495 182.246 43.2734 183.222 43.2734 184.426C43.2734 185.63 44.2495 186.606 45.4536 186.606Z" fill="white" stroke="#110537" stroke-width="0.633755" stroke-linecap="round" stroke-linejoin="round"/>
<path d="M206.706 186.607C207.91 186.607 208.886 185.631 208.886 184.427C208.886 183.223 207.91 182.247 206.706 182.247C205.502 182.247 204.526 183.223 204.526 184.427C204.526 185.631 205.502 186.607 206.706 186.607Z" fill="white" stroke="#110537" stroke-width="0.633755" stroke-linecap="round" stroke-linejoin="round"/>
<path d="M366.175 186.987C367.379 186.987 368.355 186.011 368.355 184.807C368.355 183.603 367.379 182.627 366.175 182.627C364.971 182.627 363.995 183.603 363.995 184.807C363.995 186.011 364.971 186.987 366.175 186.987Z" fill="white" stroke="#110537" stroke-width="0.633755" stroke-linecap="round" stroke-linejoin="round"/>
<path d="M67.3095 259.188C79.7008 246.797 79.7008 226.707 67.3095 214.315C54.9181 201.924 34.8278 201.924 22.4365 214.315C10.0452 226.707 10.0452 246.797 22.4365 259.188C34.8278 271.58 54.9181 271.58 67.3095 259.188Z" stroke="#110537" stroke-width="0.633755" stroke-linecap="round" stroke-linejoin="round"/>
<path d="M82.5403 236.751C82.5403 237.089 82.5403 237.419 82.5234 237.757" stroke="#110537" stroke-width="0.633755" stroke-linecap="round" stroke-linejoin="round"/>
<path d="M82.4222 239.793C80.8759 259.178 64.6518 274.422 44.8702 274.422C25.0886 274.422 8.30675 258.645 7.25049 238.779" stroke="#110537" stroke-width="0.633755" stroke-linecap="round" stroke-linejoin="round"/>
<path d="M7.21661 237.757C7.20816 237.419 7.19971 237.089 7.19971 236.751" stroke="#110537" stroke-width="0.633755" stroke-linecap="round" stroke-linejoin="round"/>
<path d="M7.19971 236.751C7.19971 215.947 24.066 199.081 44.8701 199.081C65.6741 199.081 82.5405 215.947 82.5405 236.751" stroke="#2578A8" stroke-width="4.02223" stroke-linejoin="round"/>
<path d="M48.7487 277.023H41L44.8701 281.722L48.7487 277.023Z" fill="#2578A8"/>
<path d="M395.929 244.142C400.02 227.102 389.522 209.972 372.483 205.881C355.443 201.79 338.313 212.288 334.222 229.327C330.131 246.367 340.628 263.497 357.668 267.588C374.708 271.679 391.838 261.182 395.929 244.142Z" stroke="#110537" stroke-width="0.633755" stroke-linecap="round" stroke-linejoin="round"/>
<path d="M402.763 236.752C402.763 237.09 402.763 237.42 402.747 237.758" stroke="#110537" stroke-width="0.633755" stroke-linecap="round" stroke-linejoin="round"/>
<path d="M402.644 239.794C401.098 259.179 384.874 274.423 365.092 274.423C345.311 274.423 328.529 258.646 327.473 238.78" stroke="#110537" stroke-width="0.633755" stroke-linecap="round" stroke-linejoin="round"/>
<path d="M327.439 237.758C327.431 237.42 327.422 237.09 327.422 236.752" stroke="#110537" stroke-width="0.633755" stroke-linecap="round" stroke-linejoin="round"/>
<path d="M327.422 236.752C327.422 215.948 344.289 199.082 365.093 199.082C385.897 199.082 402.763 215.948 402.763 236.752" stroke="#2578A8" stroke-width="4.02223" stroke-linejoin="round"/>
<path d="M368.971 277.023H361.223L365.093 281.722L368.971 277.023Z" fill="#2578A8"/>
<path d="M227.456 259.187C239.847 246.796 239.847 226.706 227.456 214.314C215.065 201.923 194.974 201.923 182.583 214.314C170.192 226.706 170.192 246.796 182.583 259.187C194.974 271.579 215.065 271.579 227.456 259.187Z" stroke="#110537" stroke-width="0.633755" stroke-linecap="round" stroke-linejoin="round"/>
<path d="M242.686 236.751C242.686 237.089 242.686 237.419 242.669 237.757" stroke="#110537" stroke-width="0.633755" stroke-linecap="round" stroke-linejoin="round"/>
<path d="M242.568 239.793C241.021 259.178 224.797 274.422 205.016 274.422C185.234 274.422 168.452 258.645 167.396 238.779" stroke="#110537" stroke-width="0.633755" stroke-linecap="round" stroke-linejoin="round"/>
<path d="M167.362 237.757C167.354 237.419 167.345 237.089 167.345 236.751" stroke="#110537" stroke-width="0.633755" stroke-linecap="round" stroke-linejoin="round"/>
<path d="M167.345 236.751C167.345 215.947 184.212 199.081 205.016 199.081C225.82 199.081 242.686 215.947 242.686 236.751" stroke="#2578A8" stroke-width="4.02223" stroke-linejoin="round"/>
<g clip-path="url(#clip0_3326_4610)">
<path d="M220.978 245.041V257.183H189.4V245.041C189.4 240.875 192.78 237.512 196.937 237.512H202.65L205.835 241.644L209.021 237.512H213.449C217.606 237.512 220.978 240.875 220.978 245.041Z" stroke="#110537" stroke-width="0.633755" stroke-linecap="round" stroke-linejoin="round"/>
<path d="M196.236 257.175V247.382" stroke="#110537" stroke-width="0.633755" stroke-linecap="round" stroke-linejoin="round"/>
<path d="M214.134 257.175V247.382" stroke="#110537" stroke-width="0.633755" stroke-linecap="round" stroke-linejoin="round"/>
<path d="M213.272 223.147V227.288C213.272 230.347 211.539 233.042 209.013 234.403C207.872 235.02 206.571 235.374 205.185 235.374C204.298 235.374 203.444 235.231 202.65 234.96C199.439 233.887 197.098 230.845 197.098 227.288V223.147C197.098 218.694 200.74 215.061 205.185 215.061C207.407 215.061 209.427 215.973 210.897 217.435C212.359 218.897 213.272 220.925 213.272 223.147Z" stroke="#110537" stroke-width="0.633755" stroke-linecap="round" stroke-linejoin="round"/>
<path d="M213.272 225.218L209.528 221.061C205.396 223.773 200.757 221.061 200.757 221.061L197.098 225.218" stroke="#110537" stroke-width="0.633755" stroke-linecap="round" stroke-linejoin="round"/>
<path d="M209.012 234.401V237.503L205.827 241.635L202.641 237.503V234.959C203.435 235.229 204.289 235.373 205.176 235.373C206.562 235.373 207.863 235.018 209.004 234.401H209.012Z" stroke="#110537" stroke-width="0.633755" stroke-linecap="round" stroke-linejoin="round"/>
</g>
<path d="M208.894 277.022H201.146L205.016 281.721L208.894 277.022Z" fill="#2578A8"/>
<g clip-path="url(#clip1_3326_4610)">
<path d="M60.4265 245.04V257.182H28.8486V245.04C28.8486 240.874 32.2287 237.511 36.3861 237.511H42.0983L45.284 241.643L48.4697 237.511H52.8975C57.0549 237.511 60.4265 240.874 60.4265 245.04Z" stroke="#110537" stroke-width="0.633755" stroke-linecap="round" stroke-linejoin="round"/>
<path d="M35.6851 257.174V247.381" stroke="#110537" stroke-width="0.633755" stroke-linecap="round" stroke-linejoin="round"/>
<path d="M53.5825 257.174V247.381" stroke="#110537" stroke-width="0.633755" stroke-linecap="round" stroke-linejoin="round"/>
<path d="M52.7203 223.146V227.287C52.7203 230.346 50.988 233.041 48.4615 234.402C47.3207 235.019 46.0194 235.374 44.6336 235.374C43.7463 235.374 42.8929 235.23 42.0986 234.959C38.8875 233.886 36.5469 230.844 36.5469 227.287V223.146C36.5469 218.693 40.1889 215.06 44.6336 215.06C46.856 215.06 48.8755 215.972 50.3458 217.434C51.8077 218.896 52.7203 220.924 52.7203 223.146Z" stroke="#110537" stroke-width="0.633755" stroke-linecap="round" stroke-linejoin="round"/>
<path d="M52.7203 225.217L48.9769 221.06C44.8448 223.772 40.2058 221.06 40.2058 221.06L36.5469 225.217" stroke="#110537" stroke-width="0.633755" stroke-linecap="round" stroke-linejoin="round"/>
<path d="M48.4617 234.4V237.502L45.276 241.634L42.0903 237.502V234.958C42.8846 235.228 43.7381 235.372 44.6254 235.372C46.0112 235.372 47.3125 235.017 48.4532 234.4H48.4617Z" stroke="#110537" stroke-width="0.633755" stroke-linecap="round" stroke-linejoin="round"/>
</g>
<g clip-path="url(#clip2_3326_4610)">
<path d="M381.27 244.464V256.606H349.692V244.464C349.692 240.298 353.072 236.935 357.23 236.935H362.942L366.128 241.067L369.313 236.935H373.741C377.899 236.935 381.27 240.298 381.27 244.464Z" stroke="#110537" stroke-width="0.633755" stroke-linecap="round" stroke-linejoin="round"/>
<path d="M356.529 256.597V246.804" stroke="#110537" stroke-width="0.633755" stroke-linecap="round" stroke-linejoin="round"/>
<path d="M374.426 256.597V246.804" stroke="#110537" stroke-width="0.633755" stroke-linecap="round" stroke-linejoin="round"/>
<path d="M373.564 222.569V226.71C373.564 229.769 371.832 232.464 369.305 233.825C368.164 234.441 366.863 234.796 365.477 234.796C364.59 234.796 363.737 234.653 362.942 234.382C359.731 233.309 357.391 230.267 357.391 226.71V222.569C357.391 218.116 361.033 214.482 365.477 214.482C367.7 214.482 369.719 215.395 371.19 216.857C372.651 218.319 373.564 220.347 373.564 222.569Z" stroke="#110537" stroke-width="0.633755" stroke-linecap="round" stroke-linejoin="round"/>
<path d="M373.564 224.64L369.821 220.482C365.689 223.195 361.05 220.482 361.05 220.482L357.391 224.64" stroke="#110537" stroke-width="0.633755" stroke-linecap="round" stroke-linejoin="round"/>
<path d="M369.305 233.824V236.925L366.119 241.057L362.934 236.925V234.382C363.728 234.652 364.581 234.796 365.469 234.796C366.854 234.796 368.156 234.441 369.296 233.824H369.305Z" stroke="#110537" stroke-width="0.633755" stroke-linecap="round" stroke-linejoin="round"/>
</g>
<path d="M1.95407 291.608H4.9578C6.32654 291.608 7.31898 291.804 7.93513 292.196C8.55568 292.583 8.86596 293.201 8.86596 294.051C8.86596 294.627 8.72952 295.1 8.45666 295.47C8.18819 295.84 7.8295 296.062 7.38059 296.137V296.203C7.99234 296.339 8.43245 296.595 8.70092 296.969C8.97378 297.343 9.11022 297.84 9.11022 298.461C9.11022 299.341 8.79114 300.027 8.15298 300.52C7.51923 301.013 6.65662 301.26 5.56515 301.26H1.95407V291.608ZM4.00057 295.431H5.18886C5.74339 295.431 6.14389 295.345 6.39035 295.173C6.64121 295.001 6.76664 294.718 6.76664 294.321C6.76664 293.952 6.63021 293.688 6.35734 293.529C6.08888 293.366 5.66197 293.285 5.07663 293.285H4.00057V295.431ZM4.00057 297.055V299.57H5.33409C5.89743 299.57 6.31333 299.462 6.5818 299.246C6.85026 299.031 6.9845 298.701 6.9845 298.256C6.9845 297.455 6.41236 297.055 5.26808 297.055H4.00057ZM14.9989 293.741C15.2717 293.741 15.4984 293.76 15.6788 293.8L15.527 295.688C15.3641 295.644 15.1661 295.622 14.9328 295.622C14.2903 295.622 13.7886 295.787 13.4277 296.117C13.0712 296.447 12.8929 296.909 12.8929 297.503V301.26H10.8794V293.879H12.4044L12.7015 295.12H12.8005C13.0294 294.707 13.3374 294.374 13.7247 294.123C14.1164 293.868 14.5411 293.741 14.9989 293.741ZM22.2474 301.26L21.9768 300.316H21.8711C21.6555 300.659 21.3496 300.925 20.9535 301.115C20.5574 301.299 20.1063 301.392 19.6002 301.392C18.7332 301.392 18.0796 301.161 17.6395 300.699C17.1994 300.232 16.9793 299.563 16.9793 298.692V293.879H18.9928V298.19C18.9928 298.723 19.0874 299.123 19.2767 299.392C19.4659 299.656 19.7674 299.788 20.1811 299.788C20.7445 299.788 21.1516 299.601 21.4024 299.226C21.6533 298.848 21.7787 298.223 21.7787 297.352V293.879H23.7922V301.26H22.2474ZM32.7176 301.26H30.7041V296.949C30.7041 296.416 30.6095 296.018 30.4202 295.754C30.231 295.486 29.9295 295.351 29.5158 295.351C28.9525 295.351 28.5454 295.541 28.2945 295.919C28.0436 296.293 27.9182 296.916 27.9182 297.787V301.26H25.9047V293.879H27.4429L27.7136 294.823H27.8258C28.0502 294.467 28.3583 294.198 28.75 294.018C29.1461 293.833 29.595 293.741 30.0967 293.741C30.9549 293.741 31.6063 293.974 32.0508 294.44C32.4953 294.902 32.7176 295.571 32.7176 296.447V301.26ZM36.3947 297.556C36.3947 298.287 36.5135 298.839 36.7512 299.213C36.9932 299.587 37.3849 299.774 37.9262 299.774C38.4632 299.774 38.8483 299.59 39.0815 299.22C39.3192 298.846 39.438 298.291 39.438 297.556C39.438 296.826 39.3192 296.278 39.0815 295.912C38.8439 295.547 38.4544 295.365 37.913 295.365C37.3761 295.365 36.9888 295.547 36.7512 295.912C36.5135 296.273 36.3947 296.821 36.3947 297.556ZM41.4977 297.556C41.4977 298.758 41.1808 299.697 40.5471 300.375C39.9133 301.053 39.0309 301.392 37.8998 301.392C37.1913 301.392 36.5663 301.238 36.025 300.93C35.4837 300.617 35.0678 300.17 34.7773 299.59C34.4868 299.009 34.3416 298.331 34.3416 297.556C34.3416 296.35 34.6563 295.413 35.2856 294.744C35.915 294.075 36.7996 293.741 37.9395 293.741C38.648 293.741 39.273 293.895 39.8143 294.203C40.3556 294.511 40.7715 294.953 41.062 295.53C41.3525 296.106 41.4977 296.782 41.4977 297.556ZM46.8318 291.608H49.8356C51.2043 291.608 52.1967 291.804 52.8129 292.196C53.4334 292.583 53.7437 293.201 53.7437 294.051C53.7437 294.627 53.6073 295.1 53.3344 295.47C53.0659 295.84 52.7073 296.062 52.2583 296.137V296.203C52.8701 296.339 53.3102 296.595 53.5787 296.969C53.8515 297.343 53.988 297.84 53.988 298.461C53.988 299.341 53.6689 300.027 53.0307 300.52C52.397 301.013 51.5344 301.26 50.4429 301.26H46.8318V291.608ZM48.8783 295.431H50.0666C50.6211 295.431 51.0216 295.345 51.2681 295.173C51.519 295.001 51.6444 294.718 51.6444 294.321C51.6444 293.952 51.508 293.688 51.2351 293.529C50.9666 293.366 50.5397 293.285 49.9544 293.285H48.8783V295.431ZM48.8783 297.055V299.57H50.2118C50.7752 299.57 51.1911 299.462 51.4596 299.246C51.728 299.031 51.8623 298.701 51.8623 298.256C51.8623 297.455 51.2901 297.055 50.1458 297.055H48.8783ZM57.3614 297.556C57.3614 298.287 57.4802 298.839 57.7179 299.213C57.9599 299.587 58.3516 299.774 58.893 299.774C59.4299 299.774 59.815 299.59 60.0482 299.22C60.2859 298.846 60.4047 298.291 60.4047 297.556C60.4047 296.826 60.2859 296.278 60.0482 295.912C59.8106 295.547 59.4211 295.365 58.8798 295.365C58.3428 295.365 57.9555 295.547 57.7179 295.912C57.4802 296.273 57.3614 296.821 57.3614 297.556ZM62.4644 297.556C62.4644 298.758 62.1476 299.697 61.5138 300.375C60.8801 301.053 59.9976 301.392 58.8666 301.392C58.158 301.392 57.533 301.238 56.9917 300.93C56.4504 300.617 56.0345 300.17 55.744 299.59C55.4535 299.009 55.3083 298.331 55.3083 297.556C55.3083 296.35 55.623 295.413 56.2523 294.744C56.8817 294.075 57.7663 293.741 58.9062 293.741C59.6147 293.741 60.2397 293.895 60.781 294.203C61.3224 294.511 61.7383 294.953 62.0287 295.53C62.3192 296.106 62.4644 296.782 62.4644 297.556ZM68.2474 293.741C68.5203 293.741 68.747 293.76 68.9274 293.8L68.7756 295.688C68.6127 295.644 68.4147 295.622 68.1814 295.622C67.5389 295.622 67.0372 295.787 66.6763 296.117C66.3198 296.447 66.1415 296.909 66.1415 297.503V301.26H64.128V293.879H65.653L65.9501 295.12H66.0491C66.278 294.707 66.586 294.374 66.9733 294.123C67.365 293.868 67.7897 293.741 68.2474 293.741ZM76.6909 293.879V294.902L75.5356 295.199C75.7469 295.53 75.8525 295.899 75.8525 296.309C75.8525 297.101 75.5752 297.719 75.0207 298.164C74.4706 298.604 73.7048 298.824 72.7233 298.824L72.3602 298.804L72.0632 298.771C71.8563 298.929 71.7529 299.105 71.7529 299.299C71.7529 299.59 72.1226 299.735 72.862 299.735H74.1163C74.9261 299.735 75.5422 299.909 75.9647 300.256C76.3916 300.604 76.6051 301.115 76.6051 301.788C76.6051 302.651 76.2442 303.319 75.5224 303.795C74.805 304.27 73.773 304.508 72.4263 304.508C71.3964 304.508 70.6086 304.327 70.0629 303.966C69.5216 303.61 69.2509 303.108 69.2509 302.461C69.2509 302.017 69.3895 301.645 69.6668 301.346C69.9441 301.046 70.3512 300.833 70.8881 300.705C70.6812 300.617 70.5008 300.474 70.3468 300.276C70.1927 300.074 70.1157 299.86 70.1157 299.636C70.1157 299.354 70.1971 299.121 70.36 298.936C70.5228 298.747 70.7583 298.562 71.0663 298.381C70.679 298.214 70.371 297.946 70.1421 297.576C69.9177 297.206 69.8054 296.771 69.8054 296.269C69.8054 295.464 70.0673 294.841 70.591 294.401C71.1147 293.961 71.8629 293.741 72.8356 293.741C73.0424 293.741 73.2867 293.76 73.5683 293.8C73.8544 293.835 74.0371 293.862 74.1163 293.879H76.6909ZM70.9937 302.303C70.9937 302.58 71.1257 302.798 71.3898 302.956C71.6583 303.115 72.0324 303.194 72.5121 303.194C73.2339 303.194 73.7994 303.095 74.2087 302.897C74.618 302.699 74.8227 302.428 74.8227 302.085C74.8227 301.808 74.7016 301.616 74.4596 301.511C74.2175 301.405 73.8434 301.352 73.3373 301.352H72.2942C71.9245 301.352 71.6143 301.438 71.3634 301.61C71.1169 301.786 70.9937 302.017 70.9937 302.303ZM71.7265 296.295C71.7265 296.696 71.8167 297.013 71.9972 297.246C72.182 297.479 72.4615 297.596 72.8356 297.596C73.2141 297.596 73.4913 297.479 73.6674 297.246C73.8434 297.013 73.9314 296.696 73.9314 296.295C73.9314 295.406 73.5661 294.962 72.8356 294.962C72.0962 294.962 71.7265 295.406 71.7265 296.295ZM80.9688 295.173C80.5418 295.173 80.2074 295.31 79.9653 295.582C79.7232 295.851 79.5846 296.234 79.5494 296.731H82.3749C82.3661 296.234 82.2363 295.851 81.9854 295.582C81.7345 295.31 81.3957 295.173 80.9688 295.173ZM81.2526 301.392C80.0643 301.392 79.1357 301.064 78.4667 300.408C77.7978 299.752 77.4633 298.824 77.4633 297.622C77.4633 296.386 77.7714 295.431 78.3875 294.757C79.0081 294.079 79.8641 293.741 80.9555 293.741C81.9986 293.741 82.8106 294.038 83.3915 294.632C83.9725 295.226 84.263 296.047 84.263 297.094V298.071H79.5032C79.5252 298.643 79.6946 299.09 80.0115 299.411C80.3284 299.733 80.7729 299.893 81.345 299.893C81.7896 299.893 82.2099 299.847 82.606 299.755C83.002 299.662 83.4158 299.515 83.8471 299.312V300.87C83.495 301.046 83.1187 301.176 82.7182 301.26C82.3177 301.348 81.8292 301.392 81.2526 301.392ZM91.0494 299.068C91.0494 299.825 90.7853 300.402 90.2572 300.798C89.7335 301.194 88.9479 301.392 87.9004 301.392C87.3635 301.392 86.9058 301.354 86.5273 301.28C86.1488 301.209 85.7945 301.104 85.4644 300.963V299.299C85.8385 299.475 86.2588 299.623 86.7254 299.741C87.1963 299.86 87.61 299.92 87.9665 299.92C88.697 299.92 89.0623 299.708 89.0623 299.286C89.0623 299.127 89.0139 299 88.9171 298.903C88.8203 298.802 88.653 298.69 88.4154 298.566C88.1777 298.439 87.8608 298.291 87.4647 298.124C86.897 297.886 86.4789 297.666 86.2104 297.464C85.9464 297.261 85.7527 297.03 85.6295 296.771C85.5107 296.507 85.4512 296.183 85.4512 295.8C85.4512 295.144 85.7043 294.638 86.2104 294.282C86.721 293.921 87.4427 293.741 88.3758 293.741C89.2648 293.741 90.1296 293.934 90.9702 294.321L90.3628 295.774C89.9932 295.615 89.6477 295.486 89.3264 295.384C89.0051 295.283 88.6772 295.232 88.3427 295.232C87.7486 295.232 87.4515 295.393 87.4515 295.714C87.4515 295.895 87.5462 296.051 87.7354 296.183C87.929 296.315 88.3494 296.511 88.9963 296.771C89.5728 297.004 89.9954 297.222 90.2638 297.424C90.5323 297.627 90.7303 297.86 90.858 298.124C90.9856 298.388 91.0494 298.703 91.0494 299.068ZM12.1668 321.392C11.2997 321.392 10.6176 321.055 10.1203 320.382C9.62734 319.708 9.38088 318.775 9.38088 317.583C9.38088 316.372 9.63174 315.431 10.1335 314.757C10.6396 314.079 11.335 313.741 12.2196 313.741C13.1482 313.741 13.8568 314.101 14.3453 314.823H14.4113C14.3101 314.273 14.2595 313.782 14.2595 313.351V310.988H16.2796V321.26H14.7348L14.3453 320.303H14.2595C13.8018 321.029 13.1042 321.392 12.1668 321.392ZM12.8731 319.788C13.3881 319.788 13.7644 319.638 14.002 319.339C14.2441 319.039 14.3761 318.531 14.3981 317.814V317.596C14.3981 316.804 14.2749 316.236 14.0284 315.893C13.7864 315.549 13.3903 315.378 12.8401 315.378C12.3912 315.378 12.0413 315.569 11.7905 315.952C11.544 316.331 11.4208 316.883 11.4208 317.609C11.4208 318.335 11.5462 318.881 11.7971 319.246C12.0479 319.607 12.4066 319.788 12.8731 319.788ZM23.0726 321.26L22.6831 320.256H22.6303C22.2914 320.683 21.9415 320.98 21.5807 321.148C21.2242 321.31 20.7577 321.392 20.1811 321.392C19.4725 321.392 18.9136 321.189 18.5043 320.784C18.0994 320.38 17.897 319.803 17.897 319.055C17.897 318.271 18.1698 317.695 18.7156 317.325C19.2657 316.951 20.0931 316.744 21.1978 316.705L22.4785 316.665V316.342C22.4785 315.593 22.0956 315.219 21.3298 315.219C20.7401 315.219 20.0469 315.398 19.2503 315.754L18.5835 314.394C19.4329 313.95 20.3748 313.727 21.409 313.727C22.3993 313.727 23.1584 313.943 23.6866 314.374C24.2147 314.806 24.4788 315.461 24.4788 316.342V321.26H23.0726ZM22.4785 317.84L21.6995 317.867C21.1141 317.884 20.6784 317.99 20.3924 318.183C20.1063 318.377 19.9633 318.672 19.9633 319.068C19.9633 319.636 20.2889 319.92 20.9403 319.92C21.4068 319.92 21.7787 319.785 22.056 319.517C22.3376 319.248 22.4785 318.892 22.4785 318.447V317.84ZM32.2423 321.26H30.2288V311.608H35.7609V313.285H32.2423V315.774H35.5167V317.444H32.2423V321.26ZM39.0947 317.556C39.0947 318.287 39.2136 318.839 39.4512 319.213C39.6933 319.587 40.085 319.774 40.6263 319.774C41.1632 319.774 41.5483 319.59 41.7816 319.22C42.0192 318.846 42.1381 318.291 42.1381 317.556C42.1381 316.826 42.0192 316.278 41.7816 315.912C41.5439 315.547 41.1544 315.365 40.6131 315.365C40.0762 315.365 39.6889 315.547 39.4512 315.912C39.2136 316.273 39.0947 316.821 39.0947 317.556ZM44.1978 317.556C44.1978 318.758 43.8809 319.697 43.2471 320.375C42.6134 321.053 41.731 321.392 40.5999 321.392C39.8913 321.392 39.2664 321.238 38.725 320.93C38.1837 320.617 37.7678 320.17 37.4773 319.59C37.1869 319.009 37.0416 318.331 37.0416 317.556C37.0416 316.35 37.3563 315.413 37.9857 314.744C38.615 314.075 39.4996 313.741 40.6395 313.741C41.3481 313.741 41.973 313.895 42.5144 314.203C43.0557 314.511 43.4716 314.953 43.7621 315.53C44.0525 316.106 44.1978 316.782 44.1978 317.556ZM52.6742 321.26H50.6608V316.949C50.6608 316.416 50.5661 316.018 50.3769 315.754C50.1876 315.486 49.8862 315.351 49.4725 315.351C48.9091 315.351 48.502 315.541 48.2512 315.919C48.0003 316.293 47.8749 316.916 47.8749 317.787V321.26H45.8614V313.879H47.3996L47.6702 314.823H47.7825C48.0069 314.467 48.315 314.198 48.7067 314.018C49.1028 313.833 49.5517 313.741 50.0534 313.741C50.9116 313.741 51.563 313.974 52.0075 314.44C52.452 314.902 52.6742 315.571 52.6742 316.447V321.26ZM59.8964 319.068C59.8964 319.825 59.6323 320.402 59.1042 320.798C58.5805 321.194 57.7949 321.392 56.7474 321.392C56.2105 321.392 55.7528 321.354 55.3743 321.28C54.9958 321.209 54.6415 321.104 54.3114 320.963V319.299C54.6855 319.475 55.1058 319.623 55.5724 319.741C56.0433 319.86 56.457 319.92 56.8135 319.92C57.544 319.92 57.9093 319.708 57.9093 319.286C57.9093 319.127 57.8609 319 57.7641 318.903C57.6673 318.802 57.5 318.69 57.2624 318.566C57.0247 318.439 56.7078 318.291 56.3117 318.124C55.744 317.886 55.3259 317.666 55.0574 317.464C54.7934 317.261 54.5997 317.03 54.4765 316.771C54.3577 316.507 54.2982 316.183 54.2982 315.8C54.2982 315.144 54.5513 314.638 55.0574 314.282C55.568 313.921 56.2897 313.741 57.2228 313.741C58.1118 313.741 58.9766 313.934 59.8172 314.321L59.2098 315.774C58.8402 315.615 58.4947 315.486 58.1734 315.384C57.8521 315.283 57.5242 315.232 57.1897 315.232C56.5956 315.232 56.2985 315.393 56.2985 315.714C56.2985 315.895 56.3932 316.051 56.5824 316.183C56.776 316.315 57.1964 316.511 57.8433 316.771C58.4198 317.004 58.8424 317.222 59.1108 317.424C59.3793 317.627 59.5773 317.86 59.705 318.124C59.8326 318.388 59.8964 318.703 59.8964 319.068ZM64.5241 315.173C64.0972 315.173 63.7628 315.31 63.5207 315.582C63.2786 315.851 63.14 316.234 63.1048 316.731H65.9303C65.9215 316.234 65.7916 315.851 65.5408 315.582C65.2899 315.31 64.951 315.173 64.5241 315.173ZM64.808 321.392C63.6197 321.392 62.6911 321.064 62.0221 320.408C61.3532 319.752 61.0187 318.824 61.0187 317.622C61.0187 316.386 61.3268 315.431 61.9429 314.757C62.5635 314.079 63.4195 313.741 64.5109 313.741C65.554 313.741 66.366 314.038 66.9469 314.632C67.5279 315.226 67.8183 316.047 67.8183 317.094V318.071H63.0586C63.0806 318.643 63.25 319.09 63.5669 319.411C63.8838 319.733 64.3283 319.893 64.9004 319.893C65.3449 319.893 65.7652 319.847 66.1613 319.755C66.5574 319.662 66.9711 319.515 67.4024 319.312V320.87C67.0504 321.046 66.6741 321.176 66.2736 321.26C65.8731 321.348 65.3845 321.392 64.808 321.392ZM72.4527 321.392C70.1553 321.392 69.0066 320.131 69.0066 317.609C69.0066 316.355 69.3191 315.398 69.9441 314.737C70.569 314.073 71.4646 313.741 72.6309 313.741C73.4847 313.741 74.2505 313.908 74.9283 314.242L74.3341 315.8C74.0173 315.673 73.7224 315.569 73.4495 315.49C73.1767 315.406 72.9038 315.365 72.6309 315.365C71.5835 315.365 71.0597 316.108 71.0597 317.596C71.0597 319.039 71.5835 319.761 72.6309 319.761C73.0182 319.761 73.3769 319.711 73.707 319.609C74.0371 319.504 74.3671 319.341 74.6972 319.121V320.844C74.3715 321.051 74.0415 321.194 73.707 321.273C73.3769 321.352 72.9588 321.392 72.4527 321.392ZM81.1008 321.26L80.7113 320.256H80.6585C80.3196 320.683 79.9697 320.98 79.6088 321.148C79.2523 321.31 78.7858 321.392 78.2093 321.392C77.5007 321.392 76.9418 321.189 76.5325 320.784C76.1276 320.38 75.9251 319.803 75.9251 319.055C75.9251 318.271 76.198 317.695 76.7437 317.325C77.2938 316.951 78.1213 316.744 79.2259 316.705L80.5066 316.665V316.342C80.5066 315.593 80.1237 315.219 79.358 315.219C78.7682 315.219 78.075 315.398 77.2784 315.754L76.6117 314.394C77.4611 313.95 78.4029 313.727 79.4372 313.727C80.4274 313.727 81.1866 313.943 81.7147 314.374C82.2429 314.806 82.5069 315.461 82.5069 316.342V321.26H81.1008ZM80.5066 317.84L79.7276 317.867C79.1423 317.884 78.7066 317.99 78.4205 318.183C78.1345 318.377 77.9914 318.672 77.9914 319.068C77.9914 319.636 78.3171 319.92 78.9685 319.92C79.435 319.92 79.8069 319.785 80.0841 319.517C80.3658 319.248 80.5066 318.892 80.5066 318.447V317.84Z" fill="#2578A8"/>
<path d="M187.46 304.098C186.998 304.098 186.595 304.05 186.252 303.953V302.25C186.604 302.338 186.925 302.382 187.216 302.382C187.665 302.382 187.986 302.241 188.18 301.96C188.373 301.682 188.47 301.247 188.47 300.652V291.608H190.517V300.639C190.517 301.766 190.259 302.624 189.744 303.214C189.229 303.804 188.468 304.098 187.46 304.098ZM194.392 297.556C194.392 298.287 194.511 298.839 194.748 299.213C194.99 299.587 195.382 299.774 195.923 299.774C196.46 299.774 196.845 299.59 197.079 299.22C197.316 298.846 197.435 298.291 197.435 297.556C197.435 296.826 197.316 296.278 197.079 295.912C196.841 295.547 196.452 295.365 195.91 295.365C195.373 295.365 194.986 295.547 194.748 295.912C194.511 296.273 194.392 296.821 194.392 297.556ZM199.495 297.556C199.495 298.758 199.178 299.697 198.544 300.375C197.911 301.053 197.028 301.392 195.897 301.392C195.188 301.392 194.564 301.238 194.022 300.93C193.481 300.617 193.065 300.17 192.774 299.59C192.484 299.009 192.339 298.331 192.339 297.556C192.339 296.35 192.653 295.413 193.283 294.744C193.912 294.075 194.797 293.741 195.937 293.741C196.645 293.741 197.27 293.895 197.811 294.203C198.353 294.511 198.769 294.953 199.059 295.53C199.35 296.106 199.495 296.782 199.495 297.556ZM205.278 293.741C205.551 293.741 205.777 293.76 205.958 293.8L205.806 295.688C205.643 295.644 205.445 295.622 205.212 295.622C204.569 295.622 204.068 295.787 203.707 296.117C203.35 296.447 203.172 296.909 203.172 297.503V301.26H201.159V293.879H202.683L202.981 295.12H203.08C203.308 294.707 203.617 294.374 204.004 294.123C204.395 293.868 204.82 293.741 205.278 293.741ZM213.721 293.879V294.902L212.566 295.199C212.777 295.53 212.883 295.899 212.883 296.309C212.883 297.101 212.606 297.719 212.051 298.164C211.501 298.604 210.735 298.824 209.754 298.824L209.391 298.804L209.094 298.771C208.887 298.929 208.783 299.105 208.783 299.299C208.783 299.59 209.153 299.735 209.892 299.735H211.147C211.957 299.735 212.573 299.909 212.995 300.256C213.422 300.604 213.636 301.115 213.636 301.788C213.636 302.651 213.275 303.319 212.553 303.795C211.836 304.27 210.803 304.508 209.457 304.508C208.427 304.508 207.639 304.327 207.093 303.966C206.552 303.61 206.281 303.108 206.281 302.461C206.281 302.017 206.42 301.645 206.697 301.346C206.975 301.046 207.382 300.833 207.919 300.705C207.712 300.617 207.531 300.474 207.377 300.276C207.223 300.074 207.146 299.86 207.146 299.636C207.146 299.354 207.228 299.121 207.39 298.936C207.553 298.747 207.789 298.562 208.097 298.381C207.71 298.214 207.401 297.946 207.173 297.576C206.948 297.206 206.836 296.771 206.836 296.269C206.836 295.464 207.098 294.841 207.621 294.401C208.145 293.961 208.893 293.741 209.866 293.741C210.073 293.741 210.317 293.76 210.599 293.8C210.885 293.835 211.068 293.862 211.147 293.879H213.721ZM208.024 302.303C208.024 302.58 208.156 302.798 208.42 302.956C208.689 303.115 209.063 303.194 209.543 303.194C210.264 303.194 210.83 303.095 211.239 302.897C211.648 302.699 211.853 302.428 211.853 302.085C211.853 301.808 211.732 301.616 211.49 301.511C211.248 301.405 210.874 301.352 210.368 301.352H209.325C208.955 301.352 208.645 301.438 208.394 301.61C208.147 301.786 208.024 302.017 208.024 302.303ZM208.757 296.295C208.757 296.696 208.847 297.013 209.028 297.246C209.212 297.479 209.492 297.596 209.866 297.596C210.245 297.596 210.522 297.479 210.698 297.246C210.874 297.013 210.962 296.696 210.962 296.295C210.962 295.406 210.597 294.962 209.866 294.962C209.127 294.962 208.757 295.406 208.757 296.295ZM217.999 295.173C217.572 295.173 217.238 295.31 216.996 295.582C216.754 295.851 216.615 296.234 216.58 296.731H219.405C219.397 296.234 219.267 295.851 219.016 295.582C218.765 295.31 218.426 295.173 217.999 295.173ZM218.283 301.392C217.095 301.392 216.166 301.064 215.497 300.408C214.828 299.752 214.494 298.824 214.494 297.622C214.494 296.386 214.802 295.431 215.418 294.757C216.039 294.079 216.895 293.741 217.986 293.741C219.029 293.741 219.841 294.038 220.422 294.632C221.003 295.226 221.293 296.047 221.293 297.094V298.071H216.534C216.556 298.643 216.725 299.09 217.042 299.411C217.359 299.733 217.803 299.893 218.376 299.893C218.82 299.893 219.24 299.847 219.636 299.755C220.033 299.662 220.446 299.515 220.878 299.312V300.87C220.525 301.046 220.149 301.176 219.749 301.26C219.348 301.348 218.86 301.392 218.283 301.392ZM168.976 311.608H171.979C173.348 311.608 174.341 311.804 174.957 312.196C175.577 312.583 175.888 313.201 175.888 314.051C175.888 314.627 175.751 315.1 175.478 315.47C175.21 315.84 174.851 316.062 174.402 316.137V316.203C175.014 316.339 175.454 316.595 175.723 316.969C175.995 317.343 176.132 317.84 176.132 318.461C176.132 319.341 175.813 320.027 175.175 320.52C174.541 321.013 173.678 321.26 172.587 321.26H168.976V311.608ZM171.022 315.431H172.21C172.765 315.431 173.165 315.345 173.412 315.173C173.663 315.001 173.788 314.718 173.788 314.321C173.788 313.952 173.652 313.688 173.379 313.529C173.11 313.366 172.684 313.285 172.098 313.285H171.022V315.431ZM171.022 317.055V319.57H172.356C172.919 319.57 173.335 319.462 173.603 319.246C173.872 319.031 174.006 318.701 174.006 318.256C174.006 317.455 173.434 317.055 172.29 317.055H171.022ZM177.815 311.971C177.815 311.316 178.181 310.988 178.911 310.988C179.642 310.988 180.007 311.316 180.007 311.971C180.007 312.284 179.915 312.528 179.73 312.704C179.549 312.876 179.276 312.962 178.911 312.962C178.181 312.962 177.815 312.631 177.815 311.971ZM179.915 321.26H177.901V313.879H179.915V321.26ZM185.143 319.788C185.495 319.788 185.918 319.711 186.411 319.557V321.055C185.909 321.28 185.293 321.392 184.562 321.392C183.757 321.392 183.169 321.189 182.799 320.784C182.434 320.375 182.251 319.763 182.251 318.949V315.391H181.288V314.539L182.397 313.866L182.978 312.308H184.265V313.879H186.331V315.391H184.265V318.949C184.265 319.235 184.344 319.447 184.503 319.583C184.665 319.719 184.879 319.788 185.143 319.788ZM193.138 321.26L192.867 320.316H192.761C192.546 320.659 192.24 320.925 191.844 321.115C191.448 321.299 190.996 321.392 190.49 321.392C189.623 321.392 188.97 321.161 188.53 320.699C188.09 320.232 187.869 319.563 187.869 318.692V313.879H189.883V318.19C189.883 318.723 189.978 319.123 190.167 319.392C190.356 319.656 190.658 319.788 191.071 319.788C191.635 319.788 192.042 319.601 192.293 319.226C192.543 318.848 192.669 318.223 192.669 317.352V313.879H194.682V321.26H193.138ZM203.608 321.26H201.594V316.949C201.594 316.416 201.5 316.018 201.31 315.754C201.121 315.486 200.82 315.351 200.406 315.351C199.843 315.351 199.435 315.541 199.185 315.919C198.934 316.293 198.808 316.916 198.808 317.787V321.26H196.795V313.879H198.333L198.604 314.823H198.716C198.94 314.467 199.248 314.198 199.64 314.018C200.036 313.833 200.485 313.741 200.987 313.741C201.845 313.741 202.496 313.974 202.941 314.44C203.385 314.902 203.608 315.571 203.608 316.447V321.26ZM217.913 321.26H215.312L211.114 313.958H211.054C211.138 315.248 211.18 316.168 211.18 316.718V321.26H209.351V311.608H211.932L216.124 318.837H216.171C216.105 317.583 216.072 316.696 216.072 316.177V311.608H217.913V321.26ZM223.248 315.173C222.821 315.173 222.486 315.31 222.244 315.582C222.002 315.851 221.863 316.234 221.828 316.731H224.654C224.645 316.234 224.515 315.851 224.264 315.582C224.013 315.31 223.674 315.173 223.248 315.173ZM223.531 321.392C222.343 321.392 221.414 321.064 220.745 320.408C220.077 319.752 219.742 318.824 219.742 317.622C219.742 316.386 220.05 315.431 220.666 314.757C221.287 314.079 222.143 313.741 223.234 313.741C224.277 313.741 225.089 314.038 225.67 314.632C226.251 315.226 226.542 316.047 226.542 317.094V318.071H221.782C221.804 318.643 221.973 319.09 222.29 319.411C222.607 319.733 223.052 319.893 223.624 319.893C224.068 319.893 224.489 319.847 224.885 319.755C225.281 319.662 225.694 319.515 226.126 319.312V320.87C225.774 321.046 225.397 321.176 224.997 321.26C224.596 321.348 224.108 321.392 223.531 321.392ZM231.288 319.788C231.64 319.788 232.063 319.711 232.556 319.557V321.055C232.054 321.28 231.438 321.392 230.707 321.392C229.902 321.392 229.314 321.189 228.945 320.784C228.579 320.375 228.397 319.763 228.397 318.949V315.391H227.433V314.539L228.542 313.866L229.123 312.308H230.41V313.879H232.477V315.391H230.41V318.949C230.41 319.235 230.489 319.447 230.648 319.583C230.811 319.719 231.024 319.788 231.288 319.788ZM235.659 317.556C235.659 318.287 235.777 318.839 236.015 319.213C236.257 319.587 236.649 319.774 237.19 319.774C237.727 319.774 238.112 319.59 238.345 319.22C238.583 318.846 238.702 318.291 238.702 317.556C238.702 316.826 238.583 316.278 238.345 315.912C238.108 315.547 237.718 315.365 237.177 315.365C236.64 315.365 236.253 315.547 236.015 315.912C235.777 316.273 235.659 316.821 235.659 317.556ZM240.762 317.556C240.762 318.758 240.445 319.697 239.811 320.375C239.177 321.053 238.295 321.392 237.164 321.392C236.455 321.392 235.83 321.238 235.289 320.93C234.748 320.617 234.332 320.17 234.041 319.59C233.751 319.009 233.605 318.331 233.605 317.556C233.605 316.35 233.92 315.413 234.549 314.744C235.179 314.075 236.063 313.741 237.203 313.741C237.912 313.741 238.537 313.895 239.078 314.203C239.619 314.511 240.035 314.953 240.326 315.53C240.616 316.106 240.762 316.782 240.762 317.556Z" fill="#2578A8"/>
<path d="M359.664 296.421C359.664 298.018 359.268 299.246 358.476 300.104C357.684 300.963 356.548 301.392 355.07 301.392C353.591 301.392 352.455 300.963 351.663 300.104C350.871 299.246 350.475 298.014 350.475 296.408C350.475 294.801 350.871 293.575 351.663 292.73C352.46 291.881 353.6 291.456 355.083 291.456C356.566 291.456 357.699 291.883 358.483 292.737C359.27 293.591 359.664 294.819 359.664 296.421ZM352.62 296.421C352.62 297.499 352.825 298.311 353.234 298.857C353.644 299.403 354.255 299.675 355.07 299.675C356.702 299.675 357.519 298.591 357.519 296.421C357.519 294.247 356.707 293.16 355.083 293.16C354.269 293.16 353.655 293.435 353.241 293.985C352.827 294.531 352.62 295.343 352.62 296.421ZM366.655 299.068C366.655 299.825 366.391 300.402 365.863 300.798C365.339 301.194 364.554 301.392 363.506 301.392C362.969 301.392 362.512 301.354 362.133 301.28C361.755 301.209 361.4 301.104 361.07 300.963V299.299C361.445 299.475 361.865 299.623 362.331 299.741C362.802 299.86 363.216 299.92 363.572 299.92C364.303 299.92 364.668 299.708 364.668 299.286C364.668 299.127 364.62 299 364.523 298.903C364.426 298.802 364.259 298.69 364.021 298.566C363.784 298.439 363.467 298.291 363.071 298.124C362.503 297.886 362.085 297.666 361.816 297.464C361.552 297.261 361.359 297.03 361.235 296.771C361.117 296.507 361.057 296.183 361.057 295.8C361.057 295.144 361.31 294.638 361.816 294.282C362.327 293.921 363.049 293.741 363.982 293.741C364.871 293.741 365.736 293.934 366.576 294.321L365.969 295.774C365.599 295.615 365.254 295.486 364.932 295.384C364.611 295.283 364.283 295.232 363.949 295.232C363.355 295.232 363.058 295.393 363.058 295.714C363.058 295.895 363.152 296.051 363.341 296.183C363.535 296.315 363.955 296.511 364.602 296.771C365.179 297.004 365.601 297.222 365.87 297.424C366.138 297.627 366.336 297.86 366.464 298.124C366.592 298.388 366.655 298.703 366.655 299.068ZM375.039 301.26H373.026V296.949C373.026 296.416 372.931 296.018 372.742 295.754C372.553 295.486 372.251 295.351 371.838 295.351C371.274 295.351 370.867 295.541 370.616 295.919C370.365 296.293 370.24 296.916 370.24 297.787V301.26H368.227V293.879H369.765L370.035 294.823H370.148C370.372 294.467 370.68 294.198 371.072 294.018C371.468 293.833 371.917 293.741 372.419 293.741C373.277 293.741 373.928 293.974 374.373 294.44C374.817 294.902 375.039 295.571 375.039 296.447V301.26ZM377.027 291.971C377.027 291.316 377.392 290.988 378.122 290.988C378.853 290.988 379.218 291.316 379.218 291.971C379.218 292.284 379.126 292.528 378.941 292.704C378.761 292.876 378.488 292.962 378.122 292.962C377.392 292.962 377.027 292.631 377.027 291.971ZM379.126 301.26H377.112V293.879H379.126V301.26ZM323.487 324.098C323.025 324.098 322.623 324.05 322.279 323.953V322.25C322.631 322.338 322.953 322.382 323.243 322.382C323.692 322.382 324.013 322.241 324.207 321.96C324.401 321.682 324.497 321.247 324.497 320.652V311.608H326.544V320.639C326.544 321.766 326.287 322.624 325.772 323.214C325.257 323.804 324.495 324.098 323.487 324.098ZM333.502 321.26L333.113 320.256H333.06C332.721 320.683 332.371 320.98 332.01 321.148C331.654 321.31 331.187 321.392 330.611 321.392C329.902 321.392 329.343 321.189 328.934 320.784C328.529 320.38 328.326 319.803 328.326 319.055C328.326 318.271 328.599 317.695 329.145 317.325C329.695 316.951 330.523 316.744 331.627 316.705L332.908 316.665V316.342C332.908 315.593 332.525 315.219 331.759 315.219C331.17 315.219 330.476 315.398 329.68 315.754L329.013 314.394C329.862 313.95 330.804 313.727 331.838 313.727C332.829 313.727 333.588 313.943 334.116 314.374C334.644 314.806 334.908 315.461 334.908 316.342V321.26H333.502ZM332.908 317.84L332.129 317.867C331.544 317.884 331.108 317.99 330.822 318.183C330.536 318.377 330.393 318.672 330.393 319.068C330.393 319.636 330.718 319.92 331.37 319.92C331.836 319.92 332.208 319.785 332.485 319.517C332.767 319.248 332.908 318.892 332.908 318.447V317.84ZM339.985 321.392C337.688 321.392 336.539 320.131 336.539 317.609C336.539 316.355 336.851 315.398 337.476 314.737C338.101 314.073 338.997 313.741 340.163 313.741C341.017 313.741 341.783 313.908 342.46 314.242L341.866 315.8C341.549 315.673 341.255 315.569 340.982 315.49C340.709 315.406 340.436 315.365 340.163 315.365C339.116 315.365 338.592 316.108 338.592 317.596C338.592 319.039 339.116 319.761 340.163 319.761C340.55 319.761 340.909 319.711 341.239 319.609C341.569 319.504 341.899 319.341 342.229 319.121V320.844C341.904 321.051 341.574 321.194 341.239 321.273C340.909 321.352 340.491 321.392 339.985 321.392ZM345.55 317.556C345.55 318.287 345.669 318.839 345.907 319.213C346.149 319.587 346.54 319.774 347.082 319.774C347.619 319.774 348.004 319.59 348.237 319.22C348.475 318.846 348.593 318.291 348.593 317.556C348.593 316.826 348.475 316.278 348.237 315.912C347.999 315.547 347.61 315.365 347.068 315.365C346.531 315.365 346.144 315.547 345.907 315.912C345.669 316.273 345.55 316.821 345.55 317.556ZM350.653 317.556C350.653 318.758 350.336 319.697 349.702 320.375C349.069 321.053 348.186 321.392 347.055 321.392C346.347 321.392 345.722 321.238 345.18 320.93C344.639 320.617 344.223 320.17 343.933 319.59C343.642 319.009 343.497 318.331 343.497 317.556C343.497 316.35 343.812 315.413 344.441 314.744C345.07 314.075 345.955 313.741 347.095 313.741C347.803 313.741 348.428 313.895 348.97 314.203C349.511 314.511 349.927 314.953 350.217 315.53C350.508 316.106 350.653 316.782 350.653 317.556ZM345.973 313.067V312.889C346.73 312.009 347.247 311.346 347.524 310.902H349.782V311.04C349.553 311.269 349.161 311.61 348.607 312.064C348.056 312.513 347.625 312.847 347.313 313.067H345.973ZM358.166 321.392C357.299 321.392 356.617 321.055 356.119 320.382C355.626 319.708 355.38 318.775 355.38 317.583C355.38 316.372 355.631 315.431 356.132 314.757C356.639 314.079 357.334 313.741 358.219 313.741C359.147 313.741 359.856 314.101 360.344 314.823H360.41C360.309 314.273 360.258 313.782 360.258 313.351V310.988H362.279V321.26H360.734L360.344 320.303H360.258C359.801 321.029 359.103 321.392 358.166 321.392ZM358.872 319.788C359.387 319.788 359.763 319.638 360.001 319.339C360.243 319.039 360.375 318.531 360.397 317.814V317.596C360.397 316.804 360.274 316.236 360.027 315.893C359.785 315.549 359.389 315.378 358.839 315.378C358.39 315.378 358.04 315.569 357.789 315.952C357.543 316.331 357.42 316.883 357.42 317.609C357.42 318.335 357.545 318.881 357.796 319.246C358.047 319.607 358.406 319.788 358.872 319.788ZM369.072 321.26L368.682 320.256H368.629C368.29 320.683 367.94 320.98 367.58 321.148C367.223 321.31 366.757 321.392 366.18 321.392C365.471 321.392 364.913 321.189 364.503 320.784C364.098 320.38 363.896 319.803 363.896 319.055C363.896 318.271 364.169 317.695 364.715 317.325C365.265 316.951 366.092 316.744 367.197 316.705L368.477 316.665V316.342C368.477 315.593 368.095 315.219 367.329 315.219C366.739 315.219 366.046 315.398 365.249 315.754L364.582 314.394C365.432 313.95 366.374 313.727 367.408 313.727C368.398 313.727 369.157 313.943 369.686 314.374C370.214 314.806 370.478 315.461 370.478 316.342V321.26H369.072ZM368.477 317.84L367.698 317.867C367.113 317.884 366.677 317.99 366.391 318.183C366.105 318.377 365.962 318.672 365.962 319.068C365.962 319.636 366.288 319.92 366.939 319.92C367.406 319.92 367.778 319.785 368.055 319.517C368.337 319.248 368.477 318.892 368.477 318.447V317.84ZM381.925 318.58C381.925 319.451 381.61 320.137 380.981 320.639C380.356 321.141 379.485 321.392 378.367 321.392C377.337 321.392 376.426 321.198 375.634 320.811V318.91C376.285 319.2 376.835 319.405 377.284 319.524C377.737 319.642 378.151 319.702 378.525 319.702C378.974 319.702 379.317 319.616 379.555 319.444C379.797 319.273 379.918 319.017 379.918 318.679C379.918 318.489 379.865 318.322 379.76 318.177C379.654 318.027 379.498 317.884 379.291 317.748C379.088 317.611 378.673 317.393 378.043 317.094C377.453 316.817 377.011 316.551 376.716 316.295C376.421 316.04 376.186 315.743 376.01 315.404C375.834 315.065 375.746 314.669 375.746 314.216C375.746 313.362 376.034 312.691 376.611 312.202C377.192 311.714 377.993 311.47 379.014 311.47C379.515 311.47 379.993 311.529 380.446 311.648C380.904 311.767 381.381 311.934 381.879 312.15L381.219 313.741C380.704 313.529 380.277 313.382 379.938 313.298C379.603 313.215 379.273 313.173 378.948 313.173C378.56 313.173 378.263 313.263 378.056 313.443C377.85 313.624 377.746 313.859 377.746 314.15C377.746 314.33 377.788 314.489 377.872 314.625C377.955 314.757 378.087 314.887 378.268 315.015C378.452 315.138 378.886 315.362 379.568 315.688C380.47 316.119 381.089 316.553 381.423 316.989C381.758 317.42 381.925 317.95 381.925 318.58ZM383.43 311.971C383.43 311.316 383.795 310.988 384.526 310.988C385.257 310.988 385.622 311.316 385.622 311.971C385.622 312.284 385.529 312.528 385.345 312.704C385.164 312.876 384.891 312.962 384.526 312.962C383.795 312.962 383.43 312.631 383.43 311.971ZM385.529 321.26H383.516V313.879H385.529V321.26ZM389.662 321.26H387.649V310.988H389.662V321.26ZM393.537 321.26L390.725 313.879H392.831L394.257 318.084C394.415 318.617 394.514 319.121 394.554 319.596H394.593C394.615 319.174 394.714 318.67 394.89 318.084L396.31 313.879H398.416L395.603 321.26H393.537ZM404.166 321.26L403.776 320.256H403.723C403.385 320.683 403.035 320.98 402.674 321.148C402.317 321.31 401.851 321.392 401.274 321.392C400.566 321.392 400.007 321.189 399.597 320.784C399.193 320.38 398.99 319.803 398.99 319.055C398.99 318.271 399.263 317.695 399.809 317.325C400.359 316.951 401.186 316.744 402.291 316.705L403.572 316.665V316.342C403.572 315.593 403.189 315.219 402.423 315.219C401.833 315.219 401.14 315.398 400.343 315.754L399.677 314.394C400.526 313.95 401.468 313.727 402.502 313.727C403.492 313.727 404.252 313.943 404.78 314.374C405.308 314.806 405.572 315.461 405.572 316.342V321.26H404.166ZM403.572 317.84L402.793 317.867C402.207 317.884 401.772 317.99 401.485 318.183C401.199 318.377 401.056 318.672 401.056 319.068C401.056 319.636 401.382 319.92 402.033 319.92C402.5 319.92 402.872 319.785 403.149 319.517C403.431 319.248 403.572 318.892 403.572 318.447V317.84Z" fill="#2578A8"/>
<path d="M282.029 133.195V184.318" stroke="#110537" stroke-width="0.633755" stroke-linecap="round" stroke-linejoin="round"/>
<path d="M281.675 142.202C282.879 142.202 283.855 141.226 283.855 140.022C283.855 138.818 282.879 137.842 281.675 137.842C280.471 137.842 279.495 138.818 279.495 140.022C279.495 141.226 280.471 142.202 281.675 142.202Z" fill="white" stroke="#110537" stroke-width="0.633755" stroke-linecap="round" stroke-linejoin="round"/>
<rect x="190.769" y="148.827" width="185.901" height="21.9702" rx="6.76005" fill="#2578A8"/>
<path d="M206.626 165.362L204.302 157.79H204.243C204.327 159.331 204.368 160.358 204.368 160.873V165.362H202.54V155.711H205.326L207.61 163.091H207.649L210.072 155.711H212.858V165.362H210.95V160.794C210.95 160.578 210.952 160.33 210.957 160.048C210.966 159.766 210.996 159.018 211.049 157.803H210.99L208.501 165.362H206.626ZM218.192 159.276C217.765 159.276 217.431 159.412 217.189 159.685C216.947 159.953 216.808 160.336 216.773 160.834H219.598C219.59 160.336 219.46 159.953 219.209 159.685C218.958 159.412 218.619 159.276 218.192 159.276ZM218.476 165.494C217.288 165.494 216.359 165.166 215.69 164.511C215.021 163.855 214.687 162.926 214.687 161.725C214.687 160.488 214.995 159.533 215.611 158.86C216.232 158.182 217.088 157.843 218.179 157.843C219.222 157.843 220.034 158.14 220.615 158.734C221.196 159.328 221.486 160.149 221.486 161.197V162.174H216.727C216.749 162.746 216.918 163.193 217.235 163.514C217.552 163.835 217.996 163.996 218.568 163.996C219.013 163.996 219.433 163.95 219.829 163.857C220.225 163.765 220.639 163.617 221.07 163.415V164.973C220.718 165.149 220.342 165.279 219.942 165.362C219.541 165.45 219.053 165.494 218.476 165.494ZM229.732 165.362H227.718V161.051C227.718 160.519 227.628 160.121 227.448 159.857C227.272 159.588 226.992 159.454 226.609 159.454C226.094 159.454 225.72 159.643 225.487 160.022C225.254 160.4 225.137 161.023 225.137 161.89V165.362H223.124V157.982H224.662L224.932 158.926H225.045C225.243 158.587 225.529 158.323 225.903 158.134C226.277 157.94 226.706 157.843 227.19 157.843C228.295 157.843 229.043 158.204 229.435 158.926H229.613C229.811 158.582 230.102 158.316 230.484 158.127C230.872 157.938 231.307 157.843 231.792 157.843C232.628 157.843 233.259 158.059 233.686 158.49C234.117 158.917 234.333 159.603 234.333 160.55V165.362H232.313V161.051C232.313 160.519 232.223 160.121 232.042 159.857C231.866 159.588 231.587 159.454 231.204 159.454C230.711 159.454 230.341 159.63 230.095 159.982C229.853 160.334 229.732 160.893 229.732 161.659V165.362ZM240.512 157.843C241.384 157.843 242.066 158.184 242.559 158.866C243.052 159.544 243.298 160.475 243.298 161.659C243.298 162.878 243.043 163.822 242.532 164.491C242.026 165.16 241.335 165.494 240.459 165.494C239.592 165.494 238.912 165.18 238.42 164.55H238.281L237.944 165.362H236.406V155.09H238.42V157.48C238.42 157.784 238.393 158.27 238.34 158.939H238.42C238.89 158.208 239.588 157.843 240.512 157.843ZM239.865 159.454C239.368 159.454 239.005 159.608 238.776 159.916C238.547 160.22 238.428 160.724 238.42 161.428V161.646C238.42 162.438 238.536 163.006 238.769 163.349C239.007 163.692 239.381 163.864 239.892 163.864C240.305 163.864 240.633 163.674 240.875 163.296C241.122 162.913 241.245 162.359 241.245 161.632C241.245 160.906 241.122 160.363 240.875 160.002C240.629 159.637 240.292 159.454 239.865 159.454ZM249.081 157.843C249.354 157.843 249.581 157.863 249.761 157.902L249.609 159.791C249.446 159.747 249.248 159.725 249.015 159.725C248.373 159.725 247.871 159.89 247.51 160.22C247.153 160.55 246.975 161.012 246.975 161.606V165.362H244.962V157.982H246.487L246.784 159.223H246.883C247.112 158.809 247.42 158.477 247.807 158.226C248.199 157.971 248.623 157.843 249.081 157.843ZM252.705 161.659C252.705 162.389 252.824 162.942 253.062 163.316C253.304 163.69 253.696 163.877 254.237 163.877C254.774 163.877 255.159 163.692 255.392 163.322C255.63 162.948 255.749 162.394 255.749 161.659C255.749 160.928 255.63 160.38 255.392 160.015C255.155 159.65 254.765 159.467 254.224 159.467C253.687 159.467 253.3 159.65 253.062 160.015C252.824 160.376 252.705 160.924 252.705 161.659ZM257.808 161.659C257.808 162.86 257.492 163.8 256.858 164.478C256.224 165.155 255.342 165.494 254.211 165.494C253.502 165.494 252.877 165.34 252.336 165.032C251.794 164.72 251.378 164.273 251.088 163.692C250.798 163.111 250.652 162.433 250.652 161.659C250.652 160.453 250.967 159.515 251.596 158.847C252.226 158.178 253.11 157.843 254.25 157.843C254.959 157.843 255.584 157.997 256.125 158.305C256.666 158.613 257.082 159.056 257.373 159.632C257.663 160.209 257.808 160.884 257.808 161.659ZM264.621 163.171C264.621 163.928 264.357 164.504 263.829 164.9C263.305 165.296 262.52 165.494 261.472 165.494C260.935 165.494 260.478 165.457 260.099 165.382C259.721 165.312 259.366 165.206 259.036 165.065V163.402C259.41 163.578 259.831 163.725 260.297 163.844C260.768 163.963 261.182 164.022 261.538 164.022C262.269 164.022 262.634 163.811 262.634 163.388C262.634 163.23 262.586 163.102 262.489 163.006C262.392 162.904 262.225 162.792 261.987 162.669C261.75 162.541 261.433 162.394 261.037 162.227C260.469 161.989 260.051 161.769 259.782 161.566C259.518 161.364 259.325 161.133 259.201 160.873C259.083 160.609 259.023 160.286 259.023 159.903C259.023 159.247 259.276 158.741 259.782 158.384C260.293 158.024 261.015 157.843 261.948 157.843C262.837 157.843 263.702 158.037 264.542 158.424L263.935 159.876C263.565 159.718 263.22 159.588 262.898 159.487C262.577 159.386 262.249 159.335 261.915 159.335C261.321 159.335 261.023 159.496 261.023 159.817C261.023 159.997 261.118 160.154 261.307 160.286C261.501 160.418 261.921 160.614 262.568 160.873C263.145 161.106 263.567 161.324 263.836 161.527C264.104 161.729 264.302 161.962 264.43 162.227C264.558 162.491 264.621 162.805 264.621 163.171ZM273.963 157.275C273.192 157.275 272.596 157.566 272.174 158.147C271.751 158.723 271.54 159.529 271.54 160.563C271.54 162.715 272.347 163.791 273.963 163.791C274.64 163.791 275.461 163.622 276.425 163.283V164.999C275.633 165.329 274.748 165.494 273.771 165.494C272.367 165.494 271.293 165.07 270.55 164.22C269.806 163.366 269.434 162.143 269.434 160.55C269.434 159.546 269.617 158.668 269.982 157.916C270.347 157.159 270.871 156.58 271.553 156.179C272.24 155.775 273.043 155.572 273.963 155.572C274.9 155.572 275.842 155.799 276.788 156.252L276.128 157.916C275.767 157.744 275.404 157.594 275.039 157.467C274.673 157.339 274.315 157.275 273.963 157.275ZM279.93 161.659C279.93 162.389 280.049 162.942 280.287 163.316C280.529 163.69 280.921 163.877 281.462 163.877C281.999 163.877 282.384 163.692 282.617 163.322C282.855 162.948 282.974 162.394 282.974 161.659C282.974 160.928 282.855 160.38 282.617 160.015C282.38 159.65 281.99 159.467 281.449 159.467C280.912 159.467 280.525 159.65 280.287 160.015C280.049 160.376 279.93 160.924 279.93 161.659ZM285.034 161.659C285.034 162.86 284.717 163.8 284.083 164.478C283.449 165.155 282.567 165.494 281.436 165.494C280.727 165.494 280.102 165.34 279.561 165.032C279.019 164.72 278.604 164.273 278.313 163.692C278.023 163.111 277.877 162.433 277.877 161.659C277.877 160.453 278.192 159.515 278.821 158.847C279.451 158.178 280.335 157.843 281.475 157.843C282.184 157.843 282.809 157.997 283.35 158.305C283.891 158.613 284.307 159.056 284.598 159.632C284.888 160.209 285.034 160.884 285.034 161.659ZM288.711 165.362H286.697V155.09H288.711V165.362ZM295.517 165.362L295.127 164.359H295.075C294.736 164.786 294.386 165.083 294.025 165.25C293.668 165.413 293.202 165.494 292.625 165.494C291.917 165.494 291.358 165.292 290.949 164.887C290.544 164.482 290.341 163.906 290.341 163.157C290.341 162.374 290.614 161.797 291.16 161.428C291.71 161.054 292.537 160.847 293.642 160.807L294.923 160.768V160.444C294.923 159.696 294.54 159.322 293.774 159.322C293.184 159.322 292.491 159.5 291.695 159.857L291.028 158.497C291.877 158.052 292.819 157.83 293.853 157.83C294.844 157.83 295.603 158.046 296.131 158.477C296.659 158.908 296.923 159.564 296.923 160.444V165.362H295.517ZM294.923 161.943L294.144 161.969C293.558 161.987 293.123 162.092 292.837 162.286C292.551 162.48 292.408 162.774 292.408 163.171C292.408 163.738 292.733 164.022 293.385 164.022C293.851 164.022 294.223 163.888 294.5 163.619C294.782 163.351 294.923 162.995 294.923 162.55V161.943ZM303.109 157.843C303.98 157.843 304.662 158.184 305.155 158.866C305.648 159.544 305.895 160.475 305.895 161.659C305.895 162.878 305.639 163.822 305.129 164.491C304.623 165.16 303.932 165.494 303.056 165.494C302.189 165.494 301.509 165.18 301.016 164.55H300.877L300.541 165.362H299.003V155.09H301.016V157.48C301.016 157.784 300.99 158.27 300.937 158.939H301.016C301.487 158.208 302.184 157.843 303.109 157.843ZM302.462 159.454C301.964 159.454 301.601 159.608 301.372 159.916C301.144 160.22 301.025 160.724 301.016 161.428V161.646C301.016 162.438 301.133 163.006 301.366 163.349C301.604 163.692 301.978 163.864 302.488 163.864C302.902 163.864 303.23 163.674 303.472 163.296C303.718 162.913 303.841 162.359 303.841 161.632C303.841 160.906 303.718 160.363 303.472 160.002C303.225 159.637 302.889 159.454 302.462 159.454ZM309.162 161.659C309.162 162.389 309.281 162.942 309.519 163.316C309.761 163.69 310.153 163.877 310.694 163.877C311.231 163.877 311.616 163.692 311.849 163.322C312.087 162.948 312.206 162.394 312.206 161.659C312.206 160.928 312.087 160.38 311.849 160.015C311.612 159.65 311.222 159.467 310.681 159.467C310.144 159.467 309.757 159.65 309.519 160.015C309.281 160.376 309.162 160.924 309.162 161.659ZM314.265 161.659C314.265 162.86 313.949 163.8 313.315 164.478C312.681 165.155 311.799 165.494 310.668 165.494C309.959 165.494 309.334 165.34 308.793 165.032C308.251 164.72 307.835 164.273 307.545 163.692C307.255 163.111 307.109 162.433 307.109 161.659C307.109 160.453 307.424 159.515 308.053 158.847C308.683 158.178 309.567 157.843 310.707 157.843C311.416 157.843 312.041 157.997 312.582 158.305C313.123 158.613 313.539 159.056 313.83 159.632C314.12 160.209 314.265 160.884 314.265 161.659ZM320.048 157.843C320.321 157.843 320.548 157.863 320.728 157.902L320.577 159.791C320.414 159.747 320.216 159.725 319.982 159.725C319.34 159.725 318.838 159.89 318.477 160.22C318.121 160.55 317.943 161.012 317.943 161.606V165.362H315.929V157.982H317.454L317.751 159.223H317.85C318.079 158.809 318.387 158.477 318.774 158.226C319.166 157.971 319.591 157.843 320.048 157.843ZM326.756 165.362L326.366 164.359H326.313C325.975 164.786 325.625 165.083 325.264 165.25C324.907 165.413 324.441 165.494 323.864 165.494C323.156 165.494 322.597 165.292 322.187 164.887C321.782 164.482 321.58 163.906 321.58 163.157C321.58 162.374 321.853 161.797 322.399 161.428C322.949 161.054 323.776 160.847 324.881 160.807L326.162 160.768V160.444C326.162 159.696 325.779 159.322 325.013 159.322C324.423 159.322 323.73 159.5 322.933 159.857L322.267 158.497C323.116 158.052 324.058 157.83 325.092 157.83C326.082 157.83 326.842 158.046 327.37 158.477C327.898 158.908 328.162 159.564 328.162 160.444V165.362H326.756ZM326.162 161.943L325.383 161.969C324.797 161.987 324.362 162.092 324.075 162.286C323.789 162.48 323.646 162.774 323.646 163.171C323.646 163.738 323.972 164.022 324.623 164.022C325.09 164.022 325.462 163.888 325.739 163.619C326.021 163.351 326.162 162.995 326.162 162.55V161.943ZM332.578 165.494C331.711 165.494 331.029 165.158 330.532 164.484C330.039 163.811 329.792 162.878 329.792 161.685C329.792 160.475 330.043 159.533 330.545 158.86C331.051 158.182 331.747 157.843 332.631 157.843C333.56 157.843 334.268 158.204 334.757 158.926H334.823C334.722 158.376 334.671 157.885 334.671 157.454V155.09H336.691V165.362H335.146L334.757 164.405H334.671C334.213 165.131 333.516 165.494 332.578 165.494ZM333.285 163.89C333.8 163.89 334.176 163.741 334.414 163.441C334.656 163.142 334.788 162.634 334.81 161.916V161.698C334.81 160.906 334.686 160.338 334.44 159.995C334.198 159.652 333.802 159.48 333.252 159.48C332.803 159.48 332.453 159.672 332.202 160.055C331.956 160.433 331.832 160.985 331.832 161.712C331.832 162.438 331.958 162.984 332.209 163.349C332.459 163.71 332.818 163.89 333.285 163.89ZM340.401 161.659C340.401 162.389 340.52 162.942 340.758 163.316C341 163.69 341.391 163.877 341.933 163.877C342.47 163.877 342.855 163.692 343.088 163.322C343.326 162.948 343.445 162.394 343.445 161.659C343.445 160.928 343.326 160.38 343.088 160.015C342.85 159.65 342.461 159.467 341.92 159.467C341.383 159.467 340.995 159.65 340.758 160.015C340.52 160.376 340.401 160.924 340.401 161.659ZM345.504 161.659C345.504 162.86 345.187 163.8 344.554 164.478C343.92 165.155 343.037 165.494 341.906 165.494C341.198 165.494 340.573 165.34 340.032 165.032C339.49 164.72 339.074 164.273 338.784 163.692C338.493 163.111 338.348 162.433 338.348 161.659C338.348 160.453 338.663 159.515 339.292 158.847C339.922 158.178 340.806 157.843 341.946 157.843C342.655 157.843 343.28 157.997 343.821 158.305C344.362 158.613 344.778 159.056 345.069 159.632C345.359 160.209 345.504 160.884 345.504 161.659ZM351.287 157.843C351.56 157.843 351.787 157.863 351.967 157.902L351.815 159.791C351.653 159.747 351.455 159.725 351.221 159.725C350.579 159.725 350.077 159.89 349.716 160.22C349.36 160.55 349.181 161.012 349.181 161.606V165.362H347.168V157.982H348.693L348.99 159.223H349.089C349.318 158.809 349.626 158.477 350.013 158.226C350.405 157.971 350.83 157.843 351.287 157.843ZM356.364 159.276C355.937 159.276 355.603 159.412 355.36 159.685C355.118 159.953 354.98 160.336 354.945 160.834H357.77C357.761 160.336 357.631 159.953 357.381 159.685C357.13 159.412 356.791 159.276 356.364 159.276ZM356.648 165.494C355.459 165.494 354.531 165.166 353.862 164.511C353.193 163.855 352.858 162.926 352.858 161.725C352.858 160.488 353.167 159.533 353.783 158.86C354.403 158.182 355.259 157.843 356.351 157.843C357.394 157.843 358.206 158.14 358.787 158.734C359.368 159.328 359.658 160.149 359.658 161.197V162.174H354.898C354.92 162.746 355.09 163.193 355.407 163.514C355.724 163.835 356.168 163.996 356.74 163.996C357.185 163.996 357.605 163.95 358.001 163.857C358.397 163.765 358.811 163.617 359.242 163.415V164.973C358.89 165.149 358.514 165.279 358.113 165.362C357.713 165.45 357.224 165.494 356.648 165.494ZM366.445 163.171C366.445 163.928 366.181 164.504 365.652 164.9C365.129 165.296 364.343 165.494 363.296 165.494C362.759 165.494 362.301 165.457 361.922 165.382C361.544 165.312 361.19 165.206 360.86 165.065V163.402C361.234 163.578 361.654 163.725 362.121 163.844C362.591 163.963 363.005 164.022 363.362 164.022C364.092 164.022 364.458 163.811 364.458 163.388C364.458 163.23 364.409 163.102 364.312 163.006C364.215 162.904 364.048 162.792 363.811 162.669C363.573 162.541 363.256 162.394 362.86 162.227C362.292 161.989 361.874 161.769 361.606 161.566C361.342 161.364 361.148 161.133 361.025 160.873C360.906 160.609 360.846 160.286 360.846 159.903C360.846 159.247 361.099 158.741 361.606 158.384C362.116 158.024 362.838 157.843 363.771 157.843C364.66 157.843 365.525 158.037 366.365 158.424L365.758 159.876C365.388 159.718 365.043 159.588 364.722 159.487C364.4 159.386 364.072 159.335 363.738 159.335C363.144 159.335 362.847 159.496 362.847 159.817C362.847 159.997 362.941 160.154 363.131 160.286C363.324 160.418 363.745 160.614 364.391 160.873C364.968 161.106 365.391 161.324 365.659 161.527C365.927 161.729 366.126 161.962 366.253 162.227C366.381 162.491 366.445 162.805 366.445 163.171Z" fill="white"/>
<path d="M526.237 182.627V198.682" stroke="#110537" stroke-width="0.633755" stroke-linecap="round" stroke-linejoin="round"/>
<path d="M525.881 186.142C527.085 186.142 528.061 185.166 528.061 183.962C528.061 182.758 527.085 181.782 525.881 181.782C524.677 181.782 523.701 182.758 523.701 183.962C523.701 185.166 524.677 186.142 525.881 186.142Z" fill="white" stroke="#110537" stroke-width="0.633755" stroke-linecap="round" stroke-linejoin="round"/>
<path d="M557.394 242.659C561.484 225.62 550.987 208.49 533.948 204.399C516.908 200.308 499.778 210.805 495.687 227.845C491.596 244.885 502.093 262.015 519.133 266.105C536.173 270.196 553.303 259.699 557.394 242.659Z" stroke="#110537" stroke-width="0.633755" stroke-linecap="round" stroke-linejoin="round"/>
<path d="M564.228 235.271C564.228 235.609 564.228 235.938 564.211 236.276" stroke="#110537" stroke-width="0.633755" stroke-linecap="round" stroke-linejoin="round"/>
<path d="M564.11 238.313C562.563 257.697 546.339 272.941 526.558 272.941C506.776 272.941 489.994 257.165 488.938 237.299" stroke="#110537" stroke-width="0.633755" stroke-linecap="round" stroke-linejoin="round"/>
<path d="M488.904 236.276C488.896 235.938 488.887 235.609 488.887 235.271" stroke="#110537" stroke-width="0.633755" stroke-linecap="round" stroke-linejoin="round"/>
<path d="M488.887 235.27C488.887 214.466 505.754 197.6 526.558 197.6C547.362 197.6 564.228 214.466 564.228 235.27" stroke="#2578A8" stroke-width="4.02223" stroke-linejoin="round"/>
<path d="M530.436 275.543H522.688L526.558 280.241L530.436 275.543Z" fill="#2578A8"/>
<path d="M544.303 244.379V256.521H512.716V244.379C512.716 240.889 515.091 237.957 518.31 237.103C518.927 236.934 519.586 236.85 520.254 236.85H525.966L529.152 240.99L532.329 236.85H536.757C537.433 236.85 538.075 236.934 538.692 237.103C541.911 237.957 544.286 240.889 544.286 244.379H544.303Z" stroke="#110537" stroke-width="0.633755" stroke-linecap="round" stroke-linejoin="round"/>
<path d="M519.561 256.523V246.729" stroke="#110537" stroke-width="0.633755" stroke-linecap="round" stroke-linejoin="round"/>
<path d="M537.458 256.523V246.729" stroke="#110537" stroke-width="0.633755" stroke-linecap="round" stroke-linejoin="round"/>
<path d="M536.596 223.896V226.634C536.596 229.693 534.872 232.388 532.337 233.749C531.197 234.365 529.895 234.72 528.51 234.72C527.622 234.72 526.769 234.577 525.966 234.298C522.755 233.233 520.423 230.183 520.423 226.634V223.845C522.907 223.321 526.329 218.817 526.329 218.817C526.329 218.817 530.597 223.896 536.588 223.896H536.596Z" stroke="#110537" stroke-width="0.633755" stroke-linecap="round" stroke-linejoin="round"/>
<path d="M532.338 233.749V236.85L529.16 240.991L525.975 236.85V234.307C526.777 234.586 527.631 234.729 528.518 234.729C529.904 234.729 531.205 234.374 532.346 233.757L532.338 233.749Z" stroke="#110537" stroke-width="0.633755" stroke-linecap="round" stroke-linejoin="round"/>
<path d="M520.423 223.854C520.296 223.88 520.169 223.905 520.042 223.905" stroke="#110537" stroke-width="0.633755" stroke-linecap="round" stroke-linejoin="round"/>
<path d="M537.112 223.888C536.935 223.888 536.774 223.905 536.596 223.905" stroke="#110537" stroke-width="0.633755" stroke-linecap="round" stroke-linejoin="round"/>
<path d="M538.709 223.465V237.104C538.092 236.935 537.442 236.85 536.774 236.85H532.346V233.749C534.881 232.389 536.605 229.702 536.605 226.634V223.896C530.606 223.896 526.347 218.818 526.347 218.818C526.347 218.818 522.924 223.33 520.44 223.846V226.634C520.44 230.183 522.772 233.234 525.983 234.298V236.842H520.271C519.595 236.842 518.944 236.926 518.328 237.095V223.457C518.328 217.821 522.891 213.258 528.527 213.258C531.341 213.258 533.893 214.399 535.743 216.241C537.585 218.091 538.726 220.643 538.726 223.457L538.709 223.465Z" stroke="#110537" stroke-width="0.633755" stroke-linecap="round" stroke-linejoin="round"/>
<path d="M518.31 237.112V237.104" stroke="#110537" stroke-width="0.633755" stroke-linecap="round" stroke-linejoin="round"/>
<path d="M513.485 301.26V291.608H515.532V299.57H519.447V301.26H513.485ZM525.659 301.26L525.269 300.256H525.216C524.877 300.683 524.528 300.98 524.167 301.148C523.81 301.31 523.344 301.392 522.767 301.392C522.059 301.392 521.5 301.189 521.09 300.784C520.685 300.38 520.483 299.803 520.483 299.055C520.483 298.271 520.756 297.695 521.302 297.325C521.852 296.951 522.679 296.744 523.784 296.705L525.064 296.665V296.342C525.064 295.593 524.682 295.219 523.916 295.219C523.326 295.219 522.633 295.398 521.836 295.754L521.17 294.394C522.019 293.95 522.961 293.727 523.995 293.727C524.985 293.727 525.744 293.943 526.273 294.374C526.801 294.806 527.065 295.461 527.065 296.342V301.26H525.659ZM525.064 297.84L524.286 297.867C523.7 297.884 523.264 297.99 522.978 298.183C522.692 298.377 522.549 298.672 522.549 299.068C522.549 299.636 522.875 299.92 523.526 299.92C523.993 299.92 524.365 299.785 524.642 299.517C524.924 299.248 525.064 298.892 525.064 298.447V297.84ZM533.264 293.741C533.537 293.741 533.763 293.76 533.944 293.8L533.792 295.688C533.629 295.644 533.431 295.622 533.198 295.622C532.555 295.622 532.053 295.787 531.693 296.117C531.336 296.447 531.158 296.909 531.158 297.503V301.26H529.144V293.879H530.669L530.966 295.12H531.065C531.294 294.707 531.602 294.374 531.99 294.123C532.381 293.868 532.806 293.741 533.264 293.741ZM539.971 301.26L539.581 300.256H539.529C539.19 300.683 538.84 300.98 538.479 301.148C538.122 301.31 537.656 301.392 537.079 301.392C536.371 301.392 535.812 301.189 535.403 300.784C534.998 300.38 534.795 299.803 534.795 299.055C534.795 298.271 535.068 297.695 535.614 297.325C536.164 296.951 536.991 296.744 538.096 296.705L539.377 296.665V296.342C539.377 295.593 538.994 295.219 538.228 295.219C537.638 295.219 536.945 295.398 536.149 295.754L535.482 294.394C536.331 293.95 537.273 293.727 538.307 293.727C539.298 293.727 540.057 293.943 540.585 294.374C541.113 294.806 541.377 295.461 541.377 296.342V301.26H539.971ZM539.377 297.84L538.598 297.867C538.012 297.884 537.577 297.99 537.291 298.183C537.005 298.377 536.862 298.672 536.862 299.068C536.862 299.636 537.187 299.92 537.839 299.92C538.305 299.92 538.677 299.785 538.954 299.517C539.236 299.248 539.377 298.892 539.377 298.447V297.84ZM494.011 316.342C494.011 317.93 493.557 319.147 492.651 319.992C491.748 320.837 490.443 321.26 488.736 321.26H486.003V311.608H489.033C490.608 311.608 491.832 312.024 492.703 312.856C493.575 313.688 494.011 314.85 494.011 316.342ZM491.885 316.394C491.885 314.321 490.969 313.285 489.139 313.285H488.049V319.57H488.927C490.899 319.57 491.885 318.511 491.885 316.394ZM501.081 321.26L500.81 320.316H500.705C500.489 320.659 500.183 320.925 499.787 321.115C499.391 321.299 498.94 321.392 498.434 321.392C497.567 321.392 496.913 321.161 496.473 320.699C496.033 320.232 495.813 319.563 495.813 318.692V313.879H497.826V318.19C497.826 318.723 497.921 319.123 498.11 319.392C498.299 319.656 498.601 319.788 499.015 319.788C499.578 319.788 499.985 319.601 500.236 319.226C500.487 318.848 500.612 318.223 500.612 317.352V313.879H502.626V321.26H501.081ZM509.425 321.26L509.036 320.256H508.983C508.644 320.683 508.294 320.98 507.933 321.148C507.577 321.31 507.11 321.392 506.534 321.392C505.825 321.392 505.266 321.189 504.857 320.784C504.452 320.38 504.25 319.803 504.25 319.055C504.25 318.271 504.522 317.695 505.068 317.325C505.618 316.951 506.446 316.744 507.55 316.705L508.831 316.665V316.342C508.831 315.593 508.448 315.219 507.682 315.219C507.093 315.219 506.4 315.398 505.603 315.754L504.936 314.394C505.786 313.95 506.727 313.727 507.762 313.727C508.752 313.727 509.511 313.943 510.039 314.374C510.567 314.806 510.831 315.461 510.831 316.342V321.26H509.425ZM508.831 317.84L508.052 317.867C507.467 317.884 507.031 317.99 506.745 318.183C506.459 318.377 506.316 318.672 506.316 319.068C506.316 319.636 506.642 319.92 507.293 319.92C507.759 319.92 508.131 319.785 508.409 319.517C508.69 319.248 508.831 318.892 508.831 318.447V317.84ZM517.03 313.741C517.303 313.741 517.53 313.76 517.71 313.8L517.558 315.688C517.396 315.644 517.198 315.622 516.964 315.622C516.322 315.622 515.82 315.787 515.459 316.117C515.103 316.447 514.924 316.909 514.924 317.503V321.26H512.911V313.879H514.436L514.733 315.12H514.832C515.061 314.707 515.369 314.374 515.756 314.123C516.148 313.868 516.573 313.741 517.03 313.741ZM522.16 319.788C522.512 319.788 522.934 319.711 523.427 319.557V321.055C522.926 321.28 522.309 321.392 521.579 321.392C520.773 321.392 520.186 321.189 519.816 320.784C519.451 320.375 519.268 319.763 519.268 318.949V315.391H518.304V314.539L519.414 313.866L519.994 312.308H521.282V313.879H523.348V315.391H521.282V318.949C521.282 319.235 521.361 319.447 521.519 319.583C521.682 319.719 521.896 319.788 522.16 319.788ZM527.982 315.173C527.556 315.173 527.221 315.31 526.979 315.582C526.737 315.851 526.598 316.234 526.563 316.731H529.389C529.38 316.234 529.25 315.851 528.999 315.582C528.748 315.31 528.409 315.173 527.982 315.173ZM528.266 321.392C527.078 321.392 526.149 321.064 525.48 320.408C524.811 319.752 524.477 318.824 524.477 317.622C524.477 316.386 524.785 315.431 525.401 314.757C526.022 314.079 526.878 313.741 527.969 313.741C529.012 313.741 529.824 314.038 530.405 314.632C530.986 315.226 531.277 316.047 531.277 317.094V318.071H526.517C526.539 318.643 526.708 319.09 527.025 319.411C527.342 319.733 527.787 319.893 528.359 319.893C528.803 319.893 529.224 319.847 529.62 319.755C530.016 319.662 530.429 319.515 530.861 319.312V320.87C530.509 321.046 530.132 321.176 529.732 321.26C529.331 321.348 528.843 321.392 528.266 321.392ZM542.281 318.58C542.281 319.451 541.967 320.137 541.337 320.639C540.713 321.141 539.841 321.392 538.723 321.392C537.693 321.392 536.782 321.198 535.99 320.811V318.91C536.642 319.2 537.192 319.405 537.641 319.524C538.094 319.642 538.508 319.702 538.882 319.702C539.331 319.702 539.674 319.616 539.912 319.444C540.154 319.273 540.275 319.017 540.275 318.679C540.275 318.489 540.222 318.322 540.116 318.177C540.011 318.027 539.854 317.884 539.647 317.748C539.445 317.611 539.029 317.393 538.4 317.094C537.81 316.817 537.368 316.551 537.073 316.295C536.778 316.04 536.542 315.743 536.366 315.404C536.19 315.065 536.102 314.669 536.102 314.216C536.102 313.362 536.391 312.691 536.967 312.202C537.548 311.714 538.349 311.47 539.37 311.47C539.872 311.47 540.349 311.529 540.803 311.648C541.26 311.767 541.738 311.934 542.235 312.15L541.575 313.741C541.06 313.529 540.633 313.382 540.294 313.298C539.96 313.215 539.63 313.173 539.304 313.173C538.917 313.173 538.62 313.263 538.413 313.443C538.206 313.624 538.103 313.859 538.103 314.15C538.103 314.33 538.144 314.489 538.228 314.625C538.312 314.757 538.444 314.887 538.624 315.015C538.809 315.138 539.243 315.362 539.925 315.688C540.827 316.119 541.445 316.553 541.78 316.989C542.114 317.42 542.281 317.95 542.281 318.58ZM548.56 321.26L548.17 320.256H548.117C547.778 320.683 547.429 320.98 547.068 321.148C546.711 321.31 546.245 321.392 545.668 321.392C544.96 321.392 544.401 321.189 543.991 320.784C543.586 320.38 543.384 319.803 543.384 319.055C543.384 318.271 543.657 317.695 544.203 317.325C544.753 316.951 545.58 316.744 546.685 316.705L547.965 316.665V316.342C547.965 315.593 547.583 315.219 546.817 315.219C546.227 315.219 545.534 315.398 544.737 315.754L544.071 314.394C544.92 313.95 545.862 313.727 546.896 313.727C547.886 313.727 548.645 313.943 549.174 314.374C549.702 314.806 549.966 315.461 549.966 316.342V321.26H548.56ZM547.965 317.84L547.186 317.867C546.601 317.884 546.165 317.99 545.879 318.183C545.593 318.377 545.45 318.672 545.45 319.068C545.45 319.636 545.776 319.92 546.427 319.92C546.894 319.92 547.266 319.785 547.543 319.517C547.825 319.248 547.965 318.892 547.965 318.447V317.84ZM558.858 321.26H556.845V316.949C556.845 316.416 556.75 316.018 556.561 315.754C556.372 315.486 556.07 315.351 555.656 315.351C555.093 315.351 554.686 315.541 554.435 315.919C554.184 316.293 554.059 316.916 554.059 317.787V321.26H552.045V313.879H553.583L553.854 314.823H553.966C554.191 314.467 554.499 314.198 554.891 314.018C555.287 313.833 555.736 313.741 556.237 313.741C557.096 313.741 557.747 313.974 558.191 314.44C558.636 314.902 558.858 315.571 558.858 316.447V321.26ZM564.04 319.788C564.392 319.788 564.815 319.711 565.308 319.557V321.055C564.806 321.28 564.19 321.392 563.459 321.392C562.654 321.392 562.067 321.189 561.697 320.784C561.332 320.375 561.149 319.763 561.149 318.949V315.391H560.185V314.539L561.294 313.866L561.875 312.308H563.162V313.879H565.229V315.391H563.162V318.949C563.162 319.235 563.242 319.447 563.4 319.583C563.563 319.719 563.776 319.788 564.04 319.788ZM566.721 311.971C566.721 311.316 567.086 310.988 567.817 310.988C568.547 310.988 568.912 311.316 568.912 311.971C568.912 312.284 568.82 312.528 568.635 312.704C568.455 312.876 568.182 312.962 567.817 312.962C567.086 312.962 566.721 312.631 566.721 311.971ZM568.82 321.26H566.806V313.879H568.82V321.26Z" fill="#2578A8"/>
<path d="M182.271 107.796H180.258V98.1443H185.79V99.8212H182.271V102.31H185.546V103.98H182.271V107.796ZM190.576 101.709C190.149 101.709 189.815 101.846 189.573 102.119C189.331 102.387 189.192 102.77 189.157 103.267H191.982C191.974 102.77 191.844 102.387 191.593 102.119C191.342 101.846 191.003 101.709 190.576 101.709ZM190.86 107.928C189.672 107.928 188.743 107.6 188.074 106.944C187.405 106.289 187.071 105.36 187.071 104.158C187.071 102.922 187.379 101.967 187.995 101.293C188.616 100.616 189.472 100.277 190.563 100.277C191.606 100.277 192.418 100.574 192.999 101.168C193.58 101.762 193.87 102.583 193.87 103.63V104.607H189.111C189.133 105.179 189.302 105.626 189.619 105.947C189.936 106.269 190.38 106.429 190.953 106.429C191.397 106.429 191.817 106.383 192.213 106.291C192.61 106.198 193.023 106.051 193.455 105.848V107.406C193.102 107.582 192.726 107.712 192.326 107.796C191.925 107.884 191.437 107.928 190.86 107.928ZM199.627 100.277C199.9 100.277 200.127 100.296 200.307 100.336L200.155 102.224C199.992 102.18 199.794 102.158 199.561 102.158C198.919 102.158 198.417 102.323 198.056 102.653C197.699 102.983 197.521 103.445 197.521 104.04V107.796H195.508V100.415H197.033L197.33 101.656H197.429C197.658 101.243 197.966 100.91 198.353 100.66C198.745 100.404 199.169 100.277 199.627 100.277ZM208.46 107.796H206.447V103.485C206.447 102.953 206.352 102.554 206.163 102.29C205.973 102.022 205.672 101.887 205.258 101.887C204.695 101.887 204.288 102.077 204.037 102.455C203.786 102.829 203.661 103.452 203.661 104.323V107.796H201.647V100.415H203.185L203.456 101.359H203.568C203.793 101.003 204.101 100.734 204.492 100.554C204.889 100.369 205.337 100.277 205.839 100.277C206.697 100.277 207.349 100.51 207.793 100.976C208.238 101.439 208.46 102.108 208.46 102.983V107.796ZM215.22 107.796L214.831 106.792H214.778C214.439 107.219 214.089 107.516 213.728 107.684C213.372 107.847 212.905 107.928 212.329 107.928C211.62 107.928 211.061 107.725 210.652 107.321C210.247 106.916 210.044 106.339 210.044 105.591C210.044 104.808 210.317 104.231 210.863 103.861C211.413 103.487 212.241 103.28 213.345 103.241L214.626 103.201V102.878C214.626 102.13 214.243 101.755 213.477 101.755C212.888 101.755 212.194 101.934 211.398 102.29L210.731 100.93C211.58 100.486 212.522 100.263 213.556 100.263C214.547 100.263 215.306 100.479 215.834 100.91C216.362 101.342 216.626 101.997 216.626 102.878V107.796H215.22ZM214.626 104.376L213.847 104.403C213.262 104.42 212.826 104.526 212.54 104.72C212.254 104.913 212.111 105.208 212.111 105.604C212.111 106.172 212.436 106.456 213.088 106.456C213.554 106.456 213.926 106.322 214.203 106.053C214.485 105.785 214.626 105.428 214.626 104.984V104.376ZM225.519 107.796H223.505V103.485C223.505 102.953 223.41 102.554 223.221 102.29C223.032 102.022 222.731 101.887 222.317 101.887C221.753 101.887 221.346 102.077 221.096 102.455C220.845 102.829 220.719 103.452 220.719 104.323V107.796H218.706V100.415H220.244L220.515 101.359H220.627C220.851 101.003 221.159 100.734 221.551 100.554C221.947 100.369 222.396 100.277 222.898 100.277C223.756 100.277 224.407 100.51 224.852 100.976C225.296 101.439 225.519 102.108 225.519 102.983V107.796ZM229.928 107.928C229.061 107.928 228.379 107.591 227.882 106.918C227.389 106.245 227.143 105.311 227.143 104.119C227.143 102.909 227.393 101.967 227.895 101.293C228.401 100.616 229.097 100.277 229.981 100.277C230.91 100.277 231.618 100.638 232.107 101.359H232.173C232.072 100.809 232.021 100.318 232.021 99.8872V97.5238H234.041V107.796H232.496L232.107 106.839H232.021C231.563 107.565 230.866 107.928 229.928 107.928ZM230.635 106.324C231.15 106.324 231.526 106.174 231.764 105.875C232.006 105.576 232.138 105.067 232.16 104.35V104.132C232.16 103.34 232.037 102.772 231.79 102.429C231.548 102.086 231.152 101.914 230.602 101.914C230.153 101.914 229.803 102.105 229.552 102.488C229.306 102.867 229.182 103.419 229.182 104.145C229.182 104.871 229.308 105.417 229.559 105.782C229.81 106.143 230.168 106.324 230.635 106.324ZM237.751 104.092C237.751 104.823 237.87 105.375 238.108 105.749C238.35 106.123 238.742 106.311 239.283 106.311C239.82 106.311 240.205 106.126 240.438 105.756C240.676 105.382 240.795 104.827 240.795 104.092C240.795 103.362 240.676 102.814 240.438 102.449C240.201 102.083 239.811 101.901 239.27 101.901C238.733 101.901 238.346 102.083 238.108 102.449C237.87 102.809 237.751 103.357 237.751 104.092ZM242.854 104.092C242.854 105.294 242.538 106.234 241.904 106.911C241.27 107.589 240.388 107.928 239.257 107.928C238.548 107.928 237.923 107.774 237.382 107.466C236.84 107.153 236.424 106.707 236.134 106.126C235.844 105.545 235.698 104.867 235.698 104.092C235.698 102.887 236.013 101.949 236.642 101.28C237.272 100.611 238.156 100.277 239.296 100.277C240.005 100.277 240.63 100.431 241.171 100.739C241.712 101.047 242.128 101.489 242.419 102.066C242.709 102.642 242.854 103.318 242.854 104.092ZM254.097 107.796L253.397 105.499H249.879L249.179 107.796H246.974L250.38 98.1047H252.882L256.302 107.796H254.097ZM252.909 103.782C252.262 101.7 251.896 100.523 251.813 100.25C251.734 99.9774 251.676 99.7617 251.641 99.6033C251.496 100.167 251.08 101.56 250.393 103.782H252.909ZM264.178 107.796H262.164V103.485C262.164 102.953 262.07 102.554 261.88 102.29C261.691 102.022 261.39 101.887 260.976 101.887C260.413 101.887 260.005 102.077 259.755 102.455C259.504 102.829 259.378 103.452 259.378 104.323V107.796H257.365V100.415H258.903L259.174 101.359H259.286C259.51 101.003 259.818 100.734 260.21 100.554C260.606 100.369 261.055 100.277 261.557 100.277C262.415 100.277 263.066 100.51 263.511 100.976C263.955 101.439 264.178 102.108 264.178 102.983V107.796ZM269.36 106.324C269.712 106.324 270.134 106.247 270.627 106.093V107.591C270.126 107.816 269.51 107.928 268.779 107.928C267.974 107.928 267.386 107.725 267.016 107.321C266.651 106.911 266.468 106.3 266.468 105.485V101.927H265.505V101.075L266.614 100.402L267.195 98.8441H268.482V100.415H270.548V101.927H268.482V105.485C268.482 105.771 268.561 105.983 268.72 106.119C268.882 106.256 269.096 106.324 269.36 106.324ZM273.73 104.092C273.73 104.823 273.849 105.375 274.087 105.749C274.329 106.123 274.72 106.311 275.262 106.311C275.799 106.311 276.184 106.126 276.417 105.756C276.655 105.382 276.774 104.827 276.774 104.092C276.774 103.362 276.655 102.814 276.417 102.449C276.179 102.083 275.79 101.901 275.249 101.901C274.712 101.901 274.324 102.083 274.087 102.449C273.849 102.809 273.73 103.357 273.73 104.092ZM278.833 104.092C278.833 105.294 278.516 106.234 277.883 106.911C277.249 107.589 276.366 107.928 275.235 107.928C274.527 107.928 273.902 107.774 273.36 107.466C272.819 107.153 272.403 106.707 272.113 106.126C271.822 105.545 271.677 104.867 271.677 104.092C271.677 102.887 271.992 101.949 272.621 101.28C273.25 100.611 274.135 100.277 275.275 100.277C275.984 100.277 276.608 100.431 277.15 100.739C277.691 101.047 278.107 101.489 278.397 102.066C278.688 102.642 278.833 103.318 278.833 104.092ZM287.31 107.796H285.296V103.485C285.296 102.953 285.202 102.554 285.012 102.29C284.823 102.022 284.522 101.887 284.108 101.887C283.545 101.887 283.137 102.077 282.887 102.455C282.636 102.829 282.51 103.452 282.51 104.323V107.796H280.497V100.415H282.035L282.306 101.359H282.418C282.642 101.003 282.95 100.734 283.342 100.554C283.738 100.369 284.187 100.277 284.689 100.277C285.547 100.277 286.198 100.51 286.643 100.976C287.087 101.439 287.31 102.108 287.31 102.983V107.796ZM289.297 98.5074C289.297 97.8517 289.662 97.5238 290.393 97.5238C291.123 97.5238 291.488 97.8517 291.488 98.5074C291.488 98.8199 291.396 99.0642 291.211 99.2402C291.031 99.4119 290.758 99.4977 290.393 99.4977C289.662 99.4977 289.297 99.1676 289.297 98.5074ZM291.396 107.796H289.383V100.415H291.396V107.796ZM295.119 104.092C295.119 104.823 295.238 105.375 295.476 105.749C295.718 106.123 296.11 106.311 296.651 106.311C297.188 106.311 297.573 106.126 297.806 105.756C298.044 105.382 298.163 104.827 298.163 104.092C298.163 103.362 298.044 102.814 297.806 102.449C297.569 102.083 297.179 101.901 296.638 101.901C296.101 101.901 295.714 102.083 295.476 102.449C295.238 102.809 295.119 103.357 295.119 104.092ZM300.222 104.092C300.222 105.294 299.906 106.234 299.272 106.911C298.638 107.589 297.756 107.928 296.625 107.928C295.916 107.928 295.291 107.774 294.75 107.466C294.208 107.153 293.792 106.707 293.502 106.126C293.212 105.545 293.066 104.867 293.066 104.092C293.066 102.887 293.381 101.949 294.01 101.28C294.64 100.611 295.524 100.277 296.664 100.277C297.373 100.277 297.998 100.431 298.539 100.739C299.08 101.047 299.496 101.489 299.787 102.066C300.077 102.642 300.222 103.318 300.222 104.092ZM309.22 102.376H313.049V107.38C312.429 107.582 311.843 107.723 311.293 107.803C310.748 107.886 310.189 107.928 309.617 107.928C308.16 107.928 307.046 107.501 306.276 106.647C305.51 105.789 305.127 104.559 305.127 102.957C305.127 101.399 305.572 100.184 306.461 99.3128C307.354 98.4414 308.591 98.0057 310.171 98.0057C311.161 98.0057 312.116 98.2038 313.036 98.5999L312.356 100.237C311.652 99.885 310.919 99.7089 310.158 99.7089C309.273 99.7089 308.565 100.006 308.032 100.6C307.5 101.194 307.233 101.993 307.233 102.997C307.233 104.044 307.447 104.845 307.874 105.4C308.305 105.95 308.93 106.225 309.749 106.225C310.175 106.225 310.609 106.181 311.049 106.093V104.079H309.22V102.376ZM319.882 107.796L319.493 106.792H319.44C319.101 107.219 318.751 107.516 318.39 107.684C318.034 107.847 317.567 107.928 316.991 107.928C316.282 107.928 315.723 107.725 315.314 107.321C314.909 106.916 314.706 106.339 314.706 105.591C314.706 104.808 314.979 104.231 315.525 103.861C316.075 103.487 316.902 103.28 318.007 103.241L319.288 103.201V102.878C319.288 102.13 318.905 101.755 318.139 101.755C317.549 101.755 316.856 101.934 316.06 102.29L315.393 100.93C316.242 100.486 317.184 100.263 318.218 100.263C319.209 100.263 319.968 100.479 320.496 100.91C321.024 101.342 321.288 101.997 321.288 102.878V107.796H319.882ZM319.288 104.376L318.509 104.403C317.924 104.42 317.488 104.526 317.202 104.72C316.916 104.913 316.773 105.208 316.773 105.604C316.773 106.172 317.098 106.456 317.75 106.456C318.216 106.456 318.588 106.322 318.865 106.053C319.147 105.785 319.288 105.428 319.288 104.984V104.376ZM322.311 100.415H324.516L325.909 104.568C326.028 104.929 326.11 105.356 326.154 105.848H326.193C326.242 105.395 326.336 104.968 326.477 104.568L327.844 100.415H330.002L326.88 108.74C326.594 109.51 326.184 110.087 325.652 110.47C325.124 110.852 324.505 111.044 323.797 111.044C323.449 111.044 323.108 111.006 322.774 110.932V109.334C323.016 109.391 323.28 109.42 323.566 109.42C323.922 109.42 324.232 109.31 324.497 109.09C324.765 108.874 324.974 108.546 325.124 108.106L325.243 107.743L322.311 100.415ZM335.752 107.796L335.363 106.792H335.31C334.971 107.219 334.621 107.516 334.26 107.684C333.904 107.847 333.437 107.928 332.861 107.928C332.152 107.928 331.593 107.725 331.184 107.321C330.779 106.916 330.577 106.339 330.577 105.591C330.577 104.808 330.849 104.231 331.395 103.861C331.945 103.487 332.773 103.28 333.877 103.241L335.158 103.201V102.878C335.158 102.13 334.775 101.755 334.009 101.755C333.42 101.755 332.727 101.934 331.93 102.29L331.263 100.93C332.113 100.486 333.054 100.263 334.089 100.263C335.079 100.263 335.838 100.479 336.366 100.91C336.894 101.342 337.158 101.997 337.158 102.878V107.796H335.752ZM335.158 104.376L334.379 104.403C333.794 104.42 333.358 104.526 333.072 104.72C332.786 104.913 332.643 105.208 332.643 105.604C332.643 106.172 332.969 106.456 333.62 106.456C334.086 106.456 334.458 106.322 334.736 106.053C335.017 105.785 335.158 105.428 335.158 104.984V104.376ZM348.606 105.116C348.606 105.987 348.291 106.674 347.662 107.175C347.037 107.677 346.165 107.928 345.047 107.928C344.018 107.928 343.107 107.734 342.314 107.347V105.446C342.966 105.736 343.516 105.941 343.965 106.06C344.418 106.179 344.832 106.238 345.206 106.238C345.655 106.238 345.998 106.152 346.236 105.98C346.478 105.809 346.599 105.554 346.599 105.215C346.599 105.025 346.546 104.858 346.44 104.713C346.335 104.563 346.178 104.42 345.972 104.284C345.769 104.147 345.353 103.93 344.724 103.63C344.134 103.353 343.692 103.087 343.397 102.831C343.102 102.576 342.867 102.279 342.691 101.94C342.515 101.601 342.427 101.205 342.427 100.752C342.427 99.8982 342.715 99.227 343.291 98.7385C343.872 98.25 344.673 98.0057 345.694 98.0057C346.196 98.0057 346.674 98.0651 347.127 98.184C347.585 98.3028 348.062 98.47 348.559 98.6857L347.899 100.277C347.384 100.065 346.957 99.918 346.619 99.8344C346.284 99.7507 345.954 99.7089 345.628 99.7089C345.241 99.7089 344.944 99.7991 344.737 99.9796C344.53 100.16 344.427 100.395 344.427 100.686C344.427 100.866 344.469 101.025 344.552 101.161C344.636 101.293 344.768 101.423 344.948 101.551C345.133 101.674 345.567 101.898 346.249 102.224C347.151 102.655 347.769 103.089 348.104 103.525C348.438 103.956 348.606 104.486 348.606 105.116ZM351.801 104.092C351.801 104.823 351.92 105.375 352.157 105.749C352.399 106.123 352.791 106.311 353.332 106.311C353.869 106.311 354.254 106.126 354.488 105.756C354.725 105.382 354.844 104.827 354.844 104.092C354.844 103.362 354.725 102.814 354.488 102.449C354.25 102.083 353.861 101.901 353.319 101.901C352.782 101.901 352.395 102.083 352.157 102.449C351.92 102.809 351.801 103.357 351.801 104.092ZM356.904 104.092C356.904 105.294 356.587 106.234 355.953 106.911C355.319 107.589 354.437 107.928 353.306 107.928C352.597 107.928 351.972 107.774 351.431 107.466C350.89 107.153 350.474 106.707 350.183 106.126C349.893 105.545 349.748 104.867 349.748 104.092C349.748 102.887 350.062 101.949 350.692 101.28C351.321 100.611 352.206 100.277 353.346 100.277C354.054 100.277 354.679 100.431 355.22 100.739C355.762 101.047 356.178 101.489 356.468 102.066C356.759 102.642 356.904 103.318 356.904 104.092ZM360.581 107.796H358.567V97.5238H360.581V107.796ZM365.757 101.709C365.33 101.709 364.995 101.846 364.753 102.119C364.511 102.387 364.372 102.77 364.337 103.267H367.163C367.154 102.77 367.024 102.387 366.773 102.119C366.522 101.846 366.184 101.709 365.757 101.709ZM366.041 107.928C364.852 107.928 363.924 107.6 363.255 106.944C362.586 106.289 362.251 105.36 362.251 104.158C362.251 102.922 362.559 101.967 363.175 101.293C363.796 100.616 364.652 100.277 365.743 100.277C366.786 100.277 367.598 100.574 368.179 101.168C368.76 101.762 369.051 102.583 369.051 103.63V104.607H364.291C364.313 105.179 364.483 105.626 364.799 105.947C365.116 106.269 365.561 106.429 366.133 106.429C366.577 106.429 366.998 106.383 367.394 106.291C367.79 106.198 368.204 106.051 368.635 105.848V107.406C368.283 107.582 367.907 107.712 367.506 107.796C367.106 107.884 366.617 107.928 366.041 107.928ZM374.807 100.277C375.08 100.277 375.307 100.296 375.487 100.336L375.336 102.224C375.173 102.18 374.975 102.158 374.741 102.158C374.099 102.158 373.597 102.323 373.236 102.653C372.88 102.983 372.702 103.445 372.702 104.04V107.796H370.688V100.415H372.213L372.51 101.656H372.609C372.838 101.243 373.146 100.91 373.533 100.66C373.925 100.404 374.35 100.277 374.807 100.277ZM381.515 107.796L381.125 106.792H381.072C380.733 107.219 380.384 107.516 380.023 107.684C379.666 107.847 379.2 107.928 378.623 107.928C377.915 107.928 377.356 107.725 376.946 107.321C376.541 106.916 376.339 106.339 376.339 105.591C376.339 104.808 376.612 104.231 377.158 103.861C377.708 103.487 378.535 103.28 379.64 103.241L380.921 103.201V102.878C380.921 102.13 380.538 101.755 379.772 101.755C379.182 101.755 378.489 101.934 377.692 102.29L377.026 100.93C377.875 100.486 378.817 100.263 379.851 100.263C380.841 100.263 381.6 100.479 382.129 100.91C382.657 101.342 382.921 101.997 382.921 102.878V107.796H381.515ZM380.921 104.376L380.142 104.403C379.556 104.42 379.12 104.526 378.834 104.72C378.548 104.913 378.405 105.208 378.405 105.604C378.405 106.172 378.731 106.456 379.382 106.456C379.849 106.456 380.221 106.322 380.498 106.053C380.78 105.785 380.921 105.428 380.921 104.984V104.376Z" fill="#5CB5AF"/>
<path d="M244.188 121.092C244.188 119.926 244.357 118.835 244.696 117.818C245.04 116.801 245.532 115.91 246.175 115.144H247.244C246.611 115.994 246.133 116.927 245.812 117.943C245.495 118.96 245.337 120.005 245.337 121.079C245.337 122.135 245.499 123.168 245.825 124.175C246.151 125.183 246.62 126.103 247.231 126.935H246.175C245.528 126.187 245.035 125.313 244.696 124.314C244.357 123.315 244.188 122.241 244.188 121.092ZM255.094 117.957C255.094 118.934 254.759 119.686 254.09 120.214C253.426 120.738 252.473 121 251.232 121H250.096V124.796H248.974V115.144H251.476C253.888 115.144 255.094 116.082 255.094 117.957ZM250.096 120.036H251.106C252.101 120.036 252.821 119.875 253.265 119.554C253.71 119.233 253.932 118.718 253.932 118.009C253.932 117.371 253.723 116.896 253.305 116.583C252.887 116.271 252.235 116.115 251.351 116.115H250.096V120.036ZM260.256 117.429C260.578 117.429 260.866 117.455 261.121 117.508L260.969 118.524C260.67 118.458 260.406 118.425 260.177 118.425C259.592 118.425 259.09 118.663 258.672 119.138C258.258 119.614 258.051 120.206 258.051 120.914V124.796H256.955V117.561H257.86L257.985 118.901H258.038C258.307 118.43 258.63 118.067 259.009 117.811C259.387 117.556 259.803 117.429 260.256 117.429ZM265.531 124.928C264.461 124.928 263.616 124.602 262.996 123.951C262.38 123.3 262.072 122.395 262.072 121.238C262.072 120.071 262.358 119.145 262.93 118.458C263.506 117.772 264.279 117.429 265.247 117.429C266.154 117.429 266.871 117.728 267.399 118.326C267.927 118.92 268.191 119.706 268.191 120.683V121.376H263.207C263.229 122.226 263.443 122.87 263.848 123.311C264.257 123.751 264.831 123.971 265.571 123.971C266.35 123.971 267.12 123.808 267.881 123.482V124.459C267.494 124.626 267.126 124.745 266.779 124.816C266.435 124.891 266.019 124.928 265.531 124.928ZM265.234 118.346C264.653 118.346 264.189 118.535 263.841 118.914C263.498 119.292 263.295 119.816 263.234 120.485H267.016C267.016 119.794 266.862 119.266 266.554 118.901C266.246 118.531 265.806 118.346 265.234 118.346ZM274.734 122.822C274.734 123.495 274.483 124.015 273.981 124.38C273.479 124.745 272.775 124.928 271.869 124.928C270.909 124.928 270.161 124.776 269.624 124.472V123.456C269.972 123.632 270.344 123.77 270.74 123.872C271.14 123.973 271.525 124.024 271.895 124.024C272.467 124.024 272.907 123.933 273.215 123.753C273.523 123.568 273.677 123.289 273.677 122.914C273.677 122.633 273.554 122.393 273.308 122.195C273.066 121.992 272.59 121.755 271.882 121.482C271.208 121.231 270.729 121.013 270.443 120.828C270.161 120.639 269.95 120.426 269.809 120.188C269.672 119.95 269.604 119.666 269.604 119.336C269.604 118.747 269.844 118.282 270.324 117.943C270.803 117.6 271.461 117.429 272.298 117.429C273.077 117.429 273.838 117.587 274.582 117.904L274.192 118.795C273.466 118.496 272.808 118.346 272.218 118.346C271.699 118.346 271.307 118.428 271.043 118.59C270.779 118.753 270.647 118.978 270.647 119.264C270.647 119.457 270.696 119.622 270.792 119.759C270.894 119.895 271.054 120.025 271.274 120.148C271.494 120.272 271.917 120.45 272.542 120.683C273.4 120.996 273.979 121.31 274.278 121.627C274.582 121.944 274.734 122.342 274.734 122.822ZM277.619 124.796H276.523V117.561H277.619V124.796ZM276.43 115.6C276.43 115.349 276.492 115.166 276.615 115.052C276.738 114.933 276.892 114.874 277.077 114.874C277.253 114.874 277.405 114.933 277.533 115.052C277.66 115.171 277.724 115.353 277.724 115.6C277.724 115.846 277.66 116.031 277.533 116.154C277.405 116.273 277.253 116.333 277.077 116.333C276.892 116.333 276.738 116.273 276.615 116.154C276.492 116.031 276.43 115.846 276.43 115.6ZM284.867 123.825H284.808C284.302 124.56 283.545 124.928 282.537 124.928C281.59 124.928 280.853 124.604 280.325 123.957C279.801 123.311 279.54 122.391 279.54 121.198C279.54 120.005 279.804 119.079 280.332 118.419C280.86 117.759 281.595 117.429 282.537 117.429C283.518 117.429 284.271 117.785 284.794 118.498H284.88L284.834 117.976L284.808 117.468V114.524H285.904V124.796H285.012L284.867 123.825ZM282.675 124.01C283.424 124.01 283.965 123.808 284.299 123.403C284.638 122.994 284.808 122.336 284.808 121.429V121.198C284.808 120.173 284.636 119.442 284.293 119.006C283.954 118.566 283.41 118.346 282.662 118.346C282.02 118.346 281.527 118.597 281.183 119.099C280.844 119.596 280.675 120.3 280.675 121.211C280.675 122.135 280.844 122.833 281.183 123.304C281.522 123.775 282.02 124.01 282.675 124.01ZM291.29 124.928C290.221 124.928 289.376 124.602 288.755 123.951C288.139 123.3 287.831 122.395 287.831 121.238C287.831 120.071 288.117 119.145 288.689 118.458C289.266 117.772 290.038 117.429 291.007 117.429C291.913 117.429 292.631 117.728 293.159 118.326C293.687 118.92 293.951 119.706 293.951 120.683V121.376H288.967C288.989 122.226 289.202 122.87 289.607 123.311C290.016 123.751 290.591 123.971 291.33 123.971C292.109 123.971 292.879 123.808 293.641 123.482V124.459C293.253 124.626 292.886 124.745 292.538 124.816C292.195 124.891 291.779 124.928 291.29 124.928ZM290.993 118.346C290.412 118.346 289.948 118.535 289.6 118.914C289.257 119.292 289.055 119.816 288.993 120.485H292.776C292.776 119.794 292.622 119.266 292.314 118.901C292.006 118.531 291.566 118.346 290.993 118.346ZM300.777 124.796V120.115C300.777 119.526 300.643 119.086 300.374 118.795C300.106 118.505 299.685 118.359 299.113 118.359C298.356 118.359 297.802 118.564 297.45 118.973C297.098 119.383 296.922 120.058 296.922 121V124.796H295.826V117.561H296.717L296.895 118.551H296.948C297.172 118.194 297.487 117.919 297.892 117.726C298.297 117.528 298.748 117.429 299.245 117.429C300.117 117.429 300.773 117.64 301.213 118.062C301.653 118.48 301.873 119.152 301.873 120.076V124.796H300.777ZM306.468 124.024C306.661 124.024 306.848 124.01 307.029 123.984C307.209 123.953 307.352 123.922 307.458 123.891V124.73C307.339 124.787 307.163 124.833 306.93 124.869C306.701 124.908 306.494 124.928 306.309 124.928C304.91 124.928 304.21 124.191 304.21 122.716V118.412H303.173V117.884L304.21 117.429L304.672 115.884H305.306V117.561H307.405V118.412H305.306V122.67C305.306 123.106 305.409 123.44 305.616 123.674C305.823 123.907 306.107 124.024 306.468 124.024ZM311.967 124.928C310.897 124.928 310.052 124.602 309.432 123.951C308.816 123.3 308.507 122.395 308.507 121.238C308.507 120.071 308.794 119.145 309.366 118.458C309.942 117.772 310.715 117.429 311.683 117.429C312.589 117.429 313.307 117.728 313.835 118.326C314.363 118.92 314.627 119.706 314.627 120.683V121.376H309.643C309.665 122.226 309.878 122.87 310.283 123.311C310.693 123.751 311.267 123.971 312.006 123.971C312.785 123.971 313.555 123.808 314.317 123.482V124.459C313.93 124.626 313.562 124.745 313.214 124.816C312.871 124.891 312.455 124.928 311.967 124.928ZM311.67 118.346C311.089 118.346 310.624 118.535 310.277 118.914C309.933 119.292 309.731 119.816 309.669 120.485H313.452C313.452 119.794 313.298 119.266 312.99 118.901C312.682 118.531 312.242 118.346 311.67 118.346ZM318.799 121.092C318.799 122.25 318.628 123.328 318.284 124.327C317.946 125.326 317.455 126.195 316.812 126.935H315.756C316.368 126.107 316.836 125.19 317.162 124.182C317.488 123.17 317.651 122.135 317.651 121.079C317.651 120.005 317.49 118.96 317.169 117.943C316.852 116.927 316.377 115.994 315.743 115.144H316.812C317.459 115.915 317.952 116.81 318.291 117.831C318.63 118.848 318.799 119.935 318.799 121.092Z" fill="black"/>
<path d="M303.764 67.3095C316.155 54.9182 316.155 34.8279 303.764 22.4366C291.372 10.0452 271.282 10.0452 258.891 22.4366C246.499 34.8279 246.499 54.9182 258.891 67.3095C271.282 79.7009 291.372 79.7009 303.764 67.3095Z" stroke="#110537" stroke-width="0.633755" stroke-linecap="round" stroke-linejoin="round"/>
<path d="M318.993 44.873C318.993 45.211 318.993 45.5406 318.977 45.8786" stroke="#110537" stroke-width="0.633755" stroke-linecap="round" stroke-linejoin="round"/>
<path d="M318.875 47.9154C317.329 67.2998 301.105 82.5437 281.323 82.5437C261.542 82.5437 244.76 66.7675 243.704 46.9014" stroke="#110537" stroke-width="0.633755" stroke-linecap="round" stroke-linejoin="round"/>
<path d="M243.67 45.8786C243.661 45.5406 243.653 45.211 243.653 44.873" stroke="#110537" stroke-width="0.633755" stroke-linecap="round" stroke-linejoin="round"/>
<path d="M243.653 44.8725C243.653 24.0685 260.519 7.20215 281.323 7.20215C302.127 7.20215 318.994 24.0685 318.994 44.8725" stroke="#5CB5AF" stroke-width="4.02223" stroke-linejoin="round"/>
<g clip-path="url(#clip3_3326_4610)">
<path d="M297.083 53.1179V65.2606H265.505V53.1179C265.505 48.952 268.885 45.5889 273.043 45.5889H278.755L281.941 49.7209L285.126 45.5889H289.554C293.712 45.5889 297.083 48.952 297.083 53.1179Z" stroke="#110537" stroke-width="0.633755" stroke-linecap="round" stroke-linejoin="round"/>
<path d="M272.342 65.2516V55.458" stroke="#110537" stroke-width="0.633755" stroke-linecap="round" stroke-linejoin="round"/>
<path d="M290.239 65.2516V55.458" stroke="#110537" stroke-width="0.633755" stroke-linecap="round" stroke-linejoin="round"/>
<path d="M289.377 31.2225V35.363C289.377 38.4219 287.645 41.1175 285.118 42.4779C283.977 43.0948 282.676 43.4497 281.29 43.4497C280.403 43.4497 279.55 43.306 278.755 43.0356C275.544 41.9625 273.204 38.9205 273.204 35.363V31.2225C273.204 26.7693 276.846 23.1357 281.29 23.1357C283.513 23.1357 285.532 24.0483 287.003 25.5102C288.464 26.9721 289.377 29.0001 289.377 31.2225Z" stroke="#110537" stroke-width="0.633755" stroke-linecap="round" stroke-linejoin="round"/>
<path d="M289.377 33.2941L285.634 29.1367C281.502 31.8492 276.862 29.1367 276.862 29.1367L273.204 33.2941" stroke="#110537" stroke-width="0.633755" stroke-linecap="round" stroke-linejoin="round"/>
<path d="M285.118 42.4785V45.5797L281.932 49.7118L278.747 45.5797V43.0362C279.541 43.3066 280.394 43.4503 281.282 43.4503C282.667 43.4503 283.969 43.0954 285.109 42.4785H285.118Z" stroke="#110537" stroke-width="0.633755" stroke-linecap="round" stroke-linejoin="round"/>
</g>
<path d="M285.202 85.1465H277.453L281.323 89.8447L285.202 85.1465Z" fill="#5CB5AF"/>
<defs>
<clipPath id="clip0_3326_4610">
<rect width="32.2116" height="42.7573" fill="white" transform="translate(189.079 214.738)"/>
</clipPath>
<clipPath id="clip1_3326_4610">
<rect width="32.2116" height="42.7573" fill="white" transform="translate(28.5278 214.737)"/>
</clipPath>
<clipPath id="clip2_3326_4610">
<rect width="32.2116" height="42.7573" fill="white" transform="translate(349.372 214.161)"/>
</clipPath>
<clipPath id="clip3_3326_4610">
<rect width="32.2116" height="42.7573" fill="white" transform="translate(265.184 22.8154)"/>
</clipPath>
</defs>
</svg>
