<svg width="82" height="71" viewBox="0 0 82 71" fill="none" xmlns="http://www.w3.org/2000/svg">
<g clip-path="url(#clip0_2_65)">
<path d="M75.993 34.2485C73.6907 14.9336 56.2801 1.15507 37.1044 3.4742C36.1687 3.58711 35.2496 3.74768 34.3404 3.93167C37.8201 2.0307 41.7024 0.739412 45.8703 0.235106C63.5706 -1.90506 79.642 10.813 81.7667 28.6426C83.0834 39.688 78.7345 50.1011 71.028 56.9364C75.0432 50.3896 76.9735 42.483 75.9922 34.2485H75.993Z" fill="#FFDE0D"/>
<path d="M32.1942 68.5914C50.0216 68.5914 64.4732 54.0343 64.4732 36.0766C64.4732 22.7054 56.4578 11.2243 45.0052 6.2298C59.333 8.07223 71.1427 19.504 72.9427 34.6081C75.0673 52.4377 62.4415 68.6257 44.7412 70.7667C38.8504 71.4792 33.1449 70.5383 28.0695 68.3187C29.4212 68.4927 30.7952 68.5922 32.1942 68.5922V68.5914Z" fill="#5CB5AF"/>
<path d="M1.88123e-06 36.5525C0.149449 64.0777 32.8086 78.0118 52.5415 58.89C64.9464 46.8887 64.9522 26.2122 52.5448 14.2109C32.8136 -4.92012 0.145298 9.02899 1.88123e-06 36.5517V36.5525Z" fill="white"/>
</g>
<g clip-path="url(#clip1_2_65)">
<path d="M34.4862 50H19.1583C18.0289 50 16.9865 49.397 16.4218 48.4175C15.8571 47.4416 15.8571 46.2356 16.4218 45.2561L22.8221 34.172C23.1533 33.6004 23.3276 32.952 23.3276 32.2898V24.6459C23.3276 24.3392 23.5751 24.0882 23.8853 24.0882H29.7592C29.9091 24.0882 30.0486 24.1475 30.1531 24.252C30.2577 24.3566 30.317 24.4995 30.317 24.6459V32.2933C30.317 32.9555 30.4913 33.6038 30.8225 34.179L37.2193 45.2596C37.784 46.2356 37.784 47.4416 37.2193 48.421C36.6545 49.397 35.6122 50.0035 34.4828 50.0035L34.4862 50ZM24.4431 25.2071V32.2968C24.4431 33.1542 24.2165 33.9977 23.7877 34.7401L17.3909 45.8173C17.0249 46.4482 17.0249 47.229 17.3909 47.8599C17.7569 48.4942 18.4332 48.8811 19.1618 48.8811H34.4862C35.2148 48.8811 35.8911 48.4907 36.2571 47.8599C36.6232 47.229 36.6232 46.4482 36.2571 45.8173L29.8568 34.7332C29.4281 33.9907 29.2015 33.1472 29.2015 32.2933V25.2071H24.4431Z" fill="#1C2142"/>
<path d="M30.0799 25.2071H23.5646C22.7837 25.2071 22.1528 24.5727 22.1528 23.7954V22.4151C22.1528 21.6344 22.7837 21 23.5646 21H30.0799C30.8608 21 31.4918 21.6344 31.4918 22.4117V23.7919C31.4918 24.5727 30.8573 25.2036 30.0799 25.2036V25.2071ZM23.5646 22.1154C23.4008 22.1154 23.2683 22.2478 23.2683 22.4117V23.7919C23.2683 23.9558 23.4008 24.0917 23.5646 24.0917H30.0799C30.2438 24.0917 30.3762 23.9593 30.3762 23.7919V22.4117C30.3762 22.2478 30.2438 22.1154 30.0799 22.1154H23.5646Z" fill="#1C2142"/>
<path d="M30.7946 38.4035C30.1601 38.4035 29.7 38.2257 29.2503 38.0514C28.7831 37.8702 28.2986 37.682 27.4968 37.6401C26.6323 37.5913 26.0676 37.7517 25.4715 37.919C24.7987 38.1072 24.1084 38.3024 23.0313 38.2257C22.4944 38.1874 21.968 38.0863 21.4591 37.919C21.1906 37.8423 21.0198 37.5809 21.0617 37.302C21.1 37.0267 21.3371 36.821 21.6159 36.8245C21.6752 36.8245 21.731 36.8315 21.7868 36.8524C22.2155 36.9918 22.6617 37.0755 23.1114 37.1103C23.9934 37.1731 24.5651 37.0127 25.1682 36.8419C25.7956 36.6677 26.5068 36.4655 27.5561 36.5248C28.5391 36.577 29.1561 36.8175 29.6546 37.0127C30.1462 37.2044 30.5017 37.3404 31.0978 37.2707C31.3663 37.2463 31.6242 37.1661 31.8613 37.0441C32.1367 36.9012 32.4713 37.0058 32.6143 37.2811C32.7572 37.553 32.6526 37.8911 32.3772 38.034C32.0182 38.2222 31.6312 38.3407 31.2268 38.3826C31.0804 38.4 30.934 38.407 30.7911 38.407L30.7946 38.4035Z" fill="#1C2142"/>
<path d="M22.1632 47.1802C21.1837 47.1802 20.2982 46.5911 19.9217 45.6849C19.5453 44.7786 19.7544 43.7364 20.4481 43.0428C21.1418 42.3492 22.1842 42.1435 23.0905 42.5165C23.9969 42.8929 24.586 43.7748 24.586 44.7577C24.586 46.0962 23.4984 47.1802 22.1632 47.1802ZM22.1632 43.4506C21.6334 43.4506 21.1558 43.7678 20.9536 44.2593C20.7514 44.7472 20.863 45.3119 21.236 45.6849C21.609 46.0578 22.1737 46.1694 22.6617 45.9672C23.1533 45.765 23.4705 45.2875 23.4705 44.7577C23.4705 44.0362 22.8848 43.4506 22.1632 43.4506Z" fill="#1C2142"/>
<path d="M30.7248 46.6364C29.9649 46.6364 29.2816 46.1798 28.9888 45.4792C28.696 44.7751 28.8564 43.97 29.3967 43.4332C29.9335 42.8964 30.7423 42.7361 31.443 43.0254C32.1436 43.3147 32.6003 44.0013 32.6003 44.7612C32.6003 45.7964 31.7602 46.6364 30.7248 46.6399V46.6364ZM30.7248 43.9978C30.4146 43.9978 30.1392 44.1826 30.0207 44.4684C29.9022 44.7542 29.9684 45.0819 30.1845 45.298C30.4006 45.5141 30.7318 45.5803 31.0142 45.4618C31.2965 45.3433 31.4848 45.0644 31.4848 44.7577C31.4848 44.3359 31.1432 43.9978 30.7248 43.9944V43.9978Z" fill="#1C2142"/>
<path d="M27.2772 43.1404C26.5172 43.1404 25.834 42.6803 25.5412 41.9797C25.2518 41.2791 25.4122 40.4704 25.949 39.9337C26.4859 39.3969 27.2946 39.2365 27.9953 39.5258C28.696 39.8186 29.1527 40.5018 29.1527 41.2617C29.1527 42.2969 28.3125 43.1369 27.2737 43.1404H27.2772ZM27.2772 40.5018C26.9704 40.5018 26.6915 40.6865 26.573 40.9724C26.4545 41.2582 26.5207 41.5858 26.7404 41.8019C26.96 42.018 27.2842 42.0843 27.57 41.9657C27.8559 41.8472 28.0406 41.5684 28.0406 41.2617C28.0406 40.8399 27.699 40.5018 27.2807 40.5018H27.2772Z" fill="#1C2142"/>
<path d="M41.5872 50C39.7013 50 38.1744 48.4698 38.1744 46.5876V35.5139C38.1744 35.2072 38.4219 34.9563 38.7322 34.9563H44.4422C44.5921 34.9563 44.7316 35.0155 44.8362 35.1201C44.9407 35.2246 45 35.3676 45 35.5139V46.5876C45 48.4733 43.4696 50 41.5872 50ZM39.2899 36.0716V46.5876C39.2899 47.8564 40.3183 48.8846 41.5872 48.8846C42.8561 48.8846 43.8845 47.8564 43.8845 46.5876V36.0716H39.2899Z" fill="#1C2142"/>
<path d="M39.7361 38.5847H38.7322C38.4254 38.5847 38.1744 38.3338 38.1744 38.027C38.1744 37.7203 38.4219 37.4694 38.7322 37.4694H39.7361C40.0429 37.4694 40.2939 37.7203 40.2939 38.027C40.2939 38.3338 40.0429 38.5847 39.7361 38.5847Z" fill="#1C2142"/>
<path d="M40.0847 41.0978H38.7322C38.4254 41.0978 38.1744 40.8504 38.1744 40.5401C38.1744 40.2299 38.4219 39.9825 38.7322 39.9825H40.0847C40.3915 39.9825 40.6425 40.2299 40.6425 40.5401C40.6425 40.8504 40.3915 41.0978 40.0847 41.0978Z" fill="#1C2142"/>
<path d="M39.7361 43.6109H38.7322C38.4254 43.6109 38.1744 43.36 38.1744 43.0532C38.1744 42.7465 38.4219 42.4956 38.7322 42.4956H39.7361C40.0429 42.4956 40.2939 42.7465 40.2939 43.0532C40.2939 43.36 40.0429 43.6109 39.7361 43.6109Z" fill="#1C2142"/>
<path d="M40.0847 46.124H38.7322C38.4254 46.124 38.1744 45.8731 38.1744 45.5663C38.1744 45.2596 38.4219 45.0087 38.7322 45.0087H40.0847C40.3915 45.0087 40.6425 45.2561 40.6425 45.5663C40.6425 45.8766 40.3915 46.124 40.0847 46.124Z" fill="#1C2142"/>
</g>
<defs>
<clipPath id="clip0_2_65">
<rect width="82" height="71" fill="white" transform="matrix(-1 0 0 1 82 0)"/>
</clipPath>
<clipPath id="clip1_2_65">
<rect width="29" height="29" fill="white" transform="translate(16 21)"/>
</clipPath>
</defs>
</svg>
