<svg width="127" height="130" viewBox="0 0 127 130" fill="none" xmlns="http://www.w3.org/2000/svg">
<g clip-path="url(#clip0_3614_5593)">
<path d="M123.052 14.3693H112.3V3.87308C112.3 1.74216 110.532 0 108.337 0H3.96231C1.76757 0 0 1.72777 0 3.87308V111.758C0 113.889 1.76757 115.631 3.96231 115.631H14.715V126.141C14.715 128.272 16.4826 130.014 18.6773 130.014H123.052C125.232 130.014 127.015 128.287 127.015 126.141V18.2423C127.015 16.1114 125.247 14.3693 123.052 14.3693ZM15.864 57.4914C15.1275 58.2113 14.7003 59.2048 14.7003 60.227V107.885H7.90988V7.73175H104.375V14.3693H61.6146C60.5688 14.3693 59.5524 14.7724 58.8159 15.5067L15.864 57.4914ZM57.6523 27.5867V56.354H28.2222L57.6523 27.5867ZM119.09 122.254H22.6249V64.0857H61.6146C63.7946 64.0857 65.5769 62.358 65.5769 60.2126V22.1442C65.5769 22.1442 65.5769 22.1298 65.5769 22.1154H119.09V122.268V122.254Z" fill="#5CB5AF"/>
</g>
<defs>
<clipPath id="clip0_3614_5593">
<rect width="127" height="130" fill="white"/>
</clipPath>
</defs>
</svg>
