<svg width="173" height="147" viewBox="0 0 173 147" fill="none" xmlns="http://www.w3.org/2000/svg">
<path d="M65.8561 84.2072L75.5752 77.3159C77.4892 75.9591 79.8948 75.4849 82.1827 76.0145L109.89 82.4523C111.6 82.8504 112.59 84.6398 112.015 86.2978L99.1427 123.624C98.8658 124.423 97.6786 124.177 97.7374 123.336L99.738 96.1726C99.8037 95.2727 99.2396 94.4455 98.3777 94.1824L65.8561 84.2106V84.2072Z" fill="white"/>
<path d="M85.9346 61.8927L89.9081 57.9711C91.6803 56.2232 94.5981 56.5001 96.0103 58.5457L102.351 67.7283L130.436 70.9403C131.183 71.0268 131.187 72.1102 130.439 72.2002L100.524 75.7999L85.9346 61.8892V61.8927Z" fill="white"/>
<path d="M164.587 101.544C155.204 94.359 140.695 97.5537 132.177 108.678C123.658 119.802 124.361 134.644 133.741 141.83C143.124 149.015 157.634 145.82 166.152 134.696C174.67 123.572 173.967 108.73 164.587 101.544ZM162.597 131.972C154.747 142.224 141.768 145.471 133.606 139.223C125.444 132.976 125.195 119.598 133.045 109.343C140.895 99.0905 153.875 95.8438 162.037 102.091C170.198 108.339 170.447 121.716 162.597 131.972Z" fill="white"/>
<path d="M152.82 124.739C155.157 121.687 155.083 117.705 152.654 115.846C150.226 113.986 146.363 114.953 144.026 118.006C141.689 121.058 141.763 125.04 144.191 126.899C146.62 128.758 150.483 127.791 152.82 124.739Z" fill="white"/>
<path d="M71.9098 104.743C63.1495 98.0347 49.6022 101.015 41.6483 111.402C33.6945 121.789 34.3486 135.644 43.109 142.356C51.8693 149.064 65.4166 146.083 73.3704 135.696C81.3243 125.309 80.6702 111.454 71.9098 104.743ZM70.0546 133.152C62.7237 142.726 50.606 145.758 42.9844 139.922C35.3662 134.087 35.1309 121.599 42.4617 112.025C49.7926 102.451 61.9103 99.4192 69.532 105.255C77.1501 111.09 77.3855 123.579 70.0546 133.152Z" fill="white"/>
<path d="M60.9287 126.401C63.11 123.552 63.0401 119.835 60.7725 118.099C58.505 116.362 54.8985 117.264 52.7172 120.113C50.5359 122.962 50.6059 126.679 52.8734 128.415C55.141 130.151 58.7475 129.249 60.9287 126.401Z" fill="white"/>
<path d="M144.575 84.6571C142.875 81.9262 140.958 79.3372 138.694 77.039C138.507 76.859 138.324 76.679 138.137 76.499C142.055 75.7272 145.907 74.7269 149.642 73.1762C144.443 72.7782 139.338 73.3043 134.233 74.0796C129.138 74.9276 124.123 76.0179 119.308 78.022C124.51 78.4269 129.612 77.9008 134.717 77.1186C135.462 76.994 136.206 76.8625 136.946 76.724C137.729 78.9946 138.822 81.1267 140.034 83.2C140.415 83.8368 140.809 84.4598 141.214 85.0794C140.235 88.2395 139.501 91.4827 139.466 94.8123C141.789 91.763 143.322 88.243 144.578 84.6537L144.575 84.6571Z" fill="white"/>
<path d="M102.607 122.357C111.195 115.41 120.408 108.82 129.494 102.527C132.142 100.672 135.987 98.1109 138.701 96.2765L139.341 98.3463C130.526 98.2009 120.935 97.9379 112.174 97.211C122.205 96.3734 132.983 96.1865 143.059 96.0065C129.92 105.179 116.497 114.368 102.604 122.357H102.607Z" fill="white"/>
<path d="M89.0187 97.211C84.2491 98.1524 79.4449 98.3739 74.6131 98.4016C69.7812 98.3774 64.9805 98.1559 60.2075 97.211C64.977 96.2626 69.7812 96.0446 74.6131 96.0203C79.4449 96.0515 84.2456 96.2695 89.0187 97.211Z" fill="white"/>
<path d="M75.9768 92.5071C73.7512 93.4486 71.5118 93.6701 69.2586 93.6978C67.0053 93.6736 64.7659 93.452 62.5403 92.5071C64.7659 91.5588 67.0053 91.3407 69.2586 91.3165C71.5118 91.3476 73.7512 91.5657 75.9768 92.5071Z" fill="white"/>
<path d="M74.3017 116.805L72.488 118.598C71.8165 119.259 72.6161 120.342 73.4468 119.903L74.5163 119.335L74.3017 116.805Z" fill="white"/>
<path d="M79.1612 112.001C79.4589 113.451 79.8016 115.279 80.0092 116.421L95.8132 108.034L96.1005 95.2485L79.1578 112.004L79.1612 112.001Z" fill="white"/>
<path d="M2.88605 30.4959L10.4696 28.6649C13.8512 27.8481 17.1463 30.2813 17.3643 33.7529L18.3369 49.325L49.6541 73.422C50.4882 74.0623 49.7095 75.3672 48.7507 74.9346L10.3277 57.6769L2.88605 30.4959Z" fill="white"/>
<path d="M82.2693 52.89L41.8734 35.7154C38.6441 34.3413 34.7883 35.1616 34.3833 37.3076L33.158 43.8216L81.7501 53.8418C82.7366 54.046 83.1554 53.2707 82.2658 52.8934L82.2693 52.89Z" fill="white"/>
<path d="M35.6087 18.2051C32.9228 27.0416 22.0442 31.7592 14.5021 25.401C5.16377 17.3813 10.3971 1.10666 22.6637 0.0406034C32.5005 -0.724327 38.5853 9.46551 35.6087 18.2051ZM35.6087 18.2051C39.0768 7.55838 28.617 -2.54493 18.6037 3.73373C13.3392 7.08765 11.0271 14.2489 13.3496 20.043C17.818 30.9943 32.2167 28.876 35.6087 18.2051Z" fill="white"/>
<path d="M111.046 44.2474C108.429 52.8589 97.8275 57.4589 90.4758 51.2633C81.3728 43.4444 86.4747 27.585 98.4297 26.5432C108.017 25.7956 113.946 35.7258 111.046 44.2474ZM111.046 44.2474C114.424 33.8706 104.231 24.0234 94.4735 30.1429C89.344 33.4103 87.0907 40.3916 89.3509 46.0403C93.7051 56.7112 107.737 54.6483 111.046 44.2474Z" fill="white"/>
<path d="M25.9829 89.4855L45.8503 102.818C45.9784 102.905 46.0684 103.029 46.1376 103.164C48.294 101.631 50.5887 100.426 52.9389 99.5646L42.6833 84.8751C40.032 81.0782 36.4877 77.9942 32.3619 75.8933L6.76621 62.8583C6.1155 62.526 5.36787 63.0833 5.4994 63.8032L12.7853 103.486C12.8095 103.625 12.8026 103.77 12.761 103.905L0.0445124 144.938C-0.260075 145.924 1.08288 146.54 1.63321 145.668L25.3772 107.899C25.4741 107.747 25.5191 107.567 25.5122 107.383L24.6123 90.2677C24.5742 89.5409 25.3807 89.084 25.9829 89.489V89.4855Z" fill="white"/>
</svg>
