<svg width="160" height="166" viewBox="0 0 160 166" fill="none" xmlns="http://www.w3.org/2000/svg">
<path d="M34.4209 81.5758C47.3867 87.6711 63.7582 80.1533 70.9853 64.7785C78.2123 49.4038 73.5604 32.0008 60.5947 25.9055C47.6289 19.8103 31.2574 27.3281 24.0303 42.7029C16.8033 58.0776 21.4552 75.4806 34.4209 81.5758ZM28.9418 45.0115C35.6047 30.8412 50.1453 23.6523 61.4254 28.9549C72.702 34.2575 76.4436 50.0406 69.7808 64.2109C63.1179 78.3811 48.5773 85.5701 37.2972 80.2675C26.0205 74.9649 22.279 59.1817 28.9418 45.0115Z" fill="white"/>
<path d="M54.5414 56.7658C56.5242 52.5483 55.411 47.8502 52.0549 46.2723C48.6989 44.6945 44.3708 46.8345 42.388 51.0521C40.4051 55.2696 41.5184 59.9677 44.8744 61.5455C48.2305 63.1234 52.5586 60.9834 54.5414 56.7658Z" fill="white"/>
<path d="M119.962 57.7868C132.927 63.8821 149.299 56.3643 156.526 40.9895C163.753 25.6148 159.101 8.21175 146.135 2.11654C133.17 -3.97867 116.798 3.5391 109.571 18.9139C102.344 34.2886 106.996 51.6916 119.962 57.7868ZM114.483 21.2225C121.145 7.05224 135.686 -0.136717 146.966 5.16588C158.243 10.4685 161.984 26.2516 155.322 40.4219C148.659 54.5921 134.118 61.7811 122.838 56.4785C111.561 51.1759 107.82 35.3927 114.483 21.2225Z" fill="white"/>
<path d="M48.366 94.7976C50.1659 96.6528 52.1145 98.3592 54.2882 99.7783C54.4647 99.8891 54.6412 99.9964 54.8177 100.107C51.8722 101.381 49.0167 102.828 46.3447 104.679C50.4981 104.105 54.4162 102.821 58.2963 101.339C62.1555 99.8025 65.9075 98.0892 69.3479 95.6941C65.191 96.2652 61.2729 97.5493 57.3963 99.0341C56.8322 99.2591 56.2714 99.491 55.7142 99.7229C54.7139 98.0719 53.4886 96.5836 52.1837 95.161C51.7788 94.7249 51.36 94.3027 50.9342 93.8873C51.1661 91.2395 51.1869 88.5639 50.6435 85.9438C49.3421 88.737 48.7364 91.7656 48.3626 94.7976H48.366Z" fill="white"/>
<path d="M141.144 101.045L128.123 109.38C125.558 111.02 122.412 111.488 119.48 110.657L83.9648 100.602C81.7739 99.9826 80.6005 97.6013 81.445 95.4865L100.433 47.9085C100.842 46.8874 102.368 47.2786 102.233 48.3689L97.962 83.4518C97.8201 84.6148 98.5019 85.7189 99.6026 86.1169L141.137 101.049L141.144 101.045Z" fill="white"/>
<path d="M105.238 131.078L98.8481 134.488C95.9995 136.007 92.4725 134.588 91.4688 131.521L86.9692 117.756L53.2223 103.395C52.3223 103.015 52.7204 101.661 53.6826 101.827L92.2233 108.39L105.234 131.078H105.238Z" fill="white"/>
<path d="M104.369 84.7671L131.847 60.0643C132.626 59.3651 131.799 58.1156 130.85 58.5656L105.362 70.5726L104.365 84.7671H104.369Z" fill="white"/>
<path d="M58.7359 159.37C58.414 158.993 57.971 158.699 57.6076 158.353C52.2496 153.244 50.654 145.03 53.6653 138.288L54.759 136.156L55.5759 135.003C55.8389 134.868 56.5623 134.643 56.8115 134.82L67.6832 142.514L68.7043 141.071C68.9812 140.68 70.0438 139.942 70.5006 139.707C71.359 139.261 72.1966 139.226 73.0793 138.966L77.8211 132.269L76.6339 131.428C76.3813 131.248 76.2809 130.317 76.5059 130.04C77.5235 128.853 78.3403 127.129 79.3683 125.997C79.7283 125.603 80.3686 125.485 80.8462 125.744C81.7738 126.243 84.0167 127.856 84.8301 128.562C85.2904 128.96 85.3977 129.458 85.1797 130.023L82.6565 133.667L83.5425 139.209C83.5668 139.333 83.6671 139.382 83.7537 139.454C85.7992 141.227 88.634 142.653 90.7523 144.4C90.9011 144.535 91.0361 144.774 91.1088 144.961C91.2749 145.39 91.3684 146.706 91.3995 147.221C92.2613 162.084 76.2567 170.522 64.0697 163.046L63.8689 163.005L58.7394 159.374L58.7359 159.37ZM63.8828 160.125L65.8522 161.423L68.0086 158.377C68.0293 158.346 68.6074 158.107 68.6939 158.1C69.2788 158.041 69.8672 158.484 69.9884 159.055C70.0057 159.138 69.9538 159.713 69.933 159.741L68.0501 162.402C73.0377 164.237 78.9529 163.586 83.2241 160.343C87.6268 156.999 89.7381 151.361 88.8763 145.965L82.7499 141.632L80.5486 144.74C80.3859 144.972 79.5656 145.089 79.2852 144.93C76.8416 143.546 73.8096 139.721 70.8848 142.275C70.0057 143.04 69.483 144.421 68.7146 145.075C68.6247 145.155 68.2612 145.325 68.1401 145.342C68.0743 145.349 67.5344 145.297 67.5101 145.276L56.7042 137.627C53.198 143.248 54.0079 150.783 58.3379 155.719L60.3108 152.929C60.3316 152.898 60.9096 152.659 60.9961 152.652C61.5811 152.593 62.1695 153.036 62.2906 153.607C62.3079 153.69 62.256 154.265 62.2352 154.293L60.0789 157.339C60.155 157.363 60.1724 157.501 60.1931 157.515L61.9583 158.765L64.1597 155.656C64.1804 155.625 64.7585 155.386 64.845 155.379C65.43 155.321 66.0184 155.764 66.1395 156.335C66.1568 156.418 66.1049 156.992 66.0841 157.02L63.8828 160.128V160.125ZM75.5713 139.531L79.4652 142.189L81.2131 139.721C81.0331 138.946 80.5347 134.294 80.2267 133.972C80.0986 133.84 79.8909 133.754 79.749 133.629L75.5748 139.527L75.5713 139.531ZM79.1848 130.348L81.1093 131.708L82.4696 129.784L80.5451 128.423L79.1848 130.348Z" fill="white"/>
<path d="M70.8607 146.204C71.9856 144.615 74.1835 144.238 75.7722 145.363C77.3609 146.488 77.7382 148.685 76.6133 150.274C75.4884 151.863 73.2905 152.24 71.7018 151.115C70.1131 149.99 69.7358 147.792 70.8607 146.204ZM72.7817 147.564C72.4079 148.094 72.5325 148.827 73.062 149.205C73.5916 149.578 74.3254 149.454 74.7027 148.924C75.0799 148.395 74.9519 147.661 74.4223 147.284C73.8927 146.906 73.159 147.034 72.7817 147.564Z" fill="white"/>
<path d="M87.9695 142.819C88.2291 142.964 88.4852 143.106 88.7275 143.241C89.0909 137.945 86.8273 132.387 82.4142 129.022C86.9138 132.546 88.6652 137.956 87.9695 142.819Z" fill="white"/>
<path d="M58.8398 137.637C59.8263 138.464 60.8093 139.312 61.0827 139.638C60.4043 128.036 73.3804 121.844 82.4142 129.026C74.5399 122.591 61.8961 125.412 59.1098 136.329C59.0025 136.768 58.9125 137.205 58.8398 137.637Z" fill="white"/>
<path d="M98.0486 50.1168C88.8625 61.0923 78.7904 71.7737 68.8047 82.0466C65.9008 85.0682 61.6469 89.284 58.6564 92.2952L57.3239 89.8239C68.5728 87.8095 80.8325 85.7501 92.1541 84.4867C79.6072 88.0553 65.9492 90.9834 53.1773 93.7247C67.5968 78.7792 82.3727 63.7436 98.0486 50.1203V50.1168Z" fill="white"/>
<path d="M114.012 86.598C118.857 86.2381 123.485 86.9649 128.071 87.9791C132.64 89.0797 137.112 90.4608 141.303 92.9286C136.454 93.299 131.83 92.5686 127.244 91.5476C122.679 90.44 118.203 89.0555 114.012 86.598Z" fill="white"/>
<path d="M44.2335 15.0061C31.2747 20.4956 19.4338 30.6889 15.18 44.4335C12.5979 52.6331 12.9129 61.4108 14.73 69.78C14.1797 67.7898 13.6155 65.5331 13.2867 63.4771C13.0306 62.3072 12.8679 60.3932 12.7295 59.1886C12.0787 51.2036 13.6847 43.1355 17.6548 36.1404C23.4662 26.1201 33.3722 18.72 44.237 15.0027L44.2335 15.0061Z" fill="white"/>
<path d="M13.3005 37.459C10.3688 43.2773 8.55513 49.7048 8.25054 56.2119C7.63098 67.5682 12.7744 77.3392 21.2094 84.7185C19.9529 83.7702 18.5719 82.6487 17.4228 81.5515C17.0663 81.2573 16.5713 80.7347 16.246 80.392C15.5468 79.679 14.6607 78.6787 14.0619 77.9069C4.51935 66.1664 5.61655 49.8467 13.3039 37.459H13.3005Z" fill="white"/>
<path d="M10.9434 36.9744C4.17321 46.7559 -0.34715 58.9497 2.05148 70.9083C2.14493 71.3028 2.37337 72.3447 2.46336 72.7358C2.58104 73.1477 2.85448 74.1307 2.9687 74.5495C2.7991 74.1445 2.40798 73.1927 2.25223 72.8016C2.11724 72.4208 1.79189 71.4067 1.66036 71.0017C-1.73164 59.0778 2.96524 46.0186 10.9434 36.971V36.9744Z" fill="white"/>
<path d="M140.077 32.9773C142.06 28.7597 140.947 24.0616 137.591 22.4838C134.234 20.906 129.906 23.0459 127.924 27.2635C125.941 31.4811 127.054 36.1792 130.41 37.757C133.766 39.3348 138.094 37.1949 140.077 32.9773Z" fill="white"/>
</svg>
