<svg width="162" height="176" viewBox="0 0 162 176" fill="none" xmlns="http://www.w3.org/2000/svg">
<path d="M29.8593 72.0254L45.7117 64.4073C48.8337 62.9051 52.4507 62.8151 55.6488 64.1546L94.373 80.3946C96.7612 81.3949 97.7581 84.247 96.5155 86.5175L68.5246 137.636C67.9258 138.734 66.254 138.079 66.5551 136.868L76.205 97.8357C76.5235 96.5412 75.9074 95.2018 74.7167 94.603L29.8627 72.0254H29.8593Z" fill="white"/>
<path d="M51.0452 27.9468L58.8641 24.406C62.3495 22.8277 66.9633 24.8109 68.514 28.5525L75.4676 45.3394L119.66 65.2484C120.837 65.778 120.453 67.3563 119.214 67.0828L69.625 56.0796L51.0486 27.9433L51.0452 27.9468Z" fill="white"/>
<path d="M61.6503 94.9941L41.1114 131.673C40.5299 132.715 41.8763 133.753 42.7347 132.922L65.7795 110.646L61.6468 94.9907L61.6503 94.9941Z" fill="white"/>
<path d="M148.108 94.0562C134.052 85.8046 114.725 92.6232 104.94 109.289C95.1551 125.955 98.6197 146.154 112.676 154.41C126.732 162.661 146.059 155.842 155.844 139.177C165.629 122.511 162.164 102.311 148.108 94.0562ZM150.521 136.048C141.501 151.409 124.281 158.044 112.053 150.865C99.8277 143.687 97.2283 125.415 106.245 110.054C115.265 94.693 132.484 88.0579 144.713 95.2365C156.938 102.415 159.537 120.687 150.521 136.048Z" fill="white"/>
<path d="M135.915 127.81C138.6 123.237 137.828 117.799 134.189 115.663C130.551 113.527 125.426 115.502 122.741 120.075C120.056 124.647 120.828 130.086 124.466 132.222C128.104 134.358 133.23 132.383 135.915 127.81Z" fill="white"/>
<path d="M48.7298 112.124C34.6737 103.872 15.3463 110.691 5.56139 127.356C-4.22349 144.022 -0.758803 164.222 13.2972 172.477C27.3532 180.729 46.6807 173.91 56.4656 157.244C66.2505 140.578 62.7858 120.379 48.7298 112.124ZM51.1388 154.119C42.1188 169.48 24.8992 176.115 12.6707 168.936C0.445704 161.758 -2.15367 143.486 6.86281 128.125C15.8828 112.764 33.1023 106.129 45.3308 113.307C57.5559 120.486 60.1553 138.758 51.1388 154.119Z" fill="white"/>
<path d="M36.5345 145.878C39.2194 141.305 38.4468 135.867 34.8087 133.73C31.1706 131.594 26.0448 133.569 23.3598 138.142C20.6749 142.715 21.4475 148.154 25.0856 150.29C28.7237 152.426 33.8495 150.451 36.5345 145.878Z" fill="white"/>
<path d="M133.685 77.6291C131.837 75.3413 129.805 73.2022 127.493 71.3712C127.303 71.2293 127.116 71.0839 126.926 70.942C130.394 69.8033 133.782 68.4638 136.998 66.6397C132.232 66.8613 127.659 67.9065 123.108 69.1837C118.577 70.5232 114.147 72.0739 110 74.4309C114.766 74.2164 119.342 73.1676 123.89 71.8869C124.551 71.6897 125.212 71.4889 125.87 71.2812C126.832 73.2541 128.068 75.0678 129.397 76.8157C129.812 77.3488 130.241 77.8749 130.678 78.3906C130.141 81.3672 129.84 84.3958 130.179 87.4209C131.944 84.3923 132.945 81.0246 133.685 77.6257V77.6291Z" fill="white"/>
<path d="M96.8302 30.4284L98.8342 32.4775C99.8657 31.4737 100.797 30.3177 101.589 28.9886C103.905 25.0289 104.223 20.8235 103.116 17.037L101.939 17.2169C102.808 21.8723 101.337 26.8599 96.8302 30.425V30.4284Z" fill="white"/>
<path d="M116.411 12.8732L116.123 13.5447L115.455 14.05C111.831 14.7007 108.09 14.6696 104.497 15.5487C104.625 16.4036 104.743 17.1651 104.026 17.8331C103.867 17.9785 103.646 18.0096 103.535 18.1723C103.068 18.868 103.109 19.6987 102.316 20.3356C101.472 21.0174 97.8826 21.1455 96.6123 21.3878C96.377 21.4328 95.927 21.4501 95.8059 21.6301L93.833 26.2577L93.8156 26.545L98.6544 31.633C100.153 32.0864 102.773 30.2174 103.49 32.3945C103.559 32.6022 103.587 33.111 103.684 33.2217C104.037 33.6267 104.525 33.6128 104.843 34.357C104.978 34.672 105.238 36.2849 105.227 36.6379C105.2 37.8494 104.3 38.0951 103.684 38.9258C103.123 39.6873 102.853 40.4591 102.759 41.3937C102.725 41.7502 102.825 42.259 102.759 42.5774C102.573 43.4323 102.168 43.6331 101.503 44.045C100.541 44.6403 98.3187 45.9244 97.3288 46.2982C96.5916 46.5751 95.9201 46.4505 95.3351 45.9175C94.6152 45.2633 93.7707 43.9204 93.0819 43.1347C91.8047 41.6775 90.4306 40.3034 89.1118 38.8843C88.8661 38.1193 89.4164 37.5898 90.1606 38.0432C90.6486 38.3409 92.1023 40.0126 92.5938 40.5457C93.1199 41.1133 93.5941 41.7363 94.1341 42.2936C94.1964 42.3593 94.2691 42.567 94.3902 42.4701C93.4799 40.0611 92.0262 37.569 90.2091 35.7276C89.3922 34.9004 87.139 33.3152 86.6751 32.4845C85.8791 31.0619 87.5612 30.5081 87.5266 29.494C87.5093 29.0129 86.5229 28.5145 86.7028 27.8707C86.8759 27.2615 87.3812 27.2165 87.8589 27.5488C88.6515 28.8467 90.3579 30.2901 90.7559 31.7438C90.9809 32.5745 90.9671 34.087 91.2959 34.8C91.5312 35.3123 92.5662 36.3403 92.978 36.9079C94.6775 39.2546 96.0966 42.1413 96.377 45.0453C96.4531 45.1664 96.9723 44.9172 97.1004 44.8583C98.2218 44.3634 99.3986 43.5292 100.51 42.9789C99.9039 41.3071 96.5812 38.642 99.4678 37.4271L103.815 36.8871C103.909 36.8318 103.642 34.9489 103.549 34.8C103.382 34.537 103.085 34.6374 102.811 34.6581C101.396 34.7758 99.7655 35.3331 98.3672 35.385C97.9726 35.3988 97.6057 35.4161 97.2561 35.1808C95.1067 32.969 92.8119 30.7954 90.7871 28.4556C90.3025 27.8984 89.7764 27.4069 89.8699 26.5969C91.0051 24.1914 91.8324 21.284 93.0715 18.9615C93.3934 18.3592 93.8087 18.1966 94.4352 18.0235L103.126 16.7671C103.344 16.5075 103.213 16.1198 103.092 15.8395C102.458 16.0021 101.818 16.1406 101.174 16.2444C98.2702 16.7117 94.629 17.3866 91.7493 17.5735C91.3236 17.6012 90.8736 17.6497 90.4583 17.4974C90.0152 17.3347 87.7274 15.303 87.4678 14.8911C87.0836 14.2854 87.3328 13.4547 87.8589 13.0255L85.5122 12.4751C86.0106 13.0982 87.5439 15.3583 87.4262 16.0956C87.3362 16.6598 86.5886 16.864 86.2079 16.4417C86.0902 16.3136 85.6783 15.2095 85.5156 14.9118C84.9376 13.8666 83.7262 12.3505 82.6532 11.8141C82.044 11.5095 78.1709 10.6061 77.4198 10.5403C76.8903 10.4919 75.6892 10.8138 75.17 11.0041C70.2032 12.8144 68.0849 19.0653 71.0166 23.4784C71.868 24.759 72.8476 24.9182 74.104 25.6451C75.5716 26.4966 76.2776 27.3273 78.0636 27.348C82.3313 27.393 85.6506 24.3125 86.4363 20.1868C86.5402 19.6399 86.3775 18.4008 87.2324 18.4804C88.0943 18.56 87.9039 19.5707 87.8208 20.1868C87.222 24.7417 83.5358 28.2133 79.0189 28.6806C79.0397 28.8363 79.1539 28.8571 79.2508 28.9333C81.9506 31.1104 85.4187 33.1767 87.7862 35.7311C88.5061 36.5064 87.7724 37.3752 86.8828 36.7937C85.5606 35.9284 83.83 34.0836 82.4663 33.0037C77.7521 29.2621 73.3668 26.7942 67.9915 24.1429C66.8597 23.5857 66.3578 23.2845 66.2678 21.9831C66.1051 19.6883 66.3439 17.1893 66.2747 14.8772C66.3301 14.1331 66.8908 13.825 67.2577 13.3266C68.0226 12.2848 68.6145 11.3399 68.5626 9.98307C68.5037 8.40475 67.2542 7.9721 68.5453 6.32802C69.9678 4.51088 71.9684 2.83218 73.436 1.01158C73.6713 0.83852 73.9032 0.706994 74.1871 0.623924C74.547 0.520088 76.8141 0.208578 77.1083 0.260496C77.9044 0.402406 77.9459 1.33001 77.271 1.58268C76.6791 1.8042 74.8205 1.72459 74.3774 2.00841L69.5767 7.24178L89.638 12.001C90.0914 12.0252 91.0847 11.2983 91.5659 11.0837C93.5249 10.2115 96.0966 10.4538 98.1976 10.0869L98.2633 9.91385C97.4811 9.17314 96.4566 8.49821 95.7159 7.7402C94.7225 6.7226 95.5013 6.02343 95.6605 4.82239C92.2166 2.65912 88.0077 1.72805 83.9927 1.45808C82.8713 1.38193 81.2756 1.55153 80.2788 1.39924C79.6177 1.29886 79.282 0.675843 79.7942 0.194733C80.0504 -0.0440914 81.7014 0.000904483 82.1548 0.00782693C85.9379 0.0493616 90.5794 0.793524 94.0441 2.35454C94.5564 2.58644 95.7851 3.42405 96.2177 3.48289C96.3596 3.50366 96.64 3.03294 97.3253 3.25099C99.2948 3.8844 101.413 5.32773 103.351 6.12035L111.008 9.37736C112.302 9.96576 114.147 10.1907 115.379 10.7584C116.237 11.153 116.525 11.9802 116.417 12.8663L116.411 12.8732ZM96.6192 6.71568C97.7372 7.62944 98.6821 8.70588 99.987 9.36351C102.185 10.4676 105.127 11.5441 107.491 12.2571C109.893 12.9839 112.077 13.4097 114.562 12.8663C115.161 12.7347 115.265 12.219 114.76 11.9871C114.251 11.7518 113.372 11.6341 112.804 11.4402C108.408 9.93461 104.227 7.95479 100.032 6.00266C99.0767 5.55963 98.118 5.12697 97.1627 4.6874L96.6227 6.71568H96.6192ZM107.162 13.607L103.4 12.309L99.5751 10.6822C99.5024 10.8795 99.3917 11.0007 99.2359 11.1357C98.5368 11.7344 94.0476 11.7033 92.7807 12.0563L88.8523 14.0569L88.7034 14.2923C89.413 14.7076 90.1225 15.7633 90.7975 16.1371C91.0121 16.2548 91.1055 16.2583 91.3409 16.2583L100.835 14.9292L107.162 13.6104V13.607ZM102.199 33.4225C102.33 33.3256 102.275 32.7129 102.005 32.6714C101.513 32.5987 99.9697 33.0867 99.3259 33.1213C98.1387 33.1836 97.6957 32.6645 96.9307 31.903C95.7885 30.7677 93.7326 28.7325 92.8257 27.4969C92.4277 26.9534 92.3273 26.4585 92.5385 25.8009C92.9365 24.5687 93.9333 22.2289 94.5425 21.0867C94.8159 20.5779 95.2036 20.2698 95.7574 20.1245C97.3773 19.6953 99.5024 19.7679 101.174 19.3976C101.621 19.2695 101.783 18.8161 101.932 18.4285L94.4421 19.453L91.2786 26.6592L91.2613 26.9465L97.9483 34.0074L102.195 33.4225H102.199ZM74.3082 9.85847L69.7186 8.74741C70.172 10.3396 69.7948 11.9629 68.926 13.3474C68.5695 13.915 67.7007 14.6903 67.6004 15.2441L67.6384 22.2635C67.725 22.5265 68.9225 23.018 69.2375 23.1842C66.87 18.1446 69.1683 12.0425 74.3117 9.85847H74.3082ZM89.631 33.3498C89.4684 32.3737 89.4095 31.4357 88.5338 30.7989L87.8174 31.7818L89.6345 33.3498H89.631ZM102.348 38.462L100.24 38.6766L99.6859 38.867L99.7586 39.1923L101.396 41.6325C101.403 40.4903 101.738 39.4346 102.344 38.4655L102.348 38.462Z" fill="white"/>
<path d="M83.1757 21.0797C81.9816 23.8833 78.7419 25.1916 75.9383 23.9975C73.1347 22.8034 71.8264 19.5637 73.0205 16.7601C74.2146 13.9565 77.4543 12.6482 80.2579 13.8423C83.0615 15.0364 84.3698 18.2761 83.1757 21.0797ZM81.9055 20.5432C82.8019 18.4388 81.8189 16.009 79.718 15.1125C77.6135 14.2161 75.1838 15.1991 74.2873 17.3C73.3909 19.4045 74.3738 21.8342 76.4748 22.7307C78.5792 23.6272 81.009 22.6442 81.9055 20.5432Z" fill="white"/>
<path d="M90.1051 25.0705C89.7416 25.922 88.7587 26.32 87.9037 25.9566C87.0523 25.5932 86.6542 24.6102 87.0177 23.7552C87.3811 22.9038 88.3641 22.5057 89.219 22.8692C90.0739 23.2326 90.4685 24.2156 90.1051 25.0705ZM88.8556 24.534C88.9213 24.3783 88.8487 24.1948 88.6929 24.1291C88.5371 24.0633 88.3537 24.136 88.2879 24.2917C88.2222 24.4475 88.2949 24.6309 88.4506 24.6967C88.6064 24.7625 88.7898 24.6898 88.8556 24.534Z" fill="white"/>
<path d="M94.6046 14.7145C94.2446 15.5625 93.2616 15.9571 92.4136 15.5971C91.5656 15.2372 91.1711 14.2542 91.531 13.4062C91.891 12.5582 92.874 12.1636 93.722 12.5236C94.57 12.8835 94.9646 13.8665 94.6046 14.7145ZM93.3378 14.1815C93.4001 14.0326 93.3309 13.8596 93.182 13.7973C93.0332 13.735 92.8601 13.8042 92.7978 13.953C92.7355 14.1019 92.8048 14.2749 92.9536 14.3372C93.1024 14.3995 93.2755 14.3303 93.3378 14.1815Z" fill="white"/>
</svg>
