<svg width="218" height="124" viewBox="0 0 218 124" fill="none" xmlns="http://www.w3.org/2000/svg">
<path d="M62.8559 62.6662C57.2972 63.7634 51.7004 64.0195 46.0724 64.0542C40.4445 64.023 34.8477 63.7703 29.2889 62.6662C34.8477 61.5621 40.4445 61.3094 46.0724 61.2783C51.7004 61.3129 57.2972 61.569 62.8559 62.6662Z" fill="white"/>
<path d="M47.6647 57.1837C45.0723 58.2809 42.4625 58.5371 39.8389 58.5717C37.2153 58.5405 34.6055 58.2879 32.0131 57.1837C34.6055 56.0796 37.2153 55.8269 39.8389 55.7958C42.4625 55.8304 45.0723 56.0865 47.6647 57.1837Z" fill="white"/>
<path d="M55.0924 76.4799V84.3508L70.7752 75.272L71.1075 60.3749L55.0924 76.4799Z" fill="white"/>
<path d="M35.8724 47.513L47.1941 39.483C49.4266 37.9012 52.2267 37.3508 54.8919 37.9669L87.1747 45.4674C89.1649 45.9312 90.3175 48.0149 89.6529 49.9462L74.6554 93.4296C74.3335 94.3606 72.9491 94.0768 73.0217 93.0938L75.3511 61.4479C75.4273 60.3991 74.7697 59.4369 73.7659 59.1289L35.8759 47.5095L35.8724 47.513Z" fill="white"/>
<path d="M66.795 19.0445L72.378 15.7148C74.8666 14.2299 78.0925 15.3513 79.1239 18.0615L83.7481 30.2138L114.629 41.6532C115.453 41.9578 115.155 43.1865 114.283 43.0792L79.4354 38.8392L66.795 19.0479V19.0445Z" fill="white"/>
<path d="M101.729 23.1425C94.3739 27.5382 83.9591 23.9974 82.7372 14.9255C81.3216 3.59004 95.0661 -4.32924 104.159 2.58629C111.396 8.19347 109.223 18.989 101.726 23.139L101.729 23.1425ZM101.729 23.1425C110.749 17.9887 109.863 4.52457 99.0673 2.59667C93.3597 1.61714 87.3061 5.09913 85.2882 10.5263C81.5293 20.8373 92.7436 28.3585 101.729 23.1425Z" fill="white"/>
<path d="M150.899 67.7128C139.969 59.3436 123.061 63.0644 113.137 76.0232C103.214 88.982 104.031 106.274 114.961 114.644C125.892 123.013 142.8 119.292 152.723 106.333C162.647 93.3743 161.83 76.082 150.899 67.7128ZM148.58 103.163C139.432 115.107 124.31 118.89 114.802 111.611C105.294 104.333 105.003 88.7467 114.151 76.802C123.299 64.8573 138.421 61.0742 147.929 68.3531C157.437 75.6321 157.728 91.218 148.58 103.163Z" fill="white"/>
<path d="M137.185 94.7349C139.908 91.1788 139.822 86.5399 136.992 84.3738C134.163 82.2076 129.663 83.3344 126.94 86.8906C124.217 90.4467 124.303 95.0856 127.132 97.2517C129.961 99.4179 134.462 98.2911 137.185 94.7349Z" fill="white"/>
<path d="M125.393 52.5836C124.168 50.6142 122.784 48.7417 121.147 47.0838C121.012 46.9522 120.88 46.8242 120.745 46.6926C123.573 46.1354 126.356 45.412 129.052 44.294C125.297 44.0067 121.614 44.3875 117.928 44.9482C114.248 45.5608 110.631 46.3465 107.153 47.7933C110.908 48.084 114.591 47.7068 118.277 47.1391C118.814 47.0491 119.35 46.9522 119.887 46.8553C120.451 48.4959 121.243 50.0362 122.116 51.5314C122.389 51.9918 122.673 52.4417 122.967 52.8882C122.261 55.1692 121.732 57.509 121.707 59.9145C123.383 57.7132 124.49 55.1726 125.397 52.5802L125.393 52.5836Z" fill="white"/>
<path d="M78.691 91.9621C88.694 83.8698 99.4272 76.1893 110.015 68.8584C113.099 66.6952 117.581 63.7151 120.741 61.576L121.489 63.9885C111.216 63.8189 100.047 63.5143 89.8396 62.6663C101.525 61.6902 114.082 61.4722 125.822 61.2645C110.517 71.9528 94.8792 82.6583 78.691 91.9656V91.9621Z" fill="white"/>
<path d="M217.234 59.5441C199.318 57.1628 163.273 52.3171 145.372 49.8458L145.098 49.8077V49.5308L145.019 17.0992V16.7704L145.341 16.708C165.381 12.6826 196.895 6.62897 217.182 2.65548L217.517 2.58972V2.93238C217.469 17.0438 217.362 45.4431 217.237 59.5476L217.234 59.5441ZM217.234 59.5441C217.106 45.4293 216.995 17.0369 216.953 2.92892L217.289 3.20582C196.93 7.29352 165.637 13.5445 145.493 17.4868L145.815 17.0957L145.735 49.5274L145.462 49.2124C163.356 51.7287 199.356 56.9309 217.237 59.5407L217.234 59.5441Z" fill="white"/>
<path d="M211.661 54.9131C196.11 52.9713 164.824 49.029 149.283 47.0215L148.961 46.98V46.6511L148.919 19.9028V19.5602L149.255 19.4979C164.786 16.587 196.065 10.7617 211.602 7.90968L211.979 7.84045V8.22119L211.661 54.9096V54.9131ZM211.661 54.9131L211.346 8.22465L211.72 8.53616C196.193 11.5094 164.941 17.4073 149.407 20.3147L149.743 19.9097L149.702 46.6581L149.38 46.2912C164.903 48.3991 196.144 52.7429 211.661 54.92V54.9131Z" fill="white"/>
<path d="M176.855 115.46L173.719 115.132L171.781 52.7672L180.551 54.3871L176.855 115.46Z" fill="white"/>
<path d="M0.00012207 111.895L22.2973 92.2217H30.1681L38.039 118.454H48.5334L56.4042 97.4654L69.5188 113.207V123.701H3.93553L0.00012207 111.895Z" fill="white"/>
<path d="M42.0349 101.161C43.7537 98.9165 43.6988 95.9879 41.9124 94.6201C40.126 93.2523 37.2845 93.9632 35.5657 96.208C33.8469 98.4528 33.9018 101.381 35.6882 102.749C37.4746 104.117 40.3162 103.406 42.0349 101.161Z" fill="white"/>
<path d="M39.2573 97.109C39.9288 88.5701 40.7456 79.9828 41.7217 71.4509L42.1301 67.9724C42.7393 69.8242 44.0407 73.7665 44.6603 75.6425C47.8827 85.6073 51.1397 96.0187 54.0609 106.067L54.5524 107.745C49.4852 104.36 44.1792 100.629 39.2608 97.1055L39.2573 97.109ZM38.9666 95.8422C42.6493 98.2062 46.5155 100.712 50.1359 103.111C51.3473 103.914 52.5553 104.71 53.7494 105.523L52.8322 106.302C49.7621 97.0398 46.6539 87.2064 43.8157 77.8507C43.0889 75.4867 41.6525 70.6929 40.9568 68.3185L42.4728 68.2112C41.5002 77.1343 40.2091 86.933 38.9666 95.8422Z" fill="white"/>
<path d="M117.609 117.52L114.117 119.766V123.701H141.661V119.766L138.993 118.049C131.772 120.583 123.967 120.531 117.609 117.52Z" fill="white"/>
</svg>
