<svg width="156" height="135" viewBox="0 0 156 135" fill="none" xmlns="http://www.w3.org/2000/svg">
<path d="M37.512 57.0088L49.7197 48.3489C52.1252 46.6425 55.1469 46.0471 58.0197 46.7152L92.8292 54.804C94.9752 55.3025 96.2212 57.5522 95.5013 59.6359L79.3305 106.529C78.9843 107.532 77.4891 107.228 77.5687 106.165L80.0815 72.0375C80.1646 70.9056 79.4551 69.8673 78.3717 69.535L37.512 57.0054V57.0088Z" fill="white"/>
<path d="M70.8574 26.3078L76.88 22.7151C79.5624 21.1125 83.0444 22.324 84.1554 25.2452L89.1396 38.3494L122.44 50.6852C123.326 51.014 123.004 52.3397 122.066 52.2255L84.4877 47.6532L70.8574 26.3078Z" fill="white"/>
<path d="M146.416 78.7869C134.627 69.76 116.397 73.7716 105.695 87.748C94.9927 101.724 95.8754 120.37 107.661 129.397C119.45 138.424 137.68 134.412 148.382 120.436C159.084 106.459 158.202 87.8138 146.416 78.7869ZM143.917 117.016C134.053 129.899 117.747 133.976 107.495 126.126C97.2425 118.276 96.9276 101.468 106.792 88.5891C116.657 75.7064 132.962 71.6291 143.214 79.4791C153.467 87.3292 153.782 104.137 143.917 117.016Z" fill="white"/>
<path d="M131.633 107.929C134.569 104.096 134.474 99.093 131.422 96.756C128.37 94.419 123.516 95.6325 120.58 99.4664C117.645 103.3 117.739 108.303 120.791 110.64C123.844 112.977 128.698 111.763 131.633 107.929Z" fill="white"/>
<path d="M45.1165 82.8053C34.1098 74.3773 17.0875 78.1258 7.09845 91.1711C-2.8941 104.22 -2.07033 121.63 8.93636 130.058C19.943 138.486 36.9653 134.738 46.9544 121.692C56.947 108.643 56.1232 91.2334 45.1165 82.8053ZM42.7837 118.497C33.5733 130.525 18.3474 134.333 8.77714 127.002C-0.796596 119.671 -1.08734 103.981 8.11951 91.9533C17.3298 79.9256 32.5557 76.1182 42.126 83.4491C51.6998 90.78 51.9905 106.47 42.7837 118.497Z" fill="white"/>
<path d="M31.3168 110.019C34.0582 106.438 33.9711 101.767 31.1222 99.5862C28.2734 97.4049 23.7416 98.5392 21.0001 102.12C18.2587 105.7 18.3458 110.371 21.1947 112.552C24.0436 114.733 28.5754 113.599 31.3168 110.019Z" fill="white"/>
<path d="M83.6848 104.936C90.41 96.2107 97.6266 87.928 104.743 80.0225C106.816 77.6897 109.827 74.4742 111.953 72.169L112.454 74.7684C105.549 74.585 98.0385 74.2561 91.1784 73.3424C99.0353 72.2902 107.474 72.0548 115.369 71.8298C105.079 83.3557 94.5669 94.8989 83.6848 104.936Z" fill="white"/>
<path d="M66.6105 73.3459C60.6157 74.5296 54.5828 74.8065 48.5152 74.8446C42.4443 74.8135 36.4113 74.5366 30.4165 73.3459C36.4113 72.1552 42.4443 71.8818 48.5152 71.8472C54.5828 71.8853 60.6191 72.1622 66.6105 73.3459Z" fill="white"/>
<path d="M50.2287 67.434C47.4321 68.6178 44.6181 68.8946 41.7903 68.9327C38.959 68.9016 36.145 68.6247 33.3518 67.434C36.145 66.2434 38.9624 65.9699 41.7903 65.9353C44.6215 65.9734 47.4355 66.2503 50.2287 67.434Z" fill="white"/>
<path d="M48.1242 97.9621L45.8467 100.215C45.0056 101.046 46.0059 102.41 47.0512 101.852L48.3976 101.139L48.1242 97.9621Z" fill="white"/>
<path d="M54.2263 91.9257C54.6001 93.7498 55.0293 96.0411 55.2924 97.4775L75.1494 86.9381L75.5094 70.8745L54.2263 91.9222V91.9257Z" fill="white"/>
<path d="M81.8297 9.72512C82.3627 3.21803 90.1989 0.802093 95.678 0.622109C103.106 0.379824 114.344 3.80297 117.584 11.1581C118.138 12.411 118.958 15.1835 118.141 16.3637C117.459 17.3467 116.501 17.0318 115.473 17.1321C115.331 17.2325 115.435 18.3713 115.407 18.6412C115.314 19.4892 114.549 20.1123 113.728 20.1849C112.07 20.3268 110.229 20.0603 108.55 20.1988L103.095 27.9554C103.078 28.1008 103.099 28.0488 103.199 28.0627C103.455 28.0938 103.722 28.0558 103.975 28.1388C104.258 27.5608 104.989 27.1178 105.632 27.1247C106.124 27.1316 107.903 27.502 108.28 27.7754C108.941 28.2565 109.114 28.8691 109.024 29.6652C108.948 30.3367 108.246 33.3895 107.972 33.9156C107.727 34.3898 107.145 34.7809 106.615 34.8501C106.055 34.9228 104.106 34.5386 103.639 34.2133C103.275 33.9606 102.936 33.386 102.94 32.9395C97.7374 32.5034 93.7951 28.3119 92.9921 23.2689C92.3241 23.2724 91.6595 22.9989 91.2892 22.4278C91.2165 22.3171 90.9915 21.8221 90.9915 21.7252V20.1849H88.8075C88.631 20.1849 88.1014 19.8838 87.9491 19.7523C87.108 19.022 87.3884 18.0251 87.3295 17.0421C84.9794 16.5714 82.9995 14.9585 82.2035 12.681C82.0546 12.2587 81.8677 11.5907 81.8262 11.1581C81.7916 10.7704 81.795 10.1128 81.8262 9.72512H81.8297ZM95.4876 1.86469C91.7772 2.03083 87.108 3.15572 84.6229 6.10815C81.5943 9.70782 83.0757 15.2458 87.9456 15.8861L116.958 15.8307C117.314 15.6784 117.276 15.1073 117.262 14.775C116.84 5.68588 102.926 1.52895 95.4876 1.86469ZM114.185 17.101H88.5583V18.9666H114.185V17.101ZM98.2947 20.1815H92.2099V21.5798C92.2099 21.8602 92.7221 22.0263 92.9575 22.0471C94.4562 22.1855 96.166 21.9363 97.6855 22.0471C97.8551 22.0817 98.2912 21.7875 98.2912 21.6525V20.1849L98.2947 20.1815ZM102.59 20.1815H99.6203L99.513 20.2888V21.8636C99.513 21.8982 99.3504 22.234 99.3123 22.3067C99.0631 22.7809 98.5474 23.1512 98.0109 23.1893C97.9243 23.2724 98.3639 24.3903 98.4504 24.5772C98.5127 24.7088 98.8692 25.4356 99.0112 25.3387L102.59 20.1815ZM107.027 20.1815H104.127L99.7519 26.339C99.6792 26.6228 101.424 27.6404 101.766 27.6854L107.024 20.1815H107.027ZM96.7198 23.262H94.2139C94.9719 27.0485 97.3948 30.3471 101.226 31.3924C101.597 31.4928 102.649 31.7454 102.981 31.7212C103.061 31.7143 103.095 31.7212 103.109 31.6277L103.66 29.3537C100.14 29.1391 97.4571 26.6713 96.7164 23.2654L96.7198 23.262ZM106.789 33.483C106.875 33.3999 106.927 33.2372 106.965 33.123C107.228 32.3338 107.695 30.3955 107.796 29.5856C107.844 29.1807 107.858 28.8761 107.418 28.7099C107.204 28.6303 105.681 28.3361 105.504 28.3638C105.297 28.3984 105.051 28.5923 105.016 28.8138L104.12 32.7976C104.2 33.168 104.328 33.2268 104.66 33.3307C104.93 33.4137 106.103 33.6595 106.345 33.6526C106.463 33.6526 106.702 33.5626 106.785 33.4864L106.789 33.483Z" fill="white"/>
<path d="M95.9167 3.08297L97.0451 3.05875C100.79 3.23873 104.615 4.02789 108.007 5.62697C108.543 5.87964 109.599 6.20154 109.374 6.94916C109.118 7.80754 107.436 6.69649 106.93 6.48536C101.946 4.41208 96.2836 3.55716 91.0087 5.04549C90.6176 5.15625 89.4408 5.66851 89.1466 5.59236C88.6551 5.4643 88.5374 4.79628 88.9493 4.49169C89.2158 4.2944 90.3096 3.97943 90.6903 3.86867C92.3897 3.37718 94.148 3.15912 95.9167 3.08297Z" fill="white"/>
<path d="M95.7751 5.51969C98.7379 5.39509 101.915 5.95235 104.702 6.92841C105.359 7.16031 107.709 8.04293 108.104 8.46866C108.544 8.93938 108.19 9.55202 107.581 9.49664C103.051 7.21569 97.5195 6.05965 92.4938 7.18108C91.9331 7.30569 91.2201 7.62412 90.7251 7.70026C89.7906 7.8491 89.5033 6.92149 90.3513 6.53729C91.7497 5.90389 94.2314 5.58546 95.7751 5.51969Z" fill="white"/>
<path d="M88.34 17.0179L87.3293 17.0386L86.4536 16.3637C84.8857 26.1694 94.3937 33.5868 103.746 31.8042C94.1029 33.5106 86.2494 25.3179 88.3365 17.0144L88.34 17.0179Z" fill="white"/>
<path d="M114.891 16.4364C116.366 22.9954 111.807 30.437 103.75 31.8042C111.399 30.6066 117.099 23.6426 116.393 16.4018L114.891 16.4329V16.4364Z" fill="white"/>
<path d="M115.369 74.1281C115.075 68.1332 114.922 62.1349 114.777 56.1366L115.369 56.1055C116.456 56.0501 119.193 55.9116 120.242 55.8874C120.512 55.8805 121.201 55.8632 121.46 55.8563C122.821 55.8493 124.16 56.1782 125.382 56.8392C127.632 58.0057 128.771 60.6258 128.573 63.0591C128.528 65.4369 127.175 67.8425 124.884 68.6766C123.838 69.092 122.703 69.2581 121.595 69.1439C124.839 68.5866 127.272 66.4753 127.071 63.0348C127.071 59.7848 124.946 57.8257 121.807 57.5246C120.204 57.4865 116.971 57.3515 115.369 57.2581L115.947 56.68C115.808 62.4984 115.653 68.3132 115.369 74.1246V74.1281Z" fill="white"/>
</svg>
