<svg width="199" height="128" viewBox="0 0 199 128" fill="none" xmlns="http://www.w3.org/2000/svg">
<g clip-path="url(#clip0_1064_1040)">
<path d="M49.9055 68.3409C37.7652 59.1144 18.9898 63.2166 7.96571 77.5023C-3.05491 91.7879 -2.14948 110.848 9.99082 120.075C22.1311 129.301 40.9066 125.199 51.9307 110.913C62.9513 96.6276 62.0458 77.5674 49.9055 68.3409ZM29.8065 95.9587C30.4458 95.1321 30.4251 94.0517 29.7616 93.5475C29.5646 93.4 29.3365 93.3177 29.0911 93.2971C29.5611 93.1702 30.0346 93.2285 30.4009 93.5063C31.1093 94.0448 31.1335 95.2007 30.4493 96.0856C29.7996 96.9294 28.7456 97.2209 28.0337 96.7819C28.635 96.8677 29.333 96.5658 29.8065 95.9553V95.9587ZM34.4546 97.9721C32.4537 100.565 29.2121 101.467 27.0211 100.119C28.87 100.387 31.0195 99.4573 32.4744 97.5776C34.4408 95.0292 34.3785 91.7056 32.3327 90.1553C31.7314 89.6957 31.0195 89.4487 30.273 89.387C31.7176 88.996 33.1828 89.1778 34.306 90.0318C36.49 91.6919 36.5592 95.2487 34.4546 97.9721Z" fill="white"/>
<path d="M32.2462 58.3084L42.8936 49.0098C44.9913 47.1783 47.6315 46.3173 50.1508 46.65L80.6484 50.6768C82.5284 50.9237 83.6274 52.8925 83.0088 54.9093L69.0611 100.229C68.7604 101.2 67.4541 101.066 67.5163 100.068L69.5656 68.0185C69.6347 66.9552 69.0092 66.06 68.0589 65.8611L32.2497 58.3084H32.2462Z" fill="white"/>
<path d="M61.2924 26.3414L66.5452 22.3867C68.8883 20.6238 71.9363 21.4023 72.9212 24.0091L77.3412 35.7154L106.536 43.8512C107.314 44.0673 107.037 45.3364 106.215 45.3227L73.3117 44.8528L61.2889 26.3414H61.2924Z" fill="white"/>
<path d="M65.2701 67.8196L45.1538 91.4381C44.5836 92.1069 45.2713 93.0158 45.9797 92.5322L65.08 79.5054L65.2701 67.8196Z" fill="white"/>
<path d="M54.6297 70.7933C42.8488 60.0885 22.9329 62.6507 10.1463 76.5145C-2.6402 90.3782 -3.45232 110.292 8.32858 120.997C20.1095 131.702 40.0254 129.14 52.8119 115.276C65.5984 101.412 66.4106 81.4981 54.6297 70.7933ZM48.3504 111.222C36.5661 123.998 18.7064 126.811 8.4599 117.502C-1.78661 108.193 -0.539058 90.2891 11.2453 77.5091C23.0296 64.7326 40.8893 61.9201 51.1358 71.2289C61.3823 80.5378 60.1348 98.442 48.3504 111.222Z" fill="white"/>
<path d="M69.0265 9.6411C69.5587 3.19283 77.3861 0.79874 82.8532 0.620383C90.2694 0.380288 101.49 3.77249 104.725 11.0611C105.278 12.3027 106.097 15.0501 105.282 16.2197C104.601 17.1938 103.643 16.8817 102.617 16.9811C102.475 17.0806 102.579 18.2091 102.551 18.4766C102.458 19.3169 101.694 19.9343 100.875 20.0063C99.22 20.147 97.3815 19.8829 95.7054 20.0201L90.2591 27.7065C90.2418 27.8506 90.2625 27.7991 90.3628 27.8129C90.6185 27.8437 90.8846 27.806 91.1369 27.8883C91.4202 27.3155 92.1494 26.8765 92.7922 26.8834C93.2829 26.8902 95.0592 27.2572 95.4359 27.5282C96.096 28.0049 96.2687 28.612 96.1789 29.4009C96.1029 30.0663 95.4013 33.0915 95.1283 33.6129C94.883 34.0828 94.3024 34.4704 93.7736 34.539C93.2138 34.611 91.2682 34.2303 90.8016 33.9079C90.4388 33.6575 90.1001 33.0881 90.1036 32.6456C84.9095 32.2135 80.9733 28.0598 80.1715 23.0624C79.5046 23.0658 78.841 22.7949 78.4713 22.2289C78.3987 22.1192 78.1741 21.6287 78.1741 21.5327V20.0063H75.9934C75.8172 20.0063 75.2885 19.7079 75.1364 19.5776C74.2966 18.8539 74.5766 17.8661 74.5178 16.892C72.1713 16.4255 70.1946 14.8272 69.3997 12.5703C69.2511 12.1518 69.0645 11.4898 69.0231 11.0611C68.9885 10.6769 68.992 10.0253 69.0231 9.6411H69.0265ZM82.6632 1.85173C78.9585 2.01636 74.2966 3.13109 71.8154 6.05682C68.7915 9.62395 70.2706 15.1118 75.1329 15.7464L104.1 15.6915C104.456 15.5406 104.418 14.9746 104.404 14.6454C103.982 5.63837 90.0897 1.51902 82.6632 1.85173ZM101.332 16.9503H75.7446V18.799H101.332V16.9503ZM85.4658 20.0029H79.3905V21.3886C79.3905 21.6664 79.902 21.8311 80.137 21.8516C81.6333 21.9888 83.3405 21.7419 84.8576 21.8516C85.027 21.8859 85.4624 21.5944 85.4624 21.4606V20.0063L85.4658 20.0029ZM89.7545 20.0029H86.7894L86.6823 20.1092V21.6699C86.6823 21.7042 86.5199 22.0369 86.4819 22.1089C86.233 22.5788 85.7181 22.9458 85.1825 22.9835C85.0961 23.0658 85.535 24.1737 85.6214 24.3589C85.6836 24.4893 86.0395 25.2096 86.1812 25.1135L89.7545 20.0029ZM94.1849 20.0029H91.2889L86.9208 26.1048C86.8482 26.386 88.5899 27.3944 88.932 27.439L94.1814 20.0029H94.1849ZM83.8934 23.0556H81.3914C82.1483 26.8079 84.5673 30.0766 88.3929 31.1125C88.7627 31.2119 89.8133 31.4623 90.145 31.4383C90.2245 31.4314 90.2591 31.4383 90.2729 31.3457L90.8224 29.0922C87.3078 28.8796 84.6295 26.434 83.89 23.059L83.8934 23.0556ZM93.9499 33.1841C94.0363 33.1018 94.0881 32.9406 94.1261 32.8274C94.3888 32.0454 94.8553 30.1246 94.9555 29.322C95.0039 28.9207 95.0177 28.6189 94.5788 28.4543C94.3646 28.3754 92.844 28.0838 92.6678 28.1113C92.4604 28.1456 92.2151 28.3376 92.1805 28.5572L91.2854 32.505C91.3649 32.872 91.4928 32.9303 91.8246 33.0332C92.0941 33.1155 93.2656 33.3591 93.5075 33.3522C93.625 33.3522 93.8635 33.263 93.9464 33.1876L93.9499 33.1841Z" fill="white"/>
<path d="M83.0917 3.05907L84.2183 3.03506C87.9575 3.21342 91.7762 3.99544 95.1629 5.58007C95.6986 5.83046 96.7526 6.14944 96.528 6.89031C96.2723 7.74093 94.5927 6.63992 94.0882 6.43069C89.1118 4.37617 83.4581 3.52897 78.1914 5.00384C77.8009 5.1136 76.6259 5.62123 76.3322 5.54577C75.8414 5.41887 75.7239 4.75689 76.1352 4.45506C76.4013 4.25955 77.4933 3.94743 77.8735 3.83767C79.5703 3.35062 81.3258 3.13453 83.0917 3.05907Z" fill="white"/>
<path d="M82.9501 5.47376C85.9083 5.35028 89.0808 5.9025 91.8627 6.86974C92.5193 7.09955 94.8658 7.97418 95.2598 8.39606C95.6987 8.86253 95.3462 9.46963 94.7379 9.41475C90.2143 7.15443 84.6919 6.00883 79.674 7.12013C79.1142 7.24361 78.4023 7.55916 77.9081 7.63462C76.975 7.7821 76.6882 6.86288 77.5349 6.48216C78.931 5.85448 81.4088 5.53893 82.9501 5.47376Z" fill="white"/>
<path d="M72.0123 9.79546C72.7795 9.72 72.6862 10.8244 72.8556 11.3389C73.1942 12.3713 74.1446 13.1362 75.2193 13.3214C75.634 13.3935 76.263 13.2117 76.3217 13.8599C76.3805 14.5082 75.8898 14.5596 75.3507 14.5391C73.9061 14.4773 72.4823 13.4552 71.8741 12.1724C71.6149 11.6236 71.0274 9.8915 72.0123 9.79546Z" fill="white"/>
<path d="M75.5304 16.868L74.5213 16.8886L73.647 16.2197C72.0815 25.9367 81.5746 33.2871 90.9123 31.5206C81.2843 33.2116 73.4431 25.093 75.5269 16.8646L75.5304 16.868Z" fill="white"/>
<path d="M102.04 16.2917C103.512 22.7915 98.9609 30.1658 90.9158 31.5206C98.5531 30.3339 104.245 23.4329 103.54 16.2574L102.04 16.2883V16.2917Z" fill="white"/>
<path d="M90.1416 67.6412L99.4274 56.3945C101.259 54.1787 103.906 52.8891 106.705 52.8513L140.61 52.3952C142.701 52.3677 144.357 54.2405 144.166 56.4219L139.892 105.477C139.798 106.53 138.354 106.585 138.184 105.545L132.769 72.0418C132.589 70.9305 131.701 70.1005 130.627 70.0353L90.1416 67.6446V67.6412Z" fill="white"/>
<path d="M113.907 30.1281L118.642 25.237C120.753 23.0556 124.23 23.3985 125.916 25.9504L133.478 37.4064L166.954 41.4022C167.846 41.5086 167.849 42.8634 166.958 42.9766L131.3 47.4801L113.907 30.1315V30.1281Z" fill="white"/>
<path d="M129.469 72.9062L117.439 93.4514C117.097 94.0345 117.812 94.6588 118.3 94.206L131.394 81.9646L129.469 72.9062Z" fill="white"/>
<path d="M121.434 9.6411C121.939 3.19283 129.358 0.79874 134.545 0.620383C141.578 0.380288 152.218 3.77249 155.284 11.0611C155.806 12.3027 156.587 15.0501 155.809 16.2197C155.163 17.1938 154.254 16.8817 153.283 16.9811C153.148 17.0806 153.248 18.2091 153.221 18.4766C153.131 19.3169 152.409 19.9343 151.631 20.0063C150.062 20.147 148.317 19.8829 146.731 20.0201L141.568 27.7065C141.55 27.8506 141.571 27.7991 141.668 27.8129C141.91 27.8437 142.162 27.806 142.404 27.8883C142.67 27.3155 143.361 26.8765 143.976 26.8834C144.443 26.8902 146.126 27.2572 146.485 27.5282C147.111 28.0049 147.277 28.612 147.19 29.4009C147.118 30.0663 146.454 33.0915 146.195 33.6129C145.96 34.0828 145.411 34.4704 144.909 34.539C144.377 34.611 142.532 34.2303 142.093 33.9079C141.751 33.6575 141.426 33.0881 141.433 32.6456C136.508 32.2135 132.773 28.0598 132.016 23.0624C131.383 23.0658 130.754 22.7949 130.405 22.2289C130.336 22.1192 130.122 21.6287 130.122 21.5327V20.0063H128.055C127.886 20.0063 127.388 19.7079 127.243 19.5776C126.445 18.8539 126.711 17.8661 126.656 16.892C124.434 16.4255 122.557 14.8272 121.804 12.5703C121.666 12.1518 121.486 11.4898 121.448 11.0611C121.413 10.6769 121.417 10.0253 121.448 9.6411H121.434ZM134.362 1.85173C130.851 2.01636 126.431 3.13109 124.078 6.05682C121.209 9.62395 122.612 15.1118 127.226 15.7464L154.693 15.6915C155.032 15.5406 154.994 14.9746 154.98 14.6454C154.582 5.63837 141.405 1.51902 134.362 1.85173ZM152.066 16.9503H127.803V18.799H152.066V16.9503ZM137.02 20.0029H131.259V21.3886C131.259 21.6664 131.743 21.8311 131.967 21.8516C133.388 21.9888 135.005 21.7419 136.446 21.8516C136.609 21.8859 137.02 21.5944 137.02 21.4606V20.0063V20.0029ZM141.087 20.0029H138.274L138.174 20.1092V21.6699C138.174 21.7042 138.019 22.0369 137.984 22.1089C137.749 22.5788 137.258 22.9458 136.75 22.9835C136.671 23.0658 137.082 24.1737 137.168 24.3589C137.227 24.4893 137.566 25.2096 137.701 25.1135L141.091 20.0029H141.087ZM145.29 20.0029H142.546L138.406 26.1048C138.336 26.386 139.988 27.3944 140.313 27.439L145.293 20.0029H145.29ZM135.53 23.0556H133.16C133.878 26.8079 136.17 30.0766 139.802 31.1125C140.154 31.2119 141.149 31.4623 141.464 31.4383C141.54 31.4314 141.575 31.4383 141.585 31.3457L142.107 29.0922C138.775 28.8796 136.235 26.434 135.534 23.059L135.53 23.0556ZM145.065 33.1841C145.148 33.1018 145.196 32.9406 145.231 32.8274C145.48 32.0454 145.922 30.1246 146.015 29.322C146.064 28.9207 146.074 28.6189 145.659 28.4543C145.455 28.3754 144.014 28.0838 143.848 28.1113C143.652 28.1456 143.42 28.3376 143.389 28.5572L142.539 32.505C142.615 32.872 142.736 32.9303 143.05 33.0332C143.306 33.1155 144.415 33.3591 144.647 33.3522C144.761 33.3522 144.982 33.263 145.065 33.1876V33.1841Z" fill="white"/>
<path d="M134.77 3.05907L135.838 3.03506C139.384 3.21342 143.005 3.99544 146.216 5.58007C146.724 5.83046 147.722 6.14944 147.512 6.89031C147.27 7.74093 145.677 6.63992 145.2 6.43069C140.479 4.37617 135.119 3.52897 130.125 5.00384C129.756 5.1136 128.639 5.62123 128.363 5.54577C127.896 5.41887 127.786 4.75689 128.176 4.45506C128.429 4.25955 129.465 3.94743 129.825 3.83767C131.435 3.35062 133.097 3.13453 134.774 3.05907H134.77Z" fill="white"/>
<path d="M134.635 5.47373C137.441 5.35025 140.448 5.90247 143.088 6.86971C143.71 7.09952 145.936 7.97415 146.309 8.39603C146.724 8.8625 146.389 9.4696 145.815 9.41472C141.526 7.1544 136.291 6.0088 131.532 7.1201C131 7.24358 130.326 7.55913 129.856 7.63459C128.971 7.78207 128.698 6.86285 129.5 6.48213C130.824 5.85445 133.174 5.5389 134.635 5.47373Z" fill="white"/>
<path d="M124.261 9.79546C124.987 9.72 124.9 10.8244 125.063 11.3389C125.384 12.3713 126.286 13.1362 127.302 13.3214C127.696 13.3935 128.29 13.2117 128.349 13.8599C128.408 14.5082 127.938 14.5596 127.43 14.5391C126.061 14.4773 124.707 13.4552 124.133 12.1724C123.888 11.6236 123.331 9.8915 124.264 9.79546H124.261Z" fill="white"/>
<path d="M127.599 16.868L126.645 16.8885L125.816 16.2197C124.33 25.9367 133.336 33.287 142.19 31.5206C133.059 33.2116 125.626 25.0929 127.599 16.8645V16.868Z" fill="white"/>
<path d="M152.737 16.2917C154.133 22.7914 149.817 30.1658 142.19 31.5206C149.433 30.3338 154.831 23.4328 154.161 16.2574L152.737 16.2883V16.2917Z" fill="white"/>
<path d="M189.769 69.0681C178.258 59.8415 160.45 63.9437 150 78.2294C139.549 92.5151 140.406 111.575 151.921 120.802C163.433 130.028 181.24 125.926 191.691 111.64C202.141 97.3547 201.284 78.2946 189.769 69.0681ZM156.137 115.039C149.934 110.069 147.716 101.423 149.64 92.8889L169.387 97.9686L176.938 116.531C169.885 119.985 161.974 119.714 156.141 115.039H156.137ZM171.364 94.8714C171.257 94.7857 171.129 94.7376 170.997 94.7274C171.257 94.6553 171.516 94.6896 171.716 94.8474C172.107 95.1595 172.117 95.8284 171.744 96.3428C171.388 96.8299 170.807 97.0014 170.417 96.7476C170.745 96.799 171.132 96.6241 171.388 96.2708C171.737 95.7906 171.727 95.1664 171.364 94.8748V94.8714ZM172.853 97.2038C173.931 95.7289 173.897 93.8047 172.777 92.9026C172.445 92.6385 172.058 92.4945 171.647 92.4567C172.438 92.2304 173.244 92.3367 173.862 92.8306C175.061 93.791 175.099 95.8524 173.945 97.4301C172.846 98.9325 171.067 99.4538 169.864 98.6752C170.88 98.8296 172.062 98.2911 172.857 97.2038H172.853ZM187.046 107.919C184.945 110.793 182.457 113.129 179.775 114.902L174.723 96.3737L187.558 76.9603L187.036 76.1646C186.67 75.7976 186.283 75.4443 185.882 75.1082L169.487 91.1465L150.511 89.8363C151.455 87.1061 152.83 84.4376 154.648 81.9509C162.773 70.8482 176.61 67.6584 185.557 74.8303C185.667 74.9195 185.774 75.0156 185.882 75.1082L186.165 74.8338L187.039 76.168C194.552 83.7241 194.701 97.4679 187.053 107.922L187.046 107.919Z" fill="white"/>
<path d="M137.414 48.5159C149.153 47.0342 161 46.9759 172.805 47.4286L172.01 47.7682C174.332 45.549 176.703 43.3813 179.153 41.3028C179.976 40.6099 180.798 39.9205 181.652 39.2585C181.03 40.14 180.38 40.9907 179.727 41.8447C177.678 44.496 175.528 47.0651 173.323 49.5861L172.805 49.6101C161 50.0628 149.153 50.0045 137.414 48.5228V48.5159Z" fill="white"/>
</g>
<defs>
<clipPath id="clip0_1064_1040">
<rect width="199" height="127" fill="white" transform="translate(0 0.610107)"/>
</clipPath>
</defs>
</svg>
