<svg width="186" height="166" viewBox="0 0 186 166" fill="none" xmlns="http://www.w3.org/2000/svg">
<path d="M35.4048 60.6513L42.8949 51.2403C44.3694 49.3851 46.5707 48.2532 48.9382 48.1252L77.6179 46.5919C79.3866 46.4984 80.8507 47.9556 80.7607 49.7243L78.7497 89.5352C78.7082 90.3902 77.4829 90.4836 77.3064 89.6495L71.6231 62.7454C71.4362 61.8524 70.6539 61.2121 69.7436 61.1982L35.4014 60.6513H35.4048Z" fill="white"/>
<path d="M54.2893 29.5038L58.1347 25.3849C59.848 23.5505 62.8039 23.7062 64.3165 25.7137L71.0935 34.7164L99.5552 36.8C100.313 36.8554 100.362 37.9492 99.6106 38.0703L69.581 42.9333L54.2928 29.5003L54.2893 29.5038Z" fill="white"/>
<path d="M135.872 75.4889C137.282 71.8737 136.093 68.033 133.215 66.9103C130.337 65.7877 126.861 67.8083 125.45 71.4235C124.04 75.0387 125.23 78.8795 128.108 80.0021C130.986 81.1247 134.462 79.1041 135.872 75.4889Z" fill="white"/>
<path d="M43.6479 99.7845C44.965 96.4079 43.8543 92.8209 41.1669 91.7726C38.4796 90.7243 35.2333 92.6117 33.9161 95.9882C32.599 99.3648 33.7098 102.952 36.3971 104C39.0845 105.048 42.3308 103.161 43.6479 99.7845Z" fill="white"/>
<path d="M111.15 43.3106C109.655 41.9642 108.053 40.7424 106.291 39.756C106.149 39.6798 106.004 39.6037 105.862 39.5275C108.08 38.3819 110.223 37.1116 112.199 35.5298C109.004 36.1944 106.028 37.3989 103.096 38.7522C100.182 40.1471 97.3575 41.6735 94.8135 43.7156C98.0082 43.0545 100.985 41.85 103.916 40.4932C104.342 40.289 104.764 40.0813 105.187 39.8702C106.052 41.0989 107.08 42.1892 108.167 43.2241C108.506 43.5391 108.852 43.8471 109.202 44.1483C109.164 46.2181 109.285 48.2948 109.846 50.3023C110.711 48.0664 111.022 45.6816 111.15 43.3072V43.3106Z" fill="white"/>
<path d="M81.7541 87.3373C88.1331 78.1928 95.2182 69.2143 102.265 60.5613C104.314 58.0173 107.326 54.4557 109.44 51.9151L110.641 53.7427C102.051 56.0755 92.6777 58.5122 83.9762 60.2671C93.4703 56.6397 103.868 53.4312 113.594 50.4337C103.425 63.0153 92.9892 75.6972 81.7506 87.3408L81.7541 87.3373Z" fill="white"/>
<path d="M61.5165 66.7639C57.1554 69.0172 52.5554 70.5782 47.8793 71.9627C43.1859 73.2918 38.4683 74.4305 33.5741 74.8493C37.9352 72.5926 42.5317 71.0316 47.2113 69.6506C51.9047 68.3249 56.6258 67.1896 61.5165 66.7639Z" fill="white"/>
<path d="M47.5503 65.8604C45.657 67.3971 43.5457 68.2382 41.3686 68.9028C39.1776 69.5085 36.9417 69.9273 34.5188 69.6331C36.4121 68.0894 38.52 67.2483 40.7005 66.5907C42.895 65.9884 45.1274 65.5731 47.5503 65.8604Z" fill="white"/>
<path d="M52.7422 89.8952L51.4858 92.145C51.022 92.9757 52.0984 93.8029 52.7803 93.1418L53.6595 92.2904L52.7388 89.8987L52.7422 89.8952Z" fill="white"/>
<path d="M56.1066 83.8727C56.8023 85.1983 57.6468 86.8701 58.1695 87.9223L71.1456 75.3511L67.8366 62.87L56.1066 83.8727Z" fill="white"/>
<path d="M61.4958 20.0651C61.6134 19.5909 62.008 19.5736 62.4164 19.4559L62.1222 18.4417C61.7138 18.5594 61.3711 18.7567 61.0181 18.4175L60.6685 17.213C60.5612 16.7388 60.4747 16.0708 60.4297 15.562C60.3397 14.534 60.1874 13.6756 61.5511 13.8383L61.7415 11.6958C61.2154 11.4293 59.8863 11.3774 59.8967 10.6367C59.9071 9.89598 61.0493 8.04769 61.5269 7.43505C65.9503 1.7275 76.6455 -1.03456 83.3395 1.63405C88.1645 3.55502 89.902 6.68743 93.2836 10.159C93.6678 10.5536 94.4674 10.924 93.7128 11.4951C91.598 12.0489 89.5317 12.9799 87.3095 12.7861C86.5065 12.7169 85.4889 12.3119 84.724 12.4504C83.3395 12.703 82.3046 13.8037 81.2074 14.5825L81.2213 18.0264L82.7753 23.4086C82.81 23.4674 83.2288 23.3186 83.4122 23.7166C83.6337 24.1943 84.2775 26.4199 84.3467 26.939C84.4021 27.3717 83.9695 27.4721 83.9695 27.5413L84.724 30.1857C84.7171 30.4833 84.5683 30.601 84.3087 30.7014C83.9902 30.826 82.2942 31.3279 82.0589 31.2967C81.8616 31.2725 81.737 31.1237 81.6643 30.9506C81.3493 30.1961 81.2316 29.2027 80.9374 28.4204C80.3594 28.4481 80.2798 28.1159 80.1414 27.6278L72.717 25.6411C71.0349 25.4057 69.5016 25.3157 67.8125 25.3607C64.9535 25.4369 62.7902 23.7132 61.783 21.0827C61.6619 20.7642 61.6065 20.3939 61.4888 20.0685L61.4958 20.0651ZM68.2555 24.267C69.3112 24.1389 70.3253 23.8066 70.6576 22.6921C71.1214 21.1346 69.6123 19.7708 70.3184 17.926C70.9068 16.3927 72.4713 15.6866 74.0531 15.8666C74.6795 15.9393 75.3303 16.2577 75.981 16.1366C76.8394 15.9808 79.0268 14.6898 79.8506 14.181C81.332 13.2638 82.7027 11.7962 84.4298 11.4293C85.5824 11.187 86.6727 11.7374 87.8149 11.7581C89.3794 11.7893 90.8919 11.2078 92.3664 10.7474C89.7705 7.65311 87.2299 4.45494 83.4364 2.79355C78.833 0.775662 73.61 1.52329 69.0551 3.38196C65.7669 4.72492 62.4753 6.94356 61.0873 10.3217L65.0608 11.7893C65.1716 11.8827 65.2027 11.9969 65.2339 12.1354C65.2962 12.4365 65.355 14.1083 65.3169 14.4198C65.2823 14.6932 65.1162 14.8559 64.8462 14.8974L61.4473 14.9217C61.4784 15.7662 61.6342 16.5969 61.828 17.4207L65.0262 16.4965C65.2339 16.4377 65.4623 16.7527 65.5315 16.9292C65.7011 17.3688 66.0749 18.5802 66.1303 19.0198C66.1476 19.1686 66.0369 19.4974 65.9053 19.5355L62.7072 20.4596C63.569 22.9448 65.5454 24.5889 68.2555 24.2601V24.267ZM62.6587 13.8902L64.1886 13.8556L64.1955 12.5923L62.7729 12.1389C62.7729 12.3846 62.5133 13.8072 62.6587 13.8868V13.8902ZM63.1364 18.1475L63.4306 19.1617L64.95 18.7221L64.6558 17.708L63.1364 18.1475ZM78.1304 18.7186L76.9813 16.8877C75.3268 17.8568 73.7416 16.2058 72.094 17.3065C71.0349 18.0125 71.0245 19.2897 71.4675 20.3766C71.7167 20.9823 73.3747 22.121 73.8592 22.7025L79.7364 24.2601L78.1339 18.7152L78.1304 18.7186ZM78.8849 17.9745L80.1344 17.6145L80.1552 15.2851L77.94 16.4065L78.8849 17.9779V17.9745ZM80.7644 24.0351L81.7785 23.7409L80.311 18.6736L79.2968 18.9678L80.7644 24.0351ZM70.9483 24.4089C71.201 24.4573 72.0283 24.5543 72.2636 24.5404C72.3778 24.5335 72.4021 24.5508 72.4782 24.4435C72.5232 24.3847 72.8486 23.3186 72.8382 23.2598L71.8794 22.2768C71.651 23.0002 71.4779 23.8309 70.8203 24.3016C70.8376 24.4747 70.8722 24.3916 70.9483 24.4089ZM73.7935 23.7859L73.4923 24.7619L79.7952 26.3749L79.4941 25.3296L73.7969 23.7859H73.7935ZM80.5532 25.1946L81.1382 27.2229L83.1665 26.6379L82.5815 24.6096L80.5532 25.1946ZM82.5261 30.1164L83.5403 29.8222L82.9553 27.794L81.9412 28.0882L82.5261 30.1164Z" fill="white"/>
<path d="M75.1813 2.81419C75.6348 2.80727 75.8147 3.08763 75.7594 3.51336C75.6867 4.06715 75.3025 5.25089 75.1121 5.81853C75.036 6.04351 74.9598 6.45194 74.7591 6.58346C73.9526 6.84305 73.1115 6.9815 72.305 7.25148C71.0486 7.67375 69.5845 8.35561 68.5358 9.16899C68.2312 9.40436 67.4732 10.2558 67.2205 10.3112C67.0163 10.3562 66.6079 10.1485 66.3933 10.062C65.9295 9.87508 64.9326 9.49089 64.5519 9.2486C63.7593 8.75019 64.6419 7.92988 65.0642 7.46607C67.089 5.21974 70.2629 3.86294 73.1669 3.17762C73.6999 3.05302 74.6587 2.81765 75.1779 2.81073L75.1813 2.81419ZM65.5764 8.54944L66.999 9.124C68.875 7.28955 71.4501 6.27541 73.9803 5.732L74.4925 4.01524C71.2321 4.59672 67.6912 5.88776 65.5764 8.54944Z" fill="white"/>
<path d="M82.4603 8.82981C82.9934 8.82981 84.409 8.74328 84.2048 9.60512C84.1079 10.0135 83.5576 10.0032 83.2357 10.1347C81.5189 10.8339 80.4182 11.9553 78.8641 12.8898C78.0957 13.3536 76.6559 14.2189 75.8425 14.4751C75.2679 14.655 74.8699 14.392 74.3334 14.3089C73.6169 14.1982 73.0735 14.2224 72.357 14.3193C72.0351 14.3643 71.6336 14.6274 71.381 14.2535C71.1075 13.8451 71.4017 13.5475 71.6475 13.2221C73.205 11.1558 76.2474 9.83357 78.7084 9.26592C79.9233 8.98557 81.2212 8.81943 82.4638 8.82635L82.4603 8.82981ZM74.0392 13.1944C74.413 13.184 75.0568 13.4852 75.3787 13.4748C75.6798 13.4644 77.1785 12.6372 77.5489 12.4329C78.7153 11.7857 79.9475 10.9619 80.9824 10.1174C81.0516 10.062 81.1589 10.0309 81.1451 9.91317C78.2411 10.2766 75.3752 11.1523 73.1497 13.1183L74.0392 13.191V13.1944Z" fill="white"/>
<path d="M78.6044 2.6828C80.6154 2.81433 82.7544 3.45119 84.4366 4.56225C84.6339 5.28218 85.0146 6.14403 85.1358 6.87088C85.16 7.01971 85.16 7.13393 85.0769 7.26546C84.7412 7.79849 84.1874 7.33469 83.779 7.1997C82.2006 6.66667 80.5739 6.33785 78.9056 6.28594C78.2237 6.26517 77.3619 6.39669 76.7423 6.34824C76.2023 6.30324 76.2127 5.90866 76.282 5.50716C76.3373 5.19219 76.9777 2.93893 77.0988 2.81433C77.1611 2.75203 77.2753 2.68973 77.3619 2.6655C77.5938 2.59973 78.3206 2.6655 78.6044 2.6828ZM77.5315 5.26141C78.6356 5.1645 79.7466 5.26141 80.8404 5.38948L83.7997 6.05403L83.5124 5.17834C81.7715 4.27497 79.8228 3.71771 77.8499 3.73155C77.8949 3.98076 77.3757 5.16104 77.5315 5.26141Z" fill="white"/>
<path d="M85.4369 12.4331C85.4645 12.4643 85.4957 12.492 85.5234 12.5266C89.5938 17.4381 87.8009 23.2875 83.5055 26.1084L83.6024 26.4061C87.4098 24.3363 89.9295 20.2105 88.8981 15.3717C88.6558 14.278 88.2578 13.2811 87.7524 12.3777L85.4403 12.4366L85.4369 12.4331Z" fill="white"/>
<path d="M154.796 72.9317C154.578 72.6859 153.8 73.617 153.699 71.7445C153.675 71.2737 153.737 70.7961 153.737 70.3254L154.644 70.3531L154.478 67.7848L153.36 67.7398L153.194 65.2927L153.886 65.1785L153.384 62.8318C151.93 62.9183 152.169 62.0254 151.522 60.8589L152.232 60.3328L151.266 57.91L150.252 58.3668C150.266 57.7784 149.442 57.0066 149.411 56.6397C149.376 56.2451 150.131 55.8159 149.767 55.2829L148.632 53.978C147.504 54.9887 147.144 53.5973 146.375 52.7389C147.5 52.064 145.839 50.5133 145.371 50.5099C145.018 50.5099 144.838 51.074 144.337 50.9044C144.153 50.8421 142.956 49.8418 142.886 49.6722L143.271 48.6546L141.377 47.5713L140.865 48.3431L139.01 47.7443L139.262 46.481L138.138 46.1868L137.885 46.6783C137.868 46.7129 135.448 46.2456 135.434 46.256C135.206 46.436 134.984 46.3529 134.742 46.3529C135.012 44.5393 133.645 45.1034 132.516 44.9961L132.489 46.031L130.357 45.9722L130.256 44.9304L127.993 44.8681L127.944 46.1453L125.809 46.3702L125.705 45.588L123.531 46.2733L123.625 47.3117L121.697 48.0559L121.043 47.239L119.343 48.3535L119.727 49.2638C119.128 49.2396 118.467 50.2814 118.004 50.2503C117.696 50.2295 117.495 49.8072 117.294 49.7588C116.965 49.6757 116.01 50.6449 115.702 50.9598L115.934 51.9947L114.338 53.4588L113.653 52.9743L112.438 54.4799C112.196 54.9956 112.864 55.2275 112.722 55.8298C112.656 56.1101 111.901 57.19 111.652 57.2454C111.337 57.3146 110.953 56.9235 110.676 57.1035C110.514 57.2073 109.655 58.8722 109.721 59.1422L110.347 59.9002L109.42 61.7485L108.53 61.5754L107.79 63.7248L108.672 64.1575L108.146 66.7153L107.122 66.6738L106.723 68.9893L107.63 69.0136L107.558 71.5887L106.651 71.561L106.571 73.9908L107.492 74.2746L107.817 76.3756L106.935 76.8705L107.34 79.3107L108.35 79.328L108.852 81.6712L108.174 81.6539L108.783 84.2464L109.918 83.7618L110.752 85.7486C110.711 86.51 109.88 85.9874 110.154 86.8769C110.226 87.1123 111.154 88.6595 111.251 88.6733L111.985 88.2337C112.299 88.1783 113.321 89.7913 113.314 89.909C113.307 90.0647 112.909 90.3347 112.888 90.6774C112.867 91.0096 113.881 92.2799 114.137 92.3595C114.646 92.5222 114.878 91.7399 115.342 92.0134L116.571 93.2214L116.287 94.2528L118.056 95.6027L118.734 94.855L120.437 95.9142L119.963 96.8003L121.856 97.7798L122.562 97.0287L124.459 97.5686L124.296 98.607C124.805 98.9151 125.968 99.3892 126.452 99.0466C126.681 98.8874 126.754 98.2851 127.027 98.2367C127.332 98.1847 128.242 98.6555 128.733 98.4582L128.726 99.4619C129.481 99.7111 130.187 99.9707 130.935 99.5139L130.994 98.5239L133.133 98.5689C133.503 98.6624 132.679 99.4515 134.015 99.3823C134.507 99.3546 134.991 99.1262 135.49 99.1608L135.555 97.9078L137.438 97.4025C137.722 97.4683 137.48 98.7835 139.155 97.8594C140.221 97.271 139.615 97.2641 139.73 96.5787C139.792 96.198 141.19 95.6477 141.588 95.4815L141.924 96.2534L143.883 95.0316L143.572 94.1524C143.61 93.924 144.748 92.9306 144.963 92.8579C145.51 92.6676 145.596 93.4325 146.067 93.1833L147.469 91.6569L146.822 90.8643L148.365 89.2548L149.12 89.6632L150.532 87.6211L149.868 86.8389L150.947 84.9386L151.616 85.4578L152.706 82.9242L151.816 82.5123L152.554 80.3421L153.675 80.6329L154.201 78.2031L153.294 78.0439L153.595 75.4791L154.488 75.493C154.488 74.9219 154.72 74.3854 154.769 73.8281C154.789 73.6135 154.834 72.9732 154.8 72.9351L154.796 72.9317ZM130.575 88.8256C122.403 88.5937 115.993 80.8613 116.256 71.5541C116.522 62.2503 123.362 54.8952 131.534 55.1271C139.705 55.359 146.116 63.0914 145.853 72.3986C145.59 81.7059 138.747 89.0575 130.575 88.8256Z" fill="white"/>
<path d="M59.8243 105.664C59.6962 105.37 58.7201 106.048 59.1666 104.231C59.2808 103.774 59.4747 103.331 59.6097 102.885L60.4265 103.158L61.0184 100.656L60.0146 100.31L60.5684 97.9215L61.2295 98.0011L61.451 95.6198C60.1046 95.3083 60.5788 94.5191 60.3296 93.2281L61.1257 92.9166L60.9457 90.3345L59.8935 90.4972C60.0735 89.9365 59.5508 88.9742 59.627 88.6143C59.71 88.2266 60.5165 88.0224 60.34 87.4132L59.6858 85.8557C58.3705 86.5168 58.4432 85.0908 57.9898 84.0559C59.2082 83.7132 58.1421 81.7784 57.7233 81.6503C57.4014 81.5534 57.076 82.0449 56.6676 81.7507C56.5188 81.6434 55.7158 80.3593 55.7054 80.1793L56.3492 79.3105L54.9405 77.7599L54.2551 78.3621L52.7426 77.2857L53.3379 76.1435L52.3999 75.5551L52.0296 75.9566C52.0019 75.9843 49.9425 74.8802 49.9252 74.8905C49.6656 75.0013 49.489 74.8628 49.2675 74.7936C50.0359 73.1288 48.6307 73.3018 47.6338 72.8934L47.3119 73.8764L45.391 73.243L45.6021 72.2185L43.5634 71.5435L43.1515 72.7515L41.144 72.3881L41.2756 71.6128L39.1019 71.682L38.8873 72.6996L36.9179 72.8899L36.5579 71.9312L34.6923 72.5369L34.7788 73.513C34.2424 73.3261 33.3424 74.1464 32.9271 73.9906C32.6502 73.8868 32.5914 73.4299 32.4252 73.3261C32.1483 73.1599 31.0027 73.8279 30.6323 74.046L30.5458 75.0982L28.6732 76.0673L28.1887 75.4201L26.6519 76.5346C26.2815 76.9638 26.8215 77.3653 26.5204 77.9053C26.3785 78.1579 25.3816 78.9852 25.1393 78.9679C24.8348 78.9505 24.5994 78.4729 24.2948 78.5698C24.1183 78.6252 22.8549 79.9889 22.8376 80.2624L23.1872 81.1588L21.8096 82.6748L21.0516 82.2664L19.7571 84.1216L20.4321 84.7758L19.2137 87.081L18.2965 86.766L17.2651 88.8739L18.0819 89.1438L17.272 91.5909L16.4551 91.3175L15.6798 93.6227L16.4344 94.1453L16.1263 96.2463L15.1814 96.4816L14.8457 98.9287L15.7594 99.2195L15.5379 101.597L14.9253 101.397L14.7314 104.044L15.9048 103.889L16.0882 106.017C15.8321 106.734 15.2229 106.01 15.2195 106.935C15.2195 107.18 15.6141 108.914 15.6971 108.949L16.4897 108.727C16.7909 108.762 17.2547 110.583 17.2166 110.693C17.1647 110.842 16.7251 110.991 16.6074 111.313C16.4932 111.624 17.047 113.116 17.2581 113.262C17.6769 113.556 18.1096 112.871 18.4523 113.255L19.2207 114.747L18.6669 115.657L19.8852 117.429L20.7159 116.899L21.9585 118.374L21.2732 119.094L22.713 120.544L23.5714 120.018L25.1393 121.049L24.6894 121.998C25.0632 122.43 25.9839 123.199 26.5204 123.002C26.773 122.908 27.0153 122.354 27.2749 122.382C27.5657 122.417 28.2579 123.112 28.7632 123.057L28.469 124.016C29.0817 124.459 29.6493 124.898 30.4592 124.663L30.7984 123.732L32.7298 124.355C33.0379 124.545 32.0652 125.078 33.2974 125.372C33.7543 125.48 34.2597 125.39 34.7027 125.559L35.125 124.379L36.9836 124.407C37.2225 124.545 36.6237 125.739 38.4097 125.307C39.5484 125.033 39.0015 124.86 39.3027 124.237C39.4688 123.888 40.9017 123.742 41.3102 123.69L41.3932 124.521L43.5254 123.884L43.4977 122.957C43.598 122.749 44.9168 122.109 45.1383 122.095C45.6886 122.06 45.5467 122.815 46.0486 122.704L47.7619 121.624L47.4019 120.689L49.2675 119.565L49.8352 120.16L51.7077 118.585L51.3304 117.657L52.8603 116.131L53.3172 116.809L55.0374 114.681L54.3486 114.044L55.6431 112.164L56.5776 112.746L57.7579 110.562L56.9791 110.164L57.9933 107.789L58.7997 108.042C58.9659 107.495 59.3293 107.045 59.5335 106.526C59.6131 106.325 59.8381 105.727 59.8173 105.682L59.8243 105.664ZM32.799 115.612C24.8451 112.978 20.9582 103.103 24.1217 93.55C27.2818 84.0005 36.2949 78.3933 44.2488 81.0273C52.2026 83.6613 56.0896 93.5361 52.926 103.089C49.7659 112.639 40.7529 118.246 32.799 115.612Z" fill="white"/>
<path d="M59.6993 105.72C59.7581 105.692 59.1212 105.799 58.9793 105.384C58.7509 104.425 59.2908 103.581 59.5158 102.691L59.6647 102.74L60.485 103.003L60.2808 103.117C60.4677 102.279 60.658 101.445 60.838 100.604L60.9626 100.833C60.7722 100.774 59.9173 100.49 59.7754 100.445L59.8135 100.255L60.3119 97.8525L60.3604 97.6206L60.6096 97.6448L61.2741 97.7071L60.9522 97.9667L61.0941 95.575L61.3814 95.9696C60.7515 95.8796 60.1285 95.4365 60.0592 94.7408C59.9831 94.0936 59.9589 93.5467 59.7893 92.941C60.2254 92.7506 60.5646 92.5983 60.9522 92.4287L60.6269 92.941L60.3396 90.3659L61.0561 90.937L60.0108 91.1446L59.2735 90.2793C59.2735 90.2793 59.2735 90.2136 59.2562 90.127C59.0105 89.0817 58.4636 88.4276 59.5262 87.5484C59.6093 87.4688 59.637 87.4134 59.6093 87.4446C59.5781 87.4757 59.5643 87.6142 59.5712 87.6246L59.6023 87.7111L58.8824 86.1812L60.0938 86.6277C59.3324 87.0708 58.3632 87.0119 57.8371 86.2366C57.4529 85.6794 57.3491 84.9698 57.0895 84.4402L57.7333 83.08C57.7333 83.08 57.7194 83.0731 57.716 83.08C57.716 83.0834 57.6675 83.0938 57.6571 83.1146C57.6433 83.1354 57.6018 83.1527 57.5879 83.1873C57.5741 83.2184 57.5498 83.2253 57.5498 83.2565C57.5291 83.3257 57.536 83.2288 57.491 83.1111C57.4529 82.99 57.3802 82.8377 57.2972 82.7096C57.2556 82.6473 57.2106 82.5885 57.1795 82.5573C57.1726 82.5573 57.1414 82.5193 57.1726 82.5573L57.1899 82.5712C57.3145 82.6958 57.7056 82.7512 57.8094 82.7027C57.8717 82.6854 57.844 82.6958 57.8164 82.7096C57.7229 82.7477 57.5464 82.8688 57.1622 82.9277C56.6638 83.0108 56.0754 82.7858 55.7535 82.3808C55.3312 81.8374 54.9678 81.3078 54.6701 80.6883C54.5559 80.4183 54.549 80.131 54.5213 79.8472L54.7843 79.4734L55.4073 78.5908L55.4835 80.0964L54.0506 78.5665L55.7535 78.6635L55.0716 79.2726L54.3551 79.913C53.4448 79.2761 52.0603 78.3035 51.15 77.6666C51.4235 77.1405 51.9669 76.0814 52.2403 75.5553L52.6834 77.1855L51.7454 76.5971L53.3237 76.386L53.0156 76.7182L52.9776 76.7598C52.8149 76.9328 52.5795 77.1059 52.2611 77.1613C51.9323 77.227 51.6865 77.1509 51.4754 77.0609C50.8247 76.739 50.0701 76.3479 49.4333 76.0018C49.3779 75.9741 49.506 76.0398 49.5752 76.0572C49.8382 76.1471 50.1809 76.1195 50.4128 76.0087C49.9871 76.2302 49.2671 76.1402 48.921 75.9533L48.1595 74.2608C48.2288 74.1119 48.2807 73.9354 48.2738 73.9666C48.2461 74.0912 48.4399 74.3958 48.5161 74.4027C48.253 74.2504 47.6265 74.1742 47.1939 73.97L48.7653 73.2466L48.4261 74.2227L48.0349 75.3476C46.7508 74.9011 45.3456 74.4131 44.0718 73.9458L44.2934 73.0044L44.5322 71.9868L45.2625 73.2501L43.2411 72.5198L44.553 71.8656C44.3557 72.4021 43.9853 73.3886 43.7949 73.9077C42.7773 73.6862 41.064 73.3159 40.043 73.0978C40.1087 72.7759 40.3095 71.7929 40.3787 71.4468L41.3063 72.5094H39.1292L39.9218 71.8414L39.6726 72.8521L39.5238 73.4509L38.9631 73.4855C38.52 73.5132 36.8067 73.6205 36.4018 73.6481L36.2287 73.1359L35.8999 72.1667L36.7756 72.589L34.8927 73.1393L35.3357 72.4713L35.3946 73.4474L34.5777 74.0843C34.6539 74.0946 34.5431 74.0704 34.4012 74.1258C33.8612 74.2885 33.0271 74.8907 32.4421 74.3265C32.2033 74.0808 32.1756 73.9493 32.0545 73.7104C32.0545 73.7104 32.0614 73.7174 32.0787 73.7381C32.1168 73.7901 32.2518 73.8385 32.2968 73.835C31.8607 73.9458 31.3138 74.2227 30.8846 74.4754L31.1303 74.0808C31.0992 74.3473 31.0196 75.1815 30.9953 75.4064C30.2893 75.7595 29.5762 76.0987 28.8736 76.4587L28.531 76.6352L28.306 76.3271L27.8249 75.6764L28.4444 75.7699L26.9007 76.874L26.9734 76.8048C26.9388 76.8498 26.9492 76.8359 26.9423 76.8809C26.9388 76.9294 26.9665 77.0436 27.0011 77.1959C27.0634 77.4313 27.0496 77.8155 26.9042 78.0612C26.7069 78.4108 26.3538 78.6531 26.07 78.8919C25.5405 79.3072 25.0836 79.6049 24.5125 79.0892C24.4086 78.9992 24.3117 78.9438 24.3429 78.9611C24.3844 78.975 24.4433 78.9577 24.4813 78.93C24.0452 79.3245 23.6126 79.7987 23.2837 80.2868C23.2526 80.3179 23.2526 80.3871 23.2664 80.2729L23.2387 80.086L23.5953 80.979L23.6956 81.2282L23.5122 81.4324C22.9792 82.0243 22.4427 82.6231 21.92 83.2253C21.5151 83.0108 21.1932 82.8515 20.8332 82.6612L21.4389 82.5158L20.1721 84.3918L20.1098 83.748L20.7951 84.3918L21.0686 84.6479C20.7917 85.1982 19.7844 87.2092 19.511 87.7561C19.0991 87.6211 18.5003 87.4377 18.1092 87.3096L18.8326 87.0119L17.8531 89.144L17.4758 88.2441C17.8565 88.3618 18.5557 88.566 18.9261 88.6802C18.6561 89.5663 18.0469 91.6188 17.7769 92.5049C17.3893 92.3872 16.607 92.1484 16.2194 92.0307L17.192 91.5461L16.4859 93.8721L16.1675 92.9168L16.9359 93.4152L17.3651 93.6955L17.2993 94.2528C17.2266 94.6993 17.0432 96.5476 16.9809 96.9491C16.5759 97.0529 15.8213 97.2779 15.4198 97.3852L16.1363 96.5891L15.8698 99.0466L15.1637 97.9321C15.5998 98.0601 16.4444 98.3024 16.8736 98.427C16.787 99.6904 16.6382 101.774 16.5517 103.034L15.2018 102.625L14.5857 102.439L16.0498 101.459L15.9079 104.11L14.5857 102.864C15.1845 102.774 16.3717 102.598 16.9705 102.508C17.0466 103.276 17.237 105.104 17.3166 105.889L17.3443 106.159C17.2093 106.557 17.0362 106.949 16.6901 107.225C16.4582 107.444 15.9113 107.596 15.7314 107.599C16.0913 107.561 16.4824 107.129 16.4686 106.852C16.5517 107.305 16.6901 107.88 16.832 108.354L16.8493 108.399C16.8528 108.409 16.8389 108.364 16.8286 108.35C16.7109 108.094 16.4617 107.859 16.209 107.762L15.361 107.703L16.1502 107.471L16.3959 107.399C16.7386 107.426 17.102 107.516 17.372 107.745C17.7423 108.046 17.9535 108.534 18.1058 108.939C18.2927 109.486 18.4553 109.956 18.528 110.538C18.5765 111.119 18.2511 111.604 17.8012 111.912C17.6869 111.992 17.6627 112.026 17.7216 111.967C17.7527 111.943 17.8219 111.832 17.8531 111.739C17.8981 111.625 17.9258 111.483 17.9188 111.369C17.9188 111.348 17.9362 111.448 17.9569 111.524C18.0365 111.798 18.175 112.178 18.2996 112.397C18.2996 112.397 18.3169 112.424 18.2927 112.386C18.2857 112.372 18.2754 112.362 18.265 112.352C18.0538 112.054 17.6039 111.895 17.2716 111.995C17.5381 111.874 17.8323 111.767 18.1508 111.756C18.6907 111.718 19.2272 112.023 19.5664 112.428L19.6633 112.608L20.449 114.089L20.8055 114.761C20.5598 115.166 20.0994 115.951 19.8537 116.356L19.8121 114.847L21.0478 116.609L19.1303 116.218L19.9575 115.681L20.9855 115.013C21.83 115.993 23.0449 117.412 23.886 118.395L22.9999 119.343L22.3215 120.07L22.3008 118.056L23.7545 119.492L21.9477 119.274L22.8026 118.741L23.5918 118.249C24.5713 118.893 26.0389 119.855 27.0149 120.496C26.7865 120.98 26.2535 122.116 26.0216 122.607L25.8035 121.012C25.935 121.164 26.2016 121.392 26.3746 121.493C26.5546 121.596 26.4854 121.531 26.3504 121.534C26.1289 121.517 25.7862 121.662 25.6443 121.815C26.0804 121.223 26.8626 120.638 27.8249 120.98C28.2298 121.126 28.6556 121.451 28.9152 121.586C28.8805 121.576 28.7975 121.545 28.6071 121.562L30.1785 123.472L29.8843 124.431L29.3374 122.794C29.6801 123.036 29.8705 123.182 30.0158 123.234C30.0124 123.234 30.0158 123.241 30.0504 123.234L29.0813 124.14L29.4274 123.213L29.9224 121.884C30.6908 122.14 32.3868 122.701 33.169 122.96C33.8509 123.151 34.3666 123.985 34.2039 124.736C34.1693 124.912 34.107 125.078 34.0343 125.238C34.0274 125.252 34.0343 125.245 34.0343 125.238C34.0412 125.224 34.0447 125.207 34.0481 125.189C34.1762 124.75 33.9858 124.203 33.5878 123.957C33.5705 123.947 33.5428 123.933 33.5324 123.933C33.5532 123.943 33.5913 123.947 33.6155 123.957C34.0308 124.03 34.5812 123.967 35.2042 124.213L33.3663 125.058L33.7989 123.881L34.1485 122.926L35.1384 122.95C35.4153 122.964 37.139 122.991 37.3744 123.002C37.6894 123.168 38.0424 123.403 38.2189 123.732C38.3608 123.988 38.4266 124.282 38.4335 124.573V124.653C38.4335 124.718 38.4474 124.656 38.3643 124.48C38.3193 124.397 38.2466 124.282 38.1462 124.203C38.0216 124.071 37.8451 124.023 37.7517 124.009C37.7517 124.009 37.7586 124.009 37.762 124.012H37.8036L37.8901 124.002C38.0043 123.992 38.2466 123.933 38.3366 123.905C38.3366 123.905 38.3574 123.898 38.3504 123.905C38.3401 123.909 38.3297 123.915 38.3228 123.922C38.0735 124.064 37.8693 124.397 37.8555 124.673C37.8659 124.372 37.942 123.978 38.0943 123.677C38.482 122.804 39.5757 122.6 40.3822 122.489C40.9187 122.42 41.9432 122.327 42.4797 122.275L42.5731 123.542L42.6354 124.376L41.026 123.299L43.1789 122.728L42.3343 123.898V122.971V122.656C42.4278 122.455 42.5697 122.202 42.7185 122.067C42.985 121.821 43.2827 121.662 43.5838 121.513C44.4976 121.05 45.5775 120.593 46.3424 121.579C46.5432 121.88 46.6228 122.033 46.4912 121.866C46.3632 121.738 46.1244 121.631 45.9444 121.645C45.8855 121.645 45.8544 121.648 45.8094 121.662L45.4806 121.797L47.2389 120.787L46.8547 121.946L46.5328 120.998L46.2697 120.229L46.9135 119.88C47.36 119.644 49.0283 118.724 49.4402 118.506L49.8486 118.976L50.3886 119.596L49.3121 119.537L51.2539 118.049L51.0635 118.821C50.9389 118.488 50.6897 117.761 50.5755 117.453C50.7382 117.318 52.2576 115.903 52.4619 115.726L52.9603 115.269C53.1576 115.588 53.521 116.187 53.7183 116.505L52.9083 116.47L54.7082 114.404L54.7497 114.954L54.0852 114.293L53.8498 114.058L54.0332 113.809C54.542 113.12 55.0612 112.435 55.5596 111.735C55.9715 112.005 56.3592 112.258 56.7122 112.493L56.328 112.594L57.5568 110.437L57.6468 110.732C57.4529 110.628 56.868 110.313 56.7157 110.23L56.7884 110.067L57.8371 107.707L57.896 107.572L58.031 107.617L58.8374 107.876L58.6471 107.977C58.7855 107.534 59.0347 107.167 59.232 106.796C59.4189 106.454 59.5574 106.045 59.675 105.671C59.675 105.637 59.675 105.699 59.6889 105.713L59.6993 105.72ZM59.9519 105.609C59.9762 105.703 59.9554 105.709 59.9589 105.734L59.9485 105.782L59.9242 105.865L59.8723 106.024L59.7616 106.332C59.5504 106.99 59.0659 107.572 58.9066 108.222L58.7578 108.177L57.9479 107.932L58.1417 107.842L57.1587 110.23L57.0687 109.981L57.8544 110.358L58.0483 110.451L57.9444 110.652L56.8161 112.864L56.688 113.116C56.5253 113.02 55.6669 112.514 55.487 112.407L55.8919 112.324C55.4697 112.957 55.0681 113.604 54.6563 114.245L54.6043 113.76L55.3139 114.373L55.5908 114.608C55.5181 114.74 53.8498 116.91 53.7148 117.114L53.3202 117.64C53.1022 117.343 52.6384 116.72 52.4169 116.418L53.2441 116.498L51.78 118.09L51.9184 117.405L52.3372 118.319L52.5311 118.737L52.1469 119.091C51.78 119.44 50.1671 120.904 49.8279 121.223C49.5406 120.946 48.966 120.395 48.6753 120.119L49.6963 120.257L47.8792 121.465L48.2634 120.347C48.4018 120.669 48.8172 121.617 48.9626 121.953C48.5091 122.278 47.0831 123.237 46.6089 123.576L46.4636 123.677C46.2905 123.704 46.1382 123.749 45.9548 123.753C45.6086 123.76 45.221 123.604 44.9822 123.344C44.8264 123.199 44.6014 122.798 44.6603 122.915C44.8056 123.109 45.1137 123.23 45.3525 123.157C45.0444 123.306 44.6153 123.514 44.3211 123.739C44.3176 123.742 44.3072 123.753 44.3418 123.725C44.4214 123.646 44.4941 123.556 44.5391 123.452L44.6533 122.919C44.6776 123.341 44.7399 124.286 44.7641 124.715L43.8676 125.016C43.0266 125.297 41.1713 125.92 40.3441 126.196C40.268 125.605 40.1157 124.379 40.043 123.819L41.4655 124.957C41.071 125.013 40.3026 125.134 40.1364 125.22C40.306 125.123 40.4687 124.902 40.5206 124.743V124.805V124.871L40.5102 124.982C40.5102 125.006 40.4964 125.089 40.486 125.144C40.4722 125.207 40.4618 125.258 40.4341 125.345C40.1537 126.238 39.1534 126.556 38.3366 126.705C37.4194 126.892 36.3326 126.633 35.8999 125.705C35.6818 125.213 35.6991 125.002 35.6749 124.705C35.7165 125.075 35.9691 125.428 36.291 125.605L36.9694 125.791L35.1107 125.781L36.4537 124.85L36.0418 126.034L34.2039 126.878C33.9235 126.851 33.4736 126.871 32.9475 126.75C32.5598 126.65 32.2275 126.536 31.8953 126.276C31.2896 125.823 31.0611 124.957 31.3449 124.258C31.3795 124.161 31.4038 124.113 31.4384 124.033C31.3311 124.303 31.338 124.604 31.4315 124.888C31.6287 125.4 31.8918 125.546 32.2968 125.722L30.3619 125.117L32.1791 124.227C32.0718 124.521 31.7187 125.535 31.6045 125.854L30.8811 126.068C30.265 126.273 29.4101 126.221 28.8252 125.954C27.9045 125.528 27.4684 125.078 26.7415 124.604C26.8973 124.102 27.2018 123.119 27.3541 122.621L28.9255 124.532C28.0602 124.646 27.323 124.106 26.7865 123.763C26.79 123.763 26.8419 123.791 26.8696 123.798C26.8696 123.798 26.9457 123.825 26.9873 123.832C27.3368 123.926 27.7972 123.777 27.9114 123.684C28.1156 123.545 28.0706 123.545 28.0429 123.594C27.2295 124.715 25.9454 124.732 24.8517 124.037C24.0937 123.618 23.5226 122.877 22.9445 122.254C23.1626 121.794 23.5953 120.877 23.8133 120.42L24.336 122.282L22.7715 121.247L24.3498 121.271C23.886 121.555 22.948 122.116 22.4842 122.399C21.9962 121.898 20.7605 120.627 20.2552 120.112L19.2653 119.094C19.6875 118.661 20.5148 117.806 20.9267 117.384L20.8678 119.298L19.6391 117.813L21.4839 118.097C20.9786 118.416 19.9852 119.028 19.4799 119.347C18.7911 118.319 17.7077 116.716 17.0155 115.688C17.2612 115.287 17.7977 114.435 18.0469 114.03L17.9985 115.38L17.2474 113.881L17.4377 114.162C17.6662 114.435 18.1334 114.567 18.4553 114.456C18.2096 114.556 17.8981 114.674 17.6108 114.681C17.0605 114.729 16.389 114.439 16.0809 113.937C15.6241 113.151 15.4025 112.48 15.2814 111.583C15.2641 111.324 15.2987 111.033 15.406 110.784C15.5514 110.354 16.0602 109.936 16.3059 109.787L16.2817 109.808L16.2436 109.842C16.0013 110.064 15.8837 110.496 15.9183 110.773C15.8733 110.437 15.6656 109.801 15.5825 109.589C15.759 109.825 16.0602 109.984 16.3509 110.005L16.8389 109.967L16.0429 110.178L15.5998 110.296C15.226 110.147 14.7622 109.946 14.5684 109.541C14.3919 109.212 14.3192 108.766 14.2257 108.413C14.1184 107.876 13.9454 107.298 13.9869 106.734C14.0284 105.903 14.6238 105.228 15.4545 105.173C15.5202 105.166 15.4752 105.163 15.3368 105.218C15.1845 105.284 14.9837 105.446 14.9422 105.609L14.8764 106.125L14.7241 103.996L16.0671 105.073L14.8903 105.211L13.4331 105.384C13.5785 103.823 13.8035 101.431 13.9488 99.8704C14.4161 100.03 15.451 100.407 15.8837 100.556L14.4403 101.501L14.7138 99.1262L15.4406 100.223L14.5338 99.9119L13.6892 99.6212L13.8277 98.7939C13.8934 98.299 14.2811 96.1426 14.3434 95.6927C14.6791 95.6131 15.5514 95.4365 15.8975 95.3535L15.2053 96.1184L15.5756 94.0278L15.939 94.8654C15.7141 94.6958 14.9145 94.1178 14.6722 93.9344C14.7899 93.5606 15.5825 91.5011 15.721 91.0823L15.9944 90.3416C16.3613 90.4766 17.1297 90.7604 17.5035 90.8954L16.562 91.3661L17.4412 88.9433L17.8669 89.7913C17.5243 89.6701 16.697 89.3656 16.3475 89.241C16.7282 88.5072 17.6246 86.78 18.0088 86.0393L18.4865 86.2158L19.3968 86.5516L18.708 86.825L19.9748 84.5441L20.0717 85.1532L19.4037 84.4887L19.0957 84.1841C19.4383 83.703 20.5632 82.142 20.9059 81.6643C21.1066 81.7751 21.7989 82.1628 22.0169 82.2804L21.4631 82.3739C21.9304 81.8755 22.3907 81.3736 22.8511 80.8683L22.768 81.3217L22.4219 80.4252L22.3838 80.3248L22.3942 80.2383C22.4046 80.1379 22.4496 80.0133 22.4669 79.9891C22.7369 79.4976 23.1245 79.1169 23.4949 78.7119C24.0037 78.1512 24.4121 77.8916 25.0351 78.4592C25.1286 78.5423 25.2082 78.5735 25.1563 78.5562C25.049 78.5562 25.0767 78.57 25.1217 78.5423C25.4643 78.3519 25.8277 78.0404 26.0908 77.7635C26.1116 77.7428 26.1185 77.7289 26.1358 77.7116C26.1427 77.6943 26.1358 77.7116 26.1462 77.6908C26.2535 77.4382 26.0735 77.2582 26.0769 76.9155C26.0666 76.6629 26.1842 76.341 26.3885 76.1887C26.6238 76.0018 28.0602 74.9738 28.2714 74.8077C28.4202 75.0015 28.8667 75.5968 29.0259 75.8045L28.4583 75.673C29.0813 75.3476 29.6939 75.0049 30.3135 74.6727L30.0539 75.0638L30.1197 74.0081L30.137 73.7554C30.5696 73.4958 30.9815 73.2293 31.4626 73.0078C31.8814 72.8071 32.5944 72.5509 32.9509 73.1117C33.0617 73.2674 33.1309 73.4682 33.1794 73.5062C33.1725 73.4958 33.1413 73.4751 33.1067 73.4612C33.0825 73.4509 33.0582 73.4509 33.0375 73.4474C33.5982 73.2709 34.2697 72.6825 34.9758 72.9317L34.1589 73.5685L34.0447 72.5959L33.9858 72.1044C34.6989 71.8518 36.2322 71.3014 36.9417 71.0488C37.0906 71.3949 37.4471 72.2706 37.5994 72.634L36.8379 72.1598L38.8004 71.9002L38.0909 72.5336L38.2708 71.5091L38.3816 70.8895C38.8627 70.8515 40.7248 70.7407 41.2371 70.7026L42.317 70.6334L42.1647 71.7687L42.0574 72.5509L41.2994 71.471L43.3173 71.7687L42.1855 72.4333L42.5628 71.2114L42.8604 70.2527C43.5042 70.4431 45.266 70.9795 45.9305 71.1768L46.8374 71.4503C46.7439 71.9625 46.5708 72.9594 46.4809 73.4716L45.7298 72.1737C46.377 72.364 47.0173 72.5717 47.6611 72.769L46.1901 73.5132C46.3597 72.9697 46.6954 71.8864 46.8651 71.343L48.0696 71.7998C48.3084 71.9175 48.7964 71.9625 49.1287 72.0871C50.6828 72.5302 51.0289 73.9873 50.3678 75.3095L49.6063 73.617C49.7656 73.6654 49.8729 73.7139 49.9005 73.7208C49.9352 73.7347 49.8902 73.7104 49.7759 73.7001C49.6513 73.6931 49.5094 73.7104 49.4264 73.752C49.4229 73.752 49.454 73.7416 49.4506 73.7416L49.506 73.7208C49.7829 73.5997 50.2467 73.6654 50.482 73.7935L50.5513 73.8281L50.662 73.8835C51.1397 74.1258 51.9427 74.5446 52.4238 74.78C52.4411 74.7903 52.4411 74.7869 52.4376 74.7869C52.2922 74.728 52.0223 74.6692 51.7592 74.728C51.4754 74.7765 51.2227 74.9634 51.1016 75.1053H51.105L51.1224 75.0811L51.1604 75.0396L51.4616 74.7107L52.1642 73.9493C52.9914 74.4685 54.1302 75.178 54.9574 75.7006C54.677 76.2337 54.1059 77.324 53.8221 77.8605L53.4414 76.2752L54.947 77.362L53.4275 77.4382C53.8429 77.0782 54.6286 76.4137 55.0439 76.0572C55.8365 76.9605 57.0791 78.3623 57.8717 79.2657C57.5637 79.6637 56.9338 80.4771 56.6257 80.8752L56.8507 80.1033C56.8507 80.0099 56.823 79.9164 56.7953 79.8368C56.9303 80.1829 57.2176 80.5983 57.4252 80.9375C57.4322 80.9479 57.4529 80.979 57.446 80.9686H57.4426C57.4045 80.9306 57.2937 80.8233 57.2349 80.8094C57.1345 80.7471 56.9476 80.7298 56.8507 80.7471C56.7122 80.7783 56.7572 80.7852 56.8888 80.7229C57.8025 80.2902 58.6297 80.7298 59.1074 81.6366C59.7962 82.7685 59.8412 84.5856 58.2421 85.0217L58.8859 83.6649C59.1005 84.1426 59.1628 84.7102 59.3116 85.1186C59.322 85.1498 59.3358 85.1879 59.3393 85.1948C59.3393 85.2017 59.3462 85.2121 59.3462 85.219C59.3462 85.2155 59.3462 85.2121 59.3393 85.2121C59.3393 85.2225 59.3081 85.1775 59.277 85.174C59.2493 85.1463 59.1905 85.1359 59.1593 85.129C59.1247 85.1186 59.0832 85.129 59.0866 85.1256C59.0832 85.1256 59.0797 85.1256 59.0762 85.1325C59.0762 85.1325 59.0901 85.129 59.097 85.129C59.1212 85.1359 59.2008 85.0979 59.2666 85.0771L60.2115 84.8037L60.4815 85.5236L61.0699 87.1088C61.2049 87.4515 61.1634 87.8945 60.9868 88.2026C60.8276 88.4864 60.6476 88.6283 60.5196 88.7391C60.3915 88.8429 60.2911 88.926 60.2911 88.9191C60.2808 88.926 60.3327 88.8568 60.3396 88.7737C60.35 88.7183 60.3396 88.6802 60.3396 88.7356C60.3534 88.8914 60.44 89.196 60.5057 89.5005C60.5715 89.9055 60.6546 90.2516 60.5057 90.7154L59.7685 89.8501L60.8276 89.7324L61.5268 89.6563C61.5406 90.3658 61.6064 92.5706 61.6237 93.294C61.423 93.3633 60.6961 93.6125 60.478 93.6852L60.7722 93.1521C60.8588 93.6332 60.8207 94.194 60.8553 94.6439C60.8795 94.8447 60.9107 94.952 61.0111 95.0385C61.1772 95.1908 61.5787 95.2981 61.8314 95.3673L61.7933 95.6719L61.4887 98.0463L61.4506 98.3474L61.1668 98.3059L60.5057 98.209L60.8034 98.0013L60.1908 100.376L60.0523 100.126L61.0491 100.493L61.2187 100.556C60.973 101.497 60.7411 102.442 60.5092 103.387L60.3465 103.332L59.5331 103.051L59.7235 102.954C59.637 103.231 59.5331 103.494 59.4397 103.757C59.3358 104.103 58.8686 105.384 59.4189 105.45L59.6266 105.467C59.727 105.467 59.8758 105.529 59.9208 105.637L59.9519 105.609Z" fill="white"/>
<path d="M32.7574 115.743C20.7815 111.407 18.5802 96.5925 26.4752 87.2749C30.7325 82.083 37.7277 78.4522 44.4874 80.3109C49.077 81.4946 52.7078 85.3366 54.255 89.7531C56.7125 96.4021 55.3418 104.141 51.043 109.707C46.9103 115.169 39.3025 117.976 32.7574 115.743ZM32.8439 115.48C41.4658 118.225 49.1393 110.244 51.5241 102.625C52.7528 98.7523 53.009 94.5019 51.7802 90.6046C50.5688 86.7453 47.8275 83.2702 44.0098 81.7508C40.0917 80.1309 35.3983 81.0135 32.0028 83.5091C26.8387 87.2714 24.5231 93.8512 24.2497 100.023C23.9451 106.225 26.3783 113.407 32.8404 115.484L32.8439 115.48Z" fill="white"/>
<path d="M0 155.648L19.7532 125.4L33.6881 128.221L47.2941 121.191L57.882 127.415L71.3773 117.1L77.8533 103.733L91.6774 103.273L102.376 112.777L102.265 109.493L105.394 99.5242L119.329 102.345L143.305 94.9692L153.235 81.4878L159.818 71.4052C159.818 71.4052 166.512 64.6074 166.731 71.1733C166.949 77.7427 174.082 84.0802 174.082 84.0802L181.216 90.4177L185.22 106.724L161.684 127.235C161.684 127.235 154.879 130.751 148.078 134.265C141.273 137.781 131.014 141.408 131.125 144.693C131.236 147.978 114.172 155.122 107.26 155.354C100.348 155.586 79.3901 149.708 75.9323 149.823C72.4745 149.937 62.2155 153.568 55.4142 157.084C48.6129 160.601 27.9805 164.574 27.9805 164.574C27.9805 164.574 7.35164 168.551 0 155.644L0 155.648Z" fill="white"/>
</svg>
