<svg width="218" height="88" viewBox="0 0 218 88" fill="none" xmlns="http://www.w3.org/2000/svg">
<path d="M38.151 14.5326C22.7486 10.3999 6.28699 21.8496 1.3859 40.111C-3.51519 58.3725 4.99596 76.53 20.3984 80.6627C35.8008 84.7989 52.2624 73.3457 57.1635 55.0843C62.0646 36.8229 53.5534 18.6653 38.151 14.5326ZM51.3279 53.5198C46.8075 70.3517 32.2842 81.0815 18.8893 77.4853C5.49437 73.8891 -1.70151 57.3272 2.81539 40.4952C7.33574 23.6633 21.859 12.9335 35.254 16.5297C48.6489 20.1259 55.8482 36.6879 51.3279 53.5198Z" fill="white"/>
<path d="M35.4136 49.5408C36.759 44.5302 34.6169 39.6004 30.6292 38.5296C26.6414 37.4589 22.318 40.6527 20.9727 45.6632C19.6273 50.6738 21.7693 55.6037 25.7571 56.6744C29.7449 57.7452 34.0682 54.5513 35.4136 49.5408Z" fill="white"/>
<path d="M137.142 17.1908C132.725 16.0036 128.001 19.2883 126.596 24.5286C125.19 29.7654 127.631 34.9745 132.05 36.1617C136.467 37.3489 141.192 34.0642 142.597 28.8239C144.002 23.5871 141.562 18.378 137.142 17.1908ZM140.922 28.374C139.627 33.2024 135.46 36.2794 131.618 35.248C127.776 34.2165 125.71 29.4677 127.007 24.6393C128.302 19.8109 132.469 16.7339 136.311 17.7653C140.153 18.7968 142.22 23.5456 140.922 28.374Z" fill="white"/>
<path d="M136.884 27.2349C137.269 25.7986 136.654 24.385 135.509 24.0777C134.365 23.7703 133.124 24.6856 132.739 26.1219C132.353 27.5582 132.968 28.9717 134.113 29.2791C135.257 29.5864 136.498 28.6712 136.884 27.2349Z" fill="white"/>
<path d="M60.95 44.794L63.944 38.2904C65.2765 35.3899 69.7519 33.597 73.2996 34.5384L89.2143 38.768L132.677 22.0469C133.833 21.6004 134.622 22.6249 133.591 23.2375L92.3571 47.6945L60.9465 44.794H60.95Z" fill="white"/>
<path d="M76.8198 54.5166L129.586 42.295C130.209 42.1497 130.86 42.1566 131.479 42.3158L189.863 57.2787C190.289 57.3894 190.175 58.0228 189.735 57.9744L132.061 51.5815L95.0916 61.5671L76.8682 57.9155C75.0338 57.5486 74.9957 54.9423 76.8163 54.5201L76.8198 54.5166Z" fill="white"/>
<path d="M136.993 27.841C145.12 30.0112 152.956 32.9601 160.73 36.1098C168.48 39.3218 176.126 42.7277 183.436 46.895C175.305 44.7317 167.469 41.7828 159.699 38.6261C151.953 35.4107 144.303 32.0048 136.993 27.841Z" fill="white"/>
<path d="M38.4382 50.8961C47.1051 52.8344 56.582 55.2158 65.2073 57.4759C74.0923 59.7846 82.9461 62.2213 91.7791 64.7203L91.1284 64.6407C112.643 63.4154 134.297 62.602 155.853 62.2559C168.715 62.0447 181.896 61.9651 194.75 62.3147C181.975 63.7338 168.829 64.748 155.995 65.6063C143.161 66.489 130.022 67.1674 117.188 67.7177C108.559 68.0638 99.9303 68.4134 91.2946 68.6107L90.9277 68.6176L90.6473 68.5276C73.1958 63.045 55.5921 57.2856 38.4417 50.8961H38.4382Z" fill="white"/>
<path d="M49.5246 14.7506C48.1678 8.36461 54.983 3.80272 60.1783 2.05826C67.2253 -0.305754 78.9727 -0.253835 84.1853 5.86214C85.0748 6.90397 86.6566 9.32337 86.2136 10.6905C85.8432 11.8258 84.8326 11.8016 83.8773 12.1927C83.77 12.3277 84.1992 13.3903 84.2476 13.6568C84.3999 14.4944 83.8496 15.3113 83.0812 15.6159C81.534 16.2285 79.6926 16.5019 78.1247 17.1146L75.1273 26.1103C75.1515 26.2522 75.1584 26.2003 75.2588 26.183C75.5115 26.1414 75.7572 26.0238 76.0237 26.0341C76.1276 25.3973 76.7021 24.7639 77.3217 24.5874C77.7959 24.4524 79.6061 24.2966 80.0457 24.4489C80.8175 24.7189 81.1602 25.2554 81.3021 26.0445C81.4233 26.7091 81.624 29.8346 81.5132 30.4161C81.4129 30.9422 80.9698 31.4821 80.4818 31.7002C79.9661 31.9321 77.9863 32.1224 77.4463 31.9425C77.0275 31.804 76.536 31.3506 76.4114 30.9249C71.3026 32.0013 66.3219 29.1146 64.1068 24.5147C63.4699 24.712 62.7534 24.6358 62.2342 24.1997C62.1339 24.1132 61.7739 23.7047 61.7462 23.6113L61.3032 22.1368L59.2126 22.7633C59.043 22.8152 58.4511 22.6802 58.2677 22.5972C57.2535 22.1403 57.2362 21.1054 56.897 20.1778C54.5123 20.3993 52.1517 19.4232 50.7361 17.4711C50.473 17.1111 50.1027 16.5227 49.94 16.1212C49.7946 15.7612 49.6112 15.1313 49.5281 14.7506H49.5246ZM60.3513 3.3043C56.8451 4.52957 52.6951 6.94551 51.1618 10.4863C49.2927 14.8025 52.3005 19.6828 57.1532 18.9006L84.926 10.5209C85.2237 10.2717 85.0229 9.73525 84.9122 9.42374C81.9044 0.832988 67.3811 0.846833 60.3513 3.3043ZM82.6347 12.5319L58.0877 19.887L58.6242 21.6765L83.1712 14.3214L82.6347 12.5319ZM68.2983 20.0428L62.4696 21.7907L62.8711 23.1302C62.9507 23.4002 63.4907 23.4105 63.7226 23.3655C65.197 23.0679 66.7615 22.3376 68.2533 22.0087C68.4264 21.9949 68.7586 21.5865 68.7206 21.455L68.2983 20.0497V20.0428ZM72.4137 18.8106L69.5686 19.662L69.4959 19.797L69.9493 21.3061C69.9597 21.3373 69.8974 21.7076 69.8835 21.7872C69.7832 22.3133 69.392 22.8152 68.8902 23.0056C68.8313 23.1129 69.572 24.0543 69.7105 24.2066C69.8074 24.3139 70.3577 24.9093 70.465 24.7743L72.4137 18.8071V18.8106ZM76.6641 17.5368L73.8882 18.3675L71.4653 25.5219C71.4757 25.8161 73.4417 26.2868 73.7809 26.2349L76.6641 17.5368ZM67.6718 23.4452L65.2732 24.1651C67.0869 27.5744 70.3543 30.0388 74.3243 29.9419C74.7085 29.9315 75.7884 29.8726 76.0999 29.7515C76.176 29.7238 76.2107 29.7169 76.1968 29.6234L76.0722 27.2836C72.6387 28.0867 69.3609 26.4945 67.6718 23.4417V23.4452ZM80.2534 30.3468C80.3157 30.243 80.3157 30.0699 80.3191 29.9488C80.3434 29.1181 80.2361 27.1279 80.0976 26.3214C80.0284 25.9199 79.9557 25.6223 79.485 25.5911C79.2565 25.5738 77.7128 25.7296 77.5536 25.8057C77.3632 25.8957 77.1833 26.1553 77.2179 26.3768L77.5017 30.4472C77.6851 30.7795 77.8236 30.8003 78.1732 30.8037C78.4535 30.8072 79.6511 30.7033 79.8795 30.6307C79.9938 30.5926 80.1945 30.4437 80.2534 30.3434V30.3468Z" fill="white"/>
<path d="M61.1126 4.34622L62.1856 4.0001C65.8233 3.09672 69.7138 2.75406 73.4242 3.31477C74.0091 3.40477 75.1133 3.40823 75.1133 4.19046C75.1133 5.08692 73.1819 4.50197 72.642 4.44659C67.2701 3.88934 61.6007 4.6958 56.9765 7.63784C56.6338 7.8559 55.6543 8.68659 55.3497 8.69698C54.8409 8.71428 54.5363 8.11203 54.8444 7.69668C55.0451 7.43017 56.0004 6.81407 56.3327 6.59947C57.821 5.64072 59.4409 4.92424 61.1126 4.34622Z" fill="white"/>
<path d="M61.6769 6.72059C64.4805 5.74799 67.6822 5.37418 70.6346 5.50917C71.3303 5.54032 73.8362 5.71338 74.3346 6.00758C74.8884 6.33294 74.7257 7.01826 74.1304 7.14286C69.1359 6.25679 63.5079 6.74136 59.0153 9.25421C58.5134 9.53457 57.9215 10.0434 57.4681 10.2614C56.6166 10.6698 56.0732 9.86685 56.7758 9.25421C57.9354 8.24699 60.2198 7.22593 61.6804 6.72059H61.6769Z" fill="white"/>
<path d="M52.4321 14.0446C53.1451 13.7538 53.377 14.8441 53.6885 15.2941C54.315 16.194 55.4468 16.6612 56.5302 16.5332C56.949 16.4813 57.4993 16.1248 57.7451 16.7374C57.9908 17.35 57.5339 17.5369 57.0113 17.6719C55.6095 18.0284 53.9447 17.4469 52.9894 16.3809C52.5809 15.924 51.5183 14.4184 52.4321 14.0446Z" fill="white"/>
<path d="M57.8557 19.8698L56.8969 20.1813L55.8655 19.7867C57.1773 29.627 68.4159 34.0054 76.8647 29.6166C68.1182 34.0193 58.2433 28.4225 57.8591 19.8733L57.8557 19.8698Z" fill="white"/>
<path d="M83.1227 11.6944C86.4178 17.5543 84.1853 25.9893 76.8613 29.6132C83.8461 26.2731 87.3073 17.9627 84.5522 11.2306L83.1227 11.6944Z" fill="white"/>
<path d="M196.845 20.4062C181.442 16.2701 164.981 27.7232 160.08 45.9846C155.178 64.2461 163.69 82.4036 179.092 86.5363C194.494 90.6725 210.956 79.2193 215.857 60.9579C220.758 42.6965 212.247 24.5389 196.845 20.4062ZM210.021 59.3934C205.501 76.2253 190.978 86.9551 177.583 83.3589C164.188 79.7627 156.989 63.2008 161.509 46.3688C166.029 29.5369 180.553 18.8071 193.948 22.4033C207.342 25.9995 214.542 42.5615 210.021 59.3934Z" fill="white"/>
<path d="M191.393 48.1583C190.13 47.5146 188.655 47.6011 187.302 48.2518C188.05 48.1791 188.794 48.2968 189.472 48.6395C191.767 49.8094 192.439 53.0941 190.971 55.9807C189.888 58.1128 187.935 59.4246 186.066 59.4939C188.472 60.4318 191.501 58.947 192.996 56.0119C194.567 52.9245 193.851 49.4079 191.393 48.1583Z" fill="white"/>
<path d="M188.185 52.3186C187.773 52.111 187.295 52.1386 186.856 52.3498C187.098 52.3255 187.34 52.3636 187.562 52.4744C188.309 52.8551 188.524 53.9212 188.05 54.8592C187.697 55.5514 187.063 55.9771 186.458 56.0014C187.24 56.306 188.223 55.8248 188.707 54.8695C189.22 53.8658 188.984 52.7236 188.188 52.3186H188.185Z" fill="white"/>
</svg>
