<svg width="216" height="139" viewBox="0 0 216 139" fill="none" xmlns="http://www.w3.org/2000/svg">
<path d="M53.2368 84.0705C46.2867 84.6796 39.2915 84.8215 32.2549 84.8423C25.2182 84.825 18.2231 84.6831 11.2729 84.0705C18.2196 83.4578 25.2182 83.3159 32.2549 83.2986C39.2915 83.3194 46.2867 83.4613 53.2368 84.0705Z" fill="white"/>
<path d="M53.2368 68.8237C46.2867 69.4329 39.2915 69.5748 32.2549 69.5956C25.2182 69.5783 18.2231 69.4364 11.2729 68.8237C18.2196 68.2111 25.2182 68.0692 32.2549 68.0519C39.2915 68.0726 46.2867 68.2146 53.2368 68.8237Z" fill="white"/>
<path d="M45.951 88.0681C41.3995 88.6773 36.8203 88.8192 32.2134 88.84C27.6065 88.8227 23.0239 88.6808 18.4758 88.0681C23.0273 87.4555 27.6065 87.3136 32.2134 87.2963C36.8203 87.3171 41.403 87.459 45.951 88.0681Z" fill="white"/>
<path d="M77.9153 58.0697L90.5107 49.1363C92.9924 47.3745 96.1075 46.7619 99.0737 47.4506L134.984 55.7922C137.199 56.3079 138.483 58.6269 137.739 60.7764L121.056 109.147C120.699 110.185 119.156 109.867 119.235 108.773L121.828 73.569C121.914 72.4026 121.181 71.3331 120.063 70.9904L77.9153 58.0662V58.0697Z" fill="white"/>
<path d="M122.32 35.0249L127.899 30.7711C130.388 28.8743 134.621 29.5562 136.756 32.1971L146.33 44.0414L187.11 51.2961C188.197 51.4899 188.249 52.7983 187.169 52.819L144.032 53.5667L122.32 35.0249Z" fill="white"/>
<path d="M125.545 107.51C140.56 97.1573 155.066 85.2472 169.261 73.3614C158.372 73.5933 146.725 73.8355 135.884 74.9224C144.07 75.7358 152.927 76.0992 161.334 76.3069C159.012 78.1794 156.516 80.2007 154.599 81.8137C144.779 89.9683 134.821 98.5106 125.545 107.513V107.51Z" fill="white"/>
<path d="M107.931 74.9224C90.6699 76.1442 73.2911 76.4281 55.812 76.4661C38.3328 76.4315 20.954 76.1477 3.69287 74.9224C20.954 73.6937 38.3328 73.4099 55.812 73.3787C73.2911 73.4168 90.6699 73.7041 107.931 74.9224Z" fill="white"/>
<path d="M58.356 79.2628C49.1457 79.872 39.8696 80.0139 30.5451 80.0347C21.2171 80.0174 11.9444 79.8755 2.73413 79.2628C11.9444 78.6502 21.2205 78.5083 30.5451 78.491C39.873 78.5117 49.1457 78.6537 58.356 79.2628Z" fill="white"/>
<path d="M70.0308 57.1179C61.4919 57.7271 52.8977 57.869 44.2516 57.8897C35.6055 57.8724 27.0112 57.7305 18.4724 57.1179C27.0112 56.5053 35.6055 56.3633 44.2516 56.346C52.8977 56.3668 61.4919 56.5087 70.0308 57.1179Z" fill="white"/>
<path d="M58.3561 63.1266C48.8343 63.7357 39.2502 63.8776 29.6107 63.8984C19.9712 63.8811 10.3836 63.7392 0.865234 63.1266C10.3836 62.5139 19.9712 62.372 29.6107 62.3547C39.2502 62.3755 48.8343 62.5174 58.3561 63.1266Z" fill="white"/>
<path d="M153.356 117.284C144.146 117.893 134.87 118.035 125.546 118.056C116.218 118.039 106.945 117.897 97.7346 117.284C106.945 116.672 116.221 116.53 125.546 116.512C134.874 116.533 144.146 116.675 153.356 117.284Z" fill="white"/>
<path d="M153.356 122.095C146.406 122.705 139.411 122.846 132.375 122.867C125.338 122.85 118.343 122.708 111.393 122.095C118.339 121.483 125.338 121.341 132.375 121.324C139.411 121.344 146.406 121.486 153.356 122.095Z" fill="white"/>
<path d="M153.356 126.093C148.805 126.702 144.225 126.844 139.618 126.865C135.012 126.848 130.429 126.706 125.881 126.093C130.432 125.481 135.012 125.339 139.618 125.321C144.225 125.342 148.808 125.484 153.356 126.093Z" fill="white"/>
<path d="M91.0335 68.8237C88.1503 70.0455 85.2463 70.3294 82.3285 70.3674C79.4072 70.3328 76.5067 70.049 73.6235 68.8237C76.5067 67.595 79.4107 67.3112 82.3285 67.28C85.2463 67.3181 88.1503 67.6054 91.0335 68.8237Z" fill="white"/>
<path d="M88.8598 100.314L86.5097 102.64C85.6409 103.498 86.6723 104.904 87.7522 104.329L89.1402 103.592L88.8598 100.314Z" fill="white"/>
<path d="M95.1558 94.0872C95.5434 95.9701 95.983 98.3341 96.2564 99.8155L116.74 88.9438L117.11 72.3715L95.1558 94.0837V94.0872Z" fill="white"/>
<path d="M158.832 30.2346C156.246 30.2346 154.896 29.4939 154.595 29.3105C153.948 29.1513 151.999 28.2513 145.582 25.1362C139.252 22.0627 134.295 21.3047 131.249 21.2112C130.73 21.1939 130.277 20.8893 130.066 20.4117C129.855 19.934 129.938 19.3872 130.277 18.9926L134.669 13.8942C150.94 -2.18665 164.283 0.821156 164.418 0.852307C180.323 3.61436 178.561 18.8749 178.54 19.0306L178.499 19.356L178.187 19.2522C171.143 16.9055 168.599 17.3693 164.709 18.3869C163.574 18.6845 162.767 19.2452 162.307 20.0552C161.532 21.4189 161.995 23.063 161.999 23.0768L164.519 29.2655L164.235 29.352C162.04 30.0131 160.248 30.2346 158.828 30.2346H158.832ZM154.845 28.8294C154.938 28.8917 157.728 30.6673 163.802 28.9194L161.497 23.2533C161.466 23.153 160.957 21.3566 161.843 19.7921C162.376 18.8472 163.297 18.2 164.578 17.8642C168.509 16.8362 171.098 16.3586 178.042 18.6326C178.232 16.3863 178.63 3.86357 164.311 1.37495C164.166 1.34034 151.086 -1.58093 135.064 14.2542L130.689 19.3387C130.481 19.581 130.433 19.8994 130.561 20.1936C130.689 20.4844 130.952 20.6609 131.267 20.6713C134.364 20.7682 139.404 21.5366 145.818 24.6517C153.567 28.414 154.613 28.7982 154.748 28.8294L154.71 29.0163L154.838 28.8294C154.838 28.8294 154.841 28.8294 154.845 28.8328V28.8294Z" fill="white"/>
<path d="M170.167 31.8821C167.038 31.8821 164.128 29.1443 164 29.0266L164.37 28.639C164.398 28.6667 167.253 31.3491 170.216 31.3491C170.289 31.3491 170.361 31.3491 170.434 31.3457C170.493 31.3457 171.971 31.4737 173.84 29.262C175.484 27.3168 177.426 23.4195 177.502 18.8264L178.038 18.8333C177.962 23.5683 175.951 27.5937 174.252 29.6081C172.178 32.0587 170.489 31.8856 170.417 31.8787C170.334 31.8821 170.254 31.8856 170.171 31.8856L170.167 31.8821Z" fill="white"/>
<path d="M160.303 25.6693C159.773 25.6693 159.344 25.2401 159.344 24.7105C159.344 24.1809 159.773 23.7517 160.303 23.7517C160.833 23.7517 161.262 24.1809 161.262 24.7105C161.262 25.2401 160.833 25.6693 160.303 25.6693ZM160.303 24.2882C160.071 24.2882 159.881 24.4786 159.881 24.7105C159.881 24.9424 160.071 25.1328 160.303 25.1328C160.535 25.1328 160.725 24.9424 160.725 24.7105C160.725 24.4786 160.535 24.2882 160.303 24.2882Z" fill="white"/>
<path d="M139.948 11.8797C139.823 11.8797 139.698 11.8313 139.608 11.7343C139.428 11.5474 139.439 11.2498 139.626 11.0698C139.705 10.9936 147.67 3.56932 160.431 2.34059C160.677 2.31636 166.502 1.77295 170.458 4.3481C170.676 4.49001 170.739 4.78075 170.597 4.99881C170.455 5.21687 170.164 5.27917 169.946 5.13726C166.26 2.74209 160.58 3.27166 160.521 3.27858C148.092 4.47616 140.346 11.6824 140.269 11.7551C140.179 11.8416 140.062 11.8832 139.948 11.8832V11.8797Z" fill="white"/>
<path d="M149.469 8.02737C149.303 8.02737 149.144 7.94084 149.057 7.78508C148.929 7.55664 149.012 7.27282 149.237 7.14476C149.424 7.04092 153.875 4.5973 161.213 4.18195C161.355 4.17503 164.702 3.99159 166.987 4.86381C167.229 4.95727 167.35 5.22724 167.257 5.46953C167.163 5.71181 166.89 5.83296 166.651 5.7395C164.557 4.9365 161.3 5.11648 161.269 5.11648C154.163 5.51798 149.743 7.93738 149.698 7.96161C149.625 8.00314 149.549 8.02045 149.469 8.02045V8.02737Z" fill="white"/>
<path d="M131.149 19.9963C131.149 19.9963 153.913 10.4744 175.567 16.9988C175.567 16.9988 162.899 14.0464 160.725 19.1483C160.725 19.1483 159.926 20.6712 160.303 23.7171C160.303 23.7171 147.919 20.0447 131.149 19.9963Z" fill="#FEFEFE"/>
<path d="M139.577 21.9276C146.129 23.4124 146.174 23.4505 153.36 26.8564C153.36 26.8564 156.655 28.4347 159.586 28.5316C162.518 28.6285 162.615 28.5316 162.615 28.5316C162.615 28.5316 150.951 23.5371 139.577 21.9276Z" fill="#FEFEFE"/>
<path d="M170.361 31.3145C166.99 37.4478 159.182 40.5594 152.546 35.5233C149.629 33.277 147.912 29.7777 147.59 26.1088L144.676 24.7762C144.489 31.5983 148.718 38.3788 156.278 39.6249C162.83 40.639 168.295 36.7105 170.732 31.2937L170.358 31.318L170.361 31.3145Z" fill="white"/>
<path d="M85.7621 84.6796C74.4093 75.985 56.8505 79.8512 46.543 93.3119C36.2354 106.773 37.0834 124.733 48.4362 133.424C59.7891 142.119 77.3478 138.252 87.6554 124.792C97.9629 111.331 97.1149 93.3707 85.7621 84.6796ZM70.6054 112.342C71.2457 111.508 71.2249 110.417 70.5604 109.908C70.3631 109.76 70.1346 109.677 69.8889 109.656C70.3596 109.528 70.8338 109.587 71.2007 109.867C71.9103 110.41 71.9345 111.577 71.2492 112.47C70.5985 113.321 69.5428 113.615 68.8298 113.172C69.432 113.259 70.1312 112.954 70.6054 112.338V112.342ZM75.1638 114.373C73.1598 116.99 69.9131 117.9 67.7187 116.54C69.5705 116.81 71.7233 115.872 73.1805 113.975C75.15 111.404 75.0877 108.05 73.0386 106.485C72.4364 106.022 71.7233 105.772 70.9757 105.71C72.4225 105.315 73.8901 105.499 75.015 106.361C77.2025 108.036 77.2717 111.625 75.1638 114.373Z" fill="white"/>
<path d="M205.87 80.5365C193.711 71.2258 174.906 75.3654 163.865 89.7814C152.827 104.197 153.734 123.431 165.893 132.742C178.052 142.053 196.857 137.913 207.898 123.497C218.936 109.081 218.029 89.8472 205.87 80.5365ZM170.344 126.927C163.792 121.912 161.449 113.186 163.48 104.575L184.334 109.701L192.309 128.433C184.86 131.918 176.505 131.645 170.344 126.927ZM186.428 106.575C186.314 106.489 186.183 106.44 186.041 106.43C186.314 106.357 186.588 106.392 186.802 106.551C187.214 106.866 187.228 107.541 186.83 108.06C186.453 108.552 185.843 108.725 185.428 108.469C185.778 108.52 186.183 108.344 186.456 107.987C186.826 107.503 186.816 106.873 186.428 106.579V106.575ZM188 108.929C189.138 107.441 189.104 105.499 187.92 104.589C187.571 104.322 187.159 104.177 186.726 104.139C187.564 103.91 188.415 104.017 189.066 104.516C190.333 105.485 190.374 107.565 189.152 109.157C187.993 110.673 186.113 111.199 184.84 110.414C185.913 110.57 187.159 110.026 188.003 108.929H188ZM202.994 119.742C200.775 122.642 198.148 124.999 195.313 126.789L189.976 108.091L203.53 88.5008L202.98 87.6978C202.592 87.3274 202.184 86.9709 201.762 86.6317L184.445 102.816L164.405 101.494C165.401 98.7391 166.852 96.0462 168.773 93.5368C177.353 82.3329 191.97 79.1139 201.419 86.3513C201.537 86.4413 201.647 86.5382 201.762 86.6317L202.059 86.3548L202.98 87.7012C210.916 95.3263 211.072 109.195 202.994 119.745V119.742Z" fill="white"/>
<path d="M153.685 62.912C166.087 61.3648 178.595 61.3094 191.066 61.7974L190.277 62.1228C192.728 59.8903 195.22 57.7097 197.791 55.6192C198.532 55.0134 199.647 54.1343 200.412 53.5667C199.858 54.335 198.958 55.4288 198.359 56.1868C196.182 58.8658 193.908 61.4617 191.579 64.0057L191.07 64.0299C178.599 64.518 166.09 64.4591 153.689 62.9154L153.685 62.912Z" fill="white"/>
</svg>
