<svg width="87" height="89" viewBox="0 0 87 89" fill="none" xmlns="http://www.w3.org/2000/svg">
<g clip-path="url(#clip0_2188_2836)">
<path d="M59.4215 49.4833L83.9382 35.6001L85.7154 6.85849H70.6661V1.18945H16.3416V6.85849H1.28418L3.06134 35.6001L27.5781 49.4833C29.6137 52.0126 31.8836 54.2961 34.3878 56.2466L38.9761 59.8224L38.9519 66.9821C30.1388 68.4489 22.8363 74.1338 19.1285 81.8167H13.5143V87.8108H73.4772V81.8167H67.8307C64.1229 74.1258 56.8204 68.4409 48.0073 66.9821L47.9831 59.8224L52.5714 56.2466C55.0755 54.2961 57.3455 52.0126 59.3811 49.4833H59.4215ZM70.6661 15.929V14.9775H76.9265L75.9491 30.7478L67.1521 35.727C69.4301 29.5981 70.6661 22.8666 70.6661 15.921V15.929ZM11.0586 30.7478L10.0811 14.9775H16.3416V15.929C16.3416 22.8745 17.5775 29.606 19.8555 35.7349L11.0586 30.7557V30.7478ZM43.4998 33.3722L35.8418 38.8668L38.7984 30.0183L31.1081 24.5713L40.5998 24.5951L43.5079 15.7307L46.4159 24.5951L55.9076 24.5713L48.2093 30.0183L51.1658 38.8668L43.5079 33.3722H43.4998Z" stroke="white" stroke-width="3" stroke-miterlimit="10"/>
</g>
<defs>
<clipPath id="clip0_2188_2836">
<rect width="87" height="89" fill="white"/>
</clipPath>
</defs>
</svg>
